<svg width="44" height="46" viewBox="0 0 44 46" fill="none" xmlns="http://www.w3.org/2000/svg">
<path fill-rule="evenodd" clip-rule="evenodd" d="M38.3949 29.1135C38.8834 29.1135 39.2801 29.5007 39.2801 29.9783C39.2801 30.4567 38.8834 30.8438 38.3949 30.8438C37.9065 30.8438 37.5097 30.4567 37.5097 29.9783C37.5097 29.5007 37.9065 29.1135 38.3949 29.1135Z" fill="#F05442"/>
<path fill-rule="evenodd" clip-rule="evenodd" d="M4.71284 29.1135C5.20132 29.1135 5.59806 29.5007 5.59806 29.9783C5.59806 30.4567 5.20132 30.8438 4.71284 30.8438C4.22437 30.8438 3.82762 30.4567 3.82762 29.9783C3.82762 29.5007 4.22437 29.1135 4.71284 29.1135Z" fill="#F05442"/>
<mask id="mask0" mask-type="alpha" maskUnits="userSpaceOnUse" x="0" y="0" width="44" height="46">
<path fill-rule="evenodd" clip-rule="evenodd" d="M0 22.876V45.0228H43.9396V22.876V0.729126H0V22.876Z" fill="white"/>
</mask>
<g mask="url(#mask0)">
<path fill-rule="evenodd" clip-rule="evenodd" d="M26.312 18.2102C25.8235 18.2102 25.4268 18.5974 25.4268 19.0757V43.292H22.2752V31.2542C22.2752 30.7766 21.8792 30.3894 21.39 30.3894C20.9015 30.3894 20.5055 30.7766 20.5055 31.2542V43.292H17.8006V19.0757C17.8006 18.5974 17.4046 18.2102 16.9161 18.2102C16.4277 18.2102 16.0309 18.5974 16.0309 19.0757V30.1175C14.4327 29.976 13.1776 28.708 13.1776 27.1687V18.784C13.1776 17.2863 13.6228 15.8287 14.4656 14.5687C16.01 12.2594 18.6538 10.8813 21.5399 10.8813C24.4297 10.8813 27.0764 12.2631 28.6194 14.5782C29.4584 15.836 29.9014 17.2907 29.9014 18.784V27.1687C29.9014 28.6599 28.7238 29.8958 27.1972 30.1014V19.0757C27.1972 18.5974 26.8012 18.2102 26.312 18.2102ZM17.8379 5.80558C17.8379 3.96079 19.3734 2.45944 21.2602 2.45944C23.1462 2.45944 24.681 3.96079 24.681 5.80558C24.681 7.64965 23.1462 9.151 21.2602 9.151C19.3734 9.151 17.8379 7.64965 17.8379 5.80558ZM43.0544 43.292H35.4558L35.4096 22.0303C35.4081 21.5527 35.0128 21.1669 34.5243 21.1669H34.5228C34.0336 21.1677 33.6384 21.5563 33.6399 22.0339L33.6861 43.292H31.1155L31.0931 33.8326C31.0916 33.3557 30.6956 32.9692 30.2086 32.9692H30.2064C29.7172 32.9707 29.3219 33.3586 29.3234 33.8362L29.3458 43.292H27.1972V31.8419C29.7022 31.6254 31.6718 29.6121 31.6718 27.1687V18.784C31.6718 17.4504 31.3824 16.1437 30.8291 14.9362C32.5764 15.0507 34.2029 15.7456 35.4543 16.9276C36.8243 18.2204 37.5805 19.9398 37.5842 21.7692L37.6006 26.6933C37.6021 27.1702 37.9981 27.5559 38.4851 27.5559H38.4881C38.9765 27.5544 39.3718 27.1658 39.3703 26.6875L39.3539 21.7649C39.3494 19.4636 38.4008 17.3038 36.6841 15.6821C35.7034 14.7568 34.5385 14.0707 33.2692 13.6551C34.1679 12.818 34.7294 11.6375 34.7264 10.3308C34.7205 7.80933 32.6212 5.76183 30.0438 5.76183H30.0341C29.2831 5.76402 28.5366 5.9434 27.8751 6.28173C27.4418 6.5034 27.2748 7.02621 27.5015 7.44986C27.7282 7.8735 28.2629 8.03683 28.6962 7.81517C29.1123 7.60225 29.5635 7.49361 30.0378 7.49288C31.6464 7.49215 32.953 8.76381 32.9567 10.3337C32.9605 11.9043 31.6561 13.1848 30.0505 13.1877C30.0125 13.1877 29.9752 13.1913 29.9379 13.1957C29.8909 13.1979 29.8439 13.1993 29.7969 13.2023C28.518 11.4909 26.7237 10.2499 24.6795 9.61985C25.7646 8.68944 26.4515 7.32444 26.4515 5.80558C26.4515 3.00631 24.1224 0.729126 21.2602 0.729126C18.3972 0.729126 16.0682 3.00631 16.0682 5.80558C16.0682 7.39808 16.8237 8.82142 18.0012 9.75256C16.1249 10.4146 14.4805 11.601 13.2865 13.1971C13.1463 13.1906 13.0061 13.1869 12.8666 13.1869C12.8003 13.1869 12.7346 13.1884 12.669 13.1899C12.6526 13.1891 12.6369 13.1869 12.6205 13.1869C11.0142 13.1869 9.70759 11.9094 9.70759 10.3395C9.70759 8.76965 11.0142 7.49215 12.6205 7.49215C13.106 7.49215 13.5856 7.611 14.0084 7.83558C14.438 8.06381 14.9749 7.9085 15.2091 7.4885C15.4425 7.06923 15.2837 6.5435 14.8541 6.31527C14.1725 5.95288 13.3999 5.76111 12.6198 5.76111C10.038 5.76111 7.9379 7.81517 7.9379 10.3395C7.9379 11.714 8.56136 12.9485 9.54576 13.7885C6.20027 15.05 3.828 18.1584 3.828 21.7838V26.6904C3.828 27.1687 4.224 27.5559 4.71322 27.5559C5.20169 27.5559 5.59769 27.1687 5.59769 26.6904V21.7838C5.59769 18.1949 8.5278 15.2432 12.2469 14.9442C11.6958 16.1495 11.4079 17.4533 11.4079 18.784V27.1687C11.4079 29.661 13.4558 31.7049 16.0309 31.8521V43.292H13.6199V33.834C13.6199 33.3564 13.2239 32.9685 12.7346 32.9685C12.2462 32.9685 11.8502 33.3564 11.8502 33.834V43.292H9.67478V22.0405C9.67478 21.5629 9.27878 21.1757 8.78956 21.1757C8.30108 21.1757 7.90508 21.5629 7.90508 22.0405V43.292H0.88522C0.396746 43.292 0 43.68 0 44.1576C0 44.6352 0.396 45.0231 0.88522 45.0231H43.0544C43.5428 45.0231 43.9396 44.6352 43.9396 44.1576C43.9388 43.68 43.5428 43.292 43.0544 43.292Z" fill="#F05442"/>
</g>
</svg>
