<svg width="34" height="34" viewBox="0 0 34 34" fill="none" xmlns="http://www.w3.org/2000/svg">
<mask id="mask0" mask-type="alpha" maskUnits="userSpaceOnUse" x="0" y="0" width="34" height="33">
<path fill-rule="evenodd" clip-rule="evenodd" d="M0 32.5117H33.8579V0.548447H0V32.5117Z" fill="white"/>
</mask>
<g mask="url(#mask0)">
<path fill-rule="evenodd" clip-rule="evenodd" d="M29.9077 14.4676C28.5076 14.4676 27.3683 13.3467 27.3683 11.9692V11.0671H32.4471V11.9692C32.4471 13.3467 31.3079 14.4676 29.9077 14.4676ZM29.2021 31.1238H13.1195V19.3252C13.1195 18.9424 12.8041 18.6315 12.4145 18.6315H6.77157C6.38197 18.6315 6.06593 18.9424 6.06593 19.3252V31.1238H4.65521V15.7925C5.70364 15.6055 6.60826 15.0111 7.19462 14.1819C7.90862 15.1926 9.09639 15.8556 10.4391 15.8556C11.7818 15.8556 12.9696 15.1926 13.6842 14.1819C14.3982 15.1926 15.5859 15.8556 16.9287 15.8556C18.2719 15.8556 19.4591 15.1926 20.1737 14.1819C20.8877 15.1926 22.0755 15.8556 23.4182 15.8556C24.7615 15.8556 25.9487 15.1926 26.6632 14.1819C27.249 15.0111 28.1542 15.6055 29.2021 15.7925V31.1238ZM11.7094 24.8771H11.0037C10.6141 24.8771 10.2981 25.188 10.2981 25.5714C10.2981 25.9547 10.6141 26.2656 11.0037 26.2656H11.7094V31.1238H7.47666V20.0195H11.7094V24.8771ZM1.41072 11.9692V11.0671H3.31974C3.70934 11.0671 4.02538 10.7561 4.02538 10.3728C4.02538 9.98948 3.70934 9.67909 3.31974 9.67909H1.8059L4.40216 4.71235H8.21518L6.51462 10.1885C6.4979 10.2483 6.48898 10.3103 6.48898 10.3728V11.9692C6.48898 13.3467 5.35026 14.4676 3.95013 14.4676C2.55 14.4676 1.41072 13.3467 1.41072 11.9692ZM12.5349 11.0671H12.9785V11.9692C12.9785 13.3467 11.8392 14.4676 10.4391 14.4676C9.03898 14.4676 7.8997 13.3467 7.8997 11.9692V10.4671L9.6783 4.71235H13.5593L13.0404 9.67909H12.5349C12.1452 9.67909 11.8292 9.98948 11.8292 10.3728C11.8292 10.7561 12.1452 11.0671 12.5349 11.0671ZM17.024 9.67909H14.4572L14.9762 4.71235H18.8811L19.4681 10.4046V11.9692C19.4681 13.3467 18.3293 14.4676 16.9287 14.4676C15.5285 14.4676 14.3892 13.3467 14.3892 11.9692V11.0671H17.024C17.413 11.0671 17.729 10.7561 17.729 10.3728C17.729 9.98948 17.413 9.67909 17.024 9.67909ZM4.65521 3.32438H29.2021V1.93641H4.65521V3.32438ZM20.876 10.3092L20.298 4.71235H24.179L25.7369 9.67909H23.0932C22.7042 9.67909 22.3882 9.98948 22.3882 10.3728C22.3882 10.7561 22.7042 11.0671 23.0932 11.0671H25.9576V11.9692C25.9576 13.3467 24.8183 14.4676 23.4182 14.4676C22.0181 14.4676 20.8788 13.3467 20.8788 11.9692V10.3728C20.8788 10.352 20.8777 10.3306 20.876 10.3092ZM32.052 9.67909H27.2L25.6427 4.71235H29.4557L32.052 9.67909ZM33.8579 11.9692V10.3728C33.8579 10.3481 33.8562 10.3234 33.854 10.2993C33.8534 10.2949 33.8523 10.2911 33.8517 10.2862C33.8495 10.2664 33.8462 10.2467 33.8423 10.2269C33.8411 10.222 33.8395 10.2171 33.8378 10.2121C33.8333 10.1935 33.8283 10.1748 33.8222 10.1567C33.8205 10.1507 33.8183 10.1452 33.8161 10.1392C33.8094 10.1222 33.8032 10.1063 33.796 10.0904C33.7954 10.0876 33.7943 10.0854 33.7932 10.0827L30.6134 3.86674V1.24216C30.6134 0.859382 30.2973 0.548447 29.9077 0.548447H3.95013C3.56052 0.548447 3.24449 0.859382 3.24449 1.24216V3.86674L0.0646557 10.0827C0.063541 10.0854 0.0624262 10.0876 0.0613115 10.0904C0.0540656 10.1063 0.0479344 10.1222 0.0418033 10.1392C0.0395738 10.1452 0.0373443 10.1507 0.0351148 10.1567C0.0289836 10.1748 0.0239672 10.1935 0.0195082 10.2121C0.0183934 10.2171 0.0167213 10.222 0.0156066 10.2269C0.0111475 10.2467 0.00836066 10.2664 0.00557377 10.2862C0.00501639 10.2911 0.00445902 10.2949 0.00390164 10.2993C0.00111475 10.3234 0 10.3481 0 10.3728V11.9692C0 13.8753 1.4018 15.464 3.24449 15.7925V31.1238H0.705082C0.315475 31.1238 0 31.4342 0 31.8175C0 32.2008 0.315475 32.5117 0.705082 32.5117H3.95013H6.77157H12.4145H29.9077H33.1528C33.5424 32.5117 33.8579 32.2008 33.8579 31.8175C33.8579 31.4342 33.5424 31.1238 33.1528 31.1238H30.6134V15.7925C32.4555 15.464 33.8579 13.8753 33.8579 11.9692Z" fill="#F05442"/>
</g>
<path fill-rule="evenodd" clip-rule="evenodd" d="M26.3812 24.8775H22.4411L26.3812 21.0009V24.8775ZM15.942 24.8775V20.0193H21.3932L21.0905 20.3176C20.8152 20.5885 20.8152 21.0278 21.0905 21.2993C21.2282 21.4342 21.4088 21.5022 21.5888 21.5022C21.77 21.5022 21.95 21.4342 22.0877 21.2987L23.388 20.0193H25.3835L20.4462 24.8775H15.942ZM27.0862 18.6313H15.2364C14.8468 18.6313 14.5308 18.9423 14.5308 19.3256V25.5717C14.5308 25.9551 14.8468 26.2654 15.2364 26.2654H27.0862C27.4758 26.2654 27.7919 25.9545 27.7919 25.5712V19.3256C27.7919 19.3026 27.7908 19.2795 27.788 19.2565C27.7874 19.2472 27.7857 19.2379 27.7841 19.2285C27.7824 19.2154 27.7807 19.2028 27.7779 19.1896C27.7757 19.1786 27.7729 19.1677 27.7701 19.1573C27.7674 19.1457 27.7646 19.1348 27.7612 19.1238C27.7579 19.1134 27.754 19.1024 27.7501 19.0925C27.7462 19.0816 27.7423 19.0706 27.7378 19.0596C27.7339 19.0498 27.7289 19.0404 27.7244 19.0311C27.7194 19.0202 27.7144 19.0092 27.7083 18.9982C27.7038 18.9889 27.6977 18.9807 27.6927 18.9719C27.686 18.9615 27.6798 18.9505 27.6726 18.9395C27.6665 18.9308 27.6592 18.922 27.6525 18.9127C27.6458 18.9033 27.6392 18.894 27.6319 18.8853C27.6191 18.8704 27.6057 18.8562 27.5918 18.8419C27.5895 18.8397 27.5879 18.837 27.5851 18.8348C27.5829 18.8326 27.5806 18.8304 27.5778 18.8282C27.5639 18.8145 27.5489 18.8013 27.5333 18.7887C27.5249 18.7816 27.5154 18.7756 27.5065 18.769C27.497 18.7619 27.4875 18.7547 27.4781 18.7482C27.4675 18.7416 27.4569 18.7355 27.4463 18.7295C27.4374 18.724 27.4279 18.7185 27.419 18.7136C27.4078 18.7081 27.3967 18.7032 27.3861 18.6977C27.3761 18.6933 27.3666 18.6884 27.3566 18.6845C27.3454 18.6802 27.3348 18.6763 27.3237 18.673C27.3131 18.6686 27.3019 18.6648 27.2908 18.6615C27.2802 18.6582 27.2691 18.656 27.2585 18.6533C27.2468 18.6505 27.2356 18.6473 27.2239 18.6451C27.2116 18.6429 27.1988 18.6412 27.186 18.6396C27.176 18.6379 27.1659 18.6363 27.1559 18.6352C27.1331 18.633 27.1096 18.6313 27.0862 18.6313Z" fill="#F05442"/>
<path fill-rule="evenodd" clip-rule="evenodd" d="M19.4526 21.9284L19.1455 22.2306C18.8701 22.5015 18.8701 22.9407 19.1455 23.2122C19.2831 23.3476 19.4637 23.4151 19.6443 23.4151C19.8244 23.4151 20.0055 23.3476 20.1432 23.2122L20.4503 22.91C20.7256 22.6386 20.7256 22.1993 20.4503 21.9284C20.1744 21.6575 19.7279 21.6575 19.4526 21.9284Z" fill="#F05442"/>
</svg>
