<svg width="44" height="44" viewBox="0 0 44 44" fill="none" xmlns="http://www.w3.org/2000/svg">
<mask id="mask0" mask-type="alpha" maskUnits="userSpaceOnUse" x="0" y="0" width="44" height="44">
<path fill-rule="evenodd" clip-rule="evenodd" d="M0 43.8164H43.8168V0.000366211H0V43.8164Z" fill="white"/>
</mask>
<g mask="url(#mask0)">
<path fill-rule="evenodd" clip-rule="evenodd" d="M18.3141 42.1048H25.5027V26.7004H18.3141V42.1048ZM39.1953 42.1048V35.3446C39.1953 34.8714 38.8123 34.4884 38.3391 34.4884C37.8674 34.4884 37.4837 34.8714 37.4837 35.3446V42.1048H27.2144V25.845C27.2144 25.3725 26.8313 24.9895 26.3582 24.9895H17.4586C16.9854 24.9895 16.6024 25.3725 16.6024 25.845V42.1048H6.33312V22.7642H6.66204C6.88925 22.7642 7.10709 22.6741 7.26722 22.5132L21.9084 7.87276L36.5489 22.5132C36.7097 22.6741 36.9275 22.7642 37.1548 22.7642H37.4837V29.1825C37.4837 29.6549 37.8674 30.0379 38.3391 30.0379C38.8123 30.0379 39.1953 29.6549 39.1953 29.1825V22.7642H42.9606C43.3068 22.7642 43.6192 22.5558 43.7512 22.2355C43.8839 21.916 43.8103 21.5481 43.5658 21.3029L22.5136 0.250659C22.1796 -0.0833087 21.6379 -0.0833087 21.3032 0.250659L13.2584 8.29545C12.9245 8.62941 12.9245 9.17112 13.2584 9.50508C13.5931 9.83977 14.1348 9.83977 14.4695 9.50508L21.9084 2.0662L40.8948 21.0526H37.5089L22.5136 6.05722C22.1796 5.72253 21.6379 5.72253 21.3032 6.05722L6.30787 21.0526H2.92204L9.6764 14.2982C10.0104 13.9635 10.0104 13.4218 9.6764 13.0878C9.34243 12.7532 8.80072 12.7532 8.46604 13.0878L0.25102 21.3029C0.00577405 21.5481 -0.0670784 21.916 0.0649216 22.2355C0.197643 22.5558 0.509971 22.7642 0.855479 22.7642H4.62145V42.1048H0.855479C0.38302 42.1048 3.57478e-06 42.4878 3.57478e-06 42.961C3.57478e-06 43.4334 0.38302 43.8164 0.855479 43.8164H5.47692H17.4586H26.3582H38.3391H42.9606C43.4331 43.8164 43.8168 43.4334 43.8168 42.961C43.8168 42.4878 43.4331 42.1048 42.9606 42.1048H39.1953Z" fill="#F05442"/>
<path fill-rule="evenodd" clip-rule="evenodd" d="M30.8087 33.5471H33.8894V26.7012H30.8087V33.5471ZM34.7449 24.9895H29.9525C29.48 24.9895 29.097 25.3725 29.097 25.845V34.4026C29.097 34.8758 29.48 35.2588 29.9525 35.2588H34.7449C35.218 35.2588 35.6011 34.8758 35.6011 34.4026V25.845C35.6011 25.3725 35.218 24.9895 34.7449 24.9895Z" fill="#F05442"/>
<path fill-rule="evenodd" clip-rule="evenodd" d="M9.92743 33.5471H13.0082V26.7012H9.92743V33.5471ZM13.8636 24.9895H9.07123C8.59878 24.9895 8.21576 25.3725 8.21576 25.845V34.4026C8.21576 34.8758 8.59878 35.2588 9.07123 35.2588H13.8636C14.3361 35.2588 14.7198 34.8758 14.7198 34.4026V25.845C14.7198 25.3725 14.3361 24.9895 13.8636 24.9895Z" fill="#F05442"/>
<path fill-rule="evenodd" clip-rule="evenodd" d="M21.9084 20.2241C20.6815 20.2241 19.6832 19.2258 19.6832 17.9988C19.6832 16.7719 20.6815 15.7743 21.9084 15.7743C23.1354 15.7743 24.1329 16.7719 24.1329 17.9988C24.1329 19.2258 23.1354 20.2241 21.9084 20.2241ZM21.9084 14.0626C19.738 14.0626 17.9715 15.8284 17.9715 17.9988C17.9715 20.17 19.738 21.9357 21.9084 21.9357C24.0788 21.9357 25.8453 20.17 25.8453 17.9988C25.8453 15.8284 24.0788 14.0626 21.9084 14.0626Z" fill="#F05442"/>
<path fill-rule="evenodd" clip-rule="evenodd" d="M20.8874 33.7978C20.7279 33.6384 20.5072 33.5468 20.2822 33.5468C20.0571 33.5468 19.8364 33.6384 19.677 33.7978C19.5183 33.9572 19.4267 34.1779 19.4267 34.4029C19.4267 34.628 19.5183 34.8487 19.677 35.0081C19.8364 35.1668 20.0571 35.2584 20.2822 35.2584C20.5072 35.2584 20.7279 35.1668 20.8874 35.0081C21.0468 34.8487 21.1384 34.628 21.1384 34.4029C21.1384 34.1779 21.0468 33.9572 20.8874 33.7978Z" fill="#F05442"/>
<path fill-rule="evenodd" clip-rule="evenodd" d="M11.9872 10.777C11.8278 10.6176 11.6071 10.526 11.382 10.526C11.157 10.526 10.9363 10.6176 10.7768 10.777C10.6182 10.9364 10.5266 11.1571 10.5266 11.3822C10.5266 11.6072 10.6182 11.828 10.7768 11.9867C10.9363 12.1461 11.157 12.2377 11.382 12.2377C11.6071 12.2377 11.8278 12.1461 11.9872 11.9867C12.1466 11.828 12.2382 11.6072 12.2382 11.3822C12.2382 11.1571 12.1466 10.9364 11.9872 10.777Z" fill="#F05442"/>
<path fill-rule="evenodd" clip-rule="evenodd" d="M38.9445 31.4297C38.7851 31.271 38.5644 31.1787 38.3393 31.1787C38.1143 31.1787 37.8935 31.2703 37.7341 31.4297C37.5754 31.5899 37.4838 31.8099 37.4838 32.0349C37.4838 32.26 37.5754 32.4807 37.7341 32.6408C37.8935 32.7995 38.1143 32.8904 38.3393 32.8904C38.5644 32.8904 38.7851 32.7995 38.9445 32.6408C39.1039 32.4807 39.1955 32.2607 39.1955 32.0349C39.1955 31.8099 39.1039 31.5891 38.9445 31.4297Z" fill="#F05442"/>
</g>
</svg>
