<?xml version="1.0" encoding="UTF-8"?>
<svg width="52px" height="45px" viewBox="0 0 52 45" version="1.1" xmlns="http://www.w3.org/2000/svg" xmlns:xlink="http://www.w3.org/1999/xlink">
    <!-- Generator: sketchtool 60.1 (101010) - https://sketch.com -->
    <title>ADC115A2-7B74-4805-AC2A-41006BD34909</title>
    <desc>Created with sketchtool.</desc>
    <g id="BUENAS" stroke="none" stroke-width="1" fill="none" fill-rule="evenodd">
        <g id="TRAMITES-1--desktop" transform="translate(-145.000000, -606.000000)" fill="#FA9902" fill-rule="nonzero">
            <g id="warning-full" transform="translate(145.000000, 606.000000)">
                <path d="M50.63,37.83 L29.23,2.46 C27.55,-0.6 23.65,-0.8 21.97,2.46 L0.57,37.83 C-0.8,40.55 0.5,44.9 4.2,44.9 L47,44.9 C50.6,44.9 52.25,40.55 50.63,37.83 Z M22.4,36.1 C22.4,31.85 28.8,31.9 28.8,36.1 C28.8,40.25 22.4,40.35 22.4,36.1 Z M28.8,25.7 C28.8,29.95 22.4,29.75 22.4,25.7 C22.4,23.66 22.4,17.34 22.4,15.3 C22.4,11 28.8,10.95 28.8,15.3 C28.8,17.34 28.8,23.66 28.8,25.7 Z" id="Shape"></path>
            </g>
        </g>
    </g>
</svg>