<svg width="44" height="44" viewBox="0 0 44 44" fill="none" xmlns="http://www.w3.org/2000/svg">
<path fill-rule="evenodd" clip-rule="evenodd" d="M1.71886 42.2812H42.2819V40.5623H1.71886V42.2812ZM3.60938 38.8442H40.3906V37.1254H3.60938V38.8442ZM4.98418 34.0455C4.98418 33.7536 5.22176 33.5153 5.5144 33.5153H8.92386C9.21505 33.5153 9.45335 33.7536 9.45335 34.0455V35.4065H4.98418V34.0455ZM9.45335 15.9843V17.3454C9.45335 17.6373 9.21505 17.8748 8.92314 17.8748H5.5144C5.22176 17.8748 4.98418 17.6373 4.98418 17.3454V15.9843H9.45335ZM17.7318 11.8593C18.2063 11.8593 18.5909 11.4747 18.5909 11.0002C18.5909 10.5258 18.2063 10.1404 17.7318 10.1404H5.4311L22.0004 1.82151L38.5689 10.1404H26.555C26.0806 10.1404 25.6952 10.5258 25.6952 11.0002C25.6952 11.4747 26.0806 11.8593 26.555 11.8593H40.3913V14.2655H3.60938V11.8593H17.7318ZM39.0158 17.3454C39.0158 17.6373 38.7782 17.8748 38.4863 17.8748H35.0769C34.785 17.8748 34.5474 17.6373 34.5474 17.3454V15.9843H39.0158V17.3454ZM24.6927 34.0455C24.6927 33.7536 24.9303 33.5153 25.2229 33.5153H28.6317C28.9236 33.5153 29.1619 33.7536 29.1619 34.0455V35.4065H24.6935V34.0455H24.6927ZM29.1619 17.3454C29.1619 17.6373 28.9236 17.8748 28.6317 17.8748H25.2229C24.931 17.8748 24.6927 17.6373 24.6927 17.3454V15.9843H29.1619V17.3454ZM26.0683 31.7965H27.7871V19.5937H26.0683V31.7965ZM14.8388 34.0455C14.8388 33.7536 15.0764 33.5153 15.369 33.5153H18.7778C19.0697 33.5153 19.308 33.7536 19.308 34.0455V35.4065H14.8388V34.0455ZM19.308 17.3454C19.308 17.6373 19.0697 17.8748 18.7778 17.8748H15.3683C15.0764 17.8748 14.8388 17.6373 14.8388 17.3454V15.9843H19.3073V17.3454H19.308ZM16.2136 31.7965H17.9325V19.5937H16.2136V31.7965ZM6.3597 31.7965H8.07856V19.5937H6.3597V31.7965ZM11.1722 35.4065V34.0455C11.1722 33.1155 10.6043 32.3151 9.79669 31.9732V19.4177C10.6043 19.0758 11.1722 18.2754 11.1722 17.3454V15.9843H13.12V17.3454C13.12 18.2754 13.6878 19.0758 14.4955 19.4169V31.9732C13.6878 32.3151 13.12 33.1155 13.12 34.0455V35.4065H11.1722ZM21.0261 35.4065V34.0455C21.0261 33.1155 20.4582 32.3151 19.6513 31.9732V19.4177C20.4582 19.0758 21.0261 18.2754 21.0261 17.3454V15.9843H22.9746V17.3454C22.9746 18.2754 23.5418 19.0758 24.3494 19.4169V31.9732C23.5418 32.3151 22.9746 33.1155 22.9746 34.0455V35.4065H21.0261ZM30.8808 35.4065V34.0455C30.8808 33.1155 30.3129 32.3151 29.5052 31.9732V19.4177C30.3129 19.0758 30.8808 18.2754 30.8808 17.3454V15.9843H32.8285V17.3454C32.8285 18.2754 33.3964 19.0758 34.2033 19.4169V31.9732C33.3964 32.3151 32.8285 33.1155 32.8285 34.0455V35.4065H30.8808ZM38.4863 33.5153C38.7782 33.5153 39.0158 33.7536 39.0158 34.0455V35.4065H34.5474V34.0455C34.5474 33.7536 34.785 33.5153 35.0776 33.5153H38.4863ZM43.1409 38.8435H42.1102V36.2656C42.1102 35.7912 41.7249 35.4065 41.2504 35.4065H40.7347V34.0455C40.7347 33.1155 40.1668 32.3151 39.3599 31.9732V29.0752C39.3599 28.6007 38.9745 28.2161 38.5001 28.2161C38.0256 28.2161 37.641 28.6007 37.641 29.0752V31.7972H35.9222V19.5937H37.641V22.3744C37.641 22.8488 38.0256 23.2334 38.5001 23.2334C38.9745 23.2334 39.3599 22.8488 39.3599 22.3744V19.4177C40.1668 19.0758 40.7347 18.2754 40.7347 17.3454V15.9843H41.2504C41.7249 15.9843 42.1102 15.5997 42.1102 15.1253V11.8593H42.1957C42.5941 11.8593 42.9403 11.5855 43.0323 11.198C43.1236 10.8105 42.9374 10.4106 42.581 10.2324L22.3857 0.0918089C22.1431 -0.030603 21.8569 -0.030603 21.6143 0.0918089L1.41898 10.2324C1.06333 10.4106 0.876451 10.8105 0.968442 11.198C1.06043 11.5855 1.40594 11.8593 1.80505 11.8593H1.89053V15.1253C1.89053 15.5997 2.27515 15.9843 2.75032 15.9843H3.26605V17.3454C3.26605 18.2754 3.8332 19.0758 4.64084 19.4169V31.9732C3.8332 32.3151 3.26605 33.1155 3.26605 34.0455V35.4065H2.75032C2.27515 35.4065 1.89053 35.7912 1.89053 36.2656V38.8435H0.859067C0.384624 38.8435 0 39.2288 0 39.7033V43.1402C0 43.6154 0.384624 44 0.859067 44H43.1409C43.6161 44 44 43.6154 44 43.1402V39.7033C44 39.2288 43.6161 38.8435 43.1409 38.8435Z" fill="#F05442"/>
<path fill-rule="evenodd" clip-rule="evenodd" d="M21.2903 10.6451C21.2903 11.037 21.6079 11.3548 22.0003 11.3548C22.3921 11.3548 22.7097 11.037 22.7097 10.6451C22.7097 10.2532 22.3921 9.93542 22.0003 9.93542C21.6079 9.93542 21.2903 10.2532 21.2903 10.6451Z" fill="#F05442"/>
<path fill-rule="evenodd" clip-rule="evenodd" d="M37.6126 26.9677C38.0044 26.9677 38.3226 26.65 38.3226 26.258C38.3226 25.8661 38.0044 25.5483 37.6126 25.5483C37.2208 25.5483 36.9032 25.8661 36.9032 26.258C36.9032 26.65 37.2208 26.9677 37.6126 26.9677Z" fill="#F05442"/>
</svg>
