<svg width="36" height="35" viewBox="0 0 36 35" fill="none" xmlns="http://www.w3.org/2000/svg">
<path fill-rule="evenodd" clip-rule="evenodd" d="M32.9695 25.3937C32.9695 29.4108 29.6727 32.6796 25.62 32.6796L23.5865 32.6364L23.604 23.1078H26.6116C27.5171 23.1078 28.2785 22.4374 28.3833 21.5474L28.8349 17.7844C28.8949 17.2816 28.7345 16.7777 28.3964 16.4014C28.0582 16.023 27.5716 15.8056 27.0622 15.8056H23.5844V13.71C23.5844 13.444 23.6018 13.2224 23.6345 13.0461L23.5385 12.9012L23.8135 12.6287C23.988 12.4568 24.4047 12.3616 24.9895 12.3616L26.9007 12.3606C27.8847 12.3606 28.6855 11.5679 28.6855 10.5926V7.41893C28.6855 6.44358 27.8847 5.64881 26.9007 5.64881H23.7829C19.2513 5.64881 16.3211 8.62135 16.3211 13.2213V15.8056H14.328C13.8513 15.8056 13.4018 15.9905 13.0647 16.3258C12.7265 16.661 12.5411 17.1075 12.5433 17.5812L12.5585 21.3442C12.5607 22.3173 13.3615 23.1078 14.3433 23.1078H16.3375L16.2884 32.6796H9.47564C5.42291 32.6796 2.12618 29.4108 2.12618 25.3937V9.39125C2.12618 5.37415 5.42291 2.10749 9.47564 2.10749H25.62C29.6727 2.10749 32.9695 5.37415 32.9695 9.39125V25.3937ZM21.48 22.1162L21.4625 32.6428L20.9891 32.6807H18.4462L18.4669 22.1173C18.4669 21.502 17.9618 21.0014 17.34 21.0014H14.6825L14.6705 17.912H17.3204C17.9422 17.912 18.4473 17.4114 18.4473 16.7961V13.2213C18.4473 9.74701 20.3935 7.75522 23.7829 7.75522H26.5604V10.2552H24.9884C22.6462 10.2552 21.4582 11.4176 21.4582 13.71V16.7961C21.4582 17.4114 21.9644 17.912 22.5851 17.912H26.6771L26.3095 21.0014H22.6058C21.9851 21.0014 21.48 21.5009 21.48 22.1162ZM25.62 0H9.47564C4.25127 0 0 4.21282 0 9.39125V25.3937C0 30.5732 4.25127 34.786 9.47564 34.786H25.62C30.8455 34.786 35.0945 30.5732 35.0945 25.3937V9.39125C35.0945 4.21282 30.8455 0 25.62 0Z" fill="#655459"/>
</svg>
