<svg width="44" height="46" viewBox="0 0 44 46" fill="none" xmlns="http://www.w3.org/2000/svg">
<path fill-rule="evenodd" clip-rule="evenodd" d="M19.2098 25.9686C15.8802 25.9686 13.1003 23.6218 12.4908 20.5269L16.5172 22.3861C16.7364 23.6543 17.8566 24.6253 19.2098 24.6253C20.5616 24.6253 21.6796 23.6579 21.9018 22.3925L25.9122 20.6225C25.2652 23.6706 22.5055 25.9686 19.2098 25.9686ZM20.5789 21.9381C20.5789 22.6791 19.965 23.2814 19.2098 23.2814C18.4546 23.2814 17.8408 22.6791 17.8408 21.9381C17.8408 21.1971 18.4546 20.5949 19.2098 20.5949C19.965 20.5949 20.5789 21.1971 20.5789 21.9381ZM19.2098 12.5339C22.9296 12.5339 25.9591 15.4604 26.0478 19.0895L21.7611 20.9827C21.3665 19.9728 20.3762 19.2516 19.2098 19.2516C18.0499 19.2516 17.061 19.9657 16.6629 20.9685L12.3776 18.989C12.5189 15.4073 15.5254 12.5339 19.2098 12.5339ZM19.2098 11.1907C14.68 11.1907 10.9941 14.8064 10.9941 19.2516C10.9941 23.6961 14.68 27.3118 19.2098 27.3118C23.7404 27.3118 27.4256 23.6961 27.4256 19.2516C27.4256 14.8064 23.7404 11.1907 19.2098 11.1907Z" fill="#F05442"/>
<mask id="mask0" mask-type="alpha" maskUnits="userSpaceOnUse" x="0" y="0" width="44" height="44">
<path fill-rule="evenodd" clip-rule="evenodd" d="M43.7306 43.6147H0V0.707886L43.7306 0.707886V43.6147Z" fill="white"/>
</mask>
<g mask="url(#mask0)">
<path fill-rule="evenodd" clip-rule="evenodd" d="M39.534 42.2306C38.7903 42.2306 38.0906 41.9461 37.5648 41.4294L36.2643 40.1541L40.2041 36.2885L41.5039 37.5639C42.0297 38.0805 42.3204 38.767 42.3204 39.4966C42.3204 41.0041 41.0704 42.2306 39.534 42.2306ZM28.0067 30.263L31.0348 27.292L32.1535 28.3897L28.2137 32.2552L27.095 31.1576L28.0067 30.263ZM26.4343 27.7421C26.8331 27.4024 27.2075 27.0351 27.553 26.6444L28.6263 27.6975L27.5083 28.7952L26.4343 27.7421ZM9.16967 19.3931C9.16967 14.0505 13.5985 9.70443 19.0444 9.70443C24.4896 9.70443 28.9192 14.0505 28.9192 19.3931C28.9192 24.7357 24.4896 29.0818 19.0444 29.0818C13.5985 29.0818 9.16967 24.7357 9.16967 19.3931ZM5.61793 16.1737C5.62514 16.093 5.64245 16.0152 5.64245 15.9331C5.64245 15.3874 5.47583 14.8814 5.19668 14.4525L11.7635 6.07665C12.0571 6.17857 12.3672 6.24438 12.6962 6.24438C13.7197 6.24438 14.6091 5.70085 15.1039 4.89901L26.1061 6.16866C26.1039 6.19484 26.0974 6.2182 26.0974 6.24438C26.0974 7.77094 27.3626 9.01228 28.9192 9.01228C29.4219 9.01228 29.8886 8.87215 30.2983 8.64426L34.28 13.1086C34.0167 13.529 33.8558 14.0194 33.8558 14.5488C33.8558 14.9543 33.9503 15.3372 34.1105 15.6847L30.1418 17.4363C29.1969 12.2621 24.5848 8.32013 19.0444 8.32013C13.5653 8.32013 8.98934 12.173 7.97301 17.2615L5.61793 16.1737ZM2.8214 17.3167C2.04311 17.3167 1.41052 16.696 1.41052 15.9331C1.41052 15.1694 2.04311 14.5488 2.8214 14.5488C3.5997 14.5488 4.23229 15.1694 4.23229 15.9331C4.23229 16.696 3.5997 17.3167 2.8214 17.3167ZM1.41052 3.47578C1.41052 2.71286 2.04311 2.09148 2.8214 2.09148C3.5997 2.09148 4.23229 2.71286 4.23229 3.47578C4.23229 4.23941 3.5997 4.86008 2.8214 4.86008C2.04311 4.86008 1.41052 4.23941 1.41052 3.47578ZM12.6962 2.09148C13.4745 2.09148 14.107 2.71286 14.107 3.47578C14.107 4.23941 13.4745 4.86008 12.6962 4.86008C11.9179 4.86008 11.2853 4.23941 11.2853 3.47578C11.2853 2.71286 11.9179 2.09148 12.6962 2.09148ZM28.9192 4.86008C29.6967 4.86008 30.3293 5.48075 30.3293 6.24438C30.3293 7.00731 29.6967 7.62798 28.9192 7.62798C28.1409 7.62798 27.5083 7.00731 27.5083 6.24438C27.5083 5.48075 28.1409 4.86008 28.9192 4.86008ZM38.0885 14.5488C38.0885 15.3124 37.4559 15.9331 36.6776 15.9331C35.8993 15.9331 35.2667 15.3124 35.2667 14.5488C35.2667 13.7851 35.8993 13.1645 36.6776 13.1645C37.4559 13.1645 38.0885 13.7851 38.0885 14.5488ZM39.2065 35.3098L35.2667 39.176L29.2106 33.234L33.1504 29.3684L39.2065 35.3098ZM40.9095 2.09148C41.6871 2.09148 42.3204 2.71286 42.3204 3.47578C42.3204 4.23941 41.6871 4.86008 40.9095 4.86008C40.1312 4.86008 39.4986 4.23941 39.4986 3.47578C39.4986 2.71286 40.1312 2.09148 40.9095 2.09148ZM31.5332 25.8242C31.2577 25.5538 30.8119 25.5538 30.5364 25.8242L29.6239 26.7187L28.4236 25.5411C29.6253 23.7803 30.3293 21.6663 30.3293 19.3931C30.3293 19.2204 30.3113 19.0527 30.3034 18.8829L35.0381 16.7923C35.5019 17.1199 36.0645 17.3167 36.6776 17.3167C38.2335 17.3167 39.4986 16.0753 39.4986 14.5488C39.4986 13.5877 38.9959 12.7406 38.2356 12.2444L40.691 6.22315C40.7646 6.22811 40.8345 6.24438 40.9095 6.24438C42.4654 6.24438 43.7306 5.00233 43.7306 3.47578C43.7306 1.94923 42.4654 0.707886 40.9095 0.707886C39.3537 0.707886 38.0885 1.94923 38.0885 3.47578C38.0885 4.43757 38.5912 5.28401 39.3515 5.78083L36.8962 11.8021C36.8226 11.7965 36.7526 11.7802 36.6776 11.7802C36.1741 11.7802 35.7074 11.921 35.2977 12.1489L31.3168 7.6846C31.5801 7.2635 31.7402 6.77376 31.7402 6.24438C31.7402 4.71712 30.4743 3.47578 28.9192 3.47578C27.8949 3.47578 27.0063 4.01931 26.5107 4.82116L15.5093 3.55151C15.5107 3.52603 15.5172 3.50197 15.5172 3.47578C15.5172 1.94923 14.252 0.707886 12.6962 0.707886C11.1403 0.707886 9.87439 1.94923 9.87439 3.47578C9.87439 4.17855 10.1514 4.81337 10.5921 5.3017L4.15727 13.5091C3.95891 13.4044 3.74973 13.3195 3.52685 13.2628V6.14601C4.74009 5.83674 5.64245 4.76242 5.64245 3.47578C5.64245 1.94923 4.37727 0.707886 2.8214 0.707886C1.26554 0.707886 -0.000366211 1.94923 -0.000366211 3.47578C-0.000366211 4.76242 0.902716 5.83674 2.11596 6.14601V13.2628C0.902716 13.5721 -0.000366211 14.6464 -0.000366211 15.9331C-0.000366211 17.4596 1.26554 18.701 2.8214 18.701C3.78868 18.701 4.64416 18.2197 5.15268 17.4894L7.79485 18.7088C7.7797 18.9359 7.75878 19.1617 7.75878 19.3931C7.75878 25.4979 12.8217 30.4654 19.0444 30.4654C21.3613 30.4654 23.5158 29.7754 25.3105 28.5956L26.5107 29.774L25.599 30.6685C25.4663 30.798 25.392 30.9736 25.392 31.1576C25.392 31.3423 25.4663 31.5178 25.599 31.6473L36.5665 42.4082C37.3592 43.186 38.4131 43.6149 39.534 43.6149C41.848 43.6149 43.7306 41.7677 43.7306 39.4966C43.7306 38.3975 43.2942 37.3636 42.5015 36.5851L31.5332 25.8242Z" fill="#F05442"/>
</g>
<path fill-rule="evenodd" clip-rule="evenodd" d="M40.3076 39.5841C40.3076 39.9549 40.0011 40.2557 39.6231 40.2557C39.2452 40.2557 38.9386 39.9549 38.9386 39.5841C38.9386 39.2133 39.2452 38.9125 39.6231 38.9125C40.0011 38.9125 40.3076 39.2133 40.3076 39.5841Z" fill="#F05442"/>
</svg>
