<svg width="31" height="31" viewBox="0 0 31 31" fill="none" xmlns="http://www.w3.org/2000/svg">
<path fill-rule="evenodd" clip-rule="evenodd" d="M19.5099 0.534648C23.5073 1.60572 26.8483 4.16946 28.9175 7.75335C30.9867 11.3374 31.5365 15.5126 30.4654 19.51C29.3943 23.5075 26.8306 26.8484 23.2467 28.9176C20.8594 30.2959 18.2098 31 15.5252 31C14.1793 31 12.8248 30.8231 11.49 30.4654C7.49261 29.3943 4.15152 26.8306 2.08239 23.2467C0.0131984 19.6628 -0.536507 15.4875 0.534568 11.4901C1.60564 7.49269 4.16926 4.15172 7.75327 2.08247C11.3373 0.0131581 15.5125 -0.536547 19.5099 0.534648ZM22.4398 27.5204C25.6506 25.6667 27.9472 22.6736 28.9068 19.0924C29.8664 15.5113 29.3739 11.7708 27.5201 8.56008C25.6664 5.34928 22.6733 3.05261 19.0922 2.09306C17.8968 1.77271 16.6829 1.6142 15.4774 1.6142C13.0722 1.6142 10.6988 2.24492 8.56 3.47977C5.34926 5.33359 3.05259 8.32661 2.09298 11.9077C1.13338 15.4889 1.6258 19.2294 3.47951 22.4401C5.33327 25.6509 8.32634 27.9475 11.9075 28.9071C15.4886 29.8665 19.2291 29.3742 22.4398 27.5204Z" fill="white"/>
<path fill-rule="evenodd" clip-rule="evenodd" d="M12.9721 8.28649L22.9337 14.0378C23.4622 14.343 23.7778 14.8896 23.7778 15.4999C23.7778 16.1103 23.4623 16.6569 22.9337 16.9622L12.9721 22.7135C12.7078 22.866 12.4178 22.9424 12.1278 22.9424C11.8378 22.9424 11.548 22.8662 11.2837 22.7135C10.755 22.4083 10.4395 21.8617 10.4395 21.2513V9.74864C10.4395 9.13827 10.7551 8.59159 11.2837 8.28643C11.8124 7.9814 12.4435 7.98128 12.9721 8.28649ZM12.1652 21.3162L22.1268 15.565L22.1269 15.5649C22.139 15.5579 22.1643 15.5432 22.1643 15.5C22.1643 15.4568 22.139 15.4422 22.1269 15.4352L12.1653 9.68385L12.1653 9.68382C12.1578 9.67952 12.1456 9.67247 12.1287 9.67247C12.1178 9.67247 12.105 9.67538 12.0904 9.68385C12.053 9.70547 12.053 9.73465 12.053 9.7487V21.2514C12.053 21.2654 12.053 21.2946 12.0904 21.3162C12.1277 21.3379 12.1531 21.3233 12.1652 21.3162Z" fill="white"/>
<path d="M25.0238 8.13994C23.1051 5.66127 20.2208 3.99599 17.1104 3.57101C16.6694 3.51065 16.2622 3.81962 16.2018 4.26118C16.1416 4.70263 16.4506 5.10939 16.892 5.16975C19.5871 5.53794 22.0859 6.98065 23.7479 9.12764C23.9069 9.33301 24.1453 9.44055 24.3864 9.44055C24.5589 9.44055 24.7327 9.38551 24.8796 9.27168C25.2319 8.99898 25.2965 8.49226 25.0238 8.13994Z" fill="white"/>
</svg>
