<svg width="34" height="34" viewBox="0 0 34 34" fill="none" xmlns="http://www.w3.org/2000/svg">
<path fill-rule="evenodd" clip-rule="evenodd" d="M17.8491 12.7426C17.7731 13.2146 17.3651 13.5756 16.8711 13.5756C16.3261 13.5756 15.8801 13.1306 15.8801 12.5836C15.8801 12.0366 16.3261 11.5926 16.8711 11.5926C17.3801 11.5926 17.8001 11.9766 17.8571 12.4706C17.8411 12.5596 17.8391 12.6516 17.8491 12.7426M16.8711 5.64258C13.0451 5.64258 9.93213 8.75758 9.93213 12.5836C9.93213 14.9596 11.1291 17.1446 13.1361 18.4306C15.1861 19.7436 17.7021 19.8836 20.0381 18.8076C20.5371 18.5796 20.7541 17.9906 20.5251 17.4926C20.2961 16.9956 19.7071 16.7776 19.2101 17.0066C17.5001 17.7936 15.6771 17.7036 14.2061 16.7616C12.7711 15.8426 11.9141 14.2806 11.9141 12.5836C11.9141 9.84958 14.1381 7.62658 16.8711 7.62658C19.6051 7.62658 21.8291 9.84958 21.8291 12.5836C21.8291 13.1306 21.3841 13.5756 20.8371 13.5756C20.3381 13.5756 19.8711 13.1966 19.8461 12.5986V12.5836C19.8461 10.9436 18.5121 9.60858 16.8711 9.60858C15.2321 9.60858 13.8981 10.9436 13.8981 12.5836C13.8981 14.2236 15.2321 15.5576 16.8711 15.5576C17.6331 15.5576 18.3281 15.2696 18.8551 14.7986C19.3811 15.2696 20.0771 15.5576 20.8371 15.5576C22.4781 15.5576 23.8121 14.2236 23.8121 12.5836C23.8121 8.75758 20.6991 5.64258 16.8711 5.64258" fill="#FF533F"/>
<mask id="mask0" mask-type="alpha" maskUnits="userSpaceOnUse" x="2" y="2" width="30" height="31">
<path fill-rule="evenodd" clip-rule="evenodd" d="M2 2H31.7433V32.941H2V2Z" fill="white"/>
</mask>
<g mask="url(#mask0)">
<path fill-rule="evenodd" clip-rule="evenodd" d="M29.7613 29.556L22.2403 22.035L29.7613 14.513V29.556ZM5.38527 30.957L13.3173 23.026H20.4273L28.3593 30.957H5.38527ZM3.98327 29.556V14.513L11.5043 22.035L3.98327 29.556ZM5.96527 10.547V13.692L4.39327 12.119L5.96527 10.547ZM7.94927 8.15502V8.15402V3.98302H25.7953V8.15402V8.15502V15.675L20.4273 21.043H13.3173L7.94927 15.675V8.15502ZM27.7783 10.547L29.3503 12.119L27.7783 13.692V10.547ZM31.7433 12.119C31.7433 11.862 31.6403 11.606 31.4533 11.418L27.7783 7.74402V2.99202C27.7783 2.44402 27.3343 1.99902 26.7863 1.99902H6.95727C6.40927 1.99902 5.96527 2.44402 5.96527 2.99202V7.74402L2.29027 11.418C2.28627 11.422 2.28327 11.426 2.28127 11.429C2.09527 11.62 2.00027 11.873 2.00027 12.119C2.00027 12.119 1.99927 12.119 1.99927 12.12V29.966C1.99927 31.609 3.33627 32.941 4.97427 32.941H28.7703C30.4113 32.941 31.7433 31.605 31.7433 29.966V12.12V12.119Z" fill="#FF533F"/>
</g>
</svg>
