<svg width="36" height="35" viewBox="0 0 36 35" fill="none" xmlns="http://www.w3.org/2000/svg">
<path fill-rule="evenodd" clip-rule="evenodd" d="M33.1538 24.3264C33.1538 29.0334 29.2898 32.8624 24.5411 32.8624H10.5971C5.85055 32.8624 1.98655 29.0334 1.98655 24.3264V10.5039C1.98655 5.79695 5.85055 1.968 10.5971 1.968H24.5411C29.2898 1.968 33.1538 5.79695 33.1538 10.5039V24.3264ZM24.3382 0H10.8033C4.84691 0 0 4.80322 0 10.7072V24.1242C0 30.0261 4.84691 34.8304 10.8033 34.8304H24.3382C30.2935 34.8304 35.1393 30.0261 35.1393 24.1242V10.7072C35.1393 4.80322 30.2935 0 24.3382 0Z" fill="#F05442"/>
<path fill-rule="evenodd" clip-rule="evenodd" d="M26.6323 13.4524C26.9323 16.5645 25.6526 20.1101 23.2897 22.7042C21.5955 24.5641 18.5759 26.7873 13.8064 26.8175H13.7933C12.7308 26.8175 11.7468 26.7008 10.7901 26.4704L9.16789 26.0801L10.753 25.561C11.9104 25.1837 12.9828 24.6376 13.9417 23.938L15.0283 23.1465C15.073 23.1151 15.0915 23.0578 15.0752 23.0048C15.061 22.9551 15.013 22.9172 14.9573 22.9151L13.6112 22.8502C12.5726 22.8004 11.5788 22.3722 10.8152 21.6467L10.1006 20.9665L11.0803 20.8357C11.2581 20.8119 11.4272 20.7784 11.5864 20.734L13.4443 20.215C13.5021 20.1988 13.5392 20.1469 13.5381 20.0885C13.5359 20.029 13.4944 19.9782 13.4355 19.9652L11.5483 19.564C10.2599 19.2894 9.17989 18.4633 8.58098 17.2965L8.19698 16.5482L9.04134 16.6088C9.15807 16.6185 9.27698 16.6239 9.39371 16.6261L10.8217 16.651C10.8719 16.6499 10.9286 16.6153 10.945 16.5655C10.9646 16.5136 10.9472 16.4553 10.9046 16.4217L9.78098 15.5491C9.13516 15.0495 7.96134 13.6092 8.13589 11.7429L8.22752 10.7589L8.94316 11.4477C11.3464 13.7574 14.5123 15.0712 17.8537 15.1415L18.5453 15.1566C18.6184 15.1836 18.6326 15.1306 18.6523 15.1036C18.6773 15.0701 18.6839 15.0258 18.6697 14.9868L18.4493 14.3348C18.4232 14.1326 18.3763 13.673 18.3752 13.58C18.3752 11.5547 19.9221 9.46886 22.5119 9.46886C23.6726 9.46886 24.7875 9.95761 25.5686 10.8086L25.7203 10.9719L26.2232 11.7212L26.4893 12.4176L26.6323 13.4524ZM26.2308 9.74567L26.0344 9.57591C25.0679 8.74329 23.7861 8.26427 22.5119 8.26427C19.153 8.26427 17.2483 10.907 17.161 13.393L17.1435 13.912L16.6243 13.846C13.4944 13.4503 10.5883 11.8013 8.6508 9.31855L8.20352 8.74437C8.17625 8.70869 8.1468 8.68922 8.09116 8.69679C8.04971 8.69896 8.01043 8.72383 7.98971 8.76167L7.63734 9.39749C6.69698 11.0973 7.12571 12.9085 7.65261 14.1293L8.09989 15.1674L7.04061 14.7554C6.99589 14.7392 6.95116 14.7435 6.91734 14.7695C6.87916 14.7943 6.85843 14.8365 6.86061 14.8809L6.90316 15.6497C6.95334 16.5612 7.47261 17.6285 8.3628 18.6568L8.65952 19.0007L8.32898 19.311C8.26243 19.3748 8.24934 19.4256 8.26571 19.4711L8.54716 20.3004C8.98025 21.5807 9.87698 22.6566 11.0683 23.3314L11.9279 23.818L11.0093 24.1813C9.28461 24.8658 7.78461 24.9393 7.21843 24.9393C7.08098 24.9393 6.99043 24.9339 6.91407 24.9306L5.13152 24.9014H5.12061C5.05407 24.9014 5.01916 24.9479 5.00498 24.9955C4.98861 25.0507 5.01371 25.109 5.06389 25.1404L6.59989 26.0509C8.77407 27.342 11.2384 28.0254 13.7268 28.0254C19.0264 27.9908 22.3352 25.5513 24.193 23.5119C26.5679 20.9038 27.9828 17.2662 27.8846 14.0212L27.8781 13.753L28.1061 13.6103C28.9603 13.0686 29.665 12.2716 30.0893 11.3666L30.6599 10.1522C30.6828 10.1025 30.6719 10.0441 30.6337 10.0063C30.5944 9.96842 30.5366 9.95977 30.4875 9.98248L29.1163 10.6475L29.9977 8.16911C30.0152 8.11829 29.9988 8.06314 29.9552 8.02854C29.9126 7.99502 29.8548 7.98961 29.8068 8.01989L28.6788 8.70761C28.5621 8.77789 27.565 9.35856 26.4817 9.67322L26.2308 9.74567Z" fill="#F05442"/>
<path d="M26.6323 13.4524L27.1299 13.4045L27.129 13.3942L27.1276 13.384L26.6323 13.4524ZM23.2897 22.7042L23.6593 23.0409L23.6593 23.0409L23.2897 22.7042ZM13.8064 26.8175V27.3175L13.8096 27.3175L13.8064 26.8175ZM10.7901 26.4704L10.9071 25.9843L10.907 25.9843L10.7901 26.4704ZM9.16789 26.0801L9.01229 25.6049L7.33647 26.1536L9.05091 26.5662L9.16789 26.0801ZM10.753 25.561L10.598 25.0857L10.5974 25.0859L10.753 25.561ZM13.9417 23.938L13.6473 23.5338L13.647 23.5341L13.9417 23.938ZM15.0283 23.1465L14.7412 22.737L14.7338 22.7423L15.0283 23.1465ZM15.0752 23.0048L14.5942 23.1419L14.5974 23.1523L15.0752 23.0048ZM14.9573 22.9151L14.9333 23.4145L14.9379 23.4147L14.9573 22.9151ZM13.6112 22.8502L13.6352 22.3508L13.6351 22.3507L13.6112 22.8502ZM10.8152 21.6467L10.4704 22.0088L10.4708 22.0091L10.8152 21.6467ZM10.1006 20.9665L10.0344 20.4709L8.9999 20.6091L9.75589 21.3287L10.1006 20.9665ZM11.0803 20.8357L11.1464 21.3313L11.1466 21.3313L11.0803 20.8357ZM11.5864 20.734L11.7205 21.2157L11.721 21.2156L11.5864 20.734ZM13.4443 20.215L13.5788 20.6966L13.5793 20.6964L13.4443 20.215ZM13.5381 20.0885L14.0381 20.0791L14.0377 20.0702L13.5381 20.0885ZM13.4355 19.9652L13.5431 19.4769L13.5395 19.4761L13.4355 19.9652ZM11.5483 19.564L11.444 20.0531L11.4443 20.0531L11.5483 19.564ZM8.58098 17.2965L8.13613 17.5248L8.13616 17.5249L8.58098 17.2965ZM8.19698 16.5482L8.23274 16.0495L7.34643 15.986L7.75213 16.7765L8.19698 16.5482ZM9.04134 16.6088L9.08289 16.1105L9.07711 16.1101L9.04134 16.6088ZM9.39371 16.6261L9.38444 17.126L9.385 17.126L9.39371 16.6261ZM10.8217 16.651L10.813 17.1509L10.8227 17.1511L10.8325 17.1509L10.8217 16.651ZM10.945 16.5655L10.4773 16.3886L10.4734 16.3989L10.47 16.4093L10.945 16.5655ZM10.9046 16.4217L11.2141 16.029L11.2113 16.0268L10.9046 16.4217ZM9.78098 15.5491L10.0877 15.1542L10.0869 15.1536L9.78098 15.5491ZM8.13589 11.7429L8.63372 11.7894L8.63373 11.7892L8.13589 11.7429ZM8.22752 10.7589L8.57426 10.3986L7.82598 9.67841L7.72968 10.7125L8.22752 10.7589ZM8.94316 11.4477L8.59643 11.8079L8.59669 11.8082L8.94316 11.4477ZM17.8537 15.1415L17.8646 14.6416L17.8642 14.6416L17.8537 15.1415ZM18.5453 15.1566L18.7188 14.6876L18.6401 14.6585L18.5563 14.6567L18.5453 15.1566ZM18.6523 15.1036L18.2519 14.804L18.2477 14.8098L18.6523 15.1036ZM18.6697 14.9868L18.1959 15.147L18.1999 15.158L18.6697 14.9868ZM18.4493 14.3348L17.9535 14.399L17.9598 14.448L17.9757 14.4949L18.4493 14.3348ZM18.3752 13.58H17.8751L17.8752 13.5859L18.3752 13.58ZM25.5686 10.8086L25.2002 11.1467L25.2022 11.1489L25.5686 10.8086ZM25.7203 10.9719L26.1354 10.6933L26.1135 10.6605L26.0866 10.6316L25.7203 10.9719ZM26.2232 11.7212L26.6902 11.5427L26.6699 11.4897L26.6383 11.4426L26.2232 11.7212ZM26.4893 12.4176L26.9846 12.3492L26.9768 12.2925L26.9564 12.2391L26.4893 12.4176ZM26.2308 9.74567L25.9038 10.1239L26.1089 10.3013L26.3695 10.226L26.2308 9.74567ZM26.0344 9.57591L26.3614 9.19767L26.3608 9.19708L26.0344 9.57591ZM17.161 13.393L16.6613 13.3754L16.6613 13.3762L17.161 13.393ZM17.1435 13.912L17.0805 14.408L17.6248 14.4771L17.6432 13.9288L17.1435 13.912ZM16.6243 13.846L16.6873 13.35L16.687 13.35L16.6243 13.846ZM8.6508 9.31855L8.25635 9.62582L8.25662 9.62616L8.6508 9.31855ZM8.20352 8.74437L7.80625 9.04801L7.80908 9.05164L8.20352 8.74437ZM8.09116 8.69679L8.11721 9.19611L8.13797 9.19503L8.15856 9.19223L8.09116 8.69679ZM7.98971 8.76167L8.42704 9.00404L8.42824 9.00185L7.98971 8.76167ZM7.63734 9.39749L7.20001 9.15512L7.19983 9.15545L7.63734 9.39749ZM7.65261 14.1293L8.1118 13.9315L8.11168 13.9312L7.65261 14.1293ZM8.09989 15.1674L7.91865 15.6334L9.03162 16.0663L8.55908 14.9696L8.09989 15.1674ZM7.04061 14.7554L7.2219 14.2893L7.21107 14.2854L7.04061 14.7554ZM6.91734 14.7695L7.19024 15.1884L7.20642 15.1779L7.22174 15.1661L6.91734 14.7695ZM6.86061 14.8809L6.36121 14.9054L6.36138 14.9085L6.86061 14.8809ZM6.90316 15.6497L7.4024 15.6222L7.4024 15.622L6.90316 15.6497ZM8.3628 18.6568L8.74134 18.3302L8.74083 18.3296L8.3628 18.6568ZM8.65952 19.0007L9.00176 19.3652L9.35131 19.037L9.03807 18.674L8.65952 19.0007ZM8.32898 19.311L7.98672 18.9465L7.98295 18.9501L8.32898 19.311ZM8.26571 19.4711L8.73927 19.3103L8.7361 19.3016L8.26571 19.4711ZM8.54716 20.3004L9.02079 20.1402L9.02064 20.1397L8.54716 20.3004ZM11.0683 23.3314L10.8218 23.7664L10.8219 23.7665L11.0683 23.3314ZM11.9279 23.818L12.1118 24.2829L13.0846 23.8981L12.1742 23.3828L11.9279 23.818ZM11.0093 24.1813L10.8254 23.7163L10.8249 23.7165L11.0093 24.1813ZM6.91407 24.9306L6.9353 24.4309L6.92226 24.4307L6.91407 24.9306ZM5.13152 24.9014L5.13971 24.4014H5.13152V24.9014ZM5.00498 24.9955L4.52581 24.8527L4.52564 24.8533L5.00498 24.9955ZM5.06389 25.1404L4.79885 25.5645L4.80894 25.5705L5.06389 25.1404ZM6.59989 26.0509L6.85518 25.621L6.85484 25.6208L6.59989 26.0509ZM13.7268 28.0254V28.5254L13.7301 28.5254L13.7268 28.0254ZM24.193 23.5119L24.5626 23.8487L24.5627 23.8486L24.193 23.5119ZM27.8846 14.0212L27.3848 14.0334L27.3848 14.0363L27.8846 14.0212ZM27.8781 13.753L27.6128 13.3292L27.3713 13.4804L27.3782 13.7652L27.8781 13.753ZM28.1061 13.6103L28.3714 14.0341L28.3739 14.0325L28.1061 13.6103ZM30.0893 11.3666L29.6368 11.1539L29.6366 11.1543L30.0893 11.3666ZM30.6599 10.1522L31.1124 10.3649L31.114 10.3614L30.6599 10.1522ZM30.6337 10.0063L30.9857 9.65112L30.9807 9.64624L30.6337 10.0063ZM30.4875 9.98248L30.2776 9.5286L30.2693 9.53259L30.4875 9.98248ZM29.1163 10.6475L28.6452 10.4799L28.2361 11.63L29.3344 11.0974L29.1163 10.6475ZM29.9977 8.16911L30.4688 8.33667L30.4706 8.33152L29.9977 8.16911ZM29.9552 8.02854L30.2658 7.63676L30.2646 7.63579L29.9552 8.02854ZM29.8068 8.01989L30.0671 8.44685L30.0735 8.44279L29.8068 8.01989ZM28.6788 8.70761L28.9367 9.13596L28.9391 9.13452L28.6788 8.70761ZM26.4817 9.67322L26.6204 10.1536L26.6212 10.1534L26.4817 9.67322ZM26.1346 13.5004C26.4193 16.4541 25.2006 19.8638 22.9201 22.3675L23.6593 23.0409C26.1046 20.3564 27.4452 16.6749 27.1299 13.4045L26.1346 13.5004ZM22.9201 22.3675C21.294 24.1525 18.3989 26.2884 13.8033 26.3175L13.8096 27.3175C18.7529 27.2861 21.897 24.9756 23.6593 23.0409L22.9201 22.3675ZM13.8064 26.3175H13.7933V27.3175H13.8064V26.3175ZM13.7933 26.3175C12.7687 26.3175 11.824 26.2051 10.9071 25.9843L10.673 26.9565C11.6696 27.1964 12.6929 27.3175 13.7933 27.3175V26.3175ZM10.907 25.9843L9.28487 25.5939L9.05091 26.5662L10.6731 26.9566L10.907 25.9843ZM9.32348 26.5552L10.9086 26.0362L10.5974 25.0859L9.01229 25.6049L9.32348 26.5552ZM10.908 26.0364C12.1143 25.6431 13.234 25.0733 14.2364 24.3419L13.647 23.5341C12.7316 24.2019 11.7066 24.7242 10.598 25.0857L10.908 26.0364ZM14.2361 24.3421L15.3227 23.5506L14.7338 22.7423L13.6473 23.5338L14.2361 24.3421ZM15.3153 23.5559C15.5458 23.3942 15.6303 23.108 15.5529 22.8573L14.5974 23.1523C14.5527 23.0076 14.6002 22.8359 14.7412 22.7371L15.3153 23.5559ZM15.556 22.8677C15.4803 22.6022 15.24 22.4257 14.9768 22.4154L14.9379 23.4147C14.7859 23.4088 14.6417 23.308 14.5943 23.1419L15.556 22.8677ZM14.9814 22.4156L13.6352 22.3508L13.5871 23.3496L14.9333 23.4145L14.9814 22.4156ZM13.6351 22.3507C12.7183 22.3068 11.8377 21.9285 11.1596 21.2842L10.4708 22.0091C11.3199 22.816 12.427 23.294 13.5872 23.3496L13.6351 22.3507ZM11.1599 21.2845L10.4453 20.6044L9.75589 21.3287L10.4704 22.0088L11.1599 21.2845ZM10.1668 21.4621L11.1464 21.3313L11.0141 20.3401L10.0344 20.4709L10.1668 21.4621ZM11.1466 21.3313C11.344 21.3048 11.5361 21.2671 11.7205 21.2157L11.4524 20.2523C11.3182 20.2897 11.1721 20.3189 11.014 20.3401L11.1466 21.3313ZM11.721 21.2156L13.5788 20.6966L13.3097 19.7334L11.4519 20.2525L11.721 21.2156ZM13.5793 20.6964C13.8614 20.6173 14.0432 20.3598 14.038 20.0791L13.0382 20.0978C13.0351 19.934 13.1428 19.7803 13.3092 19.7336L13.5793 20.6964ZM14.0377 20.0702C14.0273 19.7866 13.828 19.5397 13.5431 19.4769L13.328 20.4535C13.1609 20.4167 13.0444 20.2714 13.0384 20.1068L14.0377 20.0702ZM13.5395 19.4761L11.6522 19.075L11.4443 20.0531L13.3316 20.4543L13.5395 19.4761ZM11.6525 19.075C10.5106 18.8316 9.55589 18.1009 9.0258 17.0682L8.13616 17.5249C8.80389 18.8257 10.0092 19.7472 11.444 20.0531L11.6525 19.075ZM9.02582 17.0682L8.64182 16.32L7.75213 16.7765L8.13613 17.5248L9.02582 17.0682ZM8.16121 17.047L9.00558 17.1075L9.07711 16.1101L8.23274 16.0495L8.16121 17.047ZM8.9998 17.1071C9.12899 17.1178 9.25882 17.1237 9.38444 17.126L9.40297 16.1262C9.29514 16.1242 9.18715 16.1192 9.08288 16.1105L8.9998 17.1071ZM9.385 17.126L10.813 17.1509L10.8304 16.151L9.40241 16.1262L9.385 17.126ZM10.8325 17.1509C10.9623 17.1481 11.0803 17.1046 11.1734 17.0425C11.2666 16.9804 11.3692 16.8759 11.4199 16.7218L10.47 16.4093C10.5043 16.305 10.5704 16.2427 10.6186 16.2105C10.6668 16.1784 10.7313 16.1528 10.8109 16.1511L10.8325 17.1509ZM11.4126 16.7425C11.5117 16.4807 11.423 16.1936 11.2141 16.029L10.5952 16.8145C10.4713 16.7169 10.4175 16.5466 10.4773 16.3886L11.4126 16.7425ZM11.2113 16.0268L10.0877 15.1542L9.4743 15.944L10.5979 16.8166L11.2113 16.0268ZM10.0869 15.1536C9.52255 14.7171 8.48057 13.4269 8.63372 11.7894L7.63806 11.6963C7.44211 13.7915 8.74777 15.382 9.47505 15.9446L10.0869 15.1536ZM8.63373 11.7892L8.72537 10.8052L7.72968 10.7125L7.63804 11.6965L8.63373 11.7892ZM7.88079 11.1191L8.59643 11.8079L9.28989 11.0874L8.57426 10.3986L7.88079 11.1191ZM8.59669 11.8082C11.0906 14.205 14.3764 15.5684 17.8432 15.6413L17.8642 14.6416C14.6481 14.5739 11.6023 13.3098 9.28963 11.0872L8.59669 11.8082ZM17.8428 15.6413L18.5344 15.6565L18.5563 14.6567L17.8646 14.6416L17.8428 15.6413ZM18.3719 15.6255C18.443 15.6518 18.5417 15.6744 18.6562 15.6591C18.7782 15.6429 18.8766 15.5892 18.9481 15.5266C19.0115 15.4712 19.0484 15.4131 19.0612 15.3927C19.0911 15.345 19.0638 15.3878 19.0568 15.3975L18.2477 14.8098C18.2323 14.831 18.221 14.8497 18.2172 14.8559C18.2098 14.8682 18.2139 14.8615 18.2139 14.8615C18.2163 14.8578 18.2413 14.8163 18.2896 14.7741C18.3459 14.7248 18.4259 14.681 18.5241 14.6679C18.6147 14.6558 18.6843 14.6749 18.7188 14.6876L18.3719 15.6255ZM19.0525 15.4032C19.1782 15.2354 19.2118 15.0141 19.1395 14.8157L18.1999 15.158C18.156 15.0374 18.1765 14.9048 18.252 14.804L19.0525 15.4032ZM19.1434 14.8267L18.923 14.1747L17.9757 14.4949L18.196 15.1469L19.1434 14.8267ZM18.9452 14.2706C18.933 14.1764 18.9153 14.0164 18.9004 13.8668C18.893 13.7925 18.8865 13.7229 18.8818 13.6671C18.8795 13.6391 18.8777 13.6159 18.8765 13.598C18.8752 13.5779 18.8751 13.5716 18.8751 13.5742L17.8752 13.5859C17.8767 13.713 17.9279 14.2015 17.9535 14.399L18.9452 14.2706ZM18.8752 13.58C18.8752 11.7893 20.238 9.96886 22.5119 9.96886V8.96886C19.6061 8.96886 17.8752 11.3202 17.8752 13.58H18.8752ZM22.5119 9.96886C23.5333 9.96886 24.5144 10.3994 25.2003 11.1467L25.937 10.4705C25.0607 9.5158 23.8119 8.96886 22.5119 8.96886V9.96886ZM25.2022 11.1489L25.3539 11.3121L26.0866 10.6316L25.935 10.4684L25.2022 11.1489ZM25.3051 11.2505L25.808 11.9999L26.6383 11.4426L26.1354 10.6933L25.3051 11.2505ZM25.7561 11.8998L26.0223 12.5961L26.9564 12.2391L26.6902 11.5427L25.7561 11.8998ZM25.994 12.486L26.137 13.5208L27.1276 13.384L26.9846 12.3492L25.994 12.486ZM26.5578 9.36743L26.3614 9.19767L25.7074 9.95415L25.9038 10.1239L26.5578 9.36743ZM26.3608 9.19708C25.3041 8.28686 23.9067 7.76427 22.5119 7.76427V8.76427C23.6654 8.76427 24.8316 9.19972 25.7081 9.95473L26.3608 9.19708ZM22.5119 7.76427C18.8369 7.76427 16.7563 10.6696 16.6613 13.3754L17.6607 13.4105C17.7402 11.1444 19.469 8.76427 22.5119 8.76427V7.76427ZM16.6613 13.3762L16.6438 13.8952L17.6432 13.9288L17.6607 13.4098L16.6613 13.3762ZM17.2065 13.416L16.6873 13.35L16.5612 14.342L17.0805 14.408L17.2065 13.416ZM16.687 13.35C13.6878 12.9707 10.9009 11.3892 9.04497 9.01094L8.25662 9.62616C10.2756 12.2133 13.3011 13.9298 16.5615 14.3421L16.687 13.35ZM9.04524 9.01129L8.59797 8.43711L7.80908 9.05164L8.25635 9.62582L9.04524 9.01129ZM8.60078 8.44075C8.5633 8.39172 8.49097 8.30872 8.37167 8.25233C8.24623 8.19303 8.12268 8.1879 8.02376 8.20136L8.15856 9.19223C8.11528 9.19812 8.03427 9.19893 7.94429 9.1564C7.86044 9.11676 7.81647 9.06134 7.80627 9.04799L8.60078 8.44075ZM8.06511 8.19747C7.84539 8.20894 7.65266 8.33617 7.55117 8.5215L8.42824 9.00185C8.3682 9.11148 8.25402 9.18898 8.11721 9.19611L8.06511 8.19747ZM7.55237 8.51931L7.20001 9.15512L8.07467 9.63985L8.42704 9.00404L7.55237 8.51931ZM7.19983 9.15545C6.14765 11.0574 6.64362 13.0533 7.19355 14.3275L8.11168 13.9312C7.60779 12.7637 7.24631 11.1372 8.07486 9.63952L7.19983 9.15545ZM7.19343 14.3272L7.6407 15.3653L8.55908 14.9696L8.1118 13.9315L7.19343 14.3272ZM8.28113 14.7014L7.22185 14.2894L6.85937 15.2214L7.91865 15.6334L8.28113 14.7014ZM7.21107 14.2854C7.03887 14.2229 6.8078 14.2233 6.61295 14.3728L7.22174 15.1661C7.09452 15.2638 6.95291 15.2555 6.87016 15.2255L7.21107 14.2854ZM6.64445 14.3505C6.45409 14.4745 6.35048 14.6873 6.36122 14.9054L7.36001 14.8563C7.36638 14.9857 7.30423 15.1142 7.19024 15.1884L6.64445 14.3505ZM6.36138 14.9085L6.40392 15.6773L7.4024 15.622L7.35985 14.8532L6.36138 14.9085ZM6.40392 15.6772C6.46255 16.7423 7.05648 17.9117 7.98476 18.9841L8.74083 18.3296C7.88875 17.3453 7.44413 16.3802 7.4024 15.6222L6.40392 15.6772ZM7.98425 18.9835L8.28098 19.3273L9.03807 18.674L8.74134 18.3302L7.98425 18.9835ZM8.31729 18.6362L7.98674 18.9465L8.67121 19.6755L9.00176 19.3652L8.31729 18.6362ZM7.98295 18.9501C7.91788 19.0125 7.84109 19.1035 7.79613 19.2277C7.74597 19.3662 7.74844 19.5105 7.79531 19.6405L8.7361 19.3016C8.76661 19.3862 8.76744 19.4824 8.73637 19.5682C8.72301 19.6051 8.7068 19.6315 8.69544 19.6474C8.68421 19.6631 8.67586 19.6711 8.675 19.6719L7.98295 18.9501ZM7.79223 19.6317L8.07368 20.4611L9.02064 20.1397L8.73918 19.3104L7.79223 19.6317ZM8.07353 20.4606C8.54674 21.8595 9.52565 23.0323 10.8218 23.7664L11.3147 22.8963C10.2283 22.281 9.41376 21.3019 9.02079 20.1402L8.07353 20.4606ZM10.8219 23.7665L11.6816 24.2531L12.1742 23.3828L11.3146 22.8962L10.8219 23.7665ZM11.744 23.353L10.8254 23.7163L11.1932 24.6462L12.1118 24.2829L11.744 23.353ZM10.8249 23.7165C9.1779 24.3702 7.7458 24.4393 7.21843 24.4393V25.4393C7.82343 25.4393 9.39133 25.3613 11.1938 24.646L10.8249 23.7165ZM7.21843 24.4393C7.09439 24.4393 7.01737 24.4346 6.93529 24.4311L6.89285 25.4302C6.96349 25.4332 7.06757 25.4393 7.21843 25.4393V24.4393ZM6.92226 24.4307L5.13971 24.4015L5.12334 25.4014L6.90588 25.4306L6.92226 24.4307ZM5.13152 24.4014H5.12061V25.4014H5.13152V24.4014ZM5.12061 24.4014C4.74798 24.4014 4.575 24.6877 4.52581 24.8527L5.48414 25.1383C5.47343 25.1743 5.4475 25.2372 5.3844 25.2961C5.31186 25.3638 5.2157 25.4014 5.12061 25.4014V24.4014ZM4.52564 24.8533C4.43834 25.1475 4.5798 25.4275 4.79892 25.5644L5.32885 24.7164C5.44761 24.7906 5.53889 24.9539 5.48432 25.1377L4.52564 24.8533ZM4.80894 25.5705L6.34494 26.481L6.85484 25.6208L5.31884 24.7103L4.80894 25.5705ZM6.34459 26.4808C8.5946 27.8169 11.1469 28.5254 13.7268 28.5254V27.5254C11.3299 27.5254 8.95354 26.867 6.85518 25.621L6.34459 26.4808ZM13.7301 28.5254C19.2024 28.4896 22.6357 25.9638 24.5626 23.8487L23.8234 23.1752C22.0346 25.1388 18.8505 27.4919 13.7235 27.5254L13.7301 28.5254ZM24.5627 23.8486C27.0166 21.1536 28.4868 17.3926 28.3844 14.0061L27.3848 14.0363C27.4787 17.1399 26.1191 20.654 23.8233 23.1753L24.5627 23.8486ZM28.3845 14.009L28.3779 13.7408L27.3782 13.7652L27.3848 14.0334L28.3845 14.009ZM28.1434 14.1768L28.3714 14.0341L27.8408 13.1865L27.6128 13.3292L28.1434 14.1768ZM28.3739 14.0325C29.3073 13.4405 30.0767 12.5712 30.542 11.5788L29.6366 11.1543C29.2532 11.972 28.6132 12.6966 27.8383 13.1881L28.3739 14.0325ZM30.5419 11.5792L31.1124 10.3649L30.2073 9.93962L29.6368 11.1539L30.5419 11.5792ZM31.114 10.3614C31.225 10.1205 31.1729 9.83669 30.9857 9.65116L30.2817 10.3614C30.1709 10.2515 30.1406 10.0845 30.2057 9.94308L31.114 10.3614ZM30.9807 9.64624C30.7876 9.46019 30.5072 9.4225 30.2776 9.52868L30.6974 10.4363C30.5661 10.4971 30.4013 10.4767 30.2868 10.3663L30.9807 9.64624ZM30.2693 9.53259L28.8981 10.1976L29.3344 11.0974L30.7057 10.4324L30.2693 9.53259ZM29.5873 10.815L30.4688 8.33666L29.5266 8.00156L28.6452 10.4799L29.5873 10.815ZM30.4706 8.33152C30.5589 8.07442 30.4706 7.79917 30.2658 7.63676L29.6445 8.42031C29.527 8.32711 29.4714 8.16215 29.5248 8.0067L30.4706 8.33152ZM30.2646 7.63579C30.066 7.47931 29.7779 7.44696 29.54 7.59699L30.0735 8.44279C29.9317 8.53226 29.7593 8.51073 29.6457 8.42128L30.2646 7.63579ZM29.5465 7.59298L28.4185 8.28069L28.9391 9.13452L30.0671 8.4468L29.5465 7.59298ZM28.4209 8.27926C28.3158 8.34255 27.3628 8.89663 26.3422 9.19307L26.6212 10.1534C27.7672 9.82049 28.8084 9.21324 28.9367 9.13595L28.4209 8.27926ZM26.343 9.19285L26.0921 9.2653L26.3695 10.226L26.6204 10.1536L26.343 9.19285Z" fill="#F05442"/>
</svg>
