<svg width="41" height="41" viewBox="0 0 41 41" fill="none" xmlns="http://www.w3.org/2000/svg">
<path d="M27.707 25.5449C27.2648 25.5449 26.9062 25.9034 26.9062 26.3457V31.8711C26.9062 34.0788 25.1101 35.875 22.9023 35.875H14.2565C13.8144 35.875 13.456 36.2332 13.4557 36.6752L13.4546 38.2673L11.5433 36.3561C11.4195 36.0721 11.1364 35.875 10.8089 35.875H5.60547C3.39771 35.875 1.60156 34.0788 1.60156 31.8711V19.5391C1.60156 17.3313 3.39771 15.5352 5.60547 15.5352H13.6934C14.1356 15.5352 14.4941 15.1766 14.4941 14.7344C14.4941 14.2921 14.1356 13.9336 13.6934 13.9336H5.60547C2.51461 13.9336 0 16.4482 0 19.5391V31.8711C0 34.9619 2.51461 37.4766 5.60547 37.4766H10.3988L13.6877 40.7655C13.8409 40.9186 14.0456 41 14.2541 41C14.3571 41 14.4611 40.9801 14.56 40.9391C14.8593 40.8153 15.0544 40.5235 15.0547 40.1998L15.0566 37.4766H22.9023C25.9932 37.4766 28.5078 34.9619 28.5078 31.8711V26.3457C28.5078 25.9034 28.1492 25.5449 27.707 25.5449Z" fill="black"/>
<path fill-rule="evenodd" clip-rule="evenodd" d="M27.3343 0H29.361C35.7787 0 41 5.22125 41 11.639C41 13.4981 40.5745 15.275 39.7352 16.9203C38.9963 18.3689 37.9433 19.6656 36.6758 20.6921V25.3251C36.6758 25.6489 36.4807 25.9409 36.1815 26.0649C36.0825 26.1059 35.9784 26.1259 35.8752 26.1259C35.6668 26.1259 35.4621 26.0445 35.3089 25.8915L32.315 22.8993C31.3541 23.1507 30.3627 23.278 29.361 23.278H27.3343C20.9166 23.278 15.6953 18.0568 15.6953 11.639C15.6953 5.22125 20.9166 0 27.3343 0ZM35.0742 20.3016C35.0742 20.0501 35.1924 19.8132 35.3932 19.662C37.9386 17.7449 39.3984 14.8206 39.3984 11.639C39.3984 6.10436 34.8957 1.60156 29.361 1.60156H27.3343C21.7997 1.60156 17.2969 6.10436 17.2969 11.639C17.2969 17.1737 21.7996 21.6765 27.3343 21.6765H29.361C30.3669 21.6765 31.3602 21.528 32.3134 21.2351C32.3907 21.2113 32.47 21.1997 32.5485 21.1997C32.7576 21.1997 32.9622 21.2818 33.1146 21.4341L35.0742 23.3927V20.3016Z" fill="black"/>
<path d="M31.9539 8.76205C31.8384 7.08562 30.487 5.73422 28.8105 5.61867C27.8601 5.5534 26.9531 5.87396 26.2589 6.52203C25.5743 7.16113 25.1816 8.06457 25.1816 9.00077C25.1816 9.44304 25.5402 9.80155 25.9824 9.80155C26.4246 9.80155 26.7832 9.44304 26.7832 9.00077C26.7832 8.49956 26.9852 8.03502 27.3518 7.69285C27.718 7.351 28.1967 7.18179 28.7004 7.21655C29.5835 7.27741 30.2953 7.98922 30.3562 8.87224C30.4177 9.76407 29.8326 10.5522 28.965 10.7463C28.2621 10.9036 27.7712 11.5144 27.7712 12.2317V14.1556C27.7712 14.5978 28.1298 14.9563 28.572 14.9563C29.0143 14.9563 29.3728 14.5978 29.3727 14.1556V12.2957C30.9863 11.9058 32.0688 10.4294 31.9539 8.76205Z" fill="black"/>
<path d="M29.1379 16.7571C28.989 16.6081 28.7824 16.5225 28.5718 16.5225C28.3612 16.5225 28.1546 16.6081 28.0056 16.7571C27.8567 16.906 27.771 17.1126 27.771 17.3232C27.771 17.5346 27.8568 17.7413 28.0056 17.8902C28.1546 18.0391 28.3612 18.124 28.5718 18.124C28.7824 18.124 28.989 18.0391 29.1379 17.8902C29.2869 17.7404 29.3726 17.5346 29.3726 17.3232C29.3726 17.1126 29.2868 16.906 29.1379 16.7571Z" fill="black"/>
<path d="M22.0215 24.8242H5.125C4.68281 24.8242 4.32422 25.1827 4.32422 25.625C4.32422 26.0673 4.68281 26.4258 5.125 26.4258H22.0215C22.4638 26.4258 22.8223 26.0673 22.8223 25.625C22.8223 25.1827 22.4637 24.8242 22.0215 24.8242Z" fill="black"/>
<path d="M22.5876 29.5432C22.4387 29.3943 22.2321 29.3086 22.0215 29.3086C21.8109 29.3086 21.6043 29.3943 21.4553 29.5432C21.3063 29.6922 21.2207 29.8988 21.2207 30.1094C21.2207 30.32 21.3064 30.5266 21.4553 30.6755C21.6043 30.8245 21.8109 30.9102 22.0215 30.9102C22.2321 30.9102 22.4387 30.8245 22.5876 30.6755C22.7366 30.5266 22.8223 30.3208 22.8223 30.1094C22.8223 29.8988 22.7365 29.6922 22.5876 29.5432Z" fill="black"/>
<path d="M18.8718 29.3086H5.125C4.68281 29.3086 4.32422 29.6671 4.32422 30.1094C4.32422 30.5516 4.68281 30.9102 5.125 30.9102H18.8718C19.314 30.9102 19.6726 30.5516 19.6726 30.1094C19.6726 29.6671 19.314 29.3086 18.8718 29.3086Z" fill="black"/>
<path d="M16.8164 20.3398H5.125C4.68281 20.3398 4.32422 20.6984 4.32422 21.1406C4.32422 21.5829 4.68281 21.9414 5.125 21.9414H16.8164C17.2587 21.9414 17.6172 21.5829 17.6172 21.1406C17.6172 20.6984 17.2586 20.3398 16.8164 20.3398Z" fill="black"/>
</svg>
