<?xml version="1.0" encoding="UTF-8" standalone="no"?><!DOCTYPE svg PUBLIC "-//W3C//DTD SVG 1.1//EN" "http://www.w3.org/Graphics/SVG/1.1/DTD/svg11.dtd"><svg width="100%" height="100%" viewBox="0 0 53 53" version="1.1" xmlns="http://www.w3.org/2000/svg" xmlns:xlink="http://www.w3.org/1999/xlink" xml:space="preserve" xmlns:serif="http://www.serif.com/" style="fill-rule:evenodd;clip-rule:evenodd;stroke-linejoin:round;stroke-miterlimit:1.41421;"><path d="M51.102,42.291l-17.621,0l0,-32.6c-0.004,-0.282 -0.145,-0.546 -0.378,-0.704l0.009,-0.013l-10.097,-7.212l28.087,0l0,40.529Zm-49.339,8.811l29.956,0l0,-40.529l-29.956,0l0,40.529Zm19.383,-48.509l8.704,6.218l-8.704,0l0,-6.218Zm30.837,-2.593l-31.718,0c-0.487,0 -0.881,0.395 -0.881,0.881l0,7.93l-18.503,0c-0.486,0 -0.881,0.394 -0.881,0.88l0,42.292c0,0.486 0.395,0.881 0.881,0.881l31.719,0c0.486,0 0.881,-0.395 0.881,-0.881l0,-7.93l18.502,0c0.487,0 0.881,-0.394 0.881,-0.881l0,-42.291c0,-0.486 -0.394,-0.881 -0.881,-0.881Z" style="fill:#fff;"/><g><path d="M37.885,9.692l8.811,0l0,-3.524l-8.811,0l0,3.524Zm9.693,-5.287l-10.573,0c-0.487,0 -0.881,0.395 -0.881,0.881l0,5.287c0,0.486 0.394,0.881 0.881,0.881l10.573,0c0.486,0 0.881,-0.395 0.881,-0.881l0,-5.287c0,-0.486 -0.395,-0.881 -0.881,-0.881Z" style="fill:#fff;"/><rect x="36.124" y="13.216" width="1.762" height="1.762" style="fill:#fff;"/><rect x="39.648" y="13.216" width="8.811" height="1.762" style="fill:#fff;"/><rect x="36.124" y="16.74" width="12.335" height="1.762" style="fill:#fff;"/><rect x="36.124" y="20.264" width="12.335" height="1.762" style="fill:#fff;"/><path d="M37.885,30.837l8.811,0l0,-3.524l-8.811,0l0,3.524Zm9.693,-5.286l-10.573,0c-0.487,0 -0.881,0.394 -0.881,0.881l0,5.286c0,0.487 0.394,0.881 0.881,0.881l10.573,0c0.486,0 0.881,-0.394 0.881,-0.881l0,-5.286c0,-0.487 -0.395,-0.881 -0.881,-0.881Z" style="fill:#fff;"/><rect x="36.124" y="34.362" width="1.762" height="1.762" style="fill:#fff;"/><rect x="39.648" y="34.362" width="8.811" height="1.762" style="fill:#fff;"/><rect x="36.124" y="37.886" width="12.335" height="1.762" style="fill:#fff;"/><path d="M6.168,46.696l5.286,0l0,-5.286l-5.286,0l0,5.286Zm6.167,-7.048l-7.049,0c-0.486,0 -0.881,0.395 -0.881,0.881l0,7.049c0,0.486 0.395,0.881 0.881,0.881l7.049,0c0.486,0 0.881,-0.395 0.881,-0.881l0,-7.049c0,-0.486 -0.395,-0.881 -0.881,-0.881Z" style="fill:#fff;"/><rect x="14.978" y="39.648" width="1.762" height="1.762" style="fill:#fff;"/><rect x="18.503" y="39.648" width="10.573" height="1.762" style="fill:#fff;"/><rect x="14.978" y="43.172" width="14.097" height="1.762" style="fill:#fff;"/><rect x="14.978" y="46.696" width="14.097" height="1.762" style="fill:#fff;"/><path d="M26.432,26.948l-3.783,-3.783c-0.343,-0.343 -0.902,-0.343 -1.245,0l-3.783,3.783l-4.664,-4.664c-0.325,-0.325 -0.846,-0.345 -1.195,-0.045l-4.714,4.039l0,-10.419l19.384,0l0,11.089Zm0,4.77l-19.384,0l0,-3.119l5.24,-4.493l6.472,6.471l1.246,-1.246l-1.139,-1.137l3.159,-3.16l4.406,4.406l0,2.278Zm0.881,-17.622l-21.146,0c-0.486,0 -0.881,0.395 -0.881,0.882l0,17.621c0,0.487 0.395,0.881 0.881,0.881l21.146,0c0.486,0 0.881,-0.394 0.881,-0.881l0,-17.621c0,-0.487 -0.395,-0.882 -0.881,-0.882Z" style="fill:#fff;"/><path d="M17.621,21.146c-0.486,0 -0.881,-0.395 -0.881,-0.881c0,-0.487 0.395,-0.881 0.881,-0.881c0.487,0 0.881,0.394 0.881,0.881c0,0.486 -0.394,0.881 -0.881,0.881Zm0,-3.524c-1.459,0 -2.643,1.183 -2.643,2.643c0,1.46 1.184,2.643 2.643,2.643c1.46,0 2.644,-1.183 2.644,-2.643c0,-1.46 -1.184,-2.643 -2.644,-2.643Z" style="fill:#fff;"/><rect x="9.692" y="17.621" width="1.762" height="1.762" style="fill:#fff;"/><rect x="22.908" y="19.383" width="1.762" height="1.762" style="fill:#fff;"/></g></svg>