<svg width="44" height="39" viewBox="0 0 44 39" fill="none" xmlns="http://www.w3.org/2000/svg">
<path fill-rule="evenodd" clip-rule="evenodd" d="M40.0305 4.45794C39.8704 4.30134 39.6504 4.21246 39.4254 4.21246C39.1996 4.21246 38.9796 4.30134 38.8195 4.45794C38.66 4.61383 38.5699 4.82897 38.5699 5.04976C38.5699 5.26984 38.66 5.48569 38.8195 5.64158C38.9789 5.79677 39.1996 5.88635 39.4254 5.88635C39.6504 5.88635 39.8704 5.79747 40.0305 5.64158C40.19 5.48569 40.2801 5.26984 40.2801 5.04976C40.2801 4.82897 40.19 4.61383 40.0305 4.45794Z" fill="#F05442"/>
<path fill-rule="evenodd" clip-rule="evenodd" d="M20.3737 24.1691C20.2136 24.0125 19.9943 23.9236 19.7686 23.9236C19.5428 23.9236 19.3228 24.0125 19.1627 24.1691C19.004 24.325 18.9131 24.5401 18.9131 24.7609C18.9131 24.981 19.004 25.1968 19.1627 25.3527C19.3228 25.5079 19.5428 25.5975 19.7686 25.5975C19.9936 25.5975 20.2136 25.5086 20.3737 25.3527C20.5332 25.1968 20.624 24.981 20.624 24.7609C20.624 24.5401 20.5332 24.325 20.3737 24.1691Z" fill="#F05442"/>
<mask id="mask0" mask-type="alpha" maskUnits="userSpaceOnUse" x="0" y="0" width="44" height="37">
<path fill-rule="evenodd" clip-rule="evenodd" d="M0 0.705444V36.3134H43.8161V0.705444L0 0.705444L0 0.705444Z" fill="white"/>
</mask>
<g mask="url(#mask0)">
<path fill-rule="evenodd" clip-rule="evenodd" d="M36.1591 24.3459C35.8735 24.6252 35.4934 24.7797 35.0887 24.7797C34.6848 24.7797 34.3046 24.6252 34.019 24.3459L30.4564 20.8619C30.4564 20.8619 30.4564 20.8619 30.4557 20.8619L27.1052 17.5854C26.7713 17.2581 26.2296 17.2581 25.8956 17.5854C25.5609 17.912 25.5609 18.4417 25.8956 18.769L32.8079 25.5295C33.3987 26.1065 33.3987 27.0454 32.8079 27.6224C32.5223 27.9024 32.1421 28.0562 31.7382 28.0562C31.3343 28.0562 30.9541 27.9024 30.6678 27.6224L23.7547 20.8619C23.4208 20.5353 22.8783 20.5353 22.5444 20.8619C22.2104 21.1885 22.2104 21.719 22.5444 22.0456L25.8949 25.3221C25.8949 25.3221 25.8949 25.3221 25.8956 25.3228L29.4574 28.806C30.0475 29.3837 30.0475 30.3226 29.4574 30.8996C28.8674 31.4766 27.9073 31.4766 27.3173 30.8996L23.7547 27.4157C23.6891 27.3515 23.6148 27.3 23.5362 27.2612L22.5199 26.2673C22.1859 25.9407 21.6435 25.9407 21.3095 26.2673C20.9755 26.5946 20.9755 27.1244 21.3095 27.451L26.0766 32.1129C26.6667 32.6899 26.6667 33.6288 26.0766 34.2058C25.7903 34.4858 25.4109 34.6396 25.0062 34.6396C24.6023 34.6396 24.2221 34.4858 23.9365 34.2058L22.1224 32.4317C22.2602 32.0776 22.3338 31.6974 22.3338 31.3066C22.3338 30.4644 21.9983 29.6722 21.3888 29.0769C20.78 28.4808 19.97 28.1528 19.108 28.1528C19.0648 28.1528 19.0215 28.1542 18.9782 28.1564C19.0128 27.3071 18.6998 26.4465 18.0383 25.7997C17.4288 25.2043 16.6195 24.8763 15.7576 24.8763C15.7143 24.8763 15.671 24.8777 15.6277 24.8791C15.6616 24.0298 15.3486 23.17 14.6871 22.5231C14.0783 21.9278 13.2683 21.5991 12.4071 21.5991C12.3638 21.5991 12.3205 21.6005 12.2772 21.6026C12.3111 20.7533 11.9981 19.8934 11.3366 19.2466C10.0794 18.0164 8.03303 18.0164 6.77579 19.2466L5.3007 20.6884C5.11461 20.8704 4.95736 21.0693 4.82608 21.2802C2.81579 19.1923 1.71218 16.4772 1.71218 13.5971C1.71218 10.6006 2.90523 7.78332 5.07205 5.66503C7.23815 3.54605 10.1191 2.37933 13.1832 2.37933C15.9675 2.37933 18.6002 3.34289 20.6834 5.10919L15.4243 10.2522C14.7297 10.9315 14.3474 11.8344 14.3474 12.7951C14.3474 13.7558 14.7297 14.6587 15.4243 15.338C16.1413 16.0392 17.0833 16.3898 18.0246 16.3898C18.9667 16.3898 19.908 16.0392 20.625 15.338L22.9555 13.0596H25.9728C26.2216 13.0596 26.4676 13.0427 26.7114 13.0131L36.1591 22.2523C36.7492 22.83 36.7492 23.7688 36.1591 24.3459ZM20.1785 32.3534L18.7034 33.796C18.4178 34.0753 18.0376 34.2298 17.633 34.2298C17.229 34.2298 16.8489 34.076 16.5633 33.796C15.9732 33.2189 15.9732 32.2801 16.5633 31.7031L18.0376 30.2605C18.324 29.9812 18.7041 29.8267 19.108 29.8267C19.5127 29.8267 19.8928 29.9812 20.1785 30.2605C20.4641 30.5399 20.6214 30.9116 20.6214 31.3066C20.6214 31.7024 20.4641 32.0741 20.1785 32.3534ZM13.2128 30.5194C12.9264 30.2394 12.7692 29.8676 12.7692 29.4726C12.7692 29.0776 12.9264 28.7059 13.2128 28.4258L14.6871 26.984V26.9833C14.9728 26.704 15.3529 26.5502 15.7576 26.5502C16.1615 26.5502 16.5416 26.704 16.828 26.9833C17.418 27.561 17.418 28.4999 16.828 29.0769L15.3529 30.5194C14.7629 31.0964 13.8028 31.0964 13.2128 30.5194ZM9.86156 27.2422C9.57592 26.9628 9.41867 26.5911 9.41867 26.1961C9.41867 25.8004 9.57592 25.4286 9.86156 25.1493L11.3366 23.7068C11.6223 23.4274 12.0024 23.273 12.4071 23.273C12.811 23.273 13.1911 23.4274 13.4768 23.7068C14.0675 24.2838 14.0675 25.2227 13.4768 25.7997L12.0024 27.2422C11.4117 27.8192 10.4516 27.8192 9.86156 27.2422ZM7.58077 24.3988C7.17684 24.3988 6.7967 24.245 6.51034 23.9657C6.2247 23.6856 6.06746 23.3146 6.06746 22.9189C6.06746 22.5238 6.2247 22.1521 6.51034 21.8728L7.98543 20.4302C8.27106 20.1502 8.65192 19.9964 9.05585 19.9964C9.45979 19.9964 9.83992 20.1502 10.1263 20.4302C10.7163 21.0072 10.7163 21.9461 10.1263 22.5231L8.6512 23.9657C8.36556 24.245 7.98543 24.3988 7.58077 24.3988ZM42.1035 7.23735C41.8698 6.83598 41.3468 6.69561 40.9364 6.92345C40.5252 7.152 40.3817 7.6634 40.6154 8.06477C43.158 12.4368 42.3905 17.9769 38.7494 21.5377L38.1002 22.1726C37.9437 21.7698 37.7006 21.3924 37.3695 21.0693L28.576 12.4699C29.1509 12.1927 29.6825 11.8238 30.1484 11.3674L31.8356 9.7182C32.1696 9.39161 32.1696 8.86115 31.8356 8.53456C31.5009 8.20796 30.9592 8.20796 30.6252 8.53456L28.9381 10.1838C28.1461 10.959 27.0922 11.3857 25.972 11.3857H22.6006C22.3734 11.3857 22.1556 11.4739 21.9955 11.6305L19.4146 14.1544C18.6479 14.9042 17.4007 14.9042 16.634 14.1544C15.8679 13.4053 15.8679 12.1857 16.634 11.4358L22.5271 5.6735C26.1279 2.1522 31.7498 1.37768 36.1981 3.79011C36.6107 4.01442 37.1322 3.86841 37.3616 3.46422C37.5909 3.06003 37.4416 2.55074 37.0283 2.32643C34.5744 0.995359 31.6841 0.463496 28.8883 0.827477C26.2721 1.16818 23.8774 2.23967 21.9139 3.93965C19.5026 1.84888 16.4327 0.705444 13.1825 0.705444C9.66175 0.705444 6.35093 2.04639 3.86097 4.48139C1.371 6.9164 -0.000213623 10.1534 -0.000213623 13.5971C-0.000213623 17.0408 1.371 20.2779 3.86097 22.7129L4.18339 23.0282C4.23966 23.0832 4.30169 23.1276 4.36805 23.1643C4.42503 23.8888 4.7352 24.597 5.3007 25.1493C5.92897 25.7644 6.75487 26.0712 7.58077 26.0712C7.62333 26.0712 7.66661 26.0705 7.70988 26.0684C7.70772 26.1107 7.70628 26.1531 7.70628 26.1961C7.70628 27.0383 8.04241 27.8305 8.6512 28.4258C9.28018 29.0409 10.1054 29.3485 10.9313 29.3485C10.9745 29.3485 11.0178 29.3471 11.0604 29.3449C11.0589 29.3873 11.0575 29.4303 11.0575 29.4726C11.0575 30.3149 11.3929 31.107 12.0017 31.7024C12.6307 32.3175 13.4566 32.625 14.2825 32.625C14.3258 32.625 14.369 32.6236 14.413 32.6222C14.3777 33.4715 14.6907 34.332 15.3522 34.9796C15.9617 35.5749 16.7717 35.9037 17.633 35.9037C18.4949 35.9037 19.3042 35.5749 19.9138 34.9796L21.1097 33.8101L22.7254 35.3894C23.3342 35.9855 24.1442 36.3135 25.0062 36.3135C25.8675 36.3135 26.6768 35.9855 27.2863 35.3894C27.9557 34.7348 28.2694 33.8608 28.2254 33.0017C28.2788 33.0038 28.3329 33.0052 28.387 33.0052C29.2129 33.0052 30.0388 32.6984 30.6678 32.0833C31.3292 31.4364 31.6416 30.5758 31.6077 29.7273C31.6509 29.7287 31.6942 29.7301 31.7375 29.7301C32.5987 29.7301 33.4088 29.4021 34.0183 28.806C34.6797 28.1592 34.9928 27.2993 34.9581 26.45C35.0014 26.4521 35.0447 26.4536 35.0887 26.4536C35.9499 26.4536 36.76 26.1248 37.3688 25.5295C37.6782 25.2269 37.9112 24.8777 38.0684 24.5046C38.1514 24.4651 38.23 24.4122 38.2993 24.3444L39.959 22.7213C44.1433 18.6294 45.0255 12.2625 42.1035 7.23735Z" fill="#F05442"/>
</g>
</svg>
