<svg width="32" height="40" viewBox="0 0 32 40" fill="none" xmlns="http://www.w3.org/2000/svg">
<path fill-rule="evenodd" clip-rule="evenodd" d="M29.2108 0H8.02746C6.5195 0 5.29233 1.27819 5.29233 2.84792V4.66672H2.80243C1.29447 4.66672 0.0673828 5.94491 0.0673828 7.51464V37.0844C0.0673828 38.6541 1.29447 39.9323 2.80243 39.9323H23.9865C25.4946 39.9323 26.7216 38.6541 26.7216 37.0844V35.2656H29.2108C30.719 35.2656 31.946 33.9874 31.946 32.4177V2.84792C31.946 1.27819 30.719 0 29.2108 0ZM24.5337 37.0844C24.5337 37.3981 24.2877 37.654 23.9865 37.654H2.80243C2.50128 37.654 2.25534 37.398 2.25534 37.0844V7.51464C2.25534 7.20066 2.50128 6.94499 2.80243 6.94499H5.29233V32.4176C5.29233 33.9873 6.5195 35.2655 8.02746 35.2655H24.5337V37.0844ZM29.2108 32.9874C29.5126 32.9874 29.758 32.7314 29.758 32.4177H29.7579V2.84792C29.7579 2.5341 29.5126 2.27827 29.2107 2.27827H8.02746C7.72568 2.27827 7.48045 2.53402 7.48045 2.84792V32.4177C7.48045 32.7314 7.7256 32.9874 8.02746 32.9874H29.2108Z" fill="black"/>
<path d="M26.6426 7.0752H10.597C9.99283 7.0752 9.50293 7.58571 9.50293 8.21425C9.50293 8.84402 9.99291 9.35346 10.597 9.35346H26.6424C27.2467 9.35346 27.7364 8.84394 27.7364 8.21425C27.7366 7.58579 27.2467 7.0752 26.6426 7.0752Z" fill="black"/>
<path d="M26.6426 12.4971H10.597C9.99283 12.4971 9.50293 13.0074 9.50293 13.6361C9.50293 14.2657 9.99291 14.7753 10.597 14.7753H26.6424C27.2467 14.7753 27.7364 14.2656 27.7364 13.6361C27.7366 13.0075 27.2467 12.4971 26.6426 12.4971Z" fill="black"/>
<path d="M26.6426 17.9189H10.597C9.99283 17.9189 9.50293 18.4295 9.50293 19.0582C9.50293 19.6878 9.99291 20.1973 10.597 20.1973H26.6424C27.2467 20.1973 27.7364 19.6878 27.7364 19.0582C27.7366 18.4295 27.2467 17.9189 26.6426 17.9189Z" fill="black"/>
<path d="M26.6426 23.3413H10.597C9.99283 23.3413 9.50293 23.8519 9.50293 24.4804C9.50293 25.1103 9.99291 25.6196 10.597 25.6196H26.6424C27.2467 25.6196 27.7364 25.1101 27.7364 24.4804C27.7366 23.8519 27.2467 23.3413 26.6426 23.3413Z" fill="black"/>
</svg>
