<svg width="50" height="51" viewBox="0 0 50 51" fill="none" xmlns="http://www.w3.org/2000/svg">
<mask id="mask0" mask-type="alpha" maskUnits="userSpaceOnUse" x="0" y="1" width="50" height="35">
<path fill-rule="evenodd" clip-rule="evenodd" d="M0 1H49.8637V35.0194H0V1Z" fill="white"/>
</mask>
<g mask="url(#mask0)">
<path fill-rule="evenodd" clip-rule="evenodd" d="M48.073 33.228H1.79V4.58202C1.79 3.59302 2.594 2.79102 3.582 2.79102H46.282C47.269 2.79102 48.073 3.59302 48.073 4.58202V33.228ZM46.282 0.999023H3.582C1.606 0.999023 0 2.60702 0 4.58202V34.124C0 34.618 0.401 35.019 0.895 35.019H48.969C49.463 35.019 49.864 34.618 49.864 34.124V4.58202C49.864 2.60702 48.257 0.999023 46.282 0.999023Z" fill="black"/>
</g>
<mask id="mask1" mask-type="alpha" maskUnits="userSpaceOnUse" x="0" y="33" width="50" height="10">
<path fill-rule="evenodd" clip-rule="evenodd" d="M0 33.2285H49.8637V42.1815H0V33.2285Z" fill="white"/>
</mask>
<g mask="url(#mask1)">
<path fill-rule="evenodd" clip-rule="evenodd" d="M48.073 38.5995C48.073 39.5875 47.269 40.3905 46.282 40.3905H3.582C2.594 40.3905 1.79 39.5875 1.79 38.5995V35.0195H48.073V38.5995ZM48.969 33.2285H0.895C0.401 33.2285 0 33.6295 0 34.1235V38.5995C0 40.5745 1.606 42.1815 3.582 42.1815H46.282C48.257 42.1815 49.864 40.5745 49.864 38.5995V34.1235C49.864 33.6295 49.463 33.2285 48.969 33.2285Z" fill="black"/>
</g>
<path fill-rule="evenodd" clip-rule="evenodd" d="M27.6176 36.8096H22.2466C21.7526 36.8096 21.3506 37.2106 21.3506 37.7056C21.3506 38.1996 21.7526 38.6006 22.2466 38.6006H27.6176C28.1116 38.6006 28.5136 38.1996 28.5136 37.7056C28.5136 37.2106 28.1116 36.8096 27.6176 36.8096Z" fill="black"/>
<path fill-rule="evenodd" clip-rule="evenodd" d="M5.37105 33.2281H44.4921V6.37205H5.37105V33.2281ZM45.3881 4.58105H4.47705C3.98205 4.58105 3.58105 4.98205 3.58105 5.47605V34.1241C3.58105 34.6181 3.98205 35.0191 4.47705 35.0191H45.3881C45.8821 35.0191 46.2831 34.6181 46.2831 34.1241V5.47605C46.2831 4.98205 45.8821 4.58105 45.3881 4.58105Z" fill="black"/>
<path fill-rule="evenodd" clip-rule="evenodd" d="M36.5704 49.2089H13.2944C12.7994 49.2089 12.3984 48.8069 12.3984 48.3129C12.3984 47.8199 12.7994 47.4179 13.2944 47.4179H36.5704C37.0644 47.4179 37.4664 47.8199 37.4664 48.3129C37.4664 48.8069 37.0644 49.2089 36.5704 49.2089ZM36.5704 45.6279H13.2944C11.8134 45.6279 10.6084 46.8329 10.6084 48.3129C10.6084 49.7939 11.8134 50.9989 13.2944 50.9989H36.5704C38.0504 50.9989 39.2564 49.7939 39.2564 48.3129C39.2564 46.8329 38.0504 45.6279 36.5704 45.6279Z" fill="black"/>
<path fill-rule="evenodd" clip-rule="evenodd" d="M19.4455 45.6276C20.6645 45.6276 21.1965 44.5136 21.3275 42.1816H28.5385C28.6685 44.5136 29.0275 45.6276 30.4205 45.6276H19.4455ZM34.7795 45.6276C31.8095 45.6276 30.3035 45.4436 30.3035 41.2856C30.3035 40.7916 29.9025 40.3906 29.4085 40.3906H20.4565C19.9625 40.3906 19.5605 40.7916 19.5605 41.2856C19.5605 45.4436 18.0545 45.6276 15.0845 45.6276C14.5905 45.6276 14.1895 46.0276 14.1895 46.5226C14.1895 47.0166 14.5905 47.4176 15.0845 47.4176H34.7795C35.2735 47.4176 35.6745 47.0166 35.6745 46.5226C35.6745 46.0276 35.2735 45.6276 34.7795 45.6276Z" fill="black"/>
<path fill-rule="evenodd" clip-rule="evenodd" d="M37.6881 29.2767L35.7201 27.3077C35.4921 27.0797 35.1931 26.9657 34.8941 26.9657C34.5941 26.9657 34.2941 27.0807 34.0681 27.3067L33.4211 27.9537L31.6441 22.0297L37.5681 23.8067L36.8751 24.4997C36.6841 24.6917 36.5801 24.9457 36.5801 25.2157C36.5801 25.4877 36.6851 25.7437 36.8761 25.9327L38.9541 28.0097L37.6881 29.2767ZM40.8521 27.3777L38.6911 25.2157L39.8941 24.0137C40.1171 23.7907 40.2071 23.4667 40.1291 23.1617C40.0521 22.8557 39.8201 22.6147 39.5181 22.5227L30.5661 19.8377C30.2511 19.7427 29.9091 19.8297 29.6761 20.0617C29.4431 20.2957 29.3571 20.6367 29.4521 20.9517L32.1371 29.9047C32.2281 30.2077 32.4701 30.4387 32.7761 30.5157C33.0801 30.5907 33.4051 30.5037 33.6271 30.2807L34.8941 29.0137L37.0551 31.1747C37.2221 31.3437 37.4511 31.4377 37.6881 31.4377C37.9251 31.4377 38.1531 31.3437 38.3211 31.1747L40.8521 28.6427C41.2031 28.2937 41.2031 27.7267 40.8521 27.3777Z" fill="black"/>
<path fill-rule="evenodd" clip-rule="evenodd" d="M11.5029 12.6391H34.7789V9.95311H11.5029V12.6391ZM35.6749 8.16211H10.6079C10.1139 8.16211 9.71289 8.56311 9.71289 9.05811V13.5341C9.71289 14.0281 10.1139 14.4291 10.6079 14.4291H35.6749C36.1689 14.4291 36.5699 14.0281 36.5699 13.5341V9.05811C36.5699 8.56311 36.1689 8.16211 35.6749 8.16211Z" fill="black"/>
<path fill-rule="evenodd" clip-rule="evenodd" d="M15.0839 21.5908H20.4559V19.8008H15.0839V21.5908ZM21.3509 18.0098H14.1899C13.6949 18.0098 13.2939 18.4108 13.2939 18.9048V22.4858C13.2939 22.9798 13.6949 23.3808 14.1899 23.3808H21.3509C21.8449 23.3808 22.2459 22.9798 22.2459 22.4858V18.9048C22.2459 18.4108 21.8449 18.0098 21.3509 18.0098Z" fill="black"/>
<path fill-rule="evenodd" clip-rule="evenodd" d="M34.7799 21.1021L30.5659 19.8371C30.2509 19.7431 29.9089 19.8301 29.6759 20.0621C29.4429 20.2951 29.3569 20.6371 29.4519 20.9531L30.7179 25.1711H11.5039V9.95311H34.7799V21.1021ZM35.6759 8.16211H10.6089C10.1149 8.16211 9.71387 8.56311 9.71387 9.05711V26.0671C9.71387 26.5611 10.1149 26.9611 10.6089 26.9611H31.9209C32.2049 26.9611 32.4699 26.8291 32.6389 26.6011C32.8079 26.3731 32.8599 26.0801 32.7789 25.8091L31.6449 22.0301L35.4189 23.1631C35.6899 23.2441 35.9839 23.1921 36.2099 23.0231C36.4369 22.8541 36.5709 22.5871 36.5709 22.3051V9.05711C36.5709 8.56311 36.1699 8.16211 35.6759 8.16211Z" fill="black"/>
</svg>
