<svg width="57" height="44" viewBox="0 0 57 44" fill="none" xmlns="http://www.w3.org/2000/svg">
<path fill-rule="evenodd" clip-rule="evenodd" d="M54.7362 41.4488C54.7362 41.5848 54.6252 41.6958 54.4892 41.6958H1.89924C1.76324 41.6958 1.65224 41.5848 1.65224 41.4488V40.1798H54.7362V41.4488ZM34.3562 38.5278H22.0322L22.8022 35.7348H33.5862L34.3562 38.5278ZM5.84024 31.2898H50.5482L54.2172 38.5278H36.0692L35.1582 35.2248C34.9732 34.5528 34.3572 34.0828 33.6592 34.0828H22.7292C22.0312 34.0828 21.4152 34.5528 21.2292 35.2248L20.3192 38.5278H2.17124L5.84024 31.2898ZM6.15924 29.6378H50.2292V1.65176H6.15924V29.6378ZM56.3852 39.3028C56.3852 39.2938 56.3852 39.2858 56.3842 39.2778C56.3812 39.2448 56.3772 39.2128 56.3702 39.1818C56.3692 39.1778 56.3682 39.1758 56.3672 39.1728C56.3612 39.1438 56.3532 39.1158 56.3432 39.0878C56.3412 39.0798 56.3382 39.0738 56.3352 39.0658C56.3262 39.0408 56.3162 39.0168 56.3042 38.9928C56.3022 38.9888 56.3012 38.9848 56.2982 38.9798L51.8812 30.2668V1.59876C51.8812 0.717756 51.1642 -0.000244141 50.2822 -0.000244141H6.10624C5.22424 -0.000244141 4.50724 0.717756 4.50724 1.59876V30.2668L0.0892441 38.9798C0.0872441 38.9848 0.0862441 38.9888 0.0842441 38.9928C0.0722441 39.0168 0.0622441 39.0408 0.0522441 39.0658C0.0492441 39.0728 0.0472441 39.0798 0.0452441 39.0878C0.0352441 39.1158 0.0272441 39.1438 0.0202441 39.1728C0.0202441 39.1758 0.0192441 39.1778 0.0182441 39.1808C0.0112441 39.2128 0.00724414 39.2448 0.00424414 39.2778C0.00324414 39.2858 0.00324414 39.2938 0.00324414 39.3028C0.00124414 39.3198 0.000244141 39.3368 0.000244141 39.3538V41.4488C0.000244141 42.4958 0.852244 43.3478 1.89924 43.3478H54.4892C55.5362 43.3478 56.3882 42.4958 56.3882 41.4488V39.3538C56.3882 39.3368 56.3862 39.3198 56.3852 39.3028Z" fill="white"/>
<path fill-rule="evenodd" clip-rule="evenodd" d="M47.6409 17.0217C47.1849 17.0217 46.8149 17.3917 46.8149 17.8477V26.2237H9.5729V17.8477C9.5729 17.3917 9.2029 17.0217 8.7469 17.0217C8.2909 17.0217 7.9209 17.3917 7.9209 17.8477V26.5807C7.9209 27.2947 8.5019 27.8757 9.2159 27.8757H47.1719C47.8859 27.8757 48.4669 27.2947 48.4669 26.5807V17.8477C48.4669 17.3917 48.0979 17.0217 47.6409 17.0217Z" fill="white"/>
<path fill-rule="evenodd" clip-rule="evenodd" d="M47.1719 3.41406H9.21588C8.50288 3.41406 7.92188 3.99506 7.92188 4.70906V13.4421C7.92188 13.8991 8.29087 14.2681 8.74687 14.2681C9.20387 14.2681 9.57288 13.8991 9.57288 13.4421V5.06606H46.8159V13.4421C46.8159 13.8991 47.1849 14.2681 47.6409 14.2681C48.0979 14.2681 48.4669 13.8991 48.4669 13.4421V4.70906C48.4669 3.99506 47.8859 3.41406 47.1719 3.41406Z" fill="white"/>
</svg>
