<svg width="40" height="29" viewBox="0 0 40 29" fill="none" xmlns="http://www.w3.org/2000/svg">
<path d="M19.546 20.1536C19.546 24.5132 16.0118 28.0474 11.6521 28.0474C7.29249 28.0474 3.7583 24.5132 3.7583 20.1536C3.7583 15.794 7.29249 12.2598 11.6521 12.2598C16.0118 12.2598 19.546 15.794 19.546 20.1536Z" fill="#F05442"/>
<path d="M4.1773 20.2234C4.17527 20.6664 4.53262 21.0238 4.9756 21.0217C5.41858 21.0197 5.77923 20.659 5.78126 20.2161C5.79887 16.3844 7.3119 12.7709 10.0416 10.0412C12.7713 7.31152 16.3849 5.79854 20.2165 5.78093C20.6595 5.7789 21.0201 5.41825 21.0221 4.97532C21.0232 4.75383 20.9343 4.55385 20.7898 4.40934C20.6453 4.26488 20.4452 4.17601 20.2238 4.17702C15.9637 4.1966 11.9466 5.87829 8.91251 8.91238C5.87852 11.9464 4.19683 15.9634 4.1773 20.2234Z" fill="#F05442"/>
<path fill-rule="evenodd" clip-rule="evenodd" d="M4.97699 21.3256C4.36525 21.3285 3.87089 20.8341 3.8737 20.2223C3.89359 15.8817 5.6077 11.7882 8.69783 8.69802C11.7881 5.60779 15.8816 3.89369 20.2224 3.87374C20.5277 3.87234 20.8048 3.9953 21.0045 4.19498C21.2041 4.39462 21.3272 4.67161 21.3257 4.97717L21.3257 4.97717C21.3229 5.58666 20.8274 6.08206 20.2179 6.08486C16.467 6.1021 12.9298 7.58264 10.2562 10.2562C7.5827 12.9298 6.10211 16.4668 6.08487 20.2178C6.08207 20.8273 5.58656 21.3228 4.97699 21.3256ZM4.48091 20.2251C4.47965 20.4994 4.69999 20.7197 4.9742 20.7184C5.25059 20.7172 5.47639 20.4914 5.47766 20.215C5.49564 16.3026 7.04109 12.6127 9.82688 9.82687C12.6127 7.04103 16.3028 5.49563 20.2151 5.47765C20.4915 5.47638 20.7173 5.25057 20.7185 4.97428L20.7185 4.97411C20.7192 4.83669 20.6645 4.71371 20.5751 4.62434C20.4859 4.53511 20.3627 4.48032 20.2252 4.48095C16.0457 4.50016 12.1051 6.14943 9.1272 9.12739C6.14934 12.1052 4.50007 16.0458 4.48091 20.2251V20.2251Z" fill="#F05442"/>
<path d="M37.7623 20.1536C37.7623 24.5132 34.2281 28.0474 29.8684 28.0474C25.5088 28.0474 21.9746 24.5132 21.9746 20.1536C21.9746 15.794 25.5088 12.2598 29.8684 12.2598C34.2281 12.2598 37.7623 15.794 37.7623 20.1536Z" fill="#F05442"/>
<path d="M22.3936 20.2234C22.3916 20.6664 22.7489 21.0238 23.1919 21.0217C23.6349 21.0197 23.9955 20.659 23.9976 20.2161C24.0152 16.3844 25.5282 12.7709 28.2579 10.0412C30.9876 7.31152 34.6012 5.79854 38.4328 5.78093C38.8758 5.7789 39.2364 5.41825 39.2384 4.97532C39.2395 4.75383 39.1506 4.55385 39.0061 4.40934C38.8616 4.26488 38.6615 4.17601 38.4401 4.17702C34.18 4.1966 30.1629 5.87829 27.1288 8.91238C24.0948 11.9464 22.4131 15.9634 22.3936 20.2234Z" fill="#F05442"/>
<path fill-rule="evenodd" clip-rule="evenodd" d="M23.1933 21.3256C22.5816 21.3285 22.0872 20.8341 22.09 20.2223C22.1099 15.8817 23.824 11.7882 26.9141 8.69802C30.0044 5.60779 34.0979 3.89369 38.4387 3.87374C38.744 3.87234 39.0211 3.9953 39.2208 4.19498C39.4204 4.39462 39.5436 4.67161 39.542 4.97717L39.542 4.97717C39.5392 5.58666 39.0437 6.08206 38.4342 6.08486C34.6833 6.1021 31.1462 7.58264 28.4726 10.2562C25.799 12.9298 24.3184 16.4668 24.3012 20.2178C24.2984 20.8273 23.8029 21.3228 23.1933 21.3256ZM22.6972 20.2251C22.696 20.4994 22.9163 20.7197 23.1905 20.7184C23.4669 20.7172 23.6927 20.4914 23.694 20.215C23.7119 16.3026 25.2574 12.6127 28.0432 9.82687C30.829 7.04103 34.5191 5.49563 38.4314 5.47765C38.7078 5.47638 38.9336 5.25057 38.9348 4.97428L38.9348 4.97411C38.9355 4.83669 38.8808 4.71371 38.7914 4.62434C38.7022 4.53511 38.579 4.48032 38.4415 4.48095C34.262 4.50016 30.3215 6.14943 27.3435 9.12739C24.3656 12.1052 22.7164 16.0458 22.6972 20.2251V20.2251Z" fill="#F05442"/>
</svg>
