<svg width="34" height="34" viewBox="0 0 34 34" fill="none" xmlns="http://www.w3.org/2000/svg">
<mask id="mask0" mask-type="alpha" maskUnits="userSpaceOnUse" x="0" y="0" width="34" height="34">
<path fill-rule="evenodd" clip-rule="evenodd" d="M0 0H34V34H0V0Z" fill="white"/>
</mask>
<g mask="url(#mask0)">
<path fill-rule="evenodd" clip-rule="evenodd" d="M31.2448 28.5685C30.434 29.6206 29.1202 30.9362 27.8652 31.4713L27.7113 31.5236L27.6421 31.5327C27.4975 31.5508 27.1866 31.5809 26.7012 31.5809C25.1602 31.5809 17.1213 31.2168 10.0668 24.0292C2.71693 16.5508 2.3451 7.4813 2.57646 6.00575L2.59712 5.87399L2.66012 5.75429C3.19412 4.7545 4.32717 3.60886 5.69469 2.68954C5.86305 2.58795 6.00559 2.52156 6.14812 2.4753L6.19254 2.46222C6.8763 2.29425 7.62616 2.67948 8.33471 3.08784L8.69621 3.30812L8.7995 3.47509C9.47706 4.57546 10.3881 8.23768 10.575 9.42657L10.6204 9.71323L10.4686 9.96268C10.1835 10.4294 9.40269 11.1968 8.48551 12.0769L8.30682 12.255C7.67677 12.9148 7.48879 13.8733 7.83273 14.6891C8.8057 16.8858 10.9912 19.7252 12.5498 21.2792C14.0837 22.8182 16.672 24.8882 19.0012 26.0418C19.8336 26.4452 20.8872 26.2863 21.5596 25.6566L21.6897 25.5389C22.7277 24.5985 23.4972 23.9145 23.9434 23.6892L24.1996 23.5605L24.4836 23.6138C25.7355 23.8491 29.4744 24.9032 30.56 25.5892L30.7356 25.6999L30.9153 26.0187C31.3966 26.9048 31.818 27.8272 31.2448 28.5685M33.1049 24.8711L33.1039 24.8691L32.9035 24.514C31.8882 22.7216 25.8345 21.3537 24.2987 21.1465H24.2625L23.5829 21.2381C22.5758 21.4724 21.6266 22.2771 20.3996 23.3875L19.9472 23.7969L19.4132 23.4941C17.4156 22.3585 15.4232 20.6738 14.3222 19.5764C13.1643 18.4227 11.4074 16.216 10.4313 14.3974L10.1452 13.8643L10.5852 13.4439C11.993 12.0971 12.998 11.042 13.0817 9.74144C12.8793 7.88871 11.741 2.29228 9.98102 1.23817L9.62055 1.02393C9.00289 0.66787 7.84918 0 6.52504 0C6.20278 0 5.88156 0.0422448 5.51799 0.133775C5.09761 0.253469 4.71545 0.423454 4.32709 0.665858C3.24258 1.39207 1.2636 2.92294 0.305097 4.9366C-0.602796 6.9553 0.0954245 17.3887 8.26439 25.7019C16.014 33.6007 24.9824 34 26.7011 34C27.105 34 27.6865 33.9839 28.1585 33.9024L28.3382 33.8884L28.6915 33.7596C30.8842 32.8835 32.5812 30.8739 33.2082 30.0511C34.805 28.0395 33.5697 25.7381 33.1049 24.8711" fill="#FF533F"/>
</g>
</svg>
