<svg width="55" height="57" viewBox="0 0 55 57" fill="none" xmlns="http://www.w3.org/2000/svg">
<path fill-rule="evenodd" clip-rule="evenodd" d="M47.3652 39.3742H46.7332C43.5702 39.3742 40.9952 36.8042 40.9872 33.6422H53.1112C53.1032 36.8042 50.5292 39.3742 47.3652 39.3742ZM47.0412 19.5402L52.6652 32.0122H41.4322L47.0412 19.5402ZM45.4962 16.7942C43.2132 16.7942 41.0822 15.8872 39.4952 14.2402C38.3652 13.0652 36.7952 12.3922 35.1892 12.3922H19.8742C18.0012 12.3922 16.2622 13.1452 14.9782 14.5152C13.6182 15.9632 11.6402 16.7942 9.55224 16.7942H1.93424V15.1802H9.24524C11.1182 15.1802 12.8582 14.4262 14.1422 13.0582C15.5012 11.6082 17.4792 10.7772 19.5682 10.7772H35.1732C37.2622 10.7772 39.2402 11.6082 40.5992 13.0582C41.8842 14.4272 43.6232 15.1802 45.4962 15.1802H52.8062V16.7942H45.4962ZM38.4072 48.1322C38.8822 48.1322 39.2682 48.5182 39.2682 48.9922V50.4432H22.2522C21.8022 50.4432 21.4362 50.8082 21.4362 51.2582C21.4362 51.7082 21.8022 52.0732 22.2522 52.0732H42.3202C42.8182 52.0732 43.2232 52.4782 43.2232 52.9762V54.7582H11.5182V52.9762C11.5182 52.4782 11.9232 52.0732 12.4212 52.0732H17.0472C17.4972 52.0732 17.8622 51.7082 17.8622 51.2582C17.8622 50.8082 17.4972 50.4432 17.0472 50.4432H15.4732V48.9922C15.4732 48.5182 15.8592 48.1322 16.3332 48.1322H38.4072ZM13.3082 32.0122H2.07424L7.68424 19.5402L13.3082 32.0122ZM8.00824 39.3742H7.37624C4.21224 39.3742 1.63724 36.8042 1.63024 33.6422H13.7542C13.7462 36.8042 11.1712 39.3742 8.00824 39.3742ZM28.3882 8.16724V9.14724H26.3532V8.16724C26.3662 8.17124 26.3802 8.17324 26.3932 8.17624C26.4552 8.19124 26.5172 8.20524 26.5792 8.21724C26.6002 8.22124 26.6202 8.22424 26.6412 8.22824C26.7042 8.23924 26.7672 8.24924 26.8312 8.25724C26.8462 8.25924 26.8612 8.26124 26.8752 8.26324C27.0382 8.28224 27.2032 8.29324 27.3702 8.29324C27.4572 8.29324 27.5432 8.29024 27.6282 8.28524H27.6292C27.7082 8.28024 27.7862 8.27224 27.8652 8.26324C27.8802 8.26124 27.8952 8.25924 27.9112 8.25724C27.9742 8.24924 28.0372 8.23924 28.0992 8.22824C28.1202 8.22424 28.1412 8.22124 28.1622 8.21724C28.2252 8.20524 28.2872 8.19124 28.3482 8.17624C28.3622 8.17324 28.3752 8.17024 28.3882 8.16724ZM27.3702 1.63024C28.7582 1.63024 29.8872 2.75924 29.8872 4.14624C29.8872 5.03824 29.4222 5.82124 28.7212 6.26924C28.6912 6.28824 28.6602 6.30724 28.6292 6.32524C28.6132 6.33424 28.5962 6.34424 28.5802 6.35324C28.5372 6.37624 28.4932 6.39924 28.4492 6.42024C28.4342 6.42824 28.4182 6.43524 28.4022 6.44124C28.3672 6.45724 28.3312 6.47224 28.2962 6.48724C28.2812 6.49324 28.2652 6.49924 28.2502 6.50424C28.2022 6.52224 28.1542 6.53924 28.1052 6.55424C28.0932 6.55824 28.0792 6.56124 28.0662 6.56524C28.0252 6.57724 27.9842 6.58724 27.9432 6.59724C27.9292 6.60124 27.9152 6.60424 27.9012 6.60724C27.8492 6.61824 27.7972 6.62824 27.7432 6.63624C27.7352 6.63724 27.7262 6.63824 27.7182 6.63924C27.6722 6.64524 27.6252 6.65024 27.5792 6.65424C27.5642 6.65524 27.5502 6.65724 27.5352 6.65824C27.4802 6.66124 27.4262 6.66424 27.3702 6.66424C27.3152 6.66424 27.2612 6.66124 27.2062 6.65824C27.1912 6.65724 27.1772 6.65524 27.1622 6.65424C27.1162 6.65024 27.0702 6.64524 27.0242 6.63924C27.0152 6.63824 27.0062 6.63724 26.9972 6.63624C26.9452 6.62824 26.8922 6.61824 26.8402 6.60624C26.8262 6.60324 26.8122 6.60024 26.7982 6.59724C26.7572 6.58724 26.7162 6.57724 26.6752 6.56524C26.6622 6.56124 26.6492 6.55824 26.6362 6.55424C26.5872 6.53924 26.5392 6.52224 26.4912 6.50424C26.4752 6.49924 26.4602 6.49224 26.4442 6.48624C26.4092 6.47224 26.3742 6.45724 26.3402 6.44224C26.3232 6.43524 26.3072 6.42724 26.2912 6.42024C26.2472 6.39924 26.2042 6.37624 26.1612 6.35324C26.1442 6.34424 26.1282 6.33424 26.1112 6.32424C26.0812 6.30724 26.0512 6.28924 26.0212 6.27024C25.3202 5.82224 24.8532 5.03824 24.8532 4.14624C24.8532 2.75924 25.9832 1.63024 27.3702 1.63024ZM54.7412 32.8202C54.7412 32.8022 54.7402 32.7832 54.7382 32.7652C54.7382 32.7562 54.7372 32.7472 54.7362 32.7382C54.7342 32.7222 54.7322 32.7072 54.7292 32.6912C54.7272 32.6792 54.7252 32.6672 54.7232 32.6562C54.7202 32.6452 54.7172 32.6332 54.7142 32.6222C54.7102 32.6062 54.7062 32.5902 54.7012 32.5752C54.6982 32.5672 54.6952 32.5592 54.6922 32.5512C54.6862 32.5332 54.6792 32.5152 54.6722 32.4982C54.6712 32.4962 54.6702 32.4942 54.6692 32.4922L48.3262 18.4252H52.9712C53.7792 18.4252 54.4362 17.7682 54.4362 16.9592V15.0152C54.4362 14.2072 53.7792 13.5502 52.9712 13.5502H45.4962C44.0772 13.5502 42.7612 12.9792 41.7882 11.9422C40.1212 10.1662 37.7102 9.14724 35.1732 9.14724H30.0182V7.33524C30.9332 6.57424 31.5172 5.42724 31.5172 4.14624C31.5172 1.86024 29.6572 0.000244141 27.3702 0.000244141C25.0842 0.000244141 23.2232 1.86024 23.2232 4.14624C23.2232 5.42724 23.8072 6.57424 24.7232 7.33524V9.14724H19.5682C17.0312 9.14724 14.6192 10.1662 12.9532 11.9422C11.9802 12.9792 10.6632 13.5502 9.24524 13.5502H1.76924C0.962244 13.5502 0.304244 14.2072 0.304244 15.0162V16.9602C0.304244 17.7682 0.962244 18.4252 1.76924 18.4252H6.39824L0.0722441 32.4932C0.0712441 32.4952 0.0702441 32.4972 0.0692441 32.4992C0.0612441 32.5162 0.0552441 32.5332 0.0492441 32.5502C0.0462441 32.5592 0.0422441 32.5672 0.0392441 32.5762C0.0352441 32.5912 0.0312441 32.6062 0.0272441 32.6212C0.0242441 32.6332 0.0202441 32.6452 0.0182441 32.6572C0.0152441 32.6672 0.0142441 32.6792 0.0122441 32.6902C0.0102441 32.7062 0.00724414 32.7222 0.00524414 32.7382C0.00424414 32.7472 0.00424414 32.7552 0.00324414 32.7642C0.00224414 32.7832 0.000244141 32.8022 0.000244141 32.8212V32.8272V33.6272C0.000244141 37.6952 3.30924 41.0042 7.37624 41.0042H8.00824C12.0752 41.0042 15.3842 37.6952 15.3842 33.6272V32.8272V32.8202C15.3842 32.8022 15.3822 32.7842 15.3812 32.7662C15.3802 32.7562 15.3802 32.7472 15.3792 32.7382C15.3772 32.7222 15.3752 32.7072 15.3722 32.6912C15.3702 32.6802 15.3682 32.6672 15.3652 32.6562C15.3632 32.6442 15.3602 32.6332 15.3572 32.6222C15.3532 32.6062 15.3492 32.5902 15.3442 32.5752C15.3412 32.5672 15.3382 32.5592 15.3352 32.5512C15.3282 32.5332 15.3222 32.5152 15.3142 32.4982C15.3142 32.4982 15.3132 32.4942 15.3122 32.4922L8.96924 18.4252H9.55224C12.0892 18.4252 14.5002 17.4062 16.1672 15.6302C17.1392 14.5932 18.4562 14.0212 19.8742 14.0212H24.7232V46.5022H16.3332C14.9602 46.5022 13.8432 47.6192 13.8432 48.9922V50.4432H12.4212C11.0242 50.4432 9.88824 51.5792 9.88824 52.9762V55.5732C9.88824 56.0232 10.2532 56.3882 10.7032 56.3882H44.0382C44.4882 56.3882 44.8532 56.0232 44.8532 55.5732V52.9762C44.8532 51.5792 43.7172 50.4432 42.3202 50.4432H40.8982V48.9922C40.8982 47.6192 39.7812 46.5022 38.4072 46.5022H30.0182V22.9432C30.0182 22.4932 29.6532 22.1272 29.2032 22.1272C28.7532 22.1272 28.3882 22.4932 28.3882 22.9432V46.5022H26.3532V14.0212H28.3882V17.7872C28.3882 18.2372 28.7532 18.6022 29.2032 18.6022C29.6532 18.6022 30.0182 18.2372 30.0182 17.7872V14.0212H35.1892C36.3552 14.0212 37.4962 14.5132 38.3212 15.3702C40.2182 17.3402 42.7652 18.4252 45.4962 18.4252H45.7552L39.4282 32.4932L39.4272 32.4992C39.4192 32.5162 39.4122 32.5342 39.4062 32.5522C39.4032 32.5602 39.3992 32.5682 39.3972 32.5762C39.3922 32.5912 39.3882 32.6072 39.3842 32.6232C39.3812 32.6342 39.3782 32.6452 39.3752 32.6562C39.3732 32.6682 39.3712 32.6802 39.3692 32.6922C39.3662 32.7072 39.3642 32.7232 39.3622 32.7382C39.3612 32.7472 39.3612 32.7562 39.3602 32.7652C39.3592 32.7842 39.3572 32.8022 39.3572 32.8202C39.3572 32.8232 39.3572 32.8272 39.3572 32.8272V33.6272C39.3572 37.6952 42.6662 41.0042 46.7332 41.0042H47.3652C51.4322 41.0042 54.7412 37.6952 54.7412 33.6272V32.8272C54.7412 32.8272 54.7412 32.8232 54.7412 32.8202Z" fill="white"/>
</svg>
