<svg width="44" height="43" viewBox="0 0 44 43" fill="none" xmlns="http://www.w3.org/2000/svg">
<path fill-rule="evenodd" clip-rule="evenodd" d="M40.444 33.298L40.4187 33.709C40.2147 37.1201 37.1147 40.0554 33.6507 40.1202L29.2333 40.2497C27.1227 40.2893 24.3667 40.3105 21.6213 40.3105C18.8773 40.3105 16.1453 40.2893 14.0773 40.2497L9.476 40.1202C5.96667 40.0528 2.968 37.1809 2.79867 33.7183L2.77867 33.3139C2.57467 29.197 2.57467 13.6205 2.77867 9.50107L2.79733 9.10855C2.96933 5.64328 5.96667 2.78728 9.47867 2.73706L14.0507 2.63662C16.0773 2.6049 18.7347 2.59036 21.5373 2.59036C24.344 2.59036 27.1453 2.60622 29.22 2.63794L33.664 2.73441C37.1787 2.78464 40.2093 5.64725 40.4187 9.11516L40.444 9.52089C40.6907 13.6311 40.6907 29.1865 40.444 33.298ZM43.0413 8.96449C42.7547 4.17365 38.5653 0.218066 33.7 0.145377L29.2547 0.0462564C27.056 0.0145377 24.2307 0 21.4533 0C18.7107 0 16.0147 0.0145377 14.012 0.0462564L9.43867 0.146699C4.564 0.218066 0.408 4.18158 0.172 8.983L0.152 9.37816C-0.0506667 13.5399 -0.0506667 29.279 0.152 33.4394L0.172 33.8438C0.408 38.6373 4.55867 42.6154 9.42533 42.7105L14.0293 42.84C16.068 42.8797 18.764 42.9008 21.6133 42.9008C24.492 42.9008 27.2147 42.8797 29.2827 42.84L33.6987 42.7105C38.568 42.6193 42.7547 38.6492 43.0413 33.861L43.0667 33.45C43.3147 29.2882 43.3147 13.5333 43.0667 9.36891L43.0413 8.96449Z" fill="#655459"/>
<path fill-rule="evenodd" clip-rule="evenodd" d="M15.5246 16.4457C18.4242 17.1162 21.0933 18.6071 23.2431 20.7569C25.3929 22.9067 26.8838 25.5758 27.5543 28.4754C27.9669 30.2595 28.0939 32.0623 27.9317 33.8336C27.7691 35.6091 26.2321 37 24.4326 37C22.3821 37 20.7718 35.2421 20.9602 33.1983C21.0374 32.361 21.0015 31.5057 20.8533 30.6556C20.1973 26.8907 17.1093 23.8027 13.3444 23.1467C12.4946 22.9985 11.639 22.9623 10.8017 23.0398C8.76003 23.2278 7 21.6203 7 19.5674C7 17.7679 8.39089 16.2309 10.1664 16.0683C11.9377 15.9061 13.7405 16.0331 15.5246 16.4457ZM24.4326 34.6667C25.0378 34.6667 25.5543 34.2073 25.6081 33.6209C25.7475 32.0973 25.6375 30.5429 25.2808 29.001C24.1078 23.9282 20.0718 19.8922 14.9987 18.7192C13.4568 18.3625 11.9027 18.2525 10.3791 18.3919C9.79271 18.4457 9.33334 18.9622 9.33334 19.5674C9.33334 20.2459 9.90573 20.7788 10.5875 20.7162C10.9448 20.6834 11.3045 20.667 11.6652 20.667C12.357 20.667 13.053 20.7271 13.7451 20.8477C16.0705 21.253 18.2043 22.3723 19.916 24.084C21.6277 25.7957 22.747 27.9298 23.1523 30.2549C23.3355 31.3079 23.3798 32.3701 23.2838 33.4125C23.2215 34.0894 23.7499 34.6667 24.4326 34.6667Z" fill="#655459"/>
<path fill-rule="evenodd" clip-rule="evenodd" d="M15.4083 6.24649C20.9707 7.00039 26.2625 9.64399 30.3093 13.6907C34.356 17.7375 36.9996 23.0293 37.7535 28.5917C37.9783 30.2519 38.0497 31.9289 37.9662 33.5767C37.8687 35.4962 36.292 37 34.3765 37C32.3281 37 30.7117 35.295 30.8197 33.2495C30.8958 31.805 30.8082 30.3336 30.5592 28.8761C29.2324 21.1148 22.8852 14.7679 15.1242 13.4411C13.6664 13.1918 12.1953 13.1042 10.7505 13.1806C8.70372 13.2886 7 11.6706 7 9.62349C7 7.70802 8.50375 6.1313 10.4233 6.0338C12.0711 5.95028 13.7481 6.02169 15.4083 6.24649ZM34.3765 34.6154C35.0208 34.6154 35.5514 34.1058 35.5847 33.4556C35.6607 31.955 35.5955 30.4261 35.3903 28.9118C33.9865 18.5516 25.4484 10.0135 15.0882 8.60971C13.5736 8.40447 12.045 8.33927 10.5444 8.41534C9.89417 8.44856 9.38464 8.97921 9.38464 9.62349C9.38464 10.3103 9.95224 10.8348 10.6248 10.799C11.0033 10.7792 11.3833 10.7692 11.7643 10.7692C13.0147 10.7692 14.2753 10.8767 15.526 11.0903C19.8364 11.8274 23.7863 13.8885 26.949 17.051C30.1115 20.2137 32.1726 24.1636 32.9094 28.474C33.1885 30.1056 33.2863 31.7544 33.201 33.3752C33.1649 34.0549 33.6965 34.6154 34.3765 34.6154Z" fill="#655459"/>
<path fill-rule="evenodd" clip-rule="evenodd" d="M7 30.5C7 28.0186 9.01855 26 11.5 26C13.9814 26 16 28.0186 16 30.5C16 32.9814 13.9814 35 11.5 35C9.01855 35 7 32.9814 7 30.5ZM9.25 30.5C9.25 31.7407 10.2593 32.75 11.5 32.75C12.7407 32.75 13.75 31.7407 13.75 30.5C13.75 29.2593 12.7407 28.25 11.5 28.25C10.2593 28.25 9.25 29.2593 9.25 30.5Z" fill="#655459"/>
</svg>
