<svg width="28" height="44" viewBox="0 0 28 44" fill="none" xmlns="http://www.w3.org/2000/svg">
<mask id="mask0" mask-type="alpha" maskUnits="userSpaceOnUse" x="0" y="0" width="28" height="43">
<path fill-rule="evenodd" clip-rule="evenodd" d="M13.6127 42.5086H27.2253V0.687317H13.6127H0.000152588V42.5086H13.6127Z" fill="white"/>
</mask>
<g mask="url(#mask0)">
<path fill-rule="evenodd" clip-rule="evenodd" d="M13.291 42.5086C12.7853 42.2563 12.6236 41.8424 12.6378 41.3096C12.6598 40.4998 12.6449 39.6885 12.6449 38.8779C12.6442 37.4768 12.0854 36.8539 10.6501 36.5941C8.20985 36.152 5.99515 35.2246 4.10099 33.6454C1.63808 31.5925 0.411242 28.9429 0.0665911 25.8484C-0.230546 23.1906 0.50556 20.7376 1.54589 18.3389C3.03796 14.9014 5.00587 11.7162 7.2149 8.67882C8.95517 6.28563 10.8238 3.97975 12.6407 1.63813C12.8137 1.41469 13.0172 1.21394 13.2073 1.00219C13.4115 0.742317 13.5321 0.687317 13.6675 0.687317C13.8384 0.687317 13.9498 0.721004 14.1271 1.00219C15.651 2.92719 17.2211 4.82057 18.6891 6.78544C21.1754 10.1116 23.4461 13.5731 25.2204 17.3166C26.182 19.3454 27.0493 21.4251 27.189 23.678C27.4259 27.4991 26.5345 30.9827 23.5603 33.7231C21.9214 35.2328 19.9166 36.0778 17.736 36.5583C17.2523 36.6649 16.6772 36.3115 16.558 35.8639C16.4318 35.3909 16.7573 34.8574 17.2807 34.6904C17.9012 34.4938 18.5401 34.3398 19.1436 34.1026C22.732 32.6925 24.6268 30.0463 25.1764 26.3806C25.5835 23.6643 24.8921 21.1597 23.7879 18.7143C22.2065 15.2108 20.1201 11.9891 17.848 8.88025C16.512 7.05219 15.1014 5.27707 13.7058 3.45382C13.5838 3.54938 13.5122 3.58719 13.4654 3.64425C9.96005 7.88957 6.71211 12.3013 4.1946 17.1804C3.2344 19.0415 2.37419 20.9555 2.08202 23.0373C1.45512 27.5136 3.29255 31.8895 8.34317 33.9025C9.31471 34.2896 10.3487 34.5453 11.3727 34.7853C13.3583 35.2507 14.5894 36.6965 14.6029 38.6744C14.6086 39.5524 14.588 40.431 14.61 41.3083C14.6235 41.8411 14.4618 42.2536 13.9597 42.5086H13.291Z" fill="#F05442"/>
</g>
<path fill-rule="evenodd" clip-rule="evenodd" d="M15.1065 27.8835C17.28 26.261 19.4522 24.635 21.6314 23.018C21.8016 22.8915 22.0115 22.7788 22.2186 22.7403C22.6739 22.6557 23.0944 22.884 23.2533 23.2484C23.4348 23.6622 23.305 24.1366 22.9051 24.4405C21.6442 25.3982 20.3791 26.3497 19.1146 27.3039C17.7084 28.3661 16.3049 29.4324 14.8923 30.4864C14.6838 30.6417 14.5902 30.7992 14.5994 31.059C14.6193 31.6661 14.6094 32.2745 14.6044 32.8823C14.5987 33.6434 14.2661 34.0174 13.613 34.0084C13.0095 34.0009 12.6471 33.5808 12.645 32.8802C12.6429 32.245 12.6336 31.6104 12.6507 30.9759C12.6578 30.7215 12.5769 30.5572 12.3656 30.399C9.68993 28.3888 7.02279 26.3696 4.3521 24.3532C3.84151 23.9682 3.7479 23.4223 4.11453 22.9438C4.43862 22.5217 5.01587 22.4729 5.52434 22.8503C7.79009 24.5354 10.0502 26.2266 12.3131 27.9144C12.389 27.9715 12.4691 28.0251 12.5953 28.1145C12.6159 27.9832 12.6429 27.8876 12.6429 27.792C12.645 26.3194 12.6365 24.8475 12.6507 23.3755C12.6528 23.1184 12.5358 22.9899 12.3422 22.8565C10.3757 21.5069 8.41344 20.1525 6.45475 18.792C6.27817 18.6696 6.10017 18.5177 5.99238 18.3403C5.75198 17.9436 5.84488 17.4555 6.16612 17.1929C6.51432 16.9075 7.03981 16.8869 7.44474 17.1674C8.44252 17.857 9.43321 18.5569 10.4267 19.2526C11.1359 19.749 11.8451 20.2447 12.6031 20.7747C12.6209 20.6269 12.6429 20.5293 12.6429 20.4317C12.645 19.2567 12.6351 18.0818 12.6507 16.9062C12.6535 16.6435 12.5606 16.4895 12.3493 16.3397C11.3841 15.6529 10.4296 14.9509 9.47151 14.2545C8.77228 13.7471 8.58435 13.1655 8.96517 12.6911C9.33748 12.2277 9.95515 12.2456 10.6281 12.7358C11.2699 13.204 11.9153 13.6694 12.6124 14.1754C12.6258 14.0008 12.6422 13.888 12.6422 13.7753C12.6443 12.6945 12.6386 11.6138 12.6457 10.5337C12.6507 9.90055 12.9662 9.54099 13.5236 9.50249C14.1874 9.45642 14.5909 9.81461 14.6001 10.4987C14.6136 11.5382 14.6044 12.579 14.6044 13.6185V14.1919C14.9951 13.8963 15.3185 13.6536 15.6398 13.4089C16.0454 13.1002 16.4447 12.7839 16.8545 12.4814C17.3148 12.1411 17.9566 12.1968 18.2814 12.5928C18.6055 12.9881 18.5104 13.6144 18.0459 13.9589C16.995 14.7378 15.9298 15.4989 14.8788 16.2785C14.7604 16.3658 14.62 16.5212 14.6186 16.6463C14.5994 17.9952 14.6065 19.3447 14.6065 20.783C14.7803 20.6744 14.9008 20.6042 15.0164 20.5259C16.6 19.4472 18.1821 18.3664 19.7663 17.2877C20.3301 16.9034 20.8691 16.9598 21.2293 17.4376C21.5825 17.9058 21.4591 18.4283 20.8875 18.8243C18.8934 20.2062 16.8943 21.5805 14.9051 22.9692C14.7682 23.0641 14.6193 23.2539 14.6172 23.4017C14.5973 24.941 14.6058 26.481 14.6079 28.021C14.6086 28.0691 14.6278 28.1165 14.6484 28.21C14.8228 28.0863 14.9668 27.988 15.1065 27.8835Z" fill="#F05442"/>
</svg>
