<svg width="45" height="45" viewBox="0 0 45 45" fill="none" xmlns="http://www.w3.org/2000/svg">
<path fill-rule="evenodd" clip-rule="evenodd" d="M13.8776 16.6755C13.5953 16.4479 13.18 16.4908 12.9506 16.7712C12.684 17.0969 12.3312 17.2764 11.9561 17.2764C11.581 17.2764 11.2283 17.0969 10.9621 16.7712C10.7326 16.4908 10.3177 16.4479 10.0346 16.6755C9.75194 16.9027 9.70866 17.3146 9.93812 17.5949C10.452 18.2235 11.1877 18.5839 11.9561 18.5839C12.7252 18.5839 13.4606 18.2235 13.9745 17.5949C14.2036 17.3146 14.1603 16.9027 13.8776 16.6755" fill="#FF533F"/>
<path fill-rule="evenodd" clip-rule="evenodd" d="M8.94362 12.7959C8.57952 12.7959 8.28445 13.0882 8.28445 13.4497V14.1964C8.28445 14.5575 8.57952 14.8502 8.94362 14.8502C9.30807 14.8502 9.60278 14.5575 9.60278 14.1964V13.4497C9.60278 13.0882 9.30807 12.7959 8.94362 12.7959" fill="#FF533F"/>
<path fill-rule="evenodd" clip-rule="evenodd" d="M14.9688 12.7959C14.6047 12.7959 14.3097 13.0882 14.3097 13.4497V14.1964C14.3097 14.5575 14.6047 14.8502 14.9688 14.8502C15.3329 14.8502 15.628 14.5575 15.628 14.1964V13.4497C15.628 13.0882 15.3329 12.7959 14.9688 12.7959" fill="#FF533F"/>
<path fill-rule="evenodd" clip-rule="evenodd" d="M35.7187 20.4105C35.436 20.1833 35.021 20.2262 34.7916 20.5066C34.525 20.8319 34.1723 21.0118 33.7972 21.0118C33.4221 21.0118 33.0693 20.8319 32.8031 20.5066C32.574 20.2262 32.1587 20.1833 31.8757 20.4105C31.593 20.6381 31.5497 21.0496 31.7792 21.33C32.2927 21.9589 33.0288 22.3193 33.7972 22.3193C34.5663 22.3193 35.3017 21.9589 35.8155 21.33C36.0447 21.0496 36.0014 20.6381 35.7187 20.4105" fill="#FF533F"/>
<path fill-rule="evenodd" clip-rule="evenodd" d="M30.7847 16.5293C30.4206 16.5293 30.1255 16.8219 30.1255 17.1831V17.9298C30.1255 18.2909 30.4206 18.5836 30.7847 18.5836C31.1491 18.5836 31.4438 18.2909 31.4438 17.9298V17.1831C31.4438 16.8219 31.1491 16.5293 30.7847 16.5293" fill="#FF533F"/>
<path fill-rule="evenodd" clip-rule="evenodd" d="M36.8099 16.5293C36.4458 16.5293 36.1507 16.8219 36.1507 17.1831V17.9298C36.1507 18.2909 36.4454 18.5836 36.8099 18.5836C37.174 18.5836 37.4691 18.2909 37.4691 17.9298V17.1831C37.4691 16.8219 37.174 16.5293 36.8099 16.5293" fill="#FF533F"/>
<mask id="mask0" mask-type="alpha" maskUnits="userSpaceOnUse" x="0" y="2" width="45" height="42">
<path fill-rule="evenodd" clip-rule="evenodd" d="M0 2.33789H45V43.2344H0V2.33789Z" fill="white"/>
</mask>
<g mask="url(#mask0)">
<path fill-rule="evenodd" clip-rule="evenodd" d="M33.7973 32.9626C31.9726 32.9626 30.2792 32.041 29.2937 30.5349C30.4809 30.5271 31.4437 29.5667 31.4437 28.3876C31.4437 27.7635 31.1627 27.1721 30.6907 26.7677V26.1466C30.6907 25.8836 30.6763 25.622 30.6485 25.3627C31.6261 25.8172 32.693 26.0536 33.7973 26.0536C34.6011 26.0536 35.3959 25.9214 36.1509 25.6721V26.629C36.1509 27.5124 36.685 28.2953 37.5118 28.6233L38.9332 29.1872C38.2521 31.4213 36.1719 32.9626 33.7973 32.9626V32.9626ZM28.5253 29.2272C28.1616 29.2272 27.8662 29.5199 27.8662 29.881V30.531V30.5481V30.6278C27.8662 33.1508 25.7969 35.2031 23.2534 35.2031C20.7098 35.2031 18.6406 33.1508 18.6406 30.6278V29.881C18.6406 29.5199 18.3455 29.2272 17.9814 29.2272H17.2285C16.761 29.2272 16.3811 28.8505 16.3811 28.3871C16.3811 28.089 16.5405 27.8192 16.8067 27.6656C16.8661 27.6312 16.918 27.5879 16.9626 27.5385C18.5922 27.4915 23.8744 27.1876 27.3461 25.2198C27.6621 25.0407 27.772 24.6414 27.5914 24.328C27.4107 24.0142 27.0078 23.9055 26.6917 24.0844C23.6508 25.8082 18.8721 26.1533 17.1344 26.2225V26.1462C17.1344 24.9303 17.5053 23.7529 18.1783 22.7602C18.2312 22.8426 18.3016 22.9145 18.3881 22.9676C18.4939 23.0327 18.6141 23.0651 18.7344 23.0651C18.835 23.0651 18.936 23.0422 19.0294 22.9962L23.2534 20.9014L27.4777 22.9962C27.5704 23.0422 27.6714 23.0651 27.7724 23.0651C27.8929 23.0651 28.0128 23.0327 28.119 22.9676C28.2055 22.9145 28.2759 22.8426 28.3285 22.7602C29.0011 23.7529 29.3724 24.9303 29.3724 26.1462V27.1004C29.3724 27.3334 29.4971 27.5484 29.7001 27.6656C29.9666 27.8192 30.1257 28.089 30.1257 28.3871C30.1257 28.8505 29.7454 29.2272 29.2786 29.2272H28.5253ZM26.2397 38.2805C25.5143 39.1598 24.424 39.6851 23.2534 39.6851C22.0841 39.6851 20.9935 39.1595 20.2671 38.2805L20.6875 38.1419C21.2652 37.9511 21.6534 37.4166 21.6534 36.8129V36.2916C22.1628 36.4334 22.6986 36.511 23.2534 36.511C23.8078 36.511 24.344 36.4334 24.8537 36.2916V36.8129C24.8537 37.4166 25.2415 37.9507 25.8193 38.1415L26.2397 38.2805ZM16.3811 23.1592V20.8654C17.0368 20.3823 17.6101 19.7953 18.0752 19.1283V20.8525C17.337 21.5635 16.7617 22.4124 16.3763 23.3408C16.379 23.2801 16.3811 23.2198 16.3811 23.1592V23.1592ZM11.9562 21.0104C8.58207 21.0104 5.83721 18.288 5.83721 14.9412C5.83721 14.5804 5.54215 14.2878 5.17805 14.2878C4.7109 14.2878 4.33099 13.9106 4.33099 13.4477C4.33099 12.984 4.7109 12.6072 5.17805 12.6072H6.68427C6.96834 12.6072 7.21977 12.4273 7.30977 12.1602L7.91466 10.3601C9.42981 10.3264 14.1254 10.1148 16.7699 8.80353C17.0956 8.64205 17.2275 8.24925 17.0647 7.92662C16.9018 7.60332 16.5058 7.4725 16.1802 7.63398C13.3429 9.04098 7.49594 9.05904 7.43721 9.05904C7.15382 9.05904 6.9017 9.23892 6.8117 9.50601L6.20922 11.2997H5.17805C5.14645 11.2997 5.11519 11.301 5.08393 11.3024V8.21858C5.08393 5.6962 7.15348 3.64361 9.69705 3.64361H15.7219C16.5092 3.64361 17.1704 4.20642 17.2948 4.98146C17.3264 5.17837 17.4466 5.35041 17.6218 5.44819C18.3662 5.86484 18.8285 6.63988 18.8285 7.47182V11.3021C18.7972 11.3007 18.766 11.2997 18.7344 11.2997H17.9814C17.6173 11.2997 17.3223 11.5923 17.3223 11.9534C17.3223 12.3146 17.6173 12.6072 17.9814 12.6072H18.7344C19.2015 12.6072 19.5814 12.984 19.5814 13.4473C19.5814 13.9106 19.2019 14.2878 18.7344 14.2878C18.3706 14.2878 18.0752 14.5804 18.0752 14.9412C18.0752 18.2877 15.3304 21.0104 11.9562 21.0104V21.0104ZM8.84966 23.158V21.6433C9.79564 22.0767 10.8478 22.3189 11.9562 22.3189C13.0647 22.3189 14.1168 22.0767 15.0628 21.6433V23.159C15.0628 24.8576 13.6692 26.2401 11.9562 26.2401C10.2463 26.2401 8.85481 24.8624 8.85 23.1672C8.85 23.1641 8.84966 23.161 8.84966 23.158V23.158ZM15.8157 26.1457V26.7665C15.3438 27.1708 15.0628 27.7623 15.0628 28.3864C14.124 28.9369 13.0571 29.2268 11.9562 29.2268C9.08874 29.2268 6.60837 27.2257 5.98733 24.4958L7.61583 24.0117C8.01772 26.0241 9.81076 27.5463 11.9562 27.5463C13.66 27.5463 15.1408 26.5862 15.88 25.1833C15.8377 25.5008 15.8157 25.8221 15.8157 26.1457V26.1457ZM19.3936 18.9876L21.7795 20.1708L19.3936 21.3536V18.9876ZM27.1129 18.9876V21.3536L24.7273 20.1708L27.1129 18.9876ZM26.1721 14.1956C26.1721 10.0254 29.5929 6.63291 33.7973 6.63291C38.002 6.63291 41.4225 10.0254 41.4225 14.1956C41.4225 18.5859 41.9556 23.0236 42.1291 24.3492C41.5383 24.7325 40.0259 25.5767 37.4689 26.1313V25.0912C37.8192 24.8939 38.1545 24.6694 38.4698 24.417C39.7669 23.3769 40.6833 21.9208 41.0502 20.3163C41.1728 19.7817 41.2346 19.2302 41.2346 18.6776C41.2346 14.9823 38.5406 14.4518 35.9345 13.9388C34.2765 13.612 32.5617 13.2748 31.1967 12.1911C30.9988 12.0344 30.7275 12.004 30.4991 12.1127C30.2706 12.2214 30.1257 12.4503 30.1257 12.7017C30.1257 12.7191 30.0972 14.4395 27.6123 15.0555C27.2592 15.1431 27.0445 15.498 27.1328 15.8486C27.2207 16.1988 27.579 16.4114 27.9321 16.3242C30.0116 15.8084 30.8601 14.6515 31.206 13.782C32.6352 14.6225 34.2366 14.9376 35.6779 15.2214C38.463 15.7696 39.9163 16.1726 39.9163 18.6776C39.9163 19.1331 39.8654 19.5872 39.7648 20.027C39.4629 21.3461 38.7086 22.5443 37.6406 23.4004C36.5421 24.2811 35.2132 24.7464 33.7973 24.7464C32.5068 24.7464 31.2784 24.3536 30.2363 23.612C29.8543 22.5784 29.2405 21.6323 28.4316 20.8532V17.9308C28.4316 17.7039 28.3131 17.4937 28.119 17.3745C27.9242 17.2556 27.6817 17.2444 27.4777 17.3459L26.0542 18.0514C26.1322 16.6901 26.1721 15.3958 26.1721 14.1956V14.1956ZM43.1657 29.458L38.0013 27.4091C37.9735 27.3982 37.9477 27.3839 37.9216 27.3706C41.4884 26.5656 43.1777 25.2193 43.2526 25.1586C43.4309 25.0135 43.5202 24.7866 43.4876 24.5604C43.4797 24.5086 42.7408 19.3184 42.7408 14.1952C42.7408 9.30447 38.7285 5.325 33.7973 5.325C28.8657 5.325 24.8534 9.30413 24.8534 14.1952C24.8534 15.5355 24.7922 17.1745 24.6923 18.7266L23.2534 19.4403L19.0291 17.3455C19.0171 17.3397 19.0044 17.3353 18.9917 17.3298C19.1926 16.749 19.3242 16.1364 19.3726 15.5011C20.2561 15.2302 20.8998 14.4126 20.8998 13.4485C20.8998 12.7988 20.6074 12.2166 20.1468 11.8224V7.47264C20.1468 6.27073 19.5347 5.14683 18.5307 4.47092C18.1903 3.21723 17.055 2.33691 15.7219 2.33691H9.69671C6.42596 2.33691 3.76526 4.97615 3.76526 8.21941V11.8221C3.30498 12.2166 3.01232 12.7988 3.01232 13.4485C3.01232 14.4126 3.65637 15.2302 4.53984 15.5007C4.70643 17.6957 5.84683 19.6243 7.53132 20.8654V22.6723L2.07973 24.2947C0.835942 24.665 -0.00012207 25.7787 -0.00012207 27.0668V34.3631C-0.00012207 34.7245 0.295283 35.0172 0.659043 35.0172H0.75316V42.5799C0.75316 42.941 1.04822 43.2336 1.41232 43.2336C1.77608 43.2336 2.07149 42.941 2.07149 42.5799V35.0172H4.51888V42.5799C4.51888 42.941 4.81394 43.2336 5.17805 43.2336C5.54215 43.2336 5.83721 42.941 5.83721 42.5799V31.3072C5.83721 30.7335 5.66753 30.1782 5.34705 29.7016L4.22039 28.0251C4.01841 27.7246 3.60897 27.6435 3.30601 27.8438C3.00339 28.0438 2.92129 28.4499 3.12327 28.7504L4.24993 30.4269C4.4258 30.6882 4.51888 30.9927 4.51888 31.3072V33.7093H1.41232H1.31821V27.0668C1.31821 26.3605 1.77643 25.7497 2.45895 25.5466L4.72189 24.8735C5.50952 28.146 8.50238 30.5352 11.9562 30.5352C13.1969 30.5352 14.4019 30.2317 15.4811 29.6545C15.8755 30.1877 16.5116 30.5352 17.2282 30.5352H17.3223V30.6282C17.3223 32.8201 18.5379 34.7344 20.3347 35.7466V36.8129C20.3347 36.8531 20.3086 36.8885 20.2705 36.9015L17.8114 37.714C16.6178 38.1085 15.8157 39.2126 15.8157 40.4605V42.5799C15.8157 42.941 16.1111 43.2336 16.4749 43.2336C16.8393 43.2336 17.134 42.941 17.134 42.5799V40.4605C17.134 39.7761 17.5741 39.1711 18.2284 38.9547L18.9515 38.7156C19.9081 40.1304 21.517 40.993 23.2534 40.993C24.9915 40.993 26.5987 40.1311 27.5553 38.7159L28.2784 38.9547C28.9327 39.1711 29.372 39.7761 29.372 40.4605V42.5799C29.372 42.941 29.6674 43.2336 30.0315 43.2336C30.3956 43.2336 30.6907 42.941 30.6907 42.5799V40.4605C30.6907 39.2126 29.8887 38.1085 28.695 37.7143L26.2359 36.9015C26.1975 36.8885 26.1717 36.8531 26.1717 36.8129V35.7466C27.5172 34.9889 28.5356 33.725 28.9626 32.2175C30.2084 33.5103 31.9479 34.2704 33.7969 34.2704C36.7159 34.2704 39.2774 32.3991 40.1595 29.674L42.6759 30.6722C43.287 30.9144 43.6816 31.4932 43.6816 32.1459V35.2035H43.5879H41.2343V34.3634C41.2343 34.0023 40.9392 33.7096 40.5751 33.7096C40.2113 33.7096 39.9159 34.0023 39.9159 34.3634V42.5799C39.9159 42.941 40.2113 43.2336 40.5751 43.2336C40.9392 43.2336 41.2343 42.941 41.2343 42.5799V36.511H42.9287V42.5799C42.9287 42.941 43.2238 43.2336 43.5879 43.2336C43.9516 43.2336 44.247 42.941 44.247 42.5799V36.511H44.3408C44.5156 36.511 44.6833 36.4422 44.8073 36.3196C44.9306 36.1969 45 36.031 45 35.8573V32.1459C45.0003 30.9549 44.2804 29.9002 43.1657 29.458V29.458Z" fill="#FF533F"/>
</g>
<path fill-rule="evenodd" clip-rule="evenodd" d="M25.1751 31.6149C24.8924 31.3873 24.4771 31.4303 24.248 31.7106C23.9811 32.0363 23.6283 32.2159 23.2532 32.2159C22.8785 32.2159 22.5253 32.0363 22.2591 31.7106C22.03 31.4303 21.6147 31.3873 21.332 31.6149C21.049 31.8421 21.0057 32.254 21.2352 32.5344C21.749 33.1626 22.4848 33.5234 23.2532 33.5234C24.0223 33.5234 24.7577 33.1629 25.2716 32.5344C25.5007 32.254 25.4574 31.8421 25.1751 31.6149" fill="#FF533F"/>
<path fill-rule="evenodd" clip-rule="evenodd" d="M21.0061 28.4844C21.3703 28.4844 21.6653 28.777 21.6653 29.1381C21.6653 29.4993 21.3703 29.7919 21.0061 29.7919C20.6417 29.7919 20.347 29.4993 20.347 29.1381C20.347 28.777 20.6417 28.4844 21.0061 28.4844" fill="#FF533F"/>
<path fill-rule="evenodd" clip-rule="evenodd" d="M25.4883 28.4844C25.8528 28.4844 26.1479 28.777 26.1479 29.1381C26.1479 29.4993 25.8528 29.7919 25.4883 29.7919C25.1242 29.7919 24.8292 29.4993 24.8292 29.1381C24.8292 28.777 25.1242 28.4844 25.4883 28.4844" fill="#FF533F"/>
</svg>
