<svg width="30" height="30" viewBox="0 0 30 30" fill="none" xmlns="http://www.w3.org/2000/svg">
<rect width="30" height="30" fill="#F05442"/>
<path fill-rule="evenodd" clip-rule="evenodd" d="M12.2508 19.5816C8.19997 19.5816 4.91692 16.3049 4.91692 12.249C4.91692 8.19887 8.19424 4.91638 12.2508 4.91638C16.3016 4.91638 19.5846 8.19315 19.5846 12.249C19.5846 16.2991 16.3073 19.5816 12.2508 19.5816M29.2676 25.694L23.5552 19.9826C23.2974 19.7248 22.9479 19.5816 22.5812 19.5816H21.6473C23.2287 17.5594 24.1683 15.0159 24.1683 12.249C24.1683 5.66683 18.8341 0.333496 12.2508 0.333496C5.66749 0.333496 0.333252 5.66683 0.333252 12.249C0.333252 18.8312 5.66749 24.1645 12.2508 24.1645C15.0182 24.1645 17.5621 23.225 19.5846 21.6439V22.5777C19.5846 22.9443 19.7279 23.2938 19.9857 23.5515L25.6981 29.263C26.2367 29.8015 27.1076 29.8015 27.6404 29.263L29.2619 27.6418C29.8005 27.1033 29.8005 26.2325 29.2676 25.694" fill="white"/>
</svg>
