<svg width="56" height="56" viewBox="0 0 56 56" fill="none" xmlns="http://www.w3.org/2000/svg">
<path fill-rule="evenodd" clip-rule="evenodd" d="M12.4256 18.5348H34.3046C34.8516 18.5348 35.2966 18.0898 35.2966 17.5418C35.2966 16.9948 34.8516 16.5488 34.3046 16.5488H12.4256C11.8776 16.5488 11.4326 16.9948 11.4326 17.5418C11.4326 18.0898 11.8776 18.5348 12.4256 18.5348Z" fill="#FF533F"/>
<path fill-rule="evenodd" clip-rule="evenodd" d="M12.4256 23.5036H34.3046C34.8516 23.5036 35.2966 23.0586 35.2966 22.5106C35.2966 21.9636 34.8516 21.5176 34.3046 21.5176H12.4256C11.8776 21.5176 11.4326 21.9636 11.4326 22.5106C11.4326 23.0586 11.8776 23.5036 12.4256 23.5036Z" fill="#FF533F"/>
<path fill-rule="evenodd" clip-rule="evenodd" d="M15.2019 38.8278C13.5409 37.9248 10.6479 39.4658 9.54093 40.4508C9.34293 40.6278 9.22393 40.8708 9.20893 41.1358C9.19293 41.3998 9.28193 41.6548 9.45793 41.8528C9.82193 42.2628 10.4499 42.2998 10.8599 41.9348C11.2999 41.5448 11.8469 41.0578 12.6919 40.7838C13.5379 40.5088 13.9819 40.5228 14.1579 40.5488C14.1569 40.5618 14.1549 40.5768 14.1529 40.5928C14.0129 41.5198 14.2279 42.1788 14.7969 42.5508C15.0519 42.7188 15.3349 42.7998 15.6619 42.7998C16.7229 42.7998 18.0979 41.9348 20.1799 40.6268L20.2559 40.5788C20.5549 40.3898 20.8599 40.1978 21.1709 40.0068C21.6369 39.7188 21.7809 39.1048 21.4929 38.6398C21.2049 38.1758 20.5929 38.0298 20.1259 38.3178C19.7919 38.5248 19.4639 38.7308 19.1189 38.9468C18.2149 39.5158 16.9039 40.3398 16.1399 40.6708C16.1989 39.8508 15.8639 39.1868 15.2019 38.8278Z" fill="#FF533F"/>
<mask id="mask0" mask-type="alpha" maskUnits="userSpaceOnUse" x="5" y="2" width="50" height="52">
<path fill-rule="evenodd" clip-rule="evenodd" d="M5 2H54.0795V53.9385H5V2Z" fill="white"/>
</mask>
<g mask="url(#mask0)">
<path fill-rule="evenodd" clip-rule="evenodd" d="M33.8055 48.71V46.587C33.8055 45.634 34.5795 44.859 35.5325 44.859H37.6555C38.7855 44.859 39.9005 44.59 40.8975 44.078C40.8035 48.378 37.3245 51.858 33.0245 51.951C33.5355 50.954 33.8055 49.841 33.8055 48.71ZM50.9835 22.704L48.8625 24.826L43.1685 19.133L45.2895 17.011L50.9835 22.704ZM52.0045 19.041L51.0665 19.98L48.0145 16.928L48.9525 15.989L52.0045 19.041ZM30.5965 40.991C28.6515 42.584 26.0695 43.676 25.1935 42.801C24.5585 42.165 25.0495 40.753 25.2895 40.175C25.6595 39.286 26.2915 38.262 27.0015 37.397L30.5965 40.991ZM47.4575 26.23L33.0505 40.637L27.3575 34.943L33.2905 29.01L35.0255 30.744C35.3325 31.051 35.7425 31.221 36.1765 31.221C36.6135 31.221 37.0225 31.051 37.3295 30.744L44.6505 23.423L47.4575 26.23ZM34.6955 27.605L41.7645 20.536L43.2465 22.019L36.1765 29.088L34.6955 27.605ZM53.5635 17.791L50.2025 14.431C49.8685 14.098 49.4245 13.913 48.9525 13.913C48.4805 13.913 48.0365 14.098 47.7025 14.431L46.6105 15.523L46.5795 15.493C45.8685 14.782 44.7105 14.782 43.9995 15.493L42.8845 16.608V13.631V10.361V5.713C42.8845 3.666 41.2185 2 39.1715 2H8.71351C6.66551 2 5.00051 3.666 5.00051 5.713V44.273C5.00051 44.821 5.44551 45.267 5.99351 45.267C6.54051 45.267 6.98651 44.821 6.98651 44.273V5.713C6.98651 4.761 7.76051 3.985 8.71351 3.985H39.1715C40.1235 3.985 40.8985 4.761 40.8985 5.713V13.631C40.8985 13.633 40.8995 13.634 40.8995 13.635V18.594L33.0055 26.486H12.4255C11.8775 26.486 11.4325 26.932 11.4325 27.48C11.4325 28.027 11.8775 28.473 12.4255 28.473H31.0205L25.8385 33.653C25.4945 33.998 25.3045 34.456 25.3045 34.943C25.3045 35.313 25.4115 35.661 25.6155 35.961C24.7155 37.018 23.9335 38.267 23.4565 39.412C22.7925 41.008 22.7085 42.342 23.2075 43.383L22.6595 43.932C22.2715 44.318 22.2715 44.948 22.6595 45.336C23.0325 45.71 23.6865 45.711 24.0625 45.336L24.6125 44.786C25.6465 45.28 26.9985 45.196 28.5815 44.537C29.7275 44.062 30.9765 43.278 32.0325 42.38C32.3325 42.583 32.6815 42.689 33.0505 42.689C33.5365 42.689 33.9955 42.5 34.3405 42.155L40.8985 35.597V41.713C39.9875 42.462 38.8395 42.873 37.6565 42.873H35.5325C33.4855 42.873 31.8195 44.539 31.8195 46.587V48.71C31.8195 49.893 31.4085 51.041 30.6595 51.953H8.71351C7.76051 51.953 6.98651 51.178 6.98651 50.226V48.094C6.98651 47.546 6.54051 47.101 5.99351 47.101C5.44551 47.101 4.99951 47.546 4.99951 48.094V50.226C5.00051 52.273 6.66551 53.939 8.71351 53.939H32.8485C38.3815 53.939 42.8845 49.436 42.8845 43.902V33.611L52.5005 23.995C53.2125 23.283 53.2125 22.126 52.5005 21.414L52.4705 21.384L53.5635 20.291C54.2515 19.602 54.2515 18.48 53.5635 17.791Z" fill="#FF533F"/>
</g>
<path fill-rule="evenodd" clip-rule="evenodd" d="M19.4588 44.8242H11.1958C10.6478 44.8242 10.2028 45.2692 10.2028 45.8172C10.2028 46.3642 10.6478 46.8092 11.1958 46.8092H19.4588C20.0068 46.8092 20.4508 46.3642 20.4508 45.8172C20.4508 45.2692 20.0068 44.8242 19.4588 44.8242Z" fill="#FF533F"/>
<path fill-rule="evenodd" clip-rule="evenodd" d="M12.4256 13.1813H21.9496C22.4976 13.1813 22.9426 12.7363 22.9426 12.1883C22.9426 11.6403 22.4976 11.1963 21.9496 11.1963H12.4256C11.8776 11.1963 11.4326 11.6403 11.4326 12.1883C11.4326 12.7363 11.8776 13.1813 12.4256 13.1813Z" fill="#FF533F"/>
</svg>
