<svg width="59" height="44" viewBox="0 0 59 44" fill="none" xmlns="http://www.w3.org/2000/svg">
<path fill-rule="evenodd" clip-rule="evenodd" d="M30.7611 0.62511C31.893 -0.136509 33.3413 -0.207282 34.5407 0.440845C35.7401 1.08862 36.4852 2.34402 36.485 3.71698V40.2691C36.485 41.6421 35.74 42.8974 34.5405 43.5452C33.9952 43.8399 33.3981 43.9859 32.8028 43.9859C32.0891 43.9861 31.3781 43.7761 30.7609 43.361L14.9372 32.7141H8.93828C7.40003 32.7141 6.13582 31.5154 6.00941 29.9952H5.16249C2.31586 29.9952 0 27.658 0 24.7851V19.201C0 16.3281 2.31586 13.9909 5.16249 13.9909H6.00953C6.13582 12.4707 7.39992 11.2719 8.9384 11.2719H14.9374L30.7611 0.62511ZM5.16249 27.0469H5.99684V16.9392H5.16249C3.92677 16.9392 2.92149 17.9538 2.92149 19.2009V24.785C2.92149 26.0322 3.92677 27.0468 5.16249 27.0469ZM13.9189 29.7657H8.9384C8.92744 29.7657 8.91833 29.7567 8.91833 29.7454V14.2405C8.91833 14.2294 8.92733 14.2203 8.9384 14.2203H13.9189V29.7657ZM33.1622 40.9458C33.2831 40.8806 33.5638 40.6841 33.5638 40.2692V3.71698C33.5638 3.30213 33.283 3.10564 33.1622 3.04045C33.0416 2.97527 32.7238 2.84839 32.3816 3.07852L16.8403 13.5352V30.4509L32.3816 40.9077C32.7237 41.1378 33.0414 41.0109 33.1622 40.9458Z" fill="#F05442"/>
<path d="M51.2445 3.38867C50.731 2.87044 49.8987 2.87044 49.3852 3.38867C48.8717 3.90689 48.8717 4.74685 49.3852 5.26507C53.8267 9.7476 56.2727 15.7174 56.2727 22.0748C56.2727 28.4324 53.8265 34.4023 49.3851 38.8847C48.8716 39.4029 48.8716 40.2429 49.3851 40.761C49.6417 41.0202 49.9782 41.1495 50.3147 41.1495C50.6512 41.1495 50.9877 41.02 51.2443 40.761C56.1825 35.7772 58.902 29.141 58.902 22.0746C58.902 15.0084 56.1825 8.37219 51.2445 3.38867Z" fill="#F05442"/>
<path d="M44.2445 10.3888C43.731 9.87043 42.8987 9.87043 42.3852 10.3887C41.8717 10.9069 41.8717 11.7468 42.3852 12.2651C44.9013 14.8044 46.287 18.1865 46.2869 21.7886C46.2869 25.3906 44.9012 28.7729 42.3851 31.3122C41.8716 31.8304 41.8716 32.6703 42.3851 33.1886C42.6417 33.4478 42.9782 33.5771 43.3147 33.5771C43.6512 33.5771 43.9877 33.4476 44.2443 33.1886C47.2571 30.148 48.9163 26.0994 48.9163 21.7886C48.9163 17.4779 47.2572 13.4292 44.2445 10.3888Z" fill="#F05442"/>
</svg>
