<?xml version="1.0" encoding="UTF-8" standalone="no"?><!DOCTYPE svg PUBLIC "-//W3C//DTD SVG 1.1//EN" "http://www.w3.org/Graphics/SVG/1.1/DTD/svg11.dtd"><svg width="100%" height="100%" viewBox="0 0 57 40" version="1.1" xmlns="http://www.w3.org/2000/svg" xmlns:xlink="http://www.w3.org/1999/xlink" xml:space="preserve" xmlns:serif="http://www.serif.com/" style="fill-rule:evenodd;clip-rule:evenodd;stroke-linejoin:round;stroke-miterlimit:1.41421;"><path d="M22.365,20.147c-0.43,-0.432 -1.128,-0.432 -1.558,-0.001c-0.43,0.43 -0.43,1.128 0,1.558c0.43,0.43 1.128,0.43 1.558,0c0.431,-0.43 0.431,-1.128 0,-1.558Z" style="fill:#fff;"/><path d="M28.194,26.432c-0.607,0 -1.101,-0.494 -1.101,-1.102c0,-0.607 0.494,-1.101 1.101,-1.101c0.607,0 1.102,0.494 1.102,1.101c0,0.608 -0.495,1.102 -1.102,1.102Zm0,-4.406c-1.822,0 -3.304,1.483 -3.304,3.304c0,1.822 1.482,3.305 3.304,3.305c1.822,0 3.304,-1.483 3.304,-3.305c0,-1.821 -1.482,-3.304 -3.304,-3.304Z" style="fill:#fff;"/><path d="M28.194,16.52c-1.231,0 -2.421,0.249 -3.538,0.739c-0.557,0.245 -0.81,0.895 -0.565,1.452c0.245,0.557 0.895,0.809 1.452,0.565c0.835,-0.367 1.727,-0.553 2.651,-0.553c3.644,0 6.608,2.964 6.608,6.608c0,3.643 -2.964,6.607 -6.608,6.607c-3.644,0 -6.608,-2.964 -6.608,-6.607c0,-0.038 0,-0.075 0.001,-0.113c0.014,-0.608 -0.468,-1.112 -1.076,-1.126c-0.609,-0.015 -1.112,0.467 -1.126,1.075c-0.002,0.055 -0.002,0.109 -0.002,0.164c0,4.858 3.953,8.81 8.811,8.81c4.858,0 8.811,-3.952 8.811,-8.81c0,-4.859 -3.953,-8.811 -8.811,-8.811Z" style="fill:#fff;"/><path d="M28.194,0c-0.608,0 -1.101,0.493 -1.101,1.101l0,6.608c0,0.608 0.493,1.102 1.101,1.102c0.608,0 1.102,-0.494 1.102,-1.102l0,-6.608c0,-0.608 -0.494,-1.101 -1.102,-1.101Z" style="fill:#fff;"/><path d="M15.89,8.165l-4.672,-4.672c-0.43,-0.43 -1.127,-0.43 -1.557,0c-0.431,0.43 -0.431,1.128 0,1.558l4.671,4.672c0.43,0.43 1.128,0.43 1.558,0c0.43,-0.431 0.43,-1.128 0,-1.558Z" style="fill:#fff;"/><path d="M46.728,3.493c-0.431,-0.43 -1.128,-0.43 -1.559,0l-4.671,4.672c-0.431,0.43 -0.431,1.127 0,1.557c0.429,0.431 1.127,0.431 1.557,0l4.672,-4.671c0.43,-0.431 0.43,-1.128 0,-1.558Z" style="fill:#fff;"/><path d="M28.194,37.445c-9.682,0 -18.995,-5.031 -23.975,-12.883c3.924,-3.846 12.991,-11.346 23.975,-11.346c10.985,0 20.051,7.5 23.975,11.345c-4.98,7.853 -14.292,12.884 -23.975,12.884Zm27.918,-11.926c-6.996,-7.921 -17.384,-14.506 -27.918,-14.506c-10.535,0 -20.923,6.587 -27.918,14.506c-0.403,0.456 -0.36,1.152 0.096,1.554c0.456,0.403 1.152,0.36 1.555,-0.096c0.234,-0.266 0.475,-0.531 0.718,-0.794c5.443,8.223 15.308,13.465 25.549,13.465c10.241,0 20.106,-5.242 25.549,-13.465c0.243,0.263 0.484,0.528 0.719,0.794c0.401,0.454 1.097,0.5 1.554,0.096c0.456,-0.402 0.499,-1.099 0.096,-1.554Z" style="fill:#fff;"/></svg>