<svg width="43" height="45" viewBox="0 0 43 45" fill="none" xmlns="http://www.w3.org/2000/svg">
<mask id="mask0" mask-type="alpha" maskUnits="userSpaceOnUse" x="7" y="0" width="28" height="38">
<path fill-rule="evenodd" clip-rule="evenodd" d="M7.6709 0.803711H34.7505V37.5461H7.6709V0.803711Z" fill="white"/>
</mask>
<g mask="url(#mask0)">
<path fill-rule="evenodd" clip-rule="evenodd" d="M10.262 14.4676C10.262 8.37576 15.1736 3.42014 21.2103 3.42014C27.247 3.42014 32.1586 8.37576 32.1586 14.4676C32.1586 18.6358 26.5622 27.2862 21.2103 34.1447C15.8584 27.2846 10.262 18.6342 10.262 14.4676ZM21.2103 37.5462C21.5989 37.5462 21.9628 37.3726 22.2097 37.0713C23.4925 35.5043 34.7505 21.5559 34.7505 14.4668C34.7426 6.94219 28.6684 0.81255 21.2119 0.803711H21.2087C13.7522 0.81255 7.67886 6.94219 7.6709 14.4676C7.6709 21.6966 19.6998 36.4469 20.211 37.0705C20.4578 37.3726 20.8225 37.5462 21.2103 37.5462Z" fill="#FF533F"/>
</g>
<path fill-rule="evenodd" clip-rule="evenodd" d="M27.1421 14.4667C27.1381 17.7645 24.4769 20.4501 21.2097 20.4549C17.9377 20.4549 15.2773 17.7685 15.2773 14.4675C15.2773 11.1664 17.9377 8.48086 21.2097 8.48086C24.4809 8.48086 27.1421 11.1664 27.1421 14.4667ZM21.2097 6.14648C16.6636 6.14648 12.9648 9.87907 12.9648 14.4675C12.9648 19.0559 16.6636 22.7876 21.2097 22.7876C25.7558 22.7876 29.4538 19.0559 29.4538 14.4675C29.4498 9.8855 25.7518 6.15211 21.2097 6.14648Z" fill="#FF533F"/>
<mask id="mask1" mask-type="alpha" maskUnits="userSpaceOnUse" x="0" y="29" width="43" height="16">
<path fill-rule="evenodd" clip-rule="evenodd" d="M0 29.4443H42.2345V44.3979H0V29.4443Z" fill="white"/>
</mask>
<g mask="url(#mask1)">
<path fill-rule="evenodd" clip-rule="evenodd" d="M42.153 42.7547L37.31 30.2117C37.1308 29.7481 36.6897 29.4443 36.1975 29.4443H29.4824C28.823 29.4443 28.2879 29.9835 28.2879 30.6497C28.2879 31.3151 28.823 31.8551 29.4824 31.8551H35.3805L39.2928 41.9873H2.94183L6.85403 31.8551H12.7458C13.4052 31.8551 13.9403 31.3151 13.9403 30.6497C13.9403 29.9835 13.4052 29.4443 12.7458 29.4443H6.03703C5.54492 29.4443 5.10377 29.7481 4.9246 30.2117L0.0815293 42.7547C-0.0618041 43.1259 -0.0140263 43.5438 0.20814 43.8733C0.430307 44.2019 0.799788 44.398 1.19396 44.398H41.0406C41.4348 44.398 41.8043 44.2019 42.0264 43.8733C42.2486 43.5438 42.2964 43.1259 42.153 42.7547Z" fill="#FF533F"/>
</g>
</svg>
