<svg width="30" height="30" viewBox="0 0 30 30" fill="none" xmlns="http://www.w3.org/2000/svg">
<g clip-path="url(#clip0)">
<path d="M22.0952 27.5468H11.5327H2.4532V18.1008V7.90486H10.0212H18.0722L20.5254 5.45166H1.59311C0.713286 5.45166 0 6.16495 0 7.04476V28.4069C0 29.2867 0.713286 30 1.59311 30H22.9553C23.8351 30 24.5484 29.2867 24.5484 28.4069V9.47459L22.0952 11.9278V20.7203V27.5468Z" fill="black"/>
<path d="M28.3235 10.5961C28.9169 10.5949 29.3937 10.1181 29.3949 9.52462L29.4114 1.50823C29.412 1.21704 29.295 0.942965 29.1051 0.753036C28.9152 0.563107 28.6466 0.440494 28.3499 0.446716L20.3334 0.463121C19.74 0.464394 19.2632 0.941196 19.262 1.5346C19.2608 2.128 19.7356 2.60283 20.3291 2.60169L25.7592 2.59052L12.7561 15.5936C12.3354 16.0143 12.334 16.6861 12.753 17.1051C13.172 17.5241 13.8438 17.5227 14.2645 17.102L27.2676 4.09892L27.2564 9.52908C27.2553 10.1225 27.7357 10.6029 28.3235 10.5961Z" fill="black"/>
</g>
<defs>
<clipPath id="clip0">
<rect width="30" height="30" fill="white"/>
</clipPath>
</defs>
</svg>
