<svg width="27" height="21" viewBox="0 0 27 21" fill="none" xmlns="http://www.w3.org/2000/svg">
<path fill-rule="evenodd" clip-rule="evenodd" d="M21.7798 6.98193C22.1373 6.98193 22.4273 7.27193 22.4273 7.62943C22.4273 7.98693 22.1373 8.27643 21.7798 8.27643C21.4223 8.27643 21.1328 7.98693 21.1328 7.62943C21.1328 7.27193 21.4223 6.98193 21.7798 6.98193Z" fill="black"/>
<path fill-rule="evenodd" clip-rule="evenodd" d="M17.6221 6.98193C17.9796 6.98193 18.2691 7.27193 18.2691 7.62943C18.2691 7.98693 17.9796 8.27643 17.6221 8.27643C17.2646 8.27643 16.9746 7.98693 16.9746 7.62943C16.9746 7.27193 17.2646 6.98193 17.6221 6.98193Z" fill="black"/>
<path fill-rule="evenodd" clip-rule="evenodd" d="M13.4639 6.98193C13.8214 6.98193 14.1109 7.27193 14.1109 7.62943C14.1109 7.98693 13.8214 8.27643 13.4639 8.27643C13.1064 8.27643 12.8164 7.98693 12.8164 7.62943C12.8164 7.27193 13.1064 6.98193 13.4639 6.98193Z" fill="black"/>
<path fill-rule="evenodd" clip-rule="evenodd" d="M9.30716 6.98193C9.66466 6.98193 9.95466 7.27193 9.95466 7.62943C9.95466 7.98693 9.66466 8.27643 9.30716 8.27643C8.94966 8.27643 8.66016 7.98693 8.66016 7.62943C8.66016 7.27193 8.94966 6.98193 9.30716 6.98193Z" fill="black"/>
<path fill-rule="evenodd" clip-rule="evenodd" d="M5.14895 6.98193C5.50645 6.98193 5.79645 7.27193 5.79645 7.62943C5.79645 7.98693 5.50645 8.27643 5.14895 8.27643C4.79145 8.27643 4.50195 7.98693 4.50195 7.62943C4.50195 7.27193 4.79145 6.98193 5.14895 6.98193Z" fill="black"/>
<path fill-rule="evenodd" clip-rule="evenodd" d="M21.7798 11.1392C22.1373 11.1392 22.4273 11.4292 22.4273 11.7867C22.4273 12.1442 22.1373 12.4337 21.7798 12.4337C21.4223 12.4337 21.1328 12.1442 21.1328 11.7867C21.1328 11.4292 21.4223 11.1392 21.7798 11.1392Z" fill="black"/>
<path fill-rule="evenodd" clip-rule="evenodd" d="M17.6221 11.1392C17.9796 11.1392 18.2691 11.4292 18.2691 11.7867C18.2691 12.1442 17.9796 12.4337 17.6221 12.4337C17.2646 12.4337 16.9746 12.1442 16.9746 11.7867C16.9746 11.4292 17.2646 11.1392 17.6221 11.1392Z" fill="black"/>
<path fill-rule="evenodd" clip-rule="evenodd" d="M13.4639 11.1392C13.8214 11.1392 14.1109 11.4292 14.1109 11.7867C14.1109 12.1442 13.8214 12.4337 13.4639 12.4337C13.1064 12.4337 12.8164 12.1442 12.8164 11.7867C12.8164 11.4292 13.1064 11.1392 13.4639 11.1392Z" fill="black"/>
<path fill-rule="evenodd" clip-rule="evenodd" d="M5.14895 11.1392C5.50645 11.1392 5.79645 11.4292 5.79645 11.7867C5.79645 12.1442 5.50645 12.4337 5.14895 12.4337C4.79145 12.4337 4.50195 12.1442 4.50195 11.7867C4.50195 11.4292 4.79145 11.1392 5.14895 11.1392Z" fill="black"/>
<path fill-rule="evenodd" clip-rule="evenodd" d="M21.7798 15.2969C22.1373 15.2969 22.4273 15.5869 22.4273 15.9439C22.4273 16.3019 22.1373 16.5914 21.7798 16.5914C21.4223 16.5914 21.1328 16.3019 21.1328 15.9439C21.1328 15.5869 21.4223 15.2969 21.7798 15.2969Z" fill="black"/>
<path fill-rule="evenodd" clip-rule="evenodd" d="M17.6221 15.2969C17.9796 15.2969 18.2691 15.5869 18.2691 15.9439C18.2691 16.3019 17.9796 16.5914 17.6221 16.5914C17.2646 16.5914 16.9746 16.3019 16.9746 15.9439C16.9746 15.5869 17.2646 15.2969 17.6221 15.2969Z" fill="black"/>
<path fill-rule="evenodd" clip-rule="evenodd" d="M13.4639 15.2969C13.8214 15.2969 14.1109 15.5869 14.1109 15.9439C14.1109 16.3019 13.8214 16.5914 13.4639 16.5914C13.1064 16.5914 12.8164 16.3019 12.8164 15.9439C12.8164 15.5869 13.1064 15.2969 13.4639 15.2969Z" fill="black"/>
<path fill-rule="evenodd" clip-rule="evenodd" d="M9.30716 15.2969C9.66466 15.2969 9.95466 15.5869 9.95466 15.9439C9.95466 16.3019 9.66466 16.5914 9.30716 16.5914C8.94966 16.5914 8.66016 16.3019 8.66016 15.9439C8.66016 15.5869 8.94966 15.2969 9.30716 15.2969Z" fill="black"/>
<path fill-rule="evenodd" clip-rule="evenodd" d="M5.14895 15.2969C5.50645 15.2969 5.79645 15.5869 5.79645 15.9439C5.79645 16.3019 5.50645 16.5914 5.14895 16.5914C4.79145 16.5914 4.50195 16.3019 4.50195 15.9439C4.50195 15.5869 4.79145 15.2969 5.14895 15.2969Z" fill="black"/>
<path fill-rule="evenodd" clip-rule="evenodd" d="M10.7044 13.1839H7.90988V10.3894H10.7044V13.1839ZM11.2609 9.27637H7.35338C7.04588 9.27637 6.79688 9.52587 6.79688 9.83287V13.7404C6.79688 14.0479 7.04588 14.2969 7.35338 14.2969H11.2609C11.5684 14.2969 11.8174 14.0479 11.8174 13.7404V9.83287C11.8174 9.52587 11.5684 9.27637 11.2609 9.27637Z" fill="black"/>
<mask id="mask0" mask-type="alpha" maskUnits="userSpaceOnUse" x="0" y="0" width="27" height="21">
<path fill-rule="evenodd" clip-rule="evenodd" d="M0 0.5H26.9287V20.7199H0V0.5V0.5Z" fill="white"/>
</mask>
<g mask="url(#mask0)">
<path fill-rule="evenodd" clip-rule="evenodd" d="M25.074 19.4835H1.8545C1.5135 19.4835 1.2365 19.206 1.2365 18.8655V3.6875C1.2365 3.3465 1.5135 3.069 1.8545 3.069H5.942V3.7835C5.942 4.1245 6.2185 4.4015 6.56 4.4015C6.9015 4.4015 7.1785 4.125 7.1785 3.7835V3.069H10.5445V3.7835C10.5445 4.1245 10.8215 4.4015 11.163 4.4015C11.5045 4.4015 11.7815 4.125 11.7815 3.7835V3.069H15.147V3.7835C15.147 4.1245 15.424 4.4015 15.7655 4.4015C16.107 4.4015 16.384 4.125 16.384 3.7835V3.069H19.7505V3.7835C19.7505 4.1245 20.027 4.4015 20.3685 4.4015C20.71 4.4015 20.987 4.125 20.987 3.7835V3.069H25.074C25.415 3.069 25.6925 3.3465 25.6925 3.6875V18.865C25.692 19.206 25.415 19.4835 25.074 19.4835ZM25.074 1.8325H20.987V1.1185C20.987 0.777 20.71 0.5 20.3685 0.5C20.027 0.5 19.75 0.777 19.75 1.1185V1.8325H16.384V1.1185C16.384 0.777 16.107 0.5 15.7655 0.5C15.424 0.5 15.147 0.777 15.147 1.1185V1.8325H11.7815V1.1185C11.7815 0.777 11.5045 0.5 11.163 0.5C10.8215 0.5 10.5445 0.777 10.5445 1.1185V1.8325H7.1785V1.1185C7.1785 0.777 6.9015 0.5 6.56 0.5C6.2185 0.5 5.9415 0.777 5.9415 1.1185V1.8325H1.8545C0.832 1.8325 0 2.6645 0 3.6875V18.865C0 19.888 0.832 20.72 1.8545 20.72H25.074C26.0965 20.72 26.929 19.888 26.929 18.865V3.6875C26.9285 2.6645 26.0965 1.8325 25.074 1.8325Z" fill="black"/>
</g>
</svg>
