<svg width="34" height="34" viewBox="0 0 34 34" fill="none" xmlns="http://www.w3.org/2000/svg">
<mask id="mask0" mask-type="alpha" maskUnits="userSpaceOnUse" x="4" y="0" width="26" height="34">
<path fill-rule="evenodd" clip-rule="evenodd" d="M4.00073 0H29.422V34H4.00073V0Z" fill="white"/>
</mask>
<g mask="url(#mask0)">
<path fill-rule="evenodd" clip-rule="evenodd" d="M16.7108 31.1923C12.8825 26.7869 6.2888 18.0951 6.2888 12.3128C6.2888 6.74462 10.965 2.21536 16.7108 2.21536C22.4576 2.21536 27.1328 6.74462 27.1328 12.3128C27.1328 18.0951 20.5401 26.7849 16.7108 31.1923M16.7109 0C9.7024 0 4.00073 5.52403 4.00073 12.3126C4.00073 20.7394 15.3743 33.1096 15.8592 33.632C16.3143 34.1236 17.1084 34.1226 17.5626 33.632C18.0475 33.1096 29.422 20.7394 29.422 12.3126C29.422 5.52403 23.7204 0 16.7109 0" fill="#FF533F"/>
</g>
<path fill-rule="evenodd" clip-rule="evenodd" d="M16.7113 16.2901C14.4472 16.2901 12.6055 14.506 12.6055 12.312C12.6055 10.1179 14.4482 8.33387 16.7113 8.33387C18.9755 8.33387 20.8172 10.1179 20.8172 12.312C20.8172 14.506 18.9755 16.2901 16.7113 16.2901M16.7111 6.11719C13.1843 6.11719 10.3162 8.89601 10.3162 12.3124C10.3162 15.7288 13.1852 18.5086 16.7111 18.5086C20.2379 18.5086 23.106 15.7288 23.106 12.3124C23.106 8.89601 20.2379 6.11719 16.7111 6.11719" fill="#FF533F"/>
</svg>
