<svg width="50" height="50" viewBox="0 0 50 50" fill="none" xmlns="http://www.w3.org/2000/svg">
<path d="M32.6886 10.0948C33.1911 9.58579 33.1911 8.76951 32.6886 8.26053L25.9003 1.38454C25.6538 1.13485 25.322 1.0004 24.9996 1.0004C24.6773 1.0004 24.3455 1.12525 24.099 1.38454L17.3107 8.26053C16.8082 8.76951 16.8082 9.58579 17.3107 10.0948C17.8132 10.6037 18.619 10.6037 19.1215 10.0948L23.7197 5.43715L23.7197 27.6977C23.7197 28.4179 24.2886 28.9941 24.9996 28.9941C25.7107 28.9941 26.2795 28.4179 26.2795 27.6977L26.2795 5.43715L30.8777 10.0948C31.3802 10.6037 32.1956 10.6037 32.6886 10.0948Z" fill="#F05442"/>
<path fill-rule="evenodd" clip-rule="evenodd" d="M41.468 16.1954L45.924 32.521C45.962 32.6267 45.9714 32.7419 45.9714 32.8668V39.6467C45.9714 44.8037 41.8283 49.0004 36.7371 49.0004H13.2626C8.17143 49.0004 4.02832 44.8037 4.02832 39.6467V32.838C4.02832 32.7227 4.04728 32.6075 4.07572 32.4922L8.53171 16.1666C8.62651 15.792 8.89198 15.4943 9.23329 15.3311L9.35654 15.2734C9.52719 15.1966 9.70733 15.1582 9.88746 15.1582H17.9272C18.6383 15.1582 19.2071 15.7344 19.2071 16.4547C19.2071 17.1749 18.6383 17.7511 17.9272 17.7511H10.7597L6.97685 31.5895H16.543C17.2541 31.5895 17.8229 32.1657 17.8229 32.886V34.0576C17.8229 35.7766 19.1976 37.1691 20.8947 37.1691H28.7069C30.4039 37.1691 31.7787 35.7766 31.7787 34.0576V32.886C31.7787 32.1657 32.3475 31.5895 33.0586 31.5895H43.0134L39.2495 17.7799H32.082C31.371 17.7799 30.8021 17.2037 30.8021 16.4835C30.8021 15.7632 31.371 15.187 32.082 15.187H40.1123C40.2924 15.187 40.4726 15.2254 40.6432 15.3023L40.7665 15.3599C41.1078 15.5231 41.3638 15.8208 41.468 16.1954ZM36.7371 46.4075C40.4157 46.4075 43.4116 43.3728 43.4116 39.6467H43.4306V34.1824H34.3574C34.2911 37.2651 31.7881 39.7524 28.7258 39.7524H20.9136C17.8513 39.7524 15.3484 37.2651 15.282 34.1824H6.58814V39.6467C6.58814 43.3728 9.58408 46.4075 13.2626 46.4075H36.7371Z" fill="#F05442"/>
</svg>
