<?xml version="1.0" encoding="utf-8"?>
<!-- Generator: Adobe Illustrator 23.0.1, SVG Export Plug-In . SVG Version: 6.00 Build 0)  -->
<svg version="1.1" id="Capa_1" xmlns="http://www.w3.org/2000/svg" xmlns:xlink="http://www.w3.org/1999/xlink" x="0px" y="0px"
	 viewBox="0 0 30 30" style="enable-background:new 0 0 30 30;" xml:space="preserve">
<style type="text/css">
	.st0{enable-background:new    ;}
</style>
<title>TXT</title>
<desc>Created with Sketch.</desc>
<g id="Page-1">
	<g id="TXT">
		<g id="Shape">
			<path d="M28,0.3H2c-0.5,0-0.9,0.1-1.2,0.5S0.3,1.5,0.3,2v26c0,0.5,0.1,0.9,0.5,1.2c0.3,0.3,0.8,0.5,1.2,0.5h26
				c0.4,0,0.7-0.1,1-0.3c0.4-0.3,0.7-0.8,0.7-1.4V2c0-0.5-0.1-0.9-0.5-1.2C28.9,0.4,28.5,0.3,28,0.3z M27.2,27.2H2.8V2.8h24.4V27.2z
				"/>
		</g>
		<g id="Group" transform="translate(4.100000, 10.700000)">
			<g class="st0">
				<path d="M2.7,1.3H0.4v-1.5h6.3v1.5H4.4V8H2.7V1.3z"/>
				<path d="M9.9,3.5L7.7-0.2h1.9l0.8,1.4C10.7,1.7,11,2.4,11,2.4s0.2-0.7,0.5-1.1l0.8-1.4H14l-2.2,3.7L14.5,8h-1.9l-1.3-2.2
					c-0.3-0.4-0.6-1.2-0.6-1.2s-0.3,0.7-0.5,1.2L9,8H7.2L9.9,3.5z"/>
			</g>
			<g class="st0">
				<path d="M17.4,1.3h-2.3v-1.5h6.3v1.5h-2.3V8h-1.7V1.3z"/>
			</g>
		</g>
	</g>
</g>
</svg>
