<svg width="45" height="45" viewBox="0 0 45 45" fill="none" xmlns="http://www.w3.org/2000/svg">
<mask id="mask0" mask-type="alpha" maskUnits="userSpaceOnUse" x="8" y="13" width="29" height="32">
<path fill-rule="evenodd" clip-rule="evenodd" d="M8.12719 13.083H36.8731V44.9753H8.12719V13.083Z" fill="white"/>
</mask>
<g mask="url(#mask0)">
<path fill-rule="evenodd" clip-rule="evenodd" d="M31.9043 36.7855H13.0954V24.1502C13.0954 19.0094 17.3145 14.827 22.5 14.827C27.6855 14.827 31.9043 19.0094 31.9043 24.1502V36.7855ZM34.6226 37.3764C34.5017 37.0224 34.167 36.7847 33.7904 36.7847H33.6621V24.2707C33.6621 18.1645 28.7245 13.1182 22.5652 13.0832C16.3807 13.0486 11.338 18.0256 11.338 24.1494V36.7847H11.2101C10.8334 36.7847 10.4983 37.0224 10.3775 37.3764L8.17395 43.8246C8.06134 44.1517 8.15472 44.5208 8.42585 44.7589C8.59103 44.904 8.80958 44.9756 9.03048 44.9756H13.693C14.1779 44.9756 14.5715 44.5854 14.5715 44.1039C14.5715 43.6227 14.1779 43.2325 13.693 43.2325H10.2323L11.8402 38.5274H33.1598L34.7681 43.2325H18.4484C17.9631 43.2325 17.5695 43.6227 17.5695 44.1039C17.5695 44.5854 17.9631 44.9756 18.4484 44.9756H35.9696C36.1909 44.9756 36.409 44.904 36.5742 44.7589C36.8457 44.5208 36.9387 44.1517 36.8265 43.8246L34.6226 37.3764Z" fill="#FF533F"/>
</g>
<mask id="mask1" mask-type="alpha" maskUnits="userSpaceOnUse" x="21" y="0" width="3" height="8">
<path fill-rule="evenodd" clip-rule="evenodd" d="M21.6212 0.362305H23.379V7.33281H21.6212V0.362305Z" fill="white"/>
</mask>
<g mask="url(#mask1)">
<path fill-rule="evenodd" clip-rule="evenodd" d="M22.5001 7.33289C22.9855 7.33289 23.379 6.94274 23.379 6.46157V1.23324C23.379 0.752455 22.9855 0.362305 22.5001 0.362305C22.0147 0.362305 21.6212 0.752455 21.6212 1.23324V6.46157C21.6212 6.94274 22.0147 7.33289 22.5001 7.33289" fill="#FF533F"/>
</g>
<path fill-rule="evenodd" clip-rule="evenodd" d="M22.5001 10.7276C22.7312 10.7276 22.958 10.6354 23.1212 10.4732C23.2848 10.3102 23.379 10.0866 23.379 9.85706C23.379 9.62717 23.2848 9.40312 23.1212 9.24014C22.958 9.07832 22.7312 8.98535 22.5001 8.98535C22.269 8.98535 22.0422 9.07832 21.8786 9.24014C21.715 9.40312 21.6212 9.62717 21.6212 9.85706C21.6212 10.0866 21.715 10.3102 21.8786 10.4732C22.0422 10.6354 22.269 10.7276 22.5001 10.7276" fill="#FF533F"/>
<path fill-rule="evenodd" clip-rule="evenodd" d="M9.27269 24.5559C9.27269 24.0747 8.87876 23.6846 8.39379 23.6846H4.35791C3.87217 23.6846 3.47862 24.0747 3.47862 24.5559C3.47862 25.0367 3.87217 25.4268 4.35791 25.4268H8.39379C8.87876 25.4268 9.27269 25.0367 9.27269 24.5559" fill="#FF533F"/>
<path fill-rule="evenodd" clip-rule="evenodd" d="M0.878961 23.6846C0.647858 23.6846 0.42107 23.7775 0.257453 23.9397C0.0938365 24.1019 6.10352e-05 24.3264 6.10352e-05 24.5559C6.10352e-05 24.785 0.0938365 25.0098 0.257453 25.1717C0.42107 25.3339 0.647858 25.4268 0.878961 25.4268C1.11006 25.4268 1.33685 25.3339 1.50008 25.1717C1.66369 25.0098 1.75786 24.785 1.75786 24.5559C1.75786 24.3264 1.66369 24.1019 1.50008 23.9397C1.33685 23.7775 1.11006 23.6846 0.878961 23.6846" fill="#FF533F"/>
<path fill-rule="evenodd" clip-rule="evenodd" d="M14.9585 8.78271C15.0986 9.11801 15.4259 9.32106 15.7707 9.32106C15.8826 9.32106 15.9967 9.29928 16.107 9.25416C16.5551 9.06978 16.7681 8.56021 16.5826 8.1156L15.3913 5.26435C15.2053 4.81974 14.691 4.6093 14.2429 4.7929C13.794 4.97728 13.5813 5.48685 13.7669 5.93146L14.9585 8.78271Z" fill="#FF533F"/>
<path fill-rule="evenodd" clip-rule="evenodd" d="M6.25292 18.756C6.59781 18.756 6.92505 18.5533 7.06512 18.2176C7.2511 17.7734 7.03805 17.2634 6.58957 17.0791L3.71353 15.8981C3.26506 15.7149 2.75106 15.9257 2.56547 16.3699C2.37949 16.8145 2.59254 17.3241 3.04062 17.5085L5.91706 18.6894C6.02692 18.7342 6.1411 18.756 6.25292 18.756" fill="#FF533F"/>
<path fill-rule="evenodd" clip-rule="evenodd" d="M41.0088 23.6846H36.9729C36.4875 23.6846 36.094 24.0747 36.094 24.5559C36.094 25.0371 36.4875 25.4268 36.9729 25.4268H41.0088C41.4937 25.4268 41.8877 25.0371 41.8877 24.5559C41.8877 24.0747 41.4937 23.6846 41.0088 23.6846" fill="#FF533F"/>
<mask id="mask2" mask-type="alpha" maskUnits="userSpaceOnUse" x="43" y="23" width="2" height="3">
<path fill-rule="evenodd" clip-rule="evenodd" d="M43.2423 23.6846H45.0001V25.4268H43.2423V23.6846Z" fill="white"/>
</mask>
<g mask="url(#mask2)">
<path fill-rule="evenodd" clip-rule="evenodd" d="M44.7427 23.9397C44.5791 23.7775 44.3523 23.6846 44.1212 23.6846C43.8901 23.6846 43.6633 23.7775 43.4997 23.9397C43.3365 24.1019 43.2423 24.3264 43.2423 24.5559C43.2423 24.785 43.3361 25.0098 43.4997 25.1717C43.6633 25.3339 43.8901 25.4268 44.1212 25.4268C44.3523 25.4268 44.5791 25.3339 44.7427 25.1717C44.906 25.0098 45.0001 24.785 45.0001 24.5559C45.0001 24.3264 44.906 24.1019 44.7427 23.9397" fill="#FF533F"/>
</g>
<path fill-rule="evenodd" clip-rule="evenodd" d="M34.9348 13.0995C35.1596 13.0995 35.3844 13.0143 35.5563 12.8443L39.8805 8.55691C40.2239 8.21655 40.2239 7.66497 39.8805 7.32461C39.5372 6.98425 38.9812 6.98425 38.6379 7.32461L34.3133 11.612C33.9699 11.9523 33.9699 12.5039 34.3133 12.8443C34.4851 13.0143 34.7099 13.0995 34.9348 13.0995" fill="#FF533F"/>
<path fill-rule="evenodd" clip-rule="evenodd" d="M9.444 12.845C9.61546 13.015 9.84068 13.1001 10.0655 13.1001C10.2903 13.1001 10.5152 13.015 10.687 12.845C11.0299 12.5046 11.0299 11.9526 10.687 11.6123L6.36236 7.32529C6.01904 6.98532 5.46266 6.98532 5.11934 7.32529C4.77602 7.66565 4.77602 8.21723 5.11934 8.55759L9.444 12.845Z" fill="#FF533F"/>
<path fill-rule="evenodd" clip-rule="evenodd" d="M28.8933 9.2541C29.0032 9.29923 29.117 9.32101 29.2292 9.32101C29.5741 9.32101 29.9013 9.11796 30.0418 8.78266L31.233 5.93141C31.419 5.48641 31.2059 4.97723 30.7571 4.79285C30.3086 4.60925 29.7946 4.82008 29.6086 5.2643L28.4174 8.11555C28.2318 8.56016 28.4444 9.06973 28.8933 9.2541" fill="#FF533F"/>
<path fill-rule="evenodd" clip-rule="evenodd" d="M41.2862 15.8985L38.4105 17.0795C37.9617 17.2639 37.749 17.7734 37.9346 18.218C38.0747 18.5537 38.4019 18.7564 38.7468 18.7564C38.859 18.7564 38.9728 18.735 39.0831 18.6899L41.9591 17.5089C42.4076 17.3245 42.6202 16.8146 42.435 16.3704C42.2491 15.9254 41.7351 15.7145 41.2862 15.8985" fill="#FF533F"/>
<path fill-rule="evenodd" clip-rule="evenodd" d="M23.3791 25.3709C23.3791 25.8513 22.9848 26.2423 22.5002 26.2423C22.0153 26.2423 21.6213 25.8513 21.6213 25.3709V21.1886C21.6213 20.7082 22.0153 20.3173 22.5002 20.3173C22.9848 20.3173 23.3791 20.7082 23.3791 21.1886V25.3709ZM22.5002 18.5742C21.0461 18.5742 19.8635 19.747 19.8635 21.1882V25.3705C19.8635 26.8121 21.0465 27.9849 22.5002 27.9849C23.9539 27.9849 25.1369 26.8121 25.1369 25.3705V21.1882C25.1369 19.747 23.9539 18.5742 22.5002 18.5742V18.5742Z" fill="#FF533F"/>
<path fill-rule="evenodd" clip-rule="evenodd" d="M22.5001 33.2124C22.0155 33.2124 21.6212 32.8215 21.6212 32.3411C21.6212 31.8603 22.0155 31.4698 22.5001 31.4698C22.9847 31.4698 23.379 31.8603 23.379 32.3411C23.379 32.8215 22.9847 33.2124 22.5001 33.2124M22.5001 29.7275C21.046 29.7275 19.8634 30.9007 19.8634 32.3419C19.8634 33.7831 21.0464 34.9555 22.5001 34.9555C23.9538 34.9555 25.1368 33.7831 25.1368 32.3419C25.1368 30.9003 23.9538 29.7275 22.5001 29.7275" fill="#FF533F"/>
</svg>
