<svg width="30" height="30" viewBox="0 0 30 30" fill="none" xmlns="http://www.w3.org/2000/svg">
<path fill-rule="evenodd" clip-rule="evenodd" d="M1.9998 0.299805H27.9998C28.4998 0.299805 28.8998 0.399805 29.1998 0.799805C29.5998 1.0998 29.6998 1.4998 29.6998 1.9998V27.9998C29.6998 28.5998 29.3998 29.0998 28.9998 29.3998C28.6998 29.5998 28.3998 29.6998 27.9998 29.6998H1.9998C1.5998 29.6998 1.0998 29.4998 0.799805 29.1998C0.399805 28.8998 0.299805 28.4998 0.299805 27.9998V1.9998C0.299805 1.4998 0.499805 1.1998 0.799805 0.799805C1.0998 0.399805 1.4998 0.299805 1.9998 0.299805ZM2.7998 27.1998H27.1998V2.7998H2.7998V27.1998Z" fill="#F05442"/>
<path d="M6.8 12H4.5V10.5H10.8V12H8.5V18.7H6.8V12Z" fill="#F05442"/>
<path d="M14.0003 14.2L11.8003 10.5H13.7003L14.5003 11.9C14.8003 12.4 15.1003 13.1 15.1003 13.1C15.1003 13.1 15.3003 12.4 15.6003 12L16.4003 10.6H18.1003L15.9003 14.3L18.6003 18.7H16.7003L15.4003 16.5C15.1003 16.1 14.8003 15.3 14.8003 15.3C14.8003 15.3 14.5003 16 14.3003 16.5L13.1003 18.7H11.3003L14.0003 14.2Z" fill="#F05442"/>
<path d="M21.5002 12H19.2002V10.5H25.5002V12H23.2002V18.7H21.5002V12Z" fill="#F05442"/>
</svg>
