<svg width="125" height="37" viewBox="0 0 125 37" fill="none" xmlns="http://www.w3.org/2000/svg">
<path d="M3.75 5.75H29.25V31.25H3.75V5.75Z" stroke="white" stroke-width="1.5"/>
<path d="M29.1688 10.6067C29.1688 10.6067 23.5781 11.7519 23.0331 11.84C20.8179 12.1924 18.5324 11.84 16.616 11.0119C15.3326 10.3248 14.0141 9.72571 12.5724 9.5319C11.6407 9.39094 10.6385 9.39094 9.70676 9.51428L5.61042 10.2543C4.95993 10.3776 4.27427 10.5009 3.62378 10.6067V5.95523C4.62589 5.70856 5.75107 5.54999 6.78834 5.88475C7.38609 6.02571 7.91351 6.37809 8.4761 6.64237C9.60128 7.24142 10.6913 7.9638 11.9571 8.24571C13.6449 8.72142 15.6315 8.61571 17.3193 8.21047L21.1519 7.50571L25.1604 6.78332L29.1864 5.95523V10.6067" fill="white"/>
<path fill-rule="evenodd" clip-rule="evenodd" d="M8.96836 25.4062C11.5352 24.7719 14.4712 25.1243 16.7215 26.2343C18.6554 27.3971 21.0992 27.8905 23.455 27.45L29.1688 26.4105V31.0443C28.3601 31.2205 27.5865 31.379 26.725 31.2557C26.2679 31.1852 25.846 31.0619 25.4241 30.8857L22.4529 29.3352C20.7475 28.5776 18.6554 28.2957 16.7039 28.6657L4.45008 30.9209L3.62378 31.0619V26.4281L4.64347 26.2166L7.33334 25.7233C7.86077 25.6 8.44094 25.5119 8.96836 25.4062Z" fill="white"/>
<path d="M28.5581 15.0232L28.6864 14.9957V17.0911L27.0966 16.1807L27.0789 16.1705L27.0605 16.1619C25.3208 15.3458 23.2721 15.0137 21.2424 15.2911L21.2315 15.2925L21.2206 15.2945L14.7333 16.475L14.7332 16.475C14.3468 16.5454 13.7626 16.6511 13.2747 16.7392L12.6524 16.8515L12.4646 16.8853L12.4136 16.8945L12.4004 16.8969L12.397 16.8975L12.3962 16.8977L12.396 16.8977L12.3959 16.8977L12.4845 17.3898L12.3959 16.8977L12.3925 16.8983L6.47444 18.0071C5.51043 18.1599 4.80086 18.0056 4.12378 17.6581V14.7936L14.2664 12.9331C16.7947 12.615 19.2524 13.1063 21.3385 14.219L21.3385 14.2191L21.342 14.2209C23.4443 15.3209 26.1512 15.5927 28.5581 15.0232Z" fill="white" stroke="white"/>
<path d="M29.1688 19.1868V22.7106L18.6906 24.6487C16.0535 24.9835 13.4866 24.4725 11.3066 23.3097C9.31998 22.2701 6.7356 22.0059 4.4325 22.5521L3.6062 22.7106V19.1868L6.03236 20.473C7.68496 21.2482 9.63644 21.5654 11.5703 21.3011L18.0577 20.1206C18.8312 19.9797 20.3959 19.6978 20.3959 19.6978L26.3031 18.6054C27.481 18.394 28.3601 18.7287 29.1688 19.1868Z" fill="white"/>
<path fill-rule="evenodd" clip-rule="evenodd" d="M35.3727 28.9479V21.9532H36.5155C38.8713 21.9532 40.1723 23.2041 40.1723 25.4593C40.1723 27.7674 38.9241 28.9479 36.4979 28.9479H35.3727ZM32.7356 19.6274V31.3089H36.6385C40.5942 31.3089 42.9149 29.1417 42.9149 25.4593C42.9149 21.7946 40.5415 19.6274 36.4979 19.6274H32.7356Z" fill="white"/>
<path d="M43.8467 19.6274V31.3089H51.5823V28.9479H46.4662V26.2874H51.5295V23.9089H46.4662V21.9708H51.5823V19.6274H43.8467Z" fill="white"/>
<path fill-rule="evenodd" clip-rule="evenodd" d="M64.2406 25.4946H62.0606L62.3419 24.6841C62.5704 23.997 62.6583 23.7679 62.7286 23.486C62.7638 23.3803 62.8341 23.1689 62.922 22.8517L63.0451 22.4113C63.0627 22.3584 63.0978 22.2351 63.1506 22.0236C63.2736 22.517 63.3615 22.8693 63.5549 23.4508L63.7659 24.1027C63.889 24.4551 63.9417 24.6489 63.9593 24.6841L64.2406 25.4946ZM61.6035 19.6274L57.3489 31.3089H60.1091L61.3749 27.7498H64.9438L66.1921 31.3089H69.005L64.6625 19.6274H61.6035V19.6274Z" fill="white"/>
<path fill-rule="evenodd" clip-rule="evenodd" d="M72.1166 24.2964V21.8474H73.3121C74.4549 21.8474 74.9471 22.2174 74.9471 23.0631C74.9471 23.9088 74.3846 24.3141 73.277 24.3141H72.1166V24.2964ZM69.4443 31.3088H72.1166V26.5164H72.4507C74.1209 26.5164 74.2967 26.6926 75.4218 29.5822C75.5449 29.8993 75.6152 30.0931 75.668 30.1812L75.8965 30.7274C76.0547 31.0974 76.0723 31.1326 76.1778 31.3264H79.3775C78.727 30.6041 78.182 29.635 77.1623 27.2388C76.7052 26.2345 76.4415 25.935 75.6152 25.6003C76.9865 25.1774 77.7425 24.1731 77.7425 22.7988C77.7425 20.7022 76.3536 19.645 73.5758 19.645H69.4443V31.3088Z" fill="white"/>
<path fill-rule="evenodd" clip-rule="evenodd" d="M84.0892 25.4946H81.9092L82.1905 24.6841C82.419 23.997 82.5069 23.7679 82.5773 23.486C82.6124 23.3803 82.6827 23.1689 82.7707 22.8517L82.8937 22.4113C82.9113 22.3584 82.9465 22.2351 82.9992 22.0236C83.1223 22.517 83.2102 22.8693 83.4036 23.4508L83.6145 24.1027C83.7376 24.4551 83.7903 24.6489 83.8079 24.6841L84.0892 25.4946ZM81.4345 19.6274L77.1799 31.3089H79.9401L81.206 27.7498H84.7749L86.0231 31.3089H88.8361L84.4936 19.6274H81.4345V19.6274Z" fill="white"/>
<path d="M97.6793 25.3362H95.0773V29.0186C94.5675 29.1595 94.3565 29.1771 93.9521 29.1771C91.9655 29.1771 90.4887 27.6267 90.4887 25.4947C90.4887 23.2219 92.0358 21.689 94.3565 21.689C95.5168 21.689 96.4662 21.9886 97.6793 22.7109V20.0505C96.2904 19.5395 95.3234 19.3457 94.128 19.3457C90.3481 19.3457 87.7285 21.8828 87.7285 25.53C87.7285 29.1243 90.2953 31.5557 94.128 31.5557C95.3234 31.5557 96.5717 31.3443 97.6793 30.939V25.3362Z" fill="white"/>
<path fill-rule="evenodd" clip-rule="evenodd" d="M108.052 25.477C108.052 27.6793 106.751 29.1593 104.8 29.1593C102.83 29.1593 101.477 27.6793 101.477 25.477C101.477 23.2922 102.795 21.7946 104.747 21.7946C106.733 21.7946 108.052 23.2746 108.052 25.477ZM110.83 25.4417C110.83 21.9532 108.245 19.416 104.712 19.416C101.266 19.416 98.7166 21.9884 98.7166 25.477C98.7166 28.9832 101.266 31.5203 104.8 31.5203C108.333 31.5203 110.83 29.0008 110.83 25.4417Z" fill="white"/>
<path d="M111.832 19.6274V31.3089H114.487V26.5517V25.9351L114.469 25.3184L114.451 24.6489C114.451 24.5608 114.451 24.3846 114.416 24.0851L114.399 23.6446C114.487 23.8208 114.539 23.9441 114.592 24.0322C114.61 24.0498 114.715 24.226 114.908 24.5784L115.383 25.3889C115.401 25.4241 115.577 25.6884 115.893 26.1817L116.35 26.9217L119.198 31.3265H121.66V19.6451H119.005V23.9793C119.005 25.0717 119.04 25.8998 119.093 26.6046C119.093 26.6927 119.11 26.8336 119.128 27.0274C118.776 26.2874 118.302 25.5122 117.651 24.5079L114.487 19.6627H111.832" fill="white"/>
<path d="M42.4928 11.3816H39.8908V15.064C39.381 15.2049 39.17 15.2225 38.7656 15.2225C36.779 15.2225 35.3022 13.6721 35.3022 11.5402C35.3022 9.2673 36.8493 7.73445 39.17 7.73445C40.3303 7.73445 41.2797 8.03397 42.4928 8.75635V6.09587C41.1039 5.58492 40.1369 5.39111 38.9414 5.39111C35.1615 5.39111 32.542 7.92826 32.542 11.5754C32.542 15.1697 35.1088 17.6011 38.9414 17.6011C40.1369 17.6011 41.3852 17.3897 42.4928 16.9844V11.3816Z" fill="white"/>
<path fill-rule="evenodd" clip-rule="evenodd" d="M52.8481 11.5229C52.8481 13.7252 51.5472 15.2052 49.5957 15.2052C47.6266 15.2052 46.2729 13.7076 46.2729 11.5229C46.2729 9.33811 47.5915 7.84049 49.5429 7.84049C51.5296 7.84049 52.8481 9.32049 52.8481 11.5229ZM55.6259 11.4876C55.6259 7.99906 53.0415 5.46191 49.5078 5.46191C46.0619 5.46191 43.5127 8.0343 43.5127 11.5229C43.5127 15.0291 46.0619 17.5662 49.5957 17.5662C53.1294 17.5662 55.6259 15.0467 55.6259 11.4876Z" fill="white"/>
<path fill-rule="evenodd" clip-rule="evenodd" d="M59.1596 14.9762V12.2629H60.6364C62.0253 12.2629 62.5879 12.6505 62.5879 13.6371C62.5879 14.5886 62.0253 14.9938 60.7419 14.9938H59.1596V14.9762ZM59.1596 10.0429V7.89334H60.3024C61.5506 7.89334 61.9725 8.17524 61.9725 8.93286C61.9725 9.72572 61.5154 10.0429 60.3903 10.0429H59.1596V10.0429ZM56.5049 5.67334V17.3548H61.322C63.8888 17.3548 65.4008 16.0686 65.4008 13.8838C65.4008 12.3862 64.5393 11.2938 62.9746 10.8357C64.0471 10.3071 64.5569 9.47905 64.5569 8.43953C64.5745 6.58953 63.3087 5.67334 60.7946 5.67334H56.5049Z" fill="white"/>
<path d="M68.5478 5.67334H65.9458V17.3548H68.5478V5.67334Z" fill="white"/>
<path d="M69.6907 5.67334V17.3548H77.4087V14.9938H72.2927V12.3333H77.356V9.97239H72.2927V8.01667H77.4087V5.67334H69.6907Z" fill="white"/>
<path fill-rule="evenodd" clip-rule="evenodd" d="M81.2236 10.36V7.8933H82.4191C83.5618 7.8933 84.0541 8.2633 84.0541 9.10901C84.0541 9.95473 83.4915 10.36 82.3839 10.36H81.2236ZM78.5337 17.3547H81.2236V12.5623H81.5576C83.2278 12.5623 83.4036 12.7385 84.5288 15.6281C84.6518 15.9452 84.7222 16.139 84.7749 16.2271L85.0034 16.7733C85.1617 17.1433 85.1793 17.1785 85.2847 17.3724H88.4845C87.834 16.65 87.289 15.6809 86.2693 13.2847C85.8122 12.2804 85.5484 11.9809 84.7221 11.6462C86.0935 11.2233 86.8494 10.219 86.8494 8.84473C86.8494 6.74806 85.4605 5.69092 82.6828 5.69092H78.5513V17.3547H78.5337Z" fill="white"/>
<path d="M87.8691 5.67334V17.3548H90.5239V12.5976V11.981L90.5063 11.3643L90.4887 10.6948C90.4887 10.6067 90.4887 10.4305 90.4535 10.131L90.436 9.69048C90.5239 9.86667 90.5766 9.99001 90.6293 10.0781C90.6469 10.0957 90.7524 10.2719 90.9458 10.6243L91.4205 11.4348C91.4381 11.47 91.6139 11.7343 91.9303 12.2276L92.3874 12.9676L95.2355 17.3724H97.6969V5.67334H95.0421V10.0076C95.0421 11.1 95.0773 11.9281 95.13 12.6329C95.13 12.721 95.1476 12.8619 95.1652 13.0557C94.8136 12.3157 94.3389 11.5405 93.6884 10.5362L90.5239 5.69096H87.8691" fill="white"/>
<path fill-rule="evenodd" clip-rule="evenodd" d="M108.07 11.5229C108.07 13.7252 106.769 15.2052 104.817 15.2052C102.848 15.2052 101.494 13.7076 101.494 11.5229C101.494 9.33811 102.813 7.84049 104.764 7.84049C106.751 7.84049 108.07 9.32049 108.07 11.5229ZM110.847 11.4876C110.847 7.99906 108.263 5.46191 104.729 5.46191C101.283 5.46191 98.7341 8.0343 98.7341 11.5229C98.7341 15.0291 101.283 17.5662 104.817 17.5662C108.351 17.5662 110.847 15.0467 110.847 11.4876Z" fill="white"/>
</svg>
