<?xml version="1.0" encoding="utf-8"?>
<!-- Generator: Adobe Illustrator 23.0.1, SVG Export Plug-In . SVG Version: 6.00 Build 0)  -->
<svg version="1.1" id="Capa_1" xmlns="http://www.w3.org/2000/svg" xmlns:xlink="http://www.w3.org/1999/xlink" x="0px" y="0px"
	 viewBox="0 0 30 30" style="enable-background:new 0 0 30 30;" xml:space="preserve">
<style type="text/css">
	.st0{enable-background:new    ;}
</style>
<title>PDF</title>
<desc>Created with Sketch.</desc>
<g id="Page-1">
	<g id="PDF">
		<g id="Shape">
			<path d="M28,0.3H2c-0.5,0-0.9,0.1-1.2,0.5S0.3,1.5,0.3,2v26c0,0.5,0.1,0.9,0.5,1.2c0.3,0.3,0.8,0.5,1.2,0.5h26
				c0.4,0,0.7-0.1,1-0.3c0.4-0.3,0.7-0.8,0.7-1.4V2c0-0.5-0.1-0.9-0.5-1.2C28.9,0.4,28.5,0.3,28,0.3z M27.2,27.2H2.8V2.8h24.4V27.2z
				"/>
		</g>
		<g class="st0">
			<path d="M4.8,10.5H7c2.3,0,3.6,1.2,3.6,3.2S9.3,16.8,7,16.8H6.4v1.9H4.8V10.5z M7,15.4c1.4,0,2-0.6,2-1.7c0-1.1-0.6-1.7-2-1.7
				H6.4v3.3H7z"/>
			<path d="M12,10.5h2.5c2.5,0,4.3,1.7,4.3,4.1c0,2.4-1.8,4.1-4.3,4.1H12V10.5z M14.4,17.2c1.8,0,2.6-1.1,2.6-2.6
				c0-1.5-0.8-2.6-2.6-2.6h-0.7v5.2H14.4z"/>
			<path d="M20.2,10.5h5.3V12h-3.6v2.7h3.2v1.5h-3.2v2.5h-1.7V10.5z"/>
		</g>
	</g>
</g>
</svg>
