<svg width="56" height="56" viewBox="0 0 56 56" fill="none" xmlns="http://www.w3.org/2000/svg">
<path fill-rule="evenodd" clip-rule="evenodd" d="M31.2055 39.3321H23.9805V37.5251H24.8845C25.3835 37.5251 25.7875 37.1221 25.7875 36.6231V27.5931C25.7875 27.0941 25.3835 26.6891 24.8845 26.6891H23.9805V24.8841H29.3985V36.6231C29.3985 37.1221 29.8045 37.5251 30.3025 37.5251H31.2055V39.3321ZM32.1075 35.7201H31.2055V23.9801C31.2055 23.4811 30.8015 23.0771 30.3025 23.0771H23.0785C22.5795 23.0771 22.1755 23.4811 22.1755 23.9801V27.5931C22.1755 28.0921 22.5795 28.4961 23.0785 28.4961H23.9805V35.7201H23.0785C22.5795 35.7201 22.1755 36.1241 22.1755 36.6231V40.2351C22.1755 40.7331 22.5795 41.1381 23.0785 41.1381H32.1075C32.6065 41.1381 33.0115 40.7331 33.0115 40.2351V36.6231C33.0115 36.1241 32.6065 35.7201 32.1075 35.7201Z" fill="#FF533F"/>
<path fill-rule="evenodd" clip-rule="evenodd" d="M27.5932 15.8539C28.5892 15.8539 29.3992 16.6649 29.3992 17.6599C29.3992 18.6559 28.5892 19.4659 27.5932 19.4659C26.5972 19.4659 25.7872 18.6559 25.7872 17.6599C25.7872 16.6649 26.5972 15.8539 27.5932 15.8539ZM27.5932 21.2719C29.5842 21.2719 31.2052 19.6519 31.2052 17.6599C31.2052 15.6679 29.5842 14.0479 27.5932 14.0479C25.6022 14.0479 23.9812 15.6679 23.9812 17.6599C23.9812 19.6519 25.6022 21.2719 27.5932 21.2719Z" fill="#FF533F"/>
<mask id="mask0" mask-type="alpha" maskUnits="userSpaceOnUse" x="3" y="3" width="50" height="50">
<path fill-rule="evenodd" clip-rule="evenodd" d="M3 3.00098H52.186V52.1869H3V3.00098Z" fill="white"/>
</mask>
<g mask="url(#mask0)">
<path fill-rule="evenodd" clip-rule="evenodd" d="M27.5932 50.265C23.2422 50.265 18.6182 48.981 15.2242 46.83C14.9832 46.678 14.6832 46.638 14.4052 46.731L5.4802 49.706L8.4552 40.781C8.5462 40.506 8.5102 40.206 8.3562 39.962C6.2052 36.568 4.9212 31.944 4.9212 27.593C4.9212 15.304 15.3042 4.921 27.5932 4.921C39.8822 4.921 50.2652 15.304 50.2652 27.593C50.2652 39.882 39.8822 50.265 27.5932 50.265ZM27.5932 3C14.3382 3 3.0002 14.317 3.0002 27.593C3.0002 32.128 4.2992 36.951 6.4902 40.599L3.0492 50.922C2.9342 51.267 3.0242 51.648 3.2812 51.905C3.5402 52.163 3.9212 52.251 4.2652 52.136L14.5872 48.696C18.2362 50.887 23.0582 52.186 27.5932 52.186C40.8522 52.186 52.1862 40.868 52.1862 27.593C52.1862 14.334 40.8682 3 27.5932 3Z" fill="#FF533F"/>
</g>
</svg>
