<svg width="44" height="46" viewBox="0 0 44 46" fill="none" xmlns="http://www.w3.org/2000/svg">
<mask id="mask0" mask-type="alpha" maskUnits="userSpaceOnUse" x="0" y="0" width="44" height="44">
<path fill-rule="evenodd" clip-rule="evenodd" d="M9.15527e-05 0.731323H43.9557V43.1472H9.15527e-05V0.731323L9.15527e-05 0.731323Z" fill="white"/>
</mask>
<g mask="url(#mask0)">
<path fill-rule="evenodd" clip-rule="evenodd" d="M8.61887 25.3845C6.8684 25.6675 5.12013 24.4172 4.7234 22.5973C4.6772 22.386 4.6684 22.1644 4.66033 21.9502C4.65667 21.8581 4.653 21.7703 4.6464 21.687C4.7278 20.3555 4.88107 18.7885 5.39953 17.2472C5.511 16.9153 5.62173 16.5826 5.73173 16.2499C6.07933 15.2043 6.43793 14.1229 6.83173 13.0765C7.0334 12.5421 7.37147 12.0317 7.70147 11.555C7.87233 11.3071 8.04247 11.1733 8.1796 11.1791C8.3446 11.1864 8.4942 11.3875 8.59027 11.5557C9.12413 12.4894 9.6734 13.4977 10.076 14.5484C10.9641 16.8692 11.4943 19.2156 11.6512 21.5232C11.7825 23.4557 10.5079 25.0796 8.61887 25.3845ZM21.6282 15.1619V15.2394H18.3605C18.7535 10.532 17.6308 6.47762 14.9343 2.859C15.0326 2.84803 15.1294 2.83779 15.2247 2.82683C15.6405 2.78003 16.0329 2.73616 16.4237 2.70399C17.2839 2.63379 18.0591 2.57311 18.832 2.54898C18.9295 2.54605 19.0843 2.62868 19.2361 2.75956C21.4639 4.68549 23.1909 6.97483 24.3694 9.56541C24.948 10.8362 25.4423 12.175 25.9211 13.4692C26.1294 14.0337 26.345 14.6171 26.5657 15.1882C26.576 15.216 26.5848 15.2467 26.5929 15.2825C26.4257 15.2825 26.2599 15.2825 26.0949 15.2825C25.2076 15.284 24.3687 15.2847 23.5195 15.2708C23.485 15.2525 23.4197 15.1787 23.4073 15.1363C23.3816 15.0485 23.3772 14.9462 23.3721 14.8387C23.3684 14.7429 23.364 14.6442 23.3449 14.544C23.2555 14.0731 22.8507 13.7558 22.4004 13.8026C21.9443 13.8516 21.6341 14.2143 21.6289 14.7056C21.6275 14.8519 21.6282 14.9988 21.6282 15.1619ZM43.0936 16.5884C42.7614 16.5482 42.4292 16.5058 42.097 16.4641C40.7609 16.2959 39.3793 16.1227 38.0131 16.0159C35.398 15.8112 32.7367 15.6467 30.162 15.4873L28.6939 15.3966C28.4805 15.3834 28.4291 15.3432 28.3668 15.1451C28.0522 14.1485 27.6819 12.9888 27.2646 11.8525C25.8463 7.99263 23.9646 4.92971 21.5138 2.49195C21.5739 2.48829 21.6282 2.4861 21.6817 2.48829C22.308 2.51388 22.9438 2.53582 23.5583 2.55702C25.0345 2.6082 26.5599 2.66085 28.0551 2.76833C31.372 3.00597 34.7358 3.59749 38.0541 4.52756C39.1593 4.83758 40.2703 5.20975 41.3439 5.56949C41.7853 5.71719 42.2415 5.87001 42.691 6.01625C43.2439 6.19685 43.7411 6.00089 43.8995 5.54025C44.0704 5.04524 43.846 4.61603 43.2982 4.39229C43.2337 4.36597 43.1684 4.34111 43.1031 4.31698L43.0877 4.31113C37.5357 2.23091 31.6096 1.08149 24.9707 0.797063C19.5602 0.565278 14.3117 0.945493 9.37053 1.92528C6.19447 2.55556 3.35207 3.36059 0.681267 4.38571C0.4026 4.49246 0.198 4.65698 0.0894668 4.86098C-0.0219999 5.07156 -0.0293332 5.3165 0.0682001 5.56949C0.242 6.0199 0.740667 6.20708 1.254 6.01551C4.76887 4.70231 8.53453 3.74446 12.4454 3.16829C12.749 3.12369 12.8971 3.17487 13.0783 3.38838C15.8466 6.65311 16.9957 10.4757 16.5924 15.0727C16.5726 15.3015 16.5088 15.3593 16.2668 15.3673C15.0524 15.4061 13.8131 15.4624 12.4769 15.5406C12.2892 15.5516 12.2364 15.5099 12.1623 15.295L12.0333 14.9206C11.7421 14.0761 11.4415 13.203 11.0983 12.3607C10.6693 11.3078 10.1559 10.5532 9.48347 9.98438C8.5954 9.23345 7.56213 9.25027 6.78553 10.0275C6.1688 10.6461 5.72513 11.2559 5.46773 11.8408C4.94707 13.0246 4.521 14.2698 4.1096 15.4741L3.9578 15.9179C3.86613 16.1841 3.7928 16.247 3.54347 16.2696C2.53293 16.3625 1.53707 16.4956 0.782467 16.6016C0.511867 16.6396 0.298467 16.7529 0.1672 16.9299C0.0352001 17.1046 -0.0124666 17.3371 0.0271334 17.6004C0.100467 18.0822 0.541933 18.3791 1.07873 18.306C1.1726 18.2928 1.26647 18.2796 1.3596 18.2665C1.595 18.2336 1.83847 18.1992 2.07753 18.1729C2.43907 18.1334 2.79473 18.099 3.17093 18.0625C3.2538 18.0544 3.3374 18.0464 3.42173 18.0384C3.38213 18.2972 3.34327 18.5524 3.30513 18.8054C3.1988 19.5117 3.09833 20.1793 2.9876 20.8549C2.50653 23.7935 4.18293 26.3227 7.0642 27.0048C7.2688 27.0531 7.27467 27.0904 7.27393 27.3112C7.2688 29.2335 7.271 31.1879 7.2732 33.0781V33.3347C7.27393 33.9876 7.60247 34.3993 8.13047 34.4088C8.36073 34.4117 8.56387 34.3372 8.7142 34.1902C8.9034 34.0052 9.00387 33.7164 9.0046 33.3559C9.00533 32.9296 9.0068 32.5033 9.00827 32.0771C9.01267 30.5935 9.0178 29.0595 8.99653 27.551C8.9914 27.1533 9.04787 27.0319 9.45853 26.9368C11.8338 26.3833 13.5901 24.0465 13.3731 21.7272C13.2895 20.8388 13.1413 19.9453 12.9976 19.0803C12.936 18.7081 12.8722 18.3235 12.8143 17.9448C12.7857 17.7532 12.7519 17.5631 12.7167 17.3613C12.7101 17.3262 12.7043 17.2896 12.6977 17.2538C17.1629 16.9891 21.7785 16.9299 27.1737 17.0659C27.1678 17.0717 27.1627 17.0776 27.1575 17.0827C25.4261 18.8061 23.8245 20.8519 21.9641 23.716C18.7462 28.6698 15.7615 34.3569 12.5715 41.6131C12.243 42.3611 12.3171 42.6412 12.9675 43.1135L13.0137 43.1472H13.5102L13.5637 43.0792C13.6239 43.0009 13.6891 42.9256 13.7581 42.8459C13.9121 42.669 14.0712 42.4862 14.1753 42.2676C14.6469 41.2812 15.1147 40.2736 15.5687 39.299C16.3218 37.6779 17.1013 36.0021 17.9124 34.3781C20.3639 29.4675 22.6798 25.5666 25.201 22.1008C26.2079 20.7167 27.5851 18.9399 29.3099 17.4695C29.5709 17.2465 29.799 17.1653 30.0938 17.188C31.9279 17.3276 33.7935 17.4629 35.5982 17.5931C36.6755 17.6706 37.7535 17.7488 38.8315 17.8285C39.0126 17.8417 39.1996 17.8709 39.3969 17.9016C39.4137 17.9038 39.4313 17.9067 39.4482 17.9089C39.3873 18.0098 39.3331 18.0968 39.2773 18.1824C37.4792 20.9221 36.1071 23.2787 34.9587 25.5988C32.6297 30.3039 30.7545 35.5758 29.2263 41.7177C29.0327 42.4935 29.1038 42.6895 29.7279 43.1165L29.7726 43.1472H30.2317L30.2749 43.1194C30.7054 42.8459 30.8543 42.4233 30.9364 42.0862C31.1307 41.2863 31.3529 40.4381 31.6573 39.3348C33.7832 31.6208 36.7459 25.0263 40.7139 19.1739L40.7293 19.1519C41.1092 18.5919 41.2999 18.3104 41.5294 18.2124C41.7619 18.1144 42.1227 18.1744 42.7768 18.2848C43.3899 18.3879 43.8431 18.1246 43.9296 17.6143C43.9743 17.351 43.9289 17.1185 43.7969 16.9416C43.6517 16.7471 43.4148 16.6279 43.0936 16.5884Z" fill="#F05442"/>
</g>
<path fill-rule="evenodd" clip-rule="evenodd" d="M21.9216 40.033C21.5131 39.9365 21.1465 40.1229 20.9668 40.5192C20.8355 40.8081 20.7285 41.11 20.6251 41.4018C20.5928 41.4924 20.5613 41.5831 20.5283 41.673C20.2635 42.4013 20.3559 42.6843 20.9976 43.1171L21.0423 43.1471H21.5109L21.5593 43.1091C22.1827 42.6126 22.3469 41.9165 22.5053 41.2438C22.5295 41.1407 22.5537 41.0384 22.5787 40.9375C22.6263 40.7518 22.6021 40.5733 22.509 40.4198C22.3953 40.2326 22.1863 40.0952 21.9216 40.033Z" fill="#F05442"/>
<path fill-rule="evenodd" clip-rule="evenodd" d="M29.2603 26.535C29.2647 26.5175 29.2698 26.4992 29.275 26.4817L29.4282 26.2945L29.319 26.1819C29.2647 26.1263 29.2126 26.0656 29.1576 26.0013C29.0256 25.8485 28.8892 25.6898 28.7081 25.5838C28.3612 25.3805 27.9498 25.5033 27.7071 25.8821C27.4475 26.2879 27.1938 26.7456 26.9305 27.2801C26.7208 27.7057 26.8784 28.1824 27.3045 28.4127C27.4446 28.4888 27.5883 28.5253 27.7276 28.5253C28.0114 28.5253 28.2769 28.3718 28.4507 28.0844C28.6678 27.7269 28.8665 27.3532 29.0594 26.992L29.1774 26.769C29.22 26.6908 29.2412 26.6082 29.2603 26.535Z" fill="#F05442"/>
<path fill-rule="evenodd" clip-rule="evenodd" d="M31.8237 21.6747C32.0995 21.6747 32.3679 21.527 32.5732 21.2448C32.8284 20.8946 33.0814 20.5253 33.3483 20.1158C33.4165 20.012 33.4547 19.8965 33.4818 19.8117C33.4906 19.7861 33.4979 19.7627 33.5053 19.7437L33.5192 19.7093L33.5177 19.6728C33.5023 19.215 33.3051 18.9255 32.9164 18.788C32.5431 18.6557 32.1977 18.769 31.9447 19.1068C31.6925 19.4432 31.4365 19.8131 31.1395 20.2709C30.8469 20.722 30.9327 21.247 31.3427 21.5205C31.4981 21.6235 31.6624 21.6747 31.8237 21.6747Z" fill="#F05442"/>
<path fill-rule="evenodd" clip-rule="evenodd" d="M24.9595 32.671C24.6632 32.6586 24.2379 32.8173 24.0758 33.071C23.814 33.4812 23.6307 33.9411 23.4532 34.3857L23.3806 34.5677C23.2985 34.7717 23.2978 34.9867 23.3799 35.1731C23.454 35.3435 23.5904 35.4737 23.7649 35.5402C23.8676 35.5797 24.0538 35.6148 24.2408 35.6148C24.4557 35.6148 24.6706 35.5687 24.763 35.4305C25.0431 35.0101 25.2682 34.5502 25.4853 34.1049C25.566 33.9411 25.6459 33.7773 25.728 33.6157L25.7588 33.5558L25.7412 33.4907C25.5674 32.8312 25.2198 32.6805 24.9595 32.671Z" fill="#F05442"/>
<path fill-rule="evenodd" clip-rule="evenodd" d="M19.3446 4.08425C19.1327 3.76546 18.7345 3.22584 18.4543 3.19587C18.2123 3.16954 17.7745 3.21415 17.5655 3.4452C17.3749 3.65651 17.314 4.12959 17.4453 4.38331C17.7085 4.89294 18.04 5.36309 18.403 5.74331C18.5563 5.90344 18.8393 5.98094 19.0938 5.98094C19.1877 5.98094 19.2779 5.97071 19.3563 5.9495C19.5675 5.89393 19.6988 5.68554 19.7941 5.53346C19.8183 5.4947 19.844 5.45522 19.8594 5.43621L19.9005 5.38722V5.32361C19.8997 4.94705 19.4751 4.27948 19.3446 4.08425Z" fill="#F05442"/>
<path fill-rule="evenodd" clip-rule="evenodd" d="M22.3892 10.421L22.3951 10.3764L22.379 10.3348C22.3122 10.1644 22.2492 9.99256 22.1854 9.82073C22.0343 9.41054 21.8766 8.98572 21.6801 8.58357C21.5004 8.21652 21.0729 8.09222 20.6402 8.28159C20.2186 8.46585 20.0345 8.84972 20.1599 9.28405C20.3124 9.81196 20.4994 10.3311 20.7158 10.8261C20.8492 11.1317 21.1213 11.3043 21.4447 11.3043C21.5268 11.3043 21.6112 11.2933 21.6984 11.2707C22.0974 11.1661 22.3291 10.8802 22.3892 10.421Z" fill="#F05442"/>
<path fill-rule="evenodd" clip-rule="evenodd" d="M7.67177 14.8831H7.65783L7.5823 14.8933C7.51703 14.9028 7.42977 14.9145 7.34397 14.9291C6.79177 15.0227 6.4933 15.3832 6.5439 15.8921C6.5681 16.1341 6.67077 16.3352 6.84017 16.4734C7.0147 16.6152 7.2457 16.6759 7.5075 16.6489C7.81477 16.6167 8.01277 16.7059 8.21223 16.9669C8.38237 17.1885 8.6361 17.3047 8.89497 17.3047C9.06877 17.3047 9.24477 17.2521 9.39803 17.1424C9.79403 16.8602 9.87397 16.3637 9.59237 15.9345C9.1355 15.2384 8.50777 14.8948 7.67177 14.8831Z" fill="#F05442"/>
<path fill-rule="evenodd" clip-rule="evenodd" d="M7.53067 22.4788C7.21974 22.3669 7.08187 22.2002 7.02394 21.8624C6.94767 21.4215 6.61474 21.1531 6.1608 21.1685C5.65774 21.178 5.327 21.5216 5.31894 22.0437C5.30427 22.9891 6.0552 23.9192 6.99167 24.1159C7.06354 24.1312 7.13467 24.1385 7.20434 24.1385C7.58054 24.1385 7.90027 23.9206 8.0352 23.5543C8.11587 23.3357 8.10854 23.1054 8.0154 22.9065C7.923 22.7091 7.75067 22.5577 7.53067 22.4788Z" fill="#F05442"/>
</svg>
