<svg width="44" height="52" viewBox="0 0 44 52" fill="none" xmlns="http://www.w3.org/2000/svg">
<path fill-rule="evenodd" clip-rule="evenodd" d="M34.3908 8.14162L34.4124 8.15504C34.5801 8.25765 34.7677 8.30738 34.9529 8.30738C35.2783 8.30738 35.5971 8.15583 35.7872 7.87719C36.0861 7.43989 35.9549 6.85498 35.495 6.57081L35.4734 6.55739C35.0135 6.27322 34.3975 6.39715 34.0986 6.83445C33.8006 7.27254 33.9309 7.85745 34.3908 8.14162Z" fill="#F05442"/>
<mask id="mask0" mask-type="alpha" maskUnits="userSpaceOnUse" x="0" y="0" width="44" height="49">
<path fill-rule="evenodd" clip-rule="evenodd" d="M43.9942 0.78949V48.7389H21.9971H0V0.78949H43.9942Z" fill="white"/>
</mask>
<g mask="url(#mask0)">
<path fill-rule="evenodd" clip-rule="evenodd" d="M23.5891 9.71965C25.3183 6.2315 30.7428 3.83424 39.2995 2.7702C39.7653 4.46099 40.6013 8.80637 38.0684 12.0088C35.9115 14.7368 31.8063 16.1 25.848 16.0739L32.6796 10.3606C33.0914 10.0157 33.1321 9.41891 32.7693 9.02739C32.4073 8.63587 31.7789 8.59719 31.3671 8.94214L23.6405 15.403C23.1017 14.1582 22.4891 11.9409 23.5891 9.71965ZM7.0434 26.2345C4.2963 24.2311 3.88951 20.6451 3.848 19.0979C11.0391 18.1389 16.0053 18.9156 18.2377 21.3563C19.4995 22.7369 19.6606 24.4284 19.5817 25.5793L13.2482 22.9555C12.7451 22.7471 12.1598 22.9658 11.9407 23.4441C11.7223 23.9225 11.9515 24.479 12.4546 24.6873L17.8624 26.9275C13.0598 28.2015 9.42604 27.971 7.0434 26.2345ZM27.5374 26.5005C29.0534 24.831 32.4621 24.2887 37.4233 24.9194C37.3635 26.0813 37.0091 28.3263 35.2416 29.6192C33.724 30.729 31.4468 30.9453 28.4548 30.2688L31.6145 28.9601C32.1176 28.7525 32.3475 28.1952 32.1284 27.7169C31.9092 27.2385 31.3239 27.0199 30.8208 27.2283L26.6259 28.9664C26.6325 28.2292 26.8177 27.293 27.5374 26.5005ZM43.2288 45.1426C43.0047 44.6666 42.4161 44.4535 41.9163 44.6666C41.4157 44.8797 41.1907 45.4386 41.4157 45.9146C41.5925 46.2911 41.7171 46.6005 41.8034 46.8492H1.99419C2.05811 45.4426 2.51472 44.2806 3.35653 43.3879C5.08913 41.5503 8.06121 41.1516 9.67842 41.0774C10.7377 41.0285 11.6094 40.3607 11.7987 39.453C11.9946 38.516 12.4338 38.516 12.6455 38.516C13.4475 38.516 14.1755 38.9651 14.6454 39.3409C15.5478 40.0647 16.9359 40.041 17.8043 39.2872C19.0488 38.2074 20.3065 37.2388 22.0042 37.2388C23.3093 37.2388 24.4292 38.3787 24.9805 39.0583C25.315 39.4703 25.8372 39.715 26.4125 39.7308C27.0011 39.7474 27.5441 39.524 27.9102 39.1214C28.3817 38.6005 28.9994 38.31 29.7441 38.2587C31.3729 38.1434 33.2707 39.4561 33.8626 39.97C34.1266 40.2013 34.5019 40.2794 34.8431 40.1736C36.2262 39.745 36.6479 39.6874 37.3005 40.1586C37.7371 40.4736 38.3606 40.3923 38.6918 39.9771C39.0239 39.5611 38.9384 38.9691 38.5009 38.6533C37.151 37.6793 35.929 37.8774 34.7518 38.2184C33.8568 37.5522 31.7739 36.2221 29.598 36.3745C28.3626 36.4605 27.2859 36.957 26.4765 37.8103C25.931 37.1544 25.1971 36.4432 24.2939 35.9545V31.9612C24.3719 31.9486 24.45 31.9281 24.5255 31.8965L25.6205 31.4434C27.8438 32.172 29.8238 32.5374 31.5506 32.5374C33.5189 32.5374 35.1586 32.063 36.4528 31.1166C39.7437 28.7083 39.4199 24.2193 39.405 24.029C39.3693 23.5925 39.0231 23.2365 38.5673 23.1686C32.3509 22.2467 28.1335 22.9523 26.0331 25.2659C24.6309 26.8107 24.5579 28.6483 24.6874 29.7692L24.2939 29.9318V17.9265C24.8725 17.9494 25.4387 17.9621 25.99 17.9621C32.5418 17.9621 37.1361 16.3423 39.6657 13.1328C43.5003 8.26803 41.0512 1.68878 40.945 1.41093C40.7881 0.99968 40.3531 0.744719 39.8956 0.796027C30.0039 1.90191 23.9128 4.63386 21.7917 8.91451C19.9844 12.5613 21.6937 16.0692 22.3072 17.1277V26.7081L21.4978 26.3726C21.7095 24.9265 21.7278 22.3106 19.7544 20.1359C16.9326 17.0275 11.1985 16.0897 2.7123 17.3479C2.25653 17.4158 1.91034 17.7718 1.87464 18.2091C1.85389 18.4641 1.41887 24.5026 5.82219 27.7248C7.54981 28.9885 9.74649 29.6208 12.3923 29.6208C14.7799 29.6208 17.5328 29.1061 20.6352 28.076L22.2915 28.7628C22.2965 28.7643 22.3023 28.7659 22.3072 28.7675V35.361C22.2076 35.3539 22.1063 35.3499 22.0042 35.3499C19.5975 35.3499 17.8823 36.6618 16.4652 37.8924C16.3382 38.0029 16.0609 38.0045 15.9256 37.8971C14.8895 37.066 13.7546 36.6279 12.6455 36.6279C11.2159 36.6279 10.1707 37.5467 9.85192 39.0812C9.83947 39.1064 9.74981 39.1822 9.58211 39.1901C7.65525 39.2793 4.09208 39.7782 1.87796 42.1273C0.496528 43.5915 -0.127774 45.5175 0.0216605 47.8517C0.0532076 48.3497 0.488226 48.7389 1.01291 48.7389H42.9955C43.4729 48.7389 43.8822 48.4168 43.971 47.9709C44.0242 47.7072 44.0574 46.9029 43.2288 45.1426Z" fill="#F05442"/>
</g>
<path fill-rule="evenodd" clip-rule="evenodd" d="M40.623 41.559C40.1622 41.2748 39.5479 41.3995 39.2482 41.8368C38.9501 42.2741 39.0805 42.859 39.5404 43.1432L39.562 43.1566C39.7297 43.26 39.9165 43.309 40.1024 43.309C40.4279 43.309 40.7458 43.1574 40.9359 42.8796C41.2356 42.4415 41.1045 41.8566 40.6446 41.5724L40.623 41.559Z" fill="#F05442"/>
<path fill-rule="evenodd" clip-rule="evenodd" d="M21.9465 39.3117C21.4866 39.0275 20.8714 39.1514 20.5726 39.5895C20.2729 40.0268 20.404 40.6117 20.864 40.8959L20.8855 40.9093C21.0524 41.0127 21.24 41.0617 21.426 41.0617C21.7514 41.0617 22.0694 40.9101 22.2603 40.6315C22.5584 40.1942 22.428 39.6093 21.9681 39.3251L21.9465 39.3117Z" fill="#F05442"/>
<path fill-rule="evenodd" clip-rule="evenodd" d="M13.0718 41.9687C12.6119 41.6845 11.9967 41.8084 11.6979 42.2465C11.3982 42.6838 11.5293 43.2687 11.9893 43.5529L12.0108 43.5663C12.1785 43.6697 12.3662 43.7187 12.5513 43.7187C12.8767 43.7187 13.1947 43.5671 13.3856 43.2885C13.6845 42.8512 13.5542 42.2663 13.0934 41.9821L13.0718 41.9687Z" fill="#F05442"/>
<path fill-rule="evenodd" clip-rule="evenodd" d="M28.2038 42.5352C27.7438 42.2511 27.1287 42.3758 26.8298 42.8131C26.5309 43.2504 26.6621 43.8353 27.122 44.1195L27.1436 44.1329C27.3105 44.2363 27.4981 44.2852 27.6841 44.2852C28.0087 44.2852 28.3275 44.1337 28.5176 43.855C28.8164 43.4177 28.6853 42.8328 28.2253 42.5487L28.2038 42.5352Z" fill="#F05442"/>
</svg>
