<svg width="45" height="45" viewBox="0 0 45 45" fill="none" xmlns="http://www.w3.org/2000/svg">
<mask id="mask0" mask-type="alpha" maskUnits="userSpaceOnUse" x="0" y="2" width="23" height="41">
<path fill-rule="evenodd" clip-rule="evenodd" d="M0.000183105 2.33887H22.8833V42.4049H0.000183105V2.33887Z" fill="white"/>
</mask>
<g mask="url(#mask0)">
<path fill-rule="evenodd" clip-rule="evenodd" d="M12.3597 29.9494C9.40844 27.8655 7.82048 25.1377 7.14517 23.7252L8.87569 25.8746C9.15117 26.2166 9.55958 26.4115 9.99891 26.4115C10.0065 26.4115 10.0147 26.4115 10.0223 26.4112C10.4705 26.404 10.882 26.1958 11.151 25.8394L11.7006 25.1114V27.7969C11.7006 28.1588 11.9953 28.452 12.3597 28.452C12.7238 28.452 13.0189 28.1588 13.0189 27.7969V25.1114L13.5685 25.8394C13.8374 26.1958 14.2486 26.404 14.6972 26.4112C14.7048 26.4115 14.7127 26.4115 14.7202 26.4115C15.1595 26.4115 15.568 26.2166 15.8434 25.8746L17.5791 23.7184C16.9096 25.1271 15.3261 27.8557 12.3597 29.9494V29.9494ZM7.76552 22.1154L7.97402 21.7003L11.3585 23.3817L10.0965 25.0539C10.0669 25.0928 10.0288 25.1013 10.0017 25.102C9.97281 25.104 9.93571 25.0945 9.90514 25.0566L7.69545 22.3116C7.72911 22.2505 7.75281 22.1843 7.76552 22.1154V22.1154ZM5.99824 13.8453C5.99824 13.4835 5.70352 13.19 5.33942 13.19C4.85441 13.19 4.43706 12.8722 4.36768 12.45C4.28936 11.9694 4.58511 11.527 5.05604 11.4219C5.0818 11.4161 5.10653 11.4086 5.13023 11.4001C6.29536 11.1407 7.16852 10.1054 7.16852 8.87084C7.16852 8.47012 7.07406 8.07896 6.89578 7.72466C7.31175 7.31643 7.55838 6.75426 7.55838 6.15796C7.55838 5.7156 7.42648 5.30362 7.20012 4.95786C8.20621 4.1117 9.46889 3.64852 10.7996 3.64852H13.9199C15.2564 3.64852 16.5156 4.10966 17.5204 4.95649C17.2933 5.30225 17.1611 5.71492 17.1611 6.15796C17.1611 6.75426 17.4077 7.31643 17.8237 7.72466C17.6454 8.07896 17.5506 8.47012 17.5506 8.87084C17.5506 10.1303 18.4598 11.1826 19.6596 11.4151C19.6802 11.4236 19.7005 11.4308 19.7221 11.4373C20.099 11.5492 20.4363 11.9329 20.3518 12.45C20.2824 12.8722 19.865 13.1903 19.38 13.1903C19.0159 13.1903 18.7212 13.4839 18.7212 13.8453C18.7212 17.3306 15.8675 20.1664 12.3597 20.1664C8.85232 20.1664 5.99824 17.3306 5.99824 13.8453V13.8453ZM3.26814 8.87104C3.26848 8.30239 3.65766 7.79756 4.21549 7.64328C4.4185 7.58696 4.58234 7.4378 4.65619 7.24154C4.73004 7.04528 4.70463 6.82546 4.58818 6.6507C4.49029 6.50359 4.43842 6.33327 4.43842 6.15851C4.43842 5.66495 4.84237 5.26321 5.3394 5.26321C5.83609 5.26321 6.24038 5.66495 6.24038 6.15851C6.24038 6.50393 6.0336 6.82205 5.71381 6.96848C5.52248 7.0562 5.38474 7.22994 5.34352 7.43507C5.3023 7.64055 5.36241 7.85286 5.50496 8.0068C5.72755 8.24743 5.85017 8.55429 5.85017 8.87104C5.85017 9.57827 5.27105 10.1541 4.55933 10.1541C3.84761 10.1541 3.26814 9.57827 3.26814 8.87104V8.87104ZM19.3797 5.26321C19.8767 5.26321 20.281 5.66495 20.281 6.15851C20.281 6.33327 20.2288 6.50359 20.1309 6.65036C20.0145 6.82546 19.9894 7.04494 20.0633 7.2412C20.1371 7.43746 20.301 7.58662 20.504 7.64328C21.0614 7.79756 21.451 8.30239 21.451 8.87104C21.451 9.57827 20.8718 10.1541 20.1601 10.1541C19.4484 10.1541 18.8689 9.57827 18.8689 8.87104C18.8689 8.55429 18.9919 8.24743 19.2141 8.0068C19.357 7.85286 19.4172 7.64055 19.3759 7.43507C19.3344 7.22994 19.1966 7.0562 19.0056 6.96848C18.6859 6.82171 18.4791 6.50393 18.4791 6.15851C18.4791 5.66495 18.883 5.26321 19.3797 5.26321V5.26321ZM12.3597 22.4144L9.1848 20.8371V20.7931C10.1528 21.2317 11.2279 21.4764 12.3597 21.4764C13.4884 21.4764 14.5611 21.2327 15.5274 20.7962V20.8405L12.3597 22.4144ZM17.0419 22.2898L14.8143 25.0566C14.7837 25.0945 14.7466 25.1027 14.7178 25.102C14.6906 25.1013 14.6525 25.0928 14.623 25.0539L13.361 23.3817L16.7451 21.7003L17.0419 22.2898ZM22.4151 22.7622L18.0992 21.4618L17.6296 20.5286C17.4833 20.2378 17.1484 20.1029 16.8461 20.1964V20.034C18.6333 18.7509 19.8462 16.7245 20.0182 14.4137C20.8557 14.1812 21.5148 13.5044 21.6529 12.6606C21.7402 12.1285 21.6265 11.6045 21.3661 11.1694C22.1994 10.7355 22.7696 9.86856 22.7696 8.87086C22.7696 7.96634 22.2867 7.14203 21.5368 6.67748C21.578 6.50853 21.5993 6.33445 21.5993 6.15798C21.5993 4.94183 20.6039 3.95266 19.38 3.95266C19.0867 3.95266 18.8064 4.01035 18.5498 4.11377C17.2792 2.96691 15.6528 2.33887 13.9199 2.33887H10.7996C9.07457 2.33887 7.44126 2.96793 6.16965 4.11377C5.91306 4.01035 5.63312 3.95266 5.33978 3.95266C4.11591 3.95266 3.12047 4.94183 3.12047 6.15798C3.12047 6.33445 3.14142 6.50853 3.18264 6.67748C2.4328 7.14203 1.95019 7.96634 1.95019 8.87086C1.95019 9.86787 2.52004 10.7345 3.35198 11.1683C3.09265 11.6022 2.97895 12.1261 3.06654 12.6606C3.20497 13.5044 3.86379 14.1812 4.70122 14.4137C4.87297 16.7211 6.08309 18.7455 7.86651 20.0289V20.1941C7.56561 20.105 7.23517 20.2401 7.08987 20.5286L6.621 21.4611L2.13739 22.7974C0.859258 23.1786 0.000183105 24.3258 0.000183105 25.6522V41.7499C0.000183105 42.1117 0.295243 42.4049 0.659345 42.4049C1.0231 42.4049 1.31816 42.1117 1.31816 41.7499V25.6522C1.31816 25.6044 1.32057 25.5567 1.32435 25.5096L3.95928 28.1279C4.42402 28.59 4.68027 29.2037 4.68027 29.8574V41.7496C4.68027 42.1117 4.97533 42.4046 5.33943 42.4046C5.70353 42.4046 5.99825 42.1117 5.99825 41.7496V29.8574C5.99825 28.8539 5.60529 27.9108 4.89152 27.2015L1.98901 24.317C2.14426 24.2016 2.32082 24.1108 2.51627 24.0524L5.4861 23.167C5.71865 23.8166 7.44573 28.2777 11.9943 31.2906C12.1049 31.364 12.2323 31.4005 12.3597 31.4005C12.4872 31.4005 12.6146 31.364 12.7252 31.2906C17.4259 28.1767 19.1025 23.5732 19.2406 23.1749L22.0325 24.0162C22.0967 24.0354 22.1606 24.0446 22.2242 24.0446C22.5068 24.0446 22.7686 23.8623 22.8548 23.5793C22.9603 23.2332 22.7634 22.8673 22.4151 22.7622V22.7622Z" fill="#FF533F"/>
</g>
<path fill-rule="evenodd" clip-rule="evenodd" d="M14.3351 15.6621C14.0524 15.4341 13.6372 15.4771 13.4081 15.758C13.1274 16.1017 12.7551 16.2908 12.3597 16.2908C11.9644 16.2908 11.592 16.1017 11.3117 15.758C11.0823 15.4771 10.6673 15.4341 10.3846 15.6621C10.1019 15.8897 10.0587 16.3024 10.2878 16.5833C10.8157 17.2301 11.5707 17.6008 12.3597 17.6008C13.1491 17.6008 13.9037 17.2298 14.4317 16.5833C14.6611 16.3024 14.6178 15.8897 14.3351 15.6621" fill="#FF533F"/>
<path fill-rule="evenodd" clip-rule="evenodd" d="M9.23945 11.6416C8.87535 11.6416 8.58029 11.9345 8.58029 12.2966V13.0714C8.58029 13.4332 8.87535 13.7264 9.23945 13.7264C9.6039 13.7264 9.89862 13.4332 9.89862 13.0714V12.2966C9.89862 11.9345 9.6039 11.6416 9.23945 11.6416" fill="#FF533F"/>
<path fill-rule="evenodd" clip-rule="evenodd" d="M15.4797 11.6416C15.1156 11.6416 14.8205 11.9345 14.8205 12.2966V13.0714C14.8205 13.4332 15.1156 13.7264 15.4797 13.7264C15.8441 13.7264 16.1392 13.4332 16.1392 13.0714V12.2966C16.1392 11.9345 15.8441 11.6416 15.4797 11.6416" fill="#FF533F"/>
<path fill-rule="evenodd" clip-rule="evenodd" d="M22.1862 25.7835C21.9289 25.5279 21.5112 25.5279 21.2539 25.7835L19.8277 27.2007C19.114 27.91 18.7207 28.8531 18.7207 29.8566V41.7491C18.7207 42.1109 19.0161 42.4041 19.3798 42.4041C19.7443 42.4041 20.0393 42.1109 20.0393 41.7491V29.8566C20.0393 29.2033 20.2952 28.5893 20.76 28.1271L22.1862 26.7099C22.4434 26.4542 22.4434 26.0395 22.1862 25.7835" fill="#FF533F"/>
<path fill-rule="evenodd" clip-rule="evenodd" d="M35.3959 21.0876C35.1132 20.8599 34.6983 20.9029 34.4688 21.1838C34.1882 21.5272 33.8162 21.7166 33.4208 21.7166C33.0255 21.7166 32.6531 21.5272 32.3725 21.1838C32.1434 20.9029 31.7281 20.8599 31.4454 21.0876C31.1627 21.3156 31.1194 21.7282 31.3489 22.0088C31.8765 22.6556 32.6315 23.0266 33.4205 23.0266C34.2098 23.0266 34.9648 22.6556 35.4924 22.0088C35.7219 21.7282 35.6786 21.3156 35.3959 21.0876" fill="#FF533F"/>
<path fill-rule="evenodd" clip-rule="evenodd" d="M26.4003 32.5693C26.0362 32.5693 25.7412 32.8625 25.7412 33.2243V41.7507C25.7412 42.1125 26.0362 42.4057 26.4003 42.4057C26.7644 42.4057 27.0595 42.1125 27.0595 41.7507V33.2243C27.0595 32.8625 26.7644 32.5693 26.4003 32.5693" fill="#FF533F"/>
<path fill-rule="evenodd" clip-rule="evenodd" d="M40.4409 32.5693C40.0768 32.5693 39.7817 32.8625 39.7817 33.2243V41.7507C39.7817 42.1125 40.0768 42.4057 40.4409 42.4057C40.805 42.4057 41.1001 42.1125 41.1001 41.7507V33.2243C41.1001 32.8625 40.805 32.5693 40.4409 32.5693" fill="#FF533F"/>
<mask id="mask1" mask-type="alpha" maskUnits="userSpaceOnUse" x="21" y="5" width="25" height="38">
<path fill-rule="evenodd" clip-rule="evenodd" d="M21.8409 5.43945H45.0002V42.4053H21.8409V5.43945Z" fill="white"/>
</mask>
<g mask="url(#mask1)">
<path fill-rule="evenodd" clip-rule="evenodd" d="M41.5251 27.5231L37.7662 26.0288C37.6309 25.9752 37.5137 25.8905 37.4213 25.7844C37.7075 25.611 37.9826 25.4195 38.2447 25.2089C39.0918 24.529 39.7808 23.676 40.2696 22.7217C40.4547 22.9463 40.5616 23.2309 40.5616 23.5344C40.5616 23.6316 40.5447 23.7378 40.509 23.8692C40.4163 24.2078 40.609 24.559 40.9456 24.6655C41.6491 24.887 42.1217 25.5233 42.1217 26.2476C42.1217 26.7425 41.9015 27.2071 41.5251 27.5231V27.5231ZM33.4204 31.7932C30.7638 31.7932 28.3082 30.5737 26.5938 28.426L28.3044 27.7461C29.6127 29.1852 31.4549 30.0026 33.4207 30.0026C35.3886 30.0026 37.2287 29.1852 38.537 27.7458L40.248 28.426C38.5326 30.573 36.0731 31.7932 33.4204 31.7932V31.7932ZM25.3163 27.5231C24.9399 27.2071 24.7193 26.7425 24.7193 26.2472C24.7193 25.5233 25.192 24.887 25.8955 24.6655C26.2324 24.559 26.4248 24.2078 26.3324 23.8692C26.296 23.7378 26.2795 23.6316 26.2795 23.5344C26.2795 23.2309 26.3866 22.9463 26.5718 22.7217C27.0606 23.676 27.7496 24.529 28.596 25.2089C28.8584 25.4195 29.1339 25.611 29.42 25.7844C29.3273 25.8905 29.2102 25.9752 29.0752 26.0288L25.3163 27.5231ZM37.2101 27.2162C36.1855 28.1614 34.8448 28.6921 33.4203 28.6921C31.9979 28.6921 30.6563 28.161 29.6313 27.2162C30.0428 27.0367 30.3835 26.7431 30.6178 26.3731C31.5057 26.7189 32.4572 26.9019 33.4203 26.9019C34.3842 26.9019 35.3353 26.7189 36.2232 26.3731C36.4575 26.7431 36.7986 27.037 37.2101 27.2162V27.2162ZM31.2014 18.4964C31.2014 18.99 30.7974 19.3917 30.3004 19.3917C29.8037 19.3917 29.3994 18.99 29.3994 18.4964C29.3994 18.0025 29.8037 17.6011 30.3004 17.6011C30.7974 17.6011 31.2014 18.0025 31.2014 18.4964V18.4964ZM37.4416 18.4964C37.4416 18.99 37.0377 19.3917 36.5406 19.3917C36.044 19.3917 35.6397 18.99 35.6397 18.4964C35.6397 18.0025 36.044 17.6011 36.5406 17.6011C37.0377 17.6011 37.4416 18.0025 37.4416 18.4964V18.4964ZM25.4994 14.62C25.4994 10.2797 29.0528 6.74899 33.4203 6.74899C37.7882 6.74899 41.342 10.2797 41.342 14.62C41.342 15.7242 41.1135 16.7973 40.6742 17.7879C39.7248 15.757 37.6137 15.188 35.5603 14.6357C33.8999 14.1893 32.1834 13.7278 30.7122 12.5584C30.5566 12.4348 30.3533 12.3874 30.1589 12.43C29.9645 12.4724 29.7996 12.5997 29.7106 12.7768C29.7041 12.7905 29.0133 14.1398 27.6655 14.8094C27.3398 14.9712 27.2076 15.3644 27.3708 15.688C27.5336 16.0116 27.9293 16.143 28.2549 15.9812C29.328 15.4481 30.0672 14.6016 30.4838 14.0155C32.0192 15.0412 33.7065 15.4948 35.2158 15.9003C35.7111 16.0338 36.1669 16.1601 36.5836 16.2915C36.5691 16.2915 36.5551 16.2905 36.5406 16.2905C35.7372 16.2905 35.0324 16.7168 34.6428 17.3537C34.2784 17.1673 33.8604 17.0656 33.4203 17.0656C32.981 17.0656 32.5626 17.1673 32.1985 17.3537C31.8087 16.7168 31.1035 16.2905 30.3004 16.2905C29.0769 16.2905 28.0811 17.2796 28.0811 18.4958C28.0811 19.7116 29.0769 20.7011 30.3004 20.7011C31.4411 20.7011 32.383 19.8416 32.5056 18.7405C32.7206 18.5128 33.0573 18.3756 33.4203 18.3756C33.7841 18.3756 34.12 18.5128 34.3354 18.7405C34.4584 19.8416 35.4002 20.7011 36.5406 20.7011C37.7645 20.7011 38.7599 19.7116 38.7599 18.4958C38.7599 17.8589 38.4862 17.2841 38.0503 16.8813C38.9932 17.3916 39.5726 18.1043 39.7877 19.3631C39.7767 19.4071 39.7698 19.4525 39.7677 19.4996C39.7523 19.9365 39.7049 20.3212 39.6242 20.6762C39.3102 22.0504 38.526 23.2979 37.4158 24.1895C36.2741 25.107 34.8922 25.592 33.4203 25.592C31.9485 25.592 30.5673 25.107 29.4248 24.1895C28.315 23.2983 27.5312 22.0504 27.2172 20.6762C27.1361 20.3219 27.0891 19.9376 27.0733 19.501C27.0668 19.3273 26.9929 19.1716 26.8775 19.0583C25.9755 17.7483 25.4994 16.2161 25.4994 14.62V14.62ZM42.7967 28.0923C43.2082 27.5732 43.44 26.9264 43.44 26.2478C43.44 25.1436 42.831 24.1558 41.8775 23.6421C41.8792 23.6059 41.8799 23.5704 41.8799 23.5346C41.8799 22.6833 41.4653 21.9037 40.7879 21.4242C40.8329 21.273 40.8745 21.1211 40.9099 20.9668C40.9951 20.5927 41.0497 20.1974 41.0751 19.7646C42.1128 18.2433 42.6603 16.4684 42.6603 14.6208C42.6603 9.55825 38.515 5.43945 33.4204 5.43945C28.3257 5.43945 24.1811 9.55825 24.1811 14.6208C24.1811 16.4684 24.7286 18.2437 25.766 19.7646C25.7914 20.1978 25.846 20.593 25.9315 20.9668C25.9666 21.1207 26.0081 21.273 26.0531 21.4242C25.3758 21.9037 24.9608 22.683 24.9608 23.5346C24.9608 23.5704 24.9619 23.6059 24.9636 23.6421C24.0104 24.1558 23.401 25.1436 23.401 26.2478C23.401 26.9264 23.6329 27.5732 24.0444 28.0923C22.6859 28.9023 21.8409 30.3574 21.8409 31.9719V41.7506C21.8409 42.112 22.1363 42.4056 22.5 42.4056C22.8641 42.4056 23.1592 42.112 23.1592 41.7506V31.9719C23.1592 30.6472 23.9589 29.4737 25.1968 28.9815L25.3229 28.9317C27.2725 31.55 30.276 33.1037 33.4207 33.1037C36.6083 33.1037 39.5459 31.5855 41.5179 28.9313L41.6449 28.9815C42.8822 29.4737 43.6819 30.6472 43.6819 31.9719V41.7502C43.6819 42.1117 43.9773 42.4052 44.341 42.4052C44.7051 42.4052 45.0002 42.1117 45.0002 41.7502V31.9719C45.0002 30.3574 44.1548 28.9023 42.7967 28.0923V28.0923Z" fill="#FF533F"/>
</g>
</svg>
