<svg width="41" height="41" viewBox="0 0 41 41" fill="none" xmlns="http://www.w3.org/2000/svg">
<path d="M14.0938 4.80469C14.5357 4.80469 14.8945 4.4459 14.8945 4.00391C14.8945 3.56191 14.5357 3.20312 14.0938 3.20312C13.6518 3.20312 13.293 3.56191 13.293 4.00391C13.293 4.4459 13.6518 4.80469 14.0938 4.80469Z" fill="black"/>
<path d="M8.80859 16.4961C9.25059 16.4961 9.60938 16.1373 9.60938 15.6953C9.60938 15.2533 9.25059 14.8945 8.80859 14.8945C8.3666 14.8945 8.00781 15.2533 8.00781 15.6953C8.00781 16.1373 8.3666 16.4961 8.80859 16.4961Z" fill="black"/>
<path fill-rule="evenodd" clip-rule="evenodd" d="M38.5977 11.6914H37.7969V10.0898C37.7969 9.3022 37.5135 8.55804 36.9961 7.97278V6.08594C36.9961 4.76121 35.9185 3.68359 34.5938 3.68359C33.269 3.68359 32.1914 4.76121 32.1914 6.08594V7.97372C31.679 8.55428 31.3906 9.30658 31.3906 10.0898V32.1914C31.3906 35.7436 33.1992 38.0879 33.6807 38.7121L33.6808 38.7121C33.7409 38.7901 33.7804 38.8412 33.793 38.8645V40.1992C33.793 40.6415 34.1514 41 34.5938 41C35.0361 41 35.3945 40.6415 35.3945 40.1992V38.8645C35.4072 38.8411 35.4469 38.79 35.5074 38.7119C35.9899 38.09 37.7969 35.7607 37.7969 32.1914V13.293H38.5977C39.0393 13.293 39.3984 13.6521 39.3984 14.0938V20.5C39.3984 20.9423 39.7569 21.3008 40.1992 21.3008C40.6415 21.3008 41 20.9423 41 20.5V14.0938C41 12.769 39.9224 11.6914 38.5977 11.6914ZM32.9922 10.0898C32.9922 9.21055 33.7085 8.48828 34.5938 8.48828C35.4562 8.48828 36.1953 9.18584 36.1953 10.0898V11.6914H32.9922V10.0898ZM35.3945 6.08594C35.3945 5.64426 35.0354 5.28516 34.5938 5.28516C34.1521 5.28516 33.793 5.64426 33.793 6.08594V6.98901C34.0523 6.92207 34.321 6.88672 34.5938 6.88672C34.8662 6.88672 35.1352 6.92207 35.3945 6.98932V6.08594ZM34.5938 37.2557C33.7126 36.0004 33.1708 34.5171 33.0294 32.9912H36.1581C36.0167 34.5171 35.4749 36.0004 34.5938 37.2557ZM32.9922 13.293V31.3906H36.1953V13.293H32.9922Z" fill="black"/>
<path fill-rule="evenodd" clip-rule="evenodd" d="M28.1875 38.5977C28.1875 39.9224 27.1099 41 25.7852 41H2.40234C1.07761 41 0 39.9224 0 38.5977V8.80859C0 7.48386 1.07761 6.40625 2.40234 6.40625H6.54388C6.87452 5.47409 7.76476 4.80469 8.80859 4.80469H10.1737C10.118 4.54224 10.0898 4.2748 10.0898 4.00391C10.0898 1.79613 11.886 0 14.0938 0C16.3015 0 18.0977 1.79613 18.0977 4.00391C18.0977 4.2748 18.0695 4.54224 18.0138 4.80469H19.3789C20.4227 4.80469 21.313 5.47409 21.6436 6.40625H25.7852C27.1099 6.40625 28.1875 7.48386 28.1875 8.80859V38.5977ZM23.3828 36.1953V32.5233L19.7108 36.1953H23.3828ZM18.5781 35.0626V31.3906H22.2501L18.5781 35.0626ZM17.7773 29.7891H23.3828V11.2109H4.80469V36.1953H16.9766V30.5898C16.9766 30.1475 17.335 29.7891 17.7773 29.7891ZM8.80859 6.40625H11.3357C11.6226 6.40625 11.8872 6.25298 12.0302 6.00461C12.1728 5.75624 12.1722 5.45032 12.028 5.20258C11.8046 4.81908 11.6914 4.41556 11.6914 4.00391C11.6914 2.67918 12.769 1.60156 14.0938 1.60156C15.4185 1.60156 16.4961 2.67918 16.4961 4.00391C16.4961 4.41556 16.3829 4.81908 16.1595 5.20258C16.0153 5.45032 16.0144 5.75624 16.1573 6.00461C16.3003 6.25329 16.5649 6.40625 16.8518 6.40625H19.3789C19.8206 6.40625 20.1797 6.76535 20.1797 7.20703V9.60938H8.00781V7.20703C8.00781 6.76535 8.36691 6.40625 8.80859 6.40625ZM1.60156 8.80859V38.5977C1.60156 39.0393 1.96066 39.3984 2.40234 39.3984H25.7852C26.2268 39.3984 26.5859 39.0393 26.5859 38.5977V8.80859C26.5859 8.36691 26.2268 8.00781 25.7852 8.00781H21.7812V9.60938H24.1836C24.6259 9.60938 24.9844 9.96785 24.9844 10.4102V36.9961C24.9844 37.4384 24.6259 37.7969 24.1836 37.7969H4.00391C3.5616 37.7969 3.20312 37.4384 3.20312 36.9961V10.4102C3.20312 9.96785 3.5616 9.60938 4.00391 9.60938H6.40625V8.00781H2.40234C1.96066 8.00781 1.60156 8.36691 1.60156 8.80859Z" fill="black"/>
<path d="M19.3789 14.8945H12.0117C11.5694 14.8945 11.2109 15.253 11.2109 15.6953C11.2109 16.1376 11.5694 16.4961 12.0117 16.4961H19.3789C19.8212 16.4961 20.1797 16.1376 20.1797 15.6953C20.1797 15.253 19.8212 14.8945 19.3789 14.8945Z" fill="black"/>
<path d="M19.3789 23.3828H8.80859C8.36629 23.3828 8.00781 23.7413 8.00781 24.1836C8.00781 24.6259 8.36629 24.9844 8.80859 24.9844H19.3789C19.8212 24.9844 20.1797 24.6259 20.1797 24.1836C20.1797 23.7413 19.8212 23.3828 19.3789 23.3828Z" fill="black"/>
<path d="M19.3789 26.5859H8.80859C8.36629 26.5859 8.00781 26.9444 8.00781 27.3867C8.00781 27.829 8.36629 28.1875 8.80859 28.1875H19.3789C19.8212 28.1875 20.1797 27.829 20.1797 27.3867C20.1797 26.9444 19.8212 26.5859 19.3789 26.5859Z" fill="black"/>
<path d="M19.3789 20.1797H8.80859C8.36629 20.1797 8.00781 20.5382 8.00781 20.9805C8.00781 21.4228 8.36629 21.7812 8.80859 21.7812H19.3789C19.8212 21.7812 20.1797 21.4228 20.1797 20.9805C20.1797 20.5382 19.8212 20.1797 19.3789 20.1797Z" fill="black"/>
</svg>
