<svg width="45" height="45" viewBox="0 0 45 45" fill="none" xmlns="http://www.w3.org/2000/svg">
<path fill-rule="evenodd" clip-rule="evenodd" d="M3.00494 30.5943C3.00494 24.4126 8.04028 19.4014 14.2517 19.4014C20.4602 19.4084 25.4914 24.4155 25.4984 30.5943C25.4984 36.776 20.4631 41.7873 14.2517 41.7873C8.04028 41.7873 3.00494 36.776 3.00494 30.5943ZM4.50451 30.5945C4.50451 35.952 8.86846 40.2951 14.2517 40.2951C19.6323 40.2889 23.9926 35.9494 23.9988 30.5945C23.9988 25.237 19.6349 20.8939 14.2517 20.8939C8.86846 20.8939 4.50451 25.237 4.50451 30.5945Z" fill="#F05442"/>
<path fill-rule="evenodd" clip-rule="evenodd" d="M41.9936 34.8332V26.1169H42.7434C43.1575 26.1169 43.4932 25.7828 43.4932 25.3707C43.4899 22.4873 41.142 20.1506 38.2447 20.1473H31.4967V15.6701H32.9962C34.2385 15.6701 35.2456 14.6679 35.2456 13.4315C35.2456 12.1952 34.2385 11.193 32.9962 11.193H15.7512V5.22338C15.7479 2.33995 13.4 0.00328971 10.5028 0H2.25517C1.01289 0 0.00582037 1.00225 0.00582037 2.23859C0.00582037 3.47493 1.01289 4.47718 2.25517 4.47718H9.75299V17.1521C3.1186 19.3446 -0.935315 26.0059 0.185512 32.8731C1.30634 39.7403 7.27037 44.782 14.261 44.772C21.2516 44.7619 27.2009 39.703 28.3018 32.8327H37.4949V34.834C35.2732 35.8811 34.0778 38.3211 34.617 40.708C35.1562 43.0949 37.286 44.7909 39.7443 44.7909C42.2025 44.7909 44.3323 43.0949 44.8715 40.708C45.4107 38.3211 44.2153 35.8811 41.9936 34.834V34.8332ZM41.9186 24.6249H27.1554C26.6585 23.5567 26.0301 22.5541 25.2847 21.6402H38.2447C40.0256 21.6421 41.5602 22.8888 41.9186 24.6249ZM28.3018 28.3551H37.4949V26.1165H27.7583C28.0007 26.8466 28.1825 27.5953 28.3018 28.3551ZM29.9971 20.1476H23.8489C21.6125 18.0984 18.7738 16.8185 15.7512 16.4965V15.6705H29.9971V20.1476ZM33.746 13.4318C33.746 13.0197 33.4103 12.6856 32.9962 12.6856H15.7512V14.178H32.9962C33.4103 14.178 33.746 13.8439 33.746 13.4318ZM2.25515 2.98482C1.84106 2.98482 1.50537 2.65073 1.50537 2.23862C1.50537 1.82651 1.84106 1.49242 2.25515 1.49242H9.75297V2.98482H2.25515ZM14.2517 5.22351C14.2497 3.45111 12.997 1.92388 11.2525 1.56714V16.7388C12.2379 16.5259 13.2433 16.4178 14.2517 16.4165V5.22351ZM14.2517 43.2799C7.86721 43.2802 2.46739 38.5795 1.61806 32.2821C0.768727 25.9846 4.73191 20.0332 10.8905 18.358C17.0491 16.6828 23.5029 19.8005 25.9903 25.6525C27.6476 29.57 27.2257 34.0529 24.8662 37.596C22.5068 41.1391 18.5227 43.2725 14.2517 43.2799ZM28.4593 29.8475C28.5118 30.3436 28.5118 30.8438 28.4593 31.3399H37.4949V29.8475H28.4593ZM38.9945 26.1165H40.494V34.3851C39.9972 34.3083 39.4914 34.3083 38.9945 34.3851V26.1165ZM39.4943 43.2709C41.5099 43.4052 43.27 41.926 43.4744 39.9258C43.5819 38.8746 43.2364 37.8274 42.5239 37.0441C41.8113 36.2609 40.7984 35.815 39.7368 35.8173C37.7166 35.8215 36.0632 37.4181 35.9978 39.4275C35.9324 41.4369 37.4786 43.1365 39.4943 43.2709Z" fill="#F05442"/>
<path d="M39.7443 40.2942C40.1584 40.2942 40.494 39.9601 40.494 39.548C40.494 39.1358 40.1584 38.8018 39.7443 38.8018C39.3302 38.8018 38.9945 39.1358 38.9945 39.548C38.9945 39.9601 39.3302 40.2942 39.7443 40.2942Z" fill="#F05442"/>
<path fill-rule="evenodd" clip-rule="evenodd" d="M11.2525 30.5942C11.2525 28.9457 12.5953 27.6094 14.2517 27.6094C15.908 27.6094 17.2508 28.9457 17.2508 30.5942C17.2508 32.2426 15.908 33.5789 14.2517 33.5789C12.5953 33.5789 11.2525 32.2426 11.2525 30.5942ZM12.7521 30.5937C12.7521 31.418 13.4235 32.0861 14.2517 32.0861C15.0799 32.0861 15.7512 31.418 15.7512 30.5937C15.7512 29.7695 15.0799 29.1013 14.2517 29.1013C13.4235 29.1013 12.7521 29.7695 12.7521 30.5937Z" fill="#F05442"/>
</svg>
