<svg width="50" height="50" viewBox="0 0 50 50" fill="none" xmlns="http://www.w3.org/2000/svg">
<mask id="mask0" mask-type="alpha" maskUnits="userSpaceOnUse" x="4" y="0" width="42" height="50">
<path fill-rule="evenodd" clip-rule="evenodd" d="M4 0.910156H45.3889V49.9994H4V0.910156Z" fill="white"/>
</mask>
<g mask="url(#mask0)">
<path fill-rule="evenodd" clip-rule="evenodd" d="M41.5237 41.075H7.86517C6.77075 41.075 5.88132 40.175 5.88132 39.0691C5.88132 38.7122 5.97721 38.3603 6.15906 38.0514L14.0135 24.6338C14.5243 23.7642 15.4501 23.224 16.4329 23.224H32.9568C33.9396 23.224 34.8654 23.7652 35.3746 24.6328L43.2298 38.0514C43.4125 38.3603 43.5076 38.7132 43.5076 39.0691C43.5076 40.175 42.6181 41.075 41.5237 41.075V41.075ZM43.5076 45.5383C43.5076 46.7677 42.6644 47.7687 41.6262 47.7687H7.76267C6.72446 47.7687 5.88132 46.7677 5.88132 45.5383V42.6863C6.46325 43.0716 7.13776 43.3059 7.866 43.3059H41.5237C42.2519 43.3059 42.9256 43.0716 43.5076 42.6863V45.5383ZM6.15906 6.16672C5.97721 5.85692 5.88132 5.50496 5.88132 5.14809C5.88132 4.04319 6.77075 3.14319 7.86517 3.14319H41.5237C42.6181 3.14319 43.5076 4.04319 43.5076 5.14809C43.5076 5.50496 43.4125 5.85692 43.2298 6.16672L35.3762 19.5834C34.8654 20.453 33.9396 20.9932 32.9568 20.9932H16.4329C15.4501 20.9932 14.5235 20.453 14.0151 19.5844L6.15906 6.16672ZM44.7781 36.7788L36.9195 23.3592C36.6278 22.8611 36.2475 22.4611 35.8359 22.1082C36.2483 21.7562 36.6286 21.3553 36.922 20.8562L44.7781 7.43761C45.1782 6.75329 45.3898 5.96212 45.3898 5.14741C45.3889 2.81212 43.6547 0.910156 41.5237 0.910156H7.86521C5.73422 0.910156 4 2.81212 4 5.14741C4 5.96212 4.21161 6.75329 4.61251 7.43761L12.4702 20.8572C12.762 21.3553 13.1414 21.7562 13.5531 22.1082C13.1406 22.4602 12.7604 22.8621 12.4686 23.3602L4.61251 36.7788C4.21161 37.4621 4 38.2553 4 39.069C4 39.266 4.02976 39.4553 4.05373 39.6454C4.0281 39.7474 4 39.8474 4 39.9582V45.5376C4 47.9984 5.68793 50.0004 7.76271 50.0004H41.6262C43.701 50.0004 45.3898 47.9984 45.3898 45.5376V39.9582C45.3898 39.8474 45.3617 39.7474 45.336 39.6454C45.36 39.4553 45.3898 39.266 45.3898 39.068C45.3889 38.2553 45.1782 37.4621 44.7781 36.7788V36.7788Z" fill="#F05442"/>
</g>
<path fill-rule="evenodd" clip-rule="evenodd" d="M11.6153 36.9326L16.8049 27.7736L32.2946 27.8017L37.5481 36.9326H11.6153ZM33.5385 26.0037C33.365 25.7009 33.0818 25.5193 32.779 25.5193L16.3187 25.4902H16.3171C16.0118 25.4902 15.7254 25.6718 15.5519 25.9797L9.06827 37.4234C8.87103 37.7725 8.84811 38.2268 9.0077 38.6039C9.17057 38.98 9.48649 39.2157 9.8335 39.2157H39.3428C39.6907 39.2157 40.0082 38.979 40.1703 38.5999C40.3307 38.2218 40.3053 37.7654 40.1032 37.4164L33.5385 26.0037Z" fill="#FF533F"/>
<path fill-rule="evenodd" clip-rule="evenodd" d="M35.3725 45.0977C35.9142 45.0977 36.3534 45.537 36.3534 46.0789C36.3534 46.6199 35.9142 47.0584 35.3725 47.0584C34.8318 47.0584 34.3926 46.6199 34.3926 46.0789C34.3926 45.537 34.8318 45.0977 35.3725 45.0977" fill="#FF533F"/>
<path fill-rule="evenodd" clip-rule="evenodd" d="M39.2943 45.0977C39.8351 45.0977 40.2743 45.537 40.2743 46.0789C40.2743 46.6199 39.8351 47.0584 39.2943 47.0584C38.7527 47.0584 38.3135 46.6199 38.3135 46.0789C38.3135 45.537 38.7527 45.0977 39.2943 45.0977" fill="#FF533F"/>
</svg>
