<svg width="40" height="40" viewBox="0 0 40 40" fill="none" xmlns="http://www.w3.org/2000/svg">
<path d="M10.1755 10.1761C10.8247 9.52682 11.8774 9.52682 12.5267 10.1761L30.7484 28.3978C31.3976 29.047 31.3976 30.0997 30.7484 30.749C30.0991 31.3982 29.0464 31.3982 28.3972 30.749L10.1755 12.5273C9.52622 11.878 9.52622 10.8253 10.1755 10.1761Z" fill="#F05442"/>
<path fill-rule="evenodd" clip-rule="evenodd" d="M30.7485 10.1755C31.3977 10.8247 31.3977 11.8774 30.7485 12.5267L12.5268 30.7484C11.8775 31.3976 10.8249 31.3976 10.1756 30.7484C9.52633 30.0991 9.52633 29.0464 10.1756 28.3972L28.3973 10.1755C29.0466 9.52622 30.0992 9.52622 30.7485 10.1755Z" fill="#F05442"/>
</svg>
