<svg width="56" height="56" viewBox="0 0 56 56" fill="none" xmlns="http://www.w3.org/2000/svg">
<mask id="mask0" mask-type="alpha" maskUnits="userSpaceOnUse" x="3" y="3" width="50" height="35">
<path fill-rule="evenodd" clip-rule="evenodd" d="M3.00031 3H52.864V37.0194H3.00031V3Z" fill="white"/>
</mask>
<g mask="url(#mask0)">
<path fill-rule="evenodd" clip-rule="evenodd" d="M51.0733 35.228H4.79031V6.58202C4.79031 5.59302 5.59431 4.79102 6.58231 4.79102H49.2823C50.2693 4.79102 51.0733 5.59302 51.0733 6.58202V35.228ZM49.2823 2.99902H6.58231C4.60631 2.99902 3.00031 4.60702 3.00031 6.58202V36.124C3.00031 36.618 3.40131 37.019 3.89531 37.019H51.9693C52.4633 37.019 52.8643 36.618 52.8643 36.124V6.58202C52.8643 4.60702 51.2573 2.99902 49.2823 2.99902Z" fill="#FF533F"/>
</g>
<mask id="mask1" mask-type="alpha" maskUnits="userSpaceOnUse" x="3" y="35" width="50" height="10">
<path fill-rule="evenodd" clip-rule="evenodd" d="M3.00031 35.2285H52.864V44.1815H3.00031V35.2285Z" fill="white"/>
</mask>
<g mask="url(#mask1)">
<path fill-rule="evenodd" clip-rule="evenodd" d="M51.0733 40.5995C51.0733 41.5875 50.2693 42.3905 49.2823 42.3905H6.58231C5.59431 42.3905 4.79031 41.5875 4.79031 40.5995V37.0195H51.0733V40.5995ZM51.9693 35.2285H3.89531C3.40131 35.2285 3.00031 35.6295 3.00031 36.1235V40.5995C3.00031 42.5745 4.60631 44.1815 6.58231 44.1815H49.2823C51.2573 44.1815 52.8643 42.5745 52.8643 40.5995V36.1235C52.8643 35.6295 52.4633 35.2285 51.9693 35.2285Z" fill="#FF533F"/>
</g>
<path fill-rule="evenodd" clip-rule="evenodd" d="M30.6172 38.8096H25.2462C24.7522 38.8096 24.3502 39.2106 24.3502 39.7056C24.3502 40.1996 24.7522 40.6006 25.2462 40.6006H30.6172C31.1112 40.6006 31.5132 40.1996 31.5132 39.7056C31.5132 39.2106 31.1112 38.8096 30.6172 38.8096Z" fill="#FF533F"/>
<mask id="mask2" mask-type="alpha" maskUnits="userSpaceOnUse" x="3" y="3" width="50" height="50">
<path fill-rule="evenodd" clip-rule="evenodd" d="M3 52.999H52.864V3H3V52.999Z" fill="white"/>
</mask>
<g mask="url(#mask2)">
<path fill-rule="evenodd" clip-rule="evenodd" d="M8.37099 35.2281H47.492V8.37205H8.37099V35.2281ZM48.388 6.58105H7.47699C6.98199 6.58105 6.58099 6.98205 6.58099 7.47605V36.1241C6.58099 36.6181 6.98199 37.0191 7.47699 37.0191H48.388C48.882 37.0191 49.283 36.6181 49.283 36.1241V7.47605C49.283 6.98205 48.882 6.58105 48.388 6.58105Z" fill="#FF533F"/>
<path fill-rule="evenodd" clip-rule="evenodd" d="M39.5704 51.2089H16.2944C15.7994 51.2089 15.3984 50.8069 15.3984 50.3129C15.3984 49.8199 15.7994 49.4179 16.2944 49.4179H39.5704C40.0644 49.4179 40.4664 49.8199 40.4664 50.3129C40.4664 50.8069 40.0644 51.2089 39.5704 51.2089ZM39.5704 47.6279H16.2944C14.8134 47.6279 13.6084 48.8329 13.6084 50.3129C13.6084 51.7939 14.8134 52.9989 16.2944 52.9989H39.5704C41.0504 52.9989 42.2564 51.7939 42.2564 50.3129C42.2564 48.8329 41.0504 47.6279 39.5704 47.6279Z" fill="#FF533F"/>
<path fill-rule="evenodd" clip-rule="evenodd" d="M22.4454 47.6276C23.6644 47.6276 24.1964 46.5136 24.3274 44.1816H31.5384C31.6684 46.5136 32.0274 47.6276 33.4204 47.6276H22.4454ZM37.7794 47.6276C34.8094 47.6276 33.3034 47.4436 33.3034 43.2856C33.3034 42.7916 32.9024 42.3906 32.4084 42.3906H23.4564C22.9624 42.3906 22.5604 42.7916 22.5604 43.2856C22.5604 47.4436 21.0544 47.6276 18.0844 47.6276C17.5904 47.6276 17.1894 48.0276 17.1894 48.5226C17.1894 49.0166 17.5904 49.4176 18.0844 49.4176H37.7794C38.2734 49.4176 38.6744 49.0166 38.6744 48.5226C38.6744 48.0276 38.2734 47.6276 37.7794 47.6276Z" fill="#FF533F"/>
<path fill-rule="evenodd" clip-rule="evenodd" d="M40.6885 31.2777L38.7205 29.3087C38.4925 29.0807 38.1935 28.9667 37.8945 28.9667C37.5945 28.9667 37.2945 29.0817 37.0685 29.3077L36.4215 29.9547L34.6445 24.0307L40.5685 25.8077L39.8755 26.5007C39.6845 26.6927 39.5805 26.9467 39.5805 27.2167C39.5805 27.4887 39.6855 27.7447 39.8765 27.9337L41.9545 30.0107L40.6885 31.2777ZM43.8525 29.3787L41.6915 27.2167L42.8945 26.0147C43.1175 25.7917 43.2075 25.4677 43.1295 25.1627C43.0525 24.8567 42.8205 24.6157 42.5185 24.5237L33.5665 21.8387C33.2515 21.7437 32.9095 21.8307 32.6765 22.0627C32.4435 22.2967 32.3575 22.6377 32.4525 22.9527L35.1375 31.9057C35.2285 32.2087 35.4705 32.4397 35.7765 32.5167C36.0805 32.5917 36.4055 32.5047 36.6275 32.2817L37.8945 31.0147L40.0555 33.1757C40.2225 33.3447 40.4515 33.4387 40.6885 33.4387C40.9255 33.4387 41.1535 33.3447 41.3215 33.1757L43.8525 30.6437C44.2035 30.2947 44.2035 29.7277 43.8525 29.3787Z" fill="#FF533F"/>
<path fill-rule="evenodd" clip-rule="evenodd" d="M14.503 14.6391H37.779V11.9531H14.503V14.6391ZM38.675 10.1621H13.608C13.114 10.1621 12.713 10.5631 12.713 11.0581V15.5341C12.713 16.0281 13.114 16.4291 13.608 16.4291H38.675C39.169 16.4291 39.57 16.0281 39.57 15.5341V11.0581C39.57 10.5631 39.169 10.1621 38.675 10.1621Z" fill="#FF533F"/>
<path fill-rule="evenodd" clip-rule="evenodd" d="M18.084 23.5908H23.456V21.8008H18.084V23.5908ZM24.351 20.0098H17.19C16.695 20.0098 16.294 20.4108 16.294 20.9048V24.4858C16.294 24.9798 16.695 25.3808 17.19 25.3808H24.351C24.845 25.3808 25.246 24.9798 25.246 24.4858V20.9048C25.246 20.4108 24.845 20.0098 24.351 20.0098Z" fill="#FF533F"/>
<path fill-rule="evenodd" clip-rule="evenodd" d="M37.7794 23.1021L33.5654 21.8371C33.2504 21.7431 32.9084 21.8301 32.6754 22.0621C32.4424 22.2951 32.3564 22.6371 32.4514 22.9531L33.7174 27.1711H14.5034V11.9531H37.7794V23.1021ZM38.6754 10.1621H13.6084C13.1144 10.1621 12.7134 10.5631 12.7134 11.0571V28.0671C12.7134 28.5611 13.1144 28.9611 13.6084 28.9611H34.9204C35.2044 28.9611 35.4694 28.8291 35.6384 28.6011C35.8074 28.3731 35.8594 28.0801 35.7784 27.8091L34.6444 24.0301L38.4184 25.1631C38.6894 25.2441 38.9834 25.1921 39.2094 25.0231C39.4364 24.8541 39.5704 24.5871 39.5704 24.3051V11.0571C39.5704 10.5631 39.1694 10.1621 38.6754 10.1621Z" fill="#FF533F"/>
</g>
</svg>
