<svg width="49" height="52" viewBox="0 0 49 52" fill="none" xmlns="http://www.w3.org/2000/svg">
<path fill-rule="evenodd" clip-rule="evenodd" d="M29.9416 39.2034C29.0008 38.1929 27.4189 38.1363 26.4083 39.0772L20.9189 44.1876C17.2809 47.5746 11.5861 47.371 8.19915 43.733C4.81222 40.0949 5.01578 34.4001 8.6538 31.0132L15.9729 24.1992C18.9843 21.3957 23.405 21.0522 26.7595 23.0805C27.941 23.7949 29.512 23.8912 30.5225 22.9504C31.5331 22.0096 31.6002 20.4047 30.4957 19.5761C25.1767 15.5855 17.6036 15.8496 12.566 20.5396L5.24681 27.3536C-0.412335 32.6222 -0.728977 41.4808 4.53957 47.14C9.80813 52.7991 18.6668 53.1158 24.3259 47.8472L29.8153 42.7367C30.8258 41.7959 30.8824 40.214 29.9416 39.2034Z" fill="black"/>
<path fill-rule="evenodd" clip-rule="evenodd" d="M19.6673 13.7382C20.6436 14.7145 22.2265 14.7145 23.2028 13.7382L28.5061 8.43487C32.0208 4.92015 37.7193 4.92015 41.234 8.43487C44.7488 11.9496 44.7488 17.6481 41.234 21.1628L34.163 28.2339C31.2536 31.1432 26.848 31.6443 23.4233 29.7372C22.217 29.0655 20.6436 29.0253 19.6673 30.0016C18.691 30.9779 18.6813 32.5842 19.8146 33.3728C25.2728 37.1708 32.8316 36.6363 37.6985 31.7694L44.7696 24.6983C50.2369 19.231 50.2369 10.3667 44.7696 4.89933C39.3022 -0.568008 30.4379 -0.568006 24.9706 4.89933L19.6673 10.2026C18.691 11.1789 18.691 12.7619 19.6673 13.7382Z" fill="black"/>
</svg>
