<svg width="45" height="45" viewBox="0 0 45 45" fill="none" xmlns="http://www.w3.org/2000/svg">
<path fill-rule="evenodd" clip-rule="evenodd" d="M29.6649 18.6551V18.1521C29.6649 17.8199 29.3989 17.5498 29.0724 17.5498C28.7457 17.5498 28.4797 17.8199 28.4797 18.1521V18.6551C28.4797 18.9873 28.7457 19.2574 29.0724 19.2574C29.3989 19.2574 29.6649 18.9873 29.6649 18.6551" fill="#FF533F"/>
<path fill-rule="evenodd" clip-rule="evenodd" d="M34.0195 17.5498C33.6924 17.5498 33.4267 17.8202 33.4267 18.1521V18.6551C33.4267 18.9873 33.6924 19.2577 34.0195 19.2577C34.3459 19.2577 34.6116 18.9873 34.6116 18.6551V18.1521C34.6116 17.8202 34.3459 17.5498 34.0195 17.5498" fill="#FF533F"/>
<path fill-rule="evenodd" clip-rule="evenodd" d="M33.0877 20.5703C32.9302 20.5547 32.7759 20.6023 32.6537 20.7044H32.6534C32.3755 20.9367 31.9714 21.0702 31.5458 21.0702C31.1199 21.0702 30.7161 20.9367 30.4377 20.7044C30.1851 20.4936 29.811 20.531 29.6036 20.7874C29.3963 21.0438 29.4328 21.4242 29.6853 21.635C30.1792 22.0477 30.8399 22.275 31.5458 22.275C32.2514 22.275 32.9125 22.0477 33.406 21.635C33.6586 21.4242 33.6951 21.0438 33.4874 20.7874C33.387 20.6628 33.2452 20.5858 33.0877 20.5703" fill="#FF533F"/>
<path fill-rule="evenodd" clip-rule="evenodd" d="M38.4681 10.7553C38.5111 10.7591 38.5535 10.7629 38.5962 10.7673C40.6441 10.9829 42.3453 12.2372 43.6533 14.4963L41.2328 16.6052C40.8549 15.5934 40.0745 13.9619 38.6969 12.8816C38.7864 11.9341 38.642 11.2301 38.4681 10.7553V10.7553ZM32.932 25.13V26.7026C32.932 27.4798 32.31 28.1119 31.5458 28.1119C30.7816 28.1119 30.1595 27.4798 30.1595 26.7026V25.13C31.0644 25.3468 32.0259 25.3468 32.932 25.13V25.13ZM37.5392 12.189C37.4513 12.151 37.3627 12.1158 37.2742 12.0835C37.0385 11.6673 36.756 11.2806 36.4317 10.9309C36.6341 10.8789 36.8863 10.8254 37.1744 10.7876C37.3091 10.9981 37.5202 11.4432 37.5392 12.189V12.189ZM25.9165 10.7886C26.2034 10.8267 26.4559 10.8799 26.6586 10.9319C26.335 11.2812 26.0528 11.6676 25.8174 12.0832C25.7285 12.1158 25.6396 12.1507 25.552 12.1887C25.5717 11.4441 25.7815 10.9988 25.9165 10.7886V10.7886ZM26.2018 15.5381V15.1343C26.2018 12.4161 28.3773 10.2048 31.051 10.2048H32.0406C34.7143 10.2048 36.8897 12.4161 36.8897 15.1343V15.5381H26.2018ZM37.4821 18.5547H36.9876C36.6609 18.5547 36.3952 18.8251 36.3952 19.1573C36.3952 21.8755 34.2195 24.0874 31.5458 24.0874C28.8718 24.0874 26.6963 21.8755 26.6963 19.1573C26.6963 18.8251 26.4307 18.5547 26.1039 18.5547H25.6091C25.3905 18.5547 25.2122 18.3737 25.2122 18.1512C25.2122 17.929 25.3905 17.7477 25.6091 17.7477C25.9362 17.7477 26.2018 17.4776 26.2018 17.1454V16.7422H36.8897V17.1454C36.8897 17.4776 37.1554 17.7477 37.4821 17.7477C37.701 17.7477 37.8791 17.929 37.8791 18.1512C37.8791 18.3737 37.701 18.5547 37.4821 18.5547V18.5547ZM24.3943 12.8816C23.0168 13.9619 22.2363 15.5934 21.8584 16.6052L19.4382 14.4963C20.7385 12.2511 22.4269 10.9984 24.4582 10.7714C24.5125 10.7651 24.5677 10.76 24.6235 10.7553C24.4495 11.2301 24.3048 11.9341 24.3943 12.8816V12.8816ZM44.9301 14.3459C43.8747 12.3537 41.9406 9.90753 38.7181 9.56899C37.0519 9.39306 35.7214 9.86949 35.3622 10.0153C34.3744 9.35059 33.2279 9 32.0406 9H31.0509C29.8633 9 28.7171 9.35059 27.7293 10.0153C27.3698 9.86949 26.0391 9.3937 24.3731 9.56899C21.151 9.90753 19.2169 12.3537 18.1614 14.3459C18.0305 14.5932 18.0878 14.9061 18.2977 15.089L21.7605 18.1063C21.9136 18.2401 22.1313 18.2854 22.3258 18.2233C22.5198 18.1602 22.6713 17.997 22.7209 17.796C22.7281 17.7681 23.3941 15.166 25.1592 13.8064C25.0647 14.2413 25.0164 14.6864 25.0164 15.1343V16.6609C24.4202 16.905 24.0273 17.4901 24.0273 18.1523C24.0273 19.0155 24.6999 19.722 25.5399 19.7588C25.746 21.9041 27.0481 23.782 28.9744 24.7076V25.8075L25.4719 27.3902C25.1579 27.5322 24.9328 27.8089 24.8548 28.1494C24.79 28.4309 24.8368 28.7234 24.9824 28.9685C24.6846 29.4056 24.5218 29.9308 24.5218 30.4602V38.7725C24.5218 39.1047 24.7878 39.3748 25.1146 39.3748C25.4413 39.3748 25.707 39.1047 25.707 38.7725V30.4599C25.707 30.296 25.736 30.1327 25.7918 29.9781L26.9034 31.3344C26.9629 31.4067 26.9954 31.4983 26.9954 31.5925V38.7725C26.9954 39.1047 27.2613 39.3748 27.5878 39.3748C27.9145 39.3748 28.1808 39.1047 28.1808 38.7725V31.5925C28.1808 31.2171 28.0505 30.8513 27.8138 30.5629L26.0718 28.4375L29.0065 27.1116C29.2017 28.3649 30.2764 29.3162 31.5458 29.3162C32.8148 29.3162 33.8896 28.3649 34.0848 27.1116L36.9652 28.4128L35.2241 30.5366C34.9877 30.825 34.8574 31.1908 34.8574 31.5662V38.7462C34.8574 39.0784 35.1234 39.3484 35.4498 39.3484C35.7769 39.3484 36.0429 39.0784 36.0429 38.7462V31.5662C36.0429 31.472 36.0753 31.3804 36.1349 31.3081L37.2464 29.9517C37.3022 30.1064 37.3312 30.2697 37.3312 30.4339V38.7462C37.3312 39.0784 37.5969 39.3484 37.9237 39.3484C38.2504 39.3484 38.5161 39.0784 38.5161 38.7462V30.4339C38.5161 29.9045 38.3536 29.3793 38.0559 28.9422C38.2015 28.6971 38.2482 28.4049 38.1834 28.1231C38.1547 27.9979 38.1051 27.8793 38.0356 27.7712C37.9795 27.6225 37.8666 27.5018 37.7241 27.4374L37.5941 27.3778C37.585 27.3731 37.5757 27.368 37.566 27.3639L34.1172 25.8053V24.7072C36.0432 23.782 37.3453 21.9041 37.5514 19.7588C38.3917 19.722 39.0639 19.0155 39.0639 18.152C39.0639 17.4901 38.671 16.905 38.0746 16.6606V15.1343C38.0746 14.6864 38.0269 14.2413 37.9318 13.8064C39.6959 15.1657 40.3632 17.7678 40.3704 17.7951C40.4206 17.9995 40.5677 18.159 40.7651 18.2233C40.9581 18.2854 41.177 18.2401 41.3307 18.1063L44.7936 15.089C45.0037 14.9061 45.0611 14.5935 44.9301 14.3459V14.3459Z" fill="#FF533F"/>
<path fill-rule="evenodd" clip-rule="evenodd" d="M8.01331 19.2577C8.33977 19.2577 8.60573 18.9873 8.60573 18.6554V18.1524C8.60573 17.8202 8.33977 17.5498 8.01331 17.5498C7.68623 17.5498 7.42058 17.8202 7.42058 18.1524V18.6554C7.42058 18.9873 7.68623 19.2577 8.01331 19.2577" fill="#FF533F"/>
<path fill-rule="evenodd" clip-rule="evenodd" d="M12.9604 19.2577C13.2872 19.2577 13.5528 18.9873 13.5528 18.6554V18.1524C13.5528 17.8202 13.2872 17.5498 12.9604 17.5498C12.6336 17.5498 12.368 17.8202 12.368 18.1524V18.6554C12.368 18.9873 12.6336 19.2577 12.9604 19.2577" fill="#FF533F"/>
<path fill-rule="evenodd" clip-rule="evenodd" d="M8.54465 20.7871C8.3373 21.0439 8.37378 21.4239 8.62634 21.6351C9.12023 22.0478 9.78094 22.2747 10.4869 22.2747C11.1925 22.2747 11.8532 22.0478 12.3471 21.6351C12.5996 21.4243 12.6361 21.0439 12.4287 20.7871C12.2211 20.5304 11.8472 20.4933 11.5944 20.7041C11.3162 20.9371 10.9125 21.0705 10.4869 21.0705C10.0606 21.0705 9.65715 20.9371 9.37903 20.7041C9.12678 20.4936 8.75262 20.5304 8.54465 20.7871" fill="#FF533F"/>
<path fill-rule="evenodd" clip-rule="evenodd" d="M11.8731 25.13V26.7026C11.8731 27.4798 11.251 28.1119 10.4868 28.1119C9.72257 28.1119 9.10021 27.4798 9.10021 26.7026V25.13C10.0057 25.3471 10.9673 25.3471 11.8731 25.13V25.13ZM6.79663 16.5303L6.99182 15.7365H13.9818L14.177 16.5303C14.3534 17.2476 14.9845 17.7484 15.7116 17.7484H16.4232C16.642 17.7484 16.8201 17.9294 16.8201 18.1516C16.8201 18.3742 16.642 18.5555 16.4232 18.5555H15.9286C15.6019 18.5555 15.3359 18.8255 15.3359 19.1577C15.3359 21.8759 13.1605 24.0878 10.4868 24.0878C7.8131 24.0878 5.63736 21.8759 5.63736 19.1577C5.63736 18.8255 5.37139 18.5555 5.04493 18.5555H4.55042C4.33153 18.5555 4.15318 18.3742 4.15318 18.1516C4.15318 17.9294 4.33153 17.7484 4.55042 17.7484H5.26195C5.98907 17.7484 6.62015 17.2476 6.79663 16.5303V16.5303ZM15.8304 16.5436H15.7116C15.5292 16.5436 15.3708 16.418 15.3266 16.238L15.2034 15.7365H15.8304V16.5436ZM5.17869 14.532C5.47397 12.0915 7.55462 10.2048 9.99196 10.2048H10.9816C13.4187 10.2048 15.4996 12.0915 15.7946 14.532H5.17869ZM5.64671 16.238C5.60275 16.418 5.44435 16.5436 5.26195 16.5436H5.14284V15.7365H5.77018L5.64671 16.238ZM16.4921 19.7591C17.3327 19.722 18.0052 19.0155 18.0052 18.152C18.0052 17.4901 17.6121 16.9053 17.0156 16.6606V15.1346C17.0156 13.4986 16.3876 11.9587 15.2464 10.7986C14.1052 9.63872 12.5908 9 10.9816 9H9.99196C6.89672 9 4.28726 11.418 3.98668 14.532H0.592421C0.265654 14.532 0 14.8024 0 15.1346C0 15.4668 0.265654 15.7369 0.592421 15.7369H3.95769V16.6609C3.36121 16.9053 2.96803 17.4901 2.96803 18.1523C2.96803 19.0155 3.6409 19.722 4.4812 19.7591C4.68699 21.9041 5.98907 23.782 7.91537 24.7072V25.7913L4.58472 27.1458C3.60286 27.5452 2.96803 28.4977 2.96803 29.5733V32.2344C2.96803 32.6109 3.15542 32.9571 3.46286 33.1606V38.7725C3.46286 39.1047 3.72882 39.3748 4.05559 39.3748C4.38236 39.3748 4.64801 39.1047 4.64801 38.7725V33.3397H5.93637V38.7725C5.93637 39.1047 6.20234 39.3748 6.52879 39.3748C6.85587 39.3748 7.12184 39.1047 7.12184 38.7725V31.2286C7.12184 31.1091 7.08723 30.9937 7.02206 30.8945L6.03272 29.3856C5.94479 29.2518 5.81134 29.1606 5.65606 29.1289C5.50079 29.0975 5.3427 29.1295 5.21112 29.2186C5.07923 29.308 4.98975 29.4436 4.95857 29.6015C4.9277 29.7593 4.95888 29.92 5.04649 30.0538L5.93637 31.4108V32.1351H4.15318V29.573C4.15318 28.9932 4.49554 28.4797 5.02467 28.2644L7.94219 27.078C8.12272 28.3497 9.20093 29.3162 10.4868 29.3162C11.7727 29.3162 12.8509 28.3497 13.0314 27.078L15.9486 28.2644C16.4784 28.4797 16.8201 28.9932 16.8201 29.573V32.1351H15.0369V31.4108L15.9268 30.0538C16.0144 29.92 16.0459 29.7593 16.0147 29.6015C15.9838 29.4436 15.894 29.308 15.7625 29.2182C15.6309 29.1292 15.4731 29.0978 15.3175 29.1289C15.1622 29.1606 15.0285 29.2518 14.9409 29.3856L13.9512 30.8945C13.886 30.9937 13.8521 31.1091 13.8521 31.2286V38.7725C13.8521 39.1047 14.1177 39.3748 14.4445 39.3748C14.7712 39.3748 15.0369 39.1047 15.0369 38.7725V33.3397H16.3253V38.7725C16.3253 39.1047 16.5912 39.3748 16.918 39.3748C17.2448 39.3748 17.5104 39.1047 17.5104 38.7725V33.1606C17.8178 32.9571 18.0052 32.6109 18.0052 32.2344V29.573C18.0052 28.4977 17.3707 27.5452 16.3886 27.1458L13.0582 25.7913V24.7072C14.9845 23.782 16.2863 21.9041 16.4921 19.7591V19.7591Z" fill="#FF533F"/>
</svg>
