<svg width="45" height="45" viewBox="0 0 45 45" fill="none" xmlns="http://www.w3.org/2000/svg">
<path d="M26.8552 34.9014H23.4451C22.9598 34.9014 22.5663 35.2855 22.5663 35.7595C22.5663 36.2335 22.9598 36.6177 23.4451 36.6177H26.8552C27.3815 36.6177 27.8097 37.0357 27.8097 37.5496C27.8097 38.0635 27.3816 38.4815 26.8552 38.4815H17.6756C16.2957 38.4815 14.9981 37.8875 14.1156 36.8516L11.9204 34.2751C10.7425 32.8925 9.0282 32.0828 7.19392 32.0315V26.9623H10.4297C12.0254 26.9623 13.5364 27.5583 14.6843 28.6403L19.4223 33.106C19.7572 33.4218 19.7729 33.9504 19.4571 34.2844C19.1352 34.6248 18.5889 34.647 18.2392 34.334L14.5194 31.0045C14.1618 30.6843 13.6058 30.7078 13.2779 31.0572C12.9499 31.4066 12.974 31.9494 13.3318 32.2696L17.0516 35.5991C17.5533 36.0481 18.1881 36.2699 18.8214 36.2699C19.5284 36.2699 20.2333 35.9935 20.7486 35.4484C21.7072 34.4344 21.6598 32.8298 20.643 31.8713L15.905 27.4056C14.4277 26.0131 12.4832 25.2462 10.4297 25.2462H7.02324C6.69259 24.482 5.91714 23.9443 5.01556 23.9443H0.878817C0.393486 23.9443 0 24.3285 0 24.8025V31.0775C0 31.5514 0.393486 31.9356 0.878817 31.9356C1.36415 31.9356 1.75763 31.5514 1.75763 31.0775V25.6605H5.01564C5.24768 25.6605 5.43638 25.8448 5.43638 26.0713V32.9493C5.43638 33.1758 5.24768 33.3601 5.01564 33.3601H4.1029C3.61757 33.3601 3.22409 33.7443 3.22409 34.2183C3.22409 34.6922 3.61757 35.0764 4.1029 35.0764H5.01556C5.92927 35.0764 6.71281 34.524 7.03581 33.7435C8.40584 33.7511 9.69247 34.3436 10.5693 35.3727L12.7645 37.9493C13.982 39.3783 15.7719 40.1978 17.6756 40.1978H26.8552C28.3506 40.1978 29.5672 39.0098 29.5672 37.5496C29.5672 36.0893 28.3506 34.9014 26.8552 34.9014Z" fill="#F05442"/>
<path d="M44.1211 10.9758C43.6358 10.9758 43.2423 11.3599 43.2423 11.8339V17.5861H39.9843C39.7522 17.5861 39.5635 17.4018 39.5635 17.1753V10.2973C39.5635 10.0708 39.7522 9.88647 39.9843 9.88647H40.8325C41.3178 9.88647 41.7113 9.50233 41.7113 9.02834C41.7113 8.55444 41.3178 8.17021 40.8325 8.17021H39.9843C39.0706 8.17021 38.287 8.72256 37.964 9.5031C36.594 9.49547 35.3074 8.90304 34.4306 7.87387L32.2353 5.29743C31.0179 3.86842 29.2279 3.04883 27.3242 3.04883H18.1447C16.6493 3.04883 15.4327 4.23677 15.4327 5.69693C15.4327 7.15709 16.6493 8.34503 18.1447 8.34503H21.8983C22.3837 8.34503 22.7772 7.9609 22.7772 7.4869C22.7772 7.01291 22.3837 6.62878 21.8983 6.62878H18.1447C17.6184 6.62878 17.1902 6.21074 17.1902 5.69684C17.1902 5.18303 17.6183 4.76491 18.1447 4.76491H27.3243C28.7042 4.76491 30.0018 5.35897 30.8843 6.39483L33.0795 8.97127C34.2573 10.3539 35.9717 11.1636 37.806 11.2149V16.2841H34.5702C32.9745 16.2841 31.4635 15.6882 30.3156 14.6061L25.5776 10.1404C25.2427 9.82468 25.227 9.2961 25.5428 8.962C25.8647 8.62155 26.411 8.59941 26.7607 8.9124L30.4806 12.2419C30.8384 12.5621 31.3941 12.5386 31.7222 12.1892C32.0501 11.8398 32.026 11.297 31.6682 10.9768L27.9483 7.64739C26.8866 6.69709 25.2282 6.7648 24.2513 7.79809C23.2927 8.81216 23.3401 10.4168 24.3569 11.3752L29.0949 15.8409C30.5723 17.2335 32.5167 18.0004 34.5702 18.0004H37.9767C38.3073 18.7645 39.0828 19.3022 39.9844 19.3022H44.1212C44.6065 19.3022 45 18.918 45 18.4441V11.8338C44.9999 11.3599 44.6064 10.9758 44.1211 10.9758Z" fill="#F05442"/>
<path d="M28.3744 32.2341C28.1745 31.8023 27.6551 31.6096 27.2132 31.8047C26.7681 31.9939 26.5645 32.4996 26.7583 32.934C26.9023 33.2569 27.2254 33.4497 27.5645 33.4497C27.6816 33.4497 27.8006 33.4267 27.9149 33.3781C27.9186 33.3766 27.9302 33.3715 27.9338 33.37C28.3761 33.1749 28.5742 32.6661 28.3744 32.2341Z" fill="#F05442"/>
<path d="M30.5589 30.7901C30.2716 30.4091 29.7194 30.3298 29.3287 30.609C28.9371 30.889 28.8521 31.426 29.1388 31.8083C29.3109 32.0379 29.5778 32.1596 29.8485 32.1596C30.0287 32.1596 30.2105 32.1057 30.3669 31.9938C30.3683 31.9929 30.3766 31.9869 30.3779 31.9859C30.7672 31.7045 30.8461 31.171 30.5589 30.7901Z" fill="#F05442"/>
<path d="M25.9175 33.198C25.8174 32.7358 25.3527 32.4399 24.879 32.5355C24.4058 32.6273 24.0964 33.0748 24.1871 33.5383C24.2676 33.9493 24.636 34.2354 25.0493 34.2354C25.104 34.2354 25.1596 34.2303 25.2152 34.2199C25.221 34.2188 25.2354 34.216 25.2412 34.2148C25.7158 34.1165 26.0179 33.6615 25.9175 33.198Z" fill="#F05442"/>
<path fill-rule="evenodd" clip-rule="evenodd" d="M31.1537 28.9855C31.4788 28.6336 32.0344 28.6057 32.3948 28.923C32.7547 29.24 32.7838 29.7815 32.4601 30.1335C32.2866 30.3261 32.044 30.4247 31.7999 30.4247C31.5966 30.4247 31.3924 30.3563 31.2263 30.2164C30.8589 29.9068 30.8179 29.3649 31.135 29.0061L31.1537 28.9855ZM31.8062 29.5604L31.9038 29.651L31.9118 29.6582L31.8062 29.5604Z" fill="#F05442"/>
<path d="M34.6316 24.2723C34.1671 24.1347 33.6758 24.3935 33.5349 24.847C33.3922 25.3 33.6525 25.7802 34.1164 25.9196C34.2025 25.9455 34.2895 25.9577 34.3751 25.9577C34.7507 25.9577 35.0985 25.7207 35.2147 25.3518L35.2184 25.34C35.3592 24.8864 35.096 24.4098 34.6316 24.2723Z" fill="#F05442"/>
<path d="M35.7572 19.8436C35.7552 19.8327 35.7531 19.8218 35.7508 19.8109C35.6515 19.3471 35.1861 19.0505 34.7113 19.1472C34.2382 19.2435 33.934 19.6952 34.0292 20.1571C34.1098 20.5666 34.4773 20.8531 34.8911 20.8531C34.9425 20.8531 34.9947 20.8488 35.047 20.8396C35.5248 20.7561 35.8427 20.3101 35.7572 19.8436Z" fill="#F05442"/>
<path d="M34.9512 21.7055C34.4693 21.664 34.0413 22.0128 33.9987 22.4848C33.9979 22.4932 33.9966 22.5101 33.9961 22.5184C33.9676 22.9915 34.3372 23.3976 34.8218 23.4254C34.8393 23.4265 34.8567 23.427 34.8741 23.427C35.3317 23.427 35.7162 23.0815 35.7499 22.6315C35.79 22.1612 35.4333 21.747 34.9512 21.7055Z" fill="#F05442"/>
<path d="M33.7713 26.7142C33.3494 26.4806 32.8128 26.6253 32.5735 27.0377L32.5613 27.0592C32.3299 27.4757 32.4861 28.0004 32.9126 28.2263C33.0468 28.2974 33.1912 28.3311 33.3335 28.3311C33.6437 28.3311 33.9433 28.1705 34.1019 27.8849L33.338 27.4607L34.1026 27.8838C34.3419 27.4715 34.1936 26.9479 33.7713 26.7142Z" fill="#F05442"/>
<path d="M17.8325 10.3721C17.6155 9.94814 17.0874 9.77624 16.6536 9.9883L16.6457 9.99208C16.2116 10.2041 16.0396 10.7175 16.2567 11.1414C16.4104 11.4417 16.7219 11.6145 17.0448 11.6145C17.1778 11.6145 17.3128 11.5852 17.4395 11.5234C17.8737 11.3115 18.0495 10.7961 17.8325 10.3721Z" fill="#F05442"/>
<path d="M20.3749 9.65708C20.2606 9.19665 19.7862 8.91361 19.3137 9.02535C19.3097 9.0263 19.2972 9.02939 19.2932 9.03042C18.8231 9.14868 18.5385 9.617 18.6595 10.0759C18.7617 10.4631 19.1174 10.7205 19.5084 10.7205C19.5808 10.7205 19.6545 10.7117 19.728 10.6932C20.1996 10.5815 20.4893 10.1177 20.3749 9.65708Z" fill="#F05442"/>
<path d="M15.5088 11.6097C15.2049 11.2409 14.6515 11.183 14.2734 11.479L14.8182 12.1523L14.2708 11.481C13.8911 11.7762 13.8284 12.3161 14.1307 12.6868C14.3043 12.8996 14.5604 13.0104 14.8189 13.0104C15.0106 13.0104 15.2039 12.9493 15.3657 12.8236L15.3773 12.8145C15.7544 12.5171 15.8127 11.9784 15.5088 11.6097Z" fill="#F05442"/>
<path d="M10.8231 17.715C10.3548 17.5904 9.87177 17.8598 9.74406 18.317C9.74186 18.3248 9.73764 18.3411 9.73562 18.349C9.62137 18.8094 9.91105 19.2724 10.3825 19.3842C10.4521 19.4007 10.5217 19.4086 10.5903 19.4086C10.9845 19.4086 11.3428 19.1474 11.4426 18.758C11.5631 18.3042 11.2878 17.8388 10.8231 17.715Z" fill="#F05442"/>
<path d="M10.2632 20.2367C9.77746 20.2104 9.36314 20.5707 9.33502 21.0438C9.33431 21.0548 9.33387 21.0658 9.33352 21.0768C9.31929 21.5503 9.70082 21.9448 10.1858 21.959C10.1948 21.9592 10.2036 21.9594 10.2124 21.9594C10.6835 21.9594 11.0728 21.5944 11.0902 21.1323C11.1122 20.6638 10.7441 20.264 10.2632 20.2367Z" fill="#F05442"/>
<path d="M11.9291 15.3689C11.4992 15.1487 10.9681 15.3105 10.7427 15.7301L10.7284 15.7578C10.5142 16.1829 10.6938 16.6962 11.129 16.9056C11.2537 16.9655 11.3858 16.9939 11.5161 16.9939C11.8388 16.9939 12.1495 16.8195 12.3035 16.5191C12.5224 16.1009 12.3561 15.5877 11.9291 15.3689Z" fill="#F05442"/>
<path d="M13.5162 13.3053C13.1428 13.0026 12.5887 13.0528 12.2787 13.4174C12.2745 13.4224 12.2648 13.4341 12.2606 13.4392C11.9593 13.8105 12.0238 14.3493 12.4039 14.6437C12.5653 14.7687 12.7577 14.8293 12.949 14.8293C13.2068 14.8293 13.4624 14.7191 13.6359 14.5078C13.9404 14.1433 13.8877 13.6064 13.5162 13.3053Z" fill="#F05442"/>
<path d="M11.2564 23.5126C11.1709 23.0461 10.7139 22.7357 10.2364 22.8193C9.75865 22.9029 9.44075 23.3487 9.52627 23.8152L9.52785 23.8236C9.60396 24.2384 9.97284 24.5265 10.3895 24.5265C10.4415 24.5265 10.4941 24.522 10.547 24.5128C11.0248 24.4293 11.342 23.9791 11.2564 23.5126Z" fill="#F05442"/>
<path fill-rule="evenodd" clip-rule="evenodd" d="M22.5584 18.2379C23.3136 17.4606 24.3735 17 25.5174 17C27.7677 17 29.5983 18.7876 29.5983 20.9849C29.5983 22.0512 29.1725 23.0531 28.3992 23.8062C28.376 23.8287 28.3517 23.85 28.3261 23.8698L23.1059 27.93C22.9457 28.0546 22.752 28.1169 22.5583 28.1169C22.3655 28.1169 22.1726 28.0552 22.0129 27.9317L17.0048 24.0601L17.0047 24.0601C16.9989 24.0555 16.9932 24.051 16.9876 24.0464C16.054 23.2863 15.5185 22.1705 15.5185 20.9849C15.5185 18.7876 17.3491 17 19.5994 17C20.7433 17 21.8031 17.4606 22.5584 18.2379ZM22.5568 26.163L27.1898 22.5596C27.6099 22.1346 27.8408 21.5771 27.8408 20.9847C27.8408 19.7338 26.7985 18.7161 25.5174 18.7161C24.5743 18.7161 23.7315 19.2661 23.3702 20.1173C23.2341 20.4379 22.9137 20.6469 22.5584 20.6469C22.2031 20.6469 21.8827 20.4378 21.7466 20.1173C21.3853 19.2661 20.5425 18.7161 19.5994 18.7161C18.3183 18.7161 17.276 19.7338 17.2761 20.9848C17.2761 21.6564 17.5782 22.2888 18.1052 22.7217L22.5568 26.163Z" fill="#F05442"/>
<path d="M0.878819 35.0735C1.36248 35.0735 1.75456 34.6907 1.75456 34.2184C1.75456 33.7461 1.36248 33.3633 0.878819 33.3633C0.395161 33.3633 0.00307846 33.7461 0.00307846 34.2184C0.00307846 34.6907 0.395161 35.0735 0.878819 35.0735Z" fill="#F05442"/>
<path d="M44.121 9.8831C44.6047 9.8831 44.9968 9.50025 44.9968 9.02798C44.9968 8.5557 44.6047 8.17285 44.121 8.17285C43.6374 8.17285 43.2453 8.5557 43.2453 9.02798C43.2453 9.50025 43.6374 9.8831 44.121 9.8831Z" fill="#F05442"/>
</svg>
