<svg width="56" height="56" viewBox="0 0 56 56" fill="none" xmlns="http://www.w3.org/2000/svg">
<path fill-rule="evenodd" clip-rule="evenodd" d="M18.8847 32.0243L20.8537 30.0573C21.0817 29.8293 21.1967 29.5303 21.1967 29.2313C21.1967 28.9303 21.0817 28.6313 20.8557 28.4043L20.2097 27.7573L26.1337 25.9833L24.3547 31.9063L23.6617 31.2123C23.4707 31.0223 23.2157 30.9183 22.9457 30.9183C22.6747 30.9173 22.4177 31.0233 22.2287 31.2143L20.1507 33.2903L18.8847 32.0243ZM20.7827 35.1893L22.9457 33.0293L24.1467 34.2323C24.3687 34.4553 24.6937 34.5453 24.9987 34.4673C25.3037 34.3913 25.5457 34.1593 25.6377 33.8573L28.3257 24.9063C28.4217 24.5903 28.3347 24.2493 28.1027 24.0163C27.8687 23.7833 27.5277 23.6973 27.2127 23.7913L18.2587 26.4733C17.9567 26.5633 17.7247 26.8053 17.6477 27.1113C17.5727 27.4163 17.6597 27.7413 17.8827 27.9633L19.1497 29.2303L16.9867 31.3903C16.8177 31.5573 16.7237 31.7863 16.7237 32.0233C16.7237 32.2603 16.8177 32.4883 16.9857 32.6563L19.5177 35.1893C19.8667 35.5393 20.4327 35.5393 20.7827 35.1893Z" fill="#FF533F"/>
<mask id="mask0" mask-type="alpha" maskUnits="userSpaceOnUse" x="6" y="3" width="45" height="51">
<path fill-rule="evenodd" clip-rule="evenodd" d="M6 53.056H50.776V3H6V53.056Z" fill="white"/>
</mask>
<g mask="url(#mask0)">
<path fill-rule="evenodd" clip-rule="evenodd" d="M20.115 19.7494H43.391V17.0634H20.115V19.7494ZM44.285 15.2734H19.219C18.725 15.2734 18.323 15.6744 18.323 16.1684V20.6454C18.323 21.1394 18.725 21.5394 19.219 21.5394H44.285C44.779 21.5394 45.181 21.1394 45.181 20.6454V16.1684C45.181 15.6744 44.779 15.2734 44.285 15.2734Z" fill="#FF533F"/>
<path fill-rule="evenodd" clip-rule="evenodd" d="M34.12 28.7011H39.491V26.9111H34.12V28.7011ZM40.387 25.1201H33.225C32.73 25.1201 32.329 25.5221 32.329 26.0161V29.5971C32.329 30.0911 32.73 30.4921 33.225 30.4921H40.387C40.881 30.4921 41.281 30.0911 41.281 29.5971V26.0161C41.281 25.5221 40.881 25.1201 40.387 25.1201Z" fill="#FF533F"/>
<path fill-rule="evenodd" clip-rule="evenodd" d="M44.2851 15.2734H19.2191C18.7241 15.2734 18.3231 15.6744 18.3231 16.1694V28.0594C18.6831 27.9824 19.0691 27.9394 19.4831 27.9394C19.7011 27.9394 19.9101 27.9534 20.1141 27.9754V17.0644H43.3901V32.2834H24.2711C24.3391 32.8794 24.3131 33.4864 24.1951 34.0734H44.2851C44.7791 34.0734 45.1811 33.6724 45.1811 33.1784V16.1694C45.1811 15.6744 44.7791 15.2734 44.2851 15.2734Z" fill="#FF533F"/>
<path fill-rule="evenodd" clip-rule="evenodd" d="M48.8212 47.189H40.3272C39.7872 47.189 39.3492 47.627 39.3492 48.167C39.3492 48.707 39.7872 49.145 40.3272 49.145H48.8212V51.1H10.8882C9.27118 51.1 7.95518 49.784 7.95518 48.167C7.95518 46.549 9.27118 45.234 10.8882 45.234H48.8212V47.189ZM49.7992 3H10.8882C8.19318 3 6.00018 5.193 6.00018 7.888V12.744C6.00018 13.284 6.43718 13.721 6.97718 13.721C7.51718 13.721 7.95518 13.284 7.95518 12.744V7.888C7.95518 6.271 9.27118 4.955 10.8882 4.955H12.2572V44.256C12.2572 44.796 12.6942 45.234 13.2342 45.234C13.7742 45.234 14.2122 44.796 14.2122 44.256V4.955H48.8212V43.279H10.8882C9.78918 43.279 8.77318 43.644 7.95518 44.259V21.672C7.95518 21.132 7.51718 20.695 6.97718 20.695C6.43718 20.695 6.00018 21.132 6.00018 21.672V48.167C6.00018 50.863 8.19318 53.055 10.8882 53.055H49.7992C50.3392 53.055 50.7762 52.618 50.7762 52.078V3.977C50.7762 3.437 50.3392 3 49.7992 3Z" fill="#FF533F"/>
<path fill-rule="evenodd" clip-rule="evenodd" d="M7.66888 16.8758C7.48688 16.6938 7.23488 16.5898 6.97788 16.5898C6.72088 16.5898 6.46888 16.6938 6.28588 16.8758C6.10488 17.0578 5.99988 17.3098 5.99988 17.5668C5.99988 17.8238 6.10488 18.0758 6.28588 18.2578C6.46888 18.4398 6.72088 18.5448 6.97788 18.5448C7.23488 18.5448 7.48688 18.4398 7.66888 18.2578C7.85088 18.0758 7.95488 17.8238 7.95488 17.5668C7.95488 17.3098 7.85088 17.0578 7.66888 16.8758Z" fill="#FF533F"/>
</g>
</svg>
