<svg width="37" height="37" viewBox="0 0 37 37" fill="none" xmlns="http://www.w3.org/2000/svg">
<path fill-rule="evenodd" clip-rule="evenodd" d="M28.7736 1.65433L36.6813 9.55047C37.1044 9.97291 37.1044 10.6577 36.6813 11.0802L34.1604 13.5975C34.9994 14.8994 34.8491 16.6573 33.7094 17.7959L33.7088 17.7966L15.9645 35.5149C15.0519 36.4262 13.8385 36.928 12.5477 36.928C11.257 36.928 10.0436 36.4261 9.13094 35.5149L1.41363 27.8088C-0.469906 25.928 -0.469906 22.8675 1.41363 20.9867L20.7743 1.65425L20.7751 1.65353C21.8434 0.58724 23.2635 0 24.774 0C26.2849 0 27.7053 0.587528 28.7736 1.65433ZM23.4331 18.6453L17.0118 12.2333C16.3162 11.5387 15.8782 10.683 15.6963 9.78538L12.4882 12.9889L12.4873 12.9898C11.4484 14.0272 11.4484 15.7152 12.4873 16.7526L18.9079 23.1638L23.4331 18.6453ZM14.4311 33.9851C13.928 34.4875 13.2591 34.7642 12.5477 34.7642C11.8362 34.7642 11.1674 34.4875 10.6643 33.9852L2.94703 26.2792C1.90814 25.2418 1.90814 23.5537 2.94703 22.5163L3.27844 22.1854C3.46026 23.083 3.89812 23.9387 4.59382 24.6333C4.80548 24.8447 5.08298 24.9503 5.36048 24.9503C5.63777 24.9503 5.91512 24.8447 6.12679 24.6336C6.55019 24.2113 6.55041 23.5263 6.12715 23.1036C5.08826 22.0661 5.08826 20.3782 6.12715 19.3407L6.12737 19.3404L6.45849 19.0098C6.64031 19.9074 7.07824 20.7631 7.77394 21.4577C7.98561 21.6691 8.26311 21.7748 8.54061 21.7748C8.81789 21.7748 9.09532 21.6692 9.30691 21.4581C9.73031 21.0356 9.73046 20.3506 9.30727 19.928C8.26838 18.8906 8.26838 17.2026 9.30727 16.1652L9.30821 16.1642L9.63868 15.8343C9.8205 16.7319 10.2584 17.5875 10.9541 18.2821L18.1413 25.4589C18.3446 25.6619 18.6204 25.776 18.908 25.776C19.1955 25.776 19.4714 25.662 19.6746 25.459L25.7325 19.4099C26.1555 18.9876 26.1555 18.3027 25.7325 17.8803L18.5452 10.7035C17.5062 9.66616 17.5062 7.97815 18.5452 6.94078L18.5459 6.93999L19.1627 6.32411C19.3082 7.53689 19.8443 8.71144 20.7744 9.64019L28.9425 17.7963C29.238 18.0913 29.5791 18.3239 29.9494 18.4894L14.4311 33.9851ZM25.5672 4.90903L32.6817 12.0131L34.3821 10.3153L27.2403 3.18388C26.5815 2.52603 25.7056 2.16374 24.774 2.16374C23.8424 2.16374 22.9665 2.52603 22.3077 3.1838C20.9474 4.5422 20.9474 6.75239 22.3077 8.11079L30.4758 16.2669C30.7028 16.4936 31.0046 16.6184 31.3256 16.6184C31.6466 16.6184 31.9484 16.4936 32.1754 16.2669C32.6444 15.7986 32.6444 15.0366 32.1754 14.5683L31.9196 14.3129L31.9154 14.3087L31.9104 14.3037L24.0338 6.43865C23.6106 6.016 23.6108 5.33096 24.0342 4.90859C24.4576 4.4863 25.144 4.4863 25.5672 4.90903Z" fill="black"/>
<path d="M9.43073 26.4025C9.00747 25.9798 8.32116 25.9798 7.89776 26.4021C7.47435 26.8245 7.47414 27.5095 7.8974 27.9322L11.7811 31.8102C11.9928 32.0216 12.2703 32.1272 12.5478 32.1272C12.825 32.1272 13.1024 32.0216 13.3141 31.8105C13.7375 31.3882 13.7377 30.7031 13.3144 30.2805L9.43073 26.4025Z" fill="black"/>
<path d="M12.6114 23.2267C12.1881 22.8041 11.5018 22.804 11.0784 23.2263C10.655 23.6487 10.6548 24.3338 11.0781 24.7564L14.9618 28.6344C15.1736 28.8458 15.451 28.9514 15.7285 28.9514C16.0058 28.9514 16.2831 28.8458 16.4948 28.6347C16.9182 28.2123 16.9184 27.5273 16.4952 27.1047L12.6114 23.2267Z" fill="black"/>
</svg>
