<svg width="35" height="35" viewBox="0 0 35 35" fill="none" xmlns="http://www.w3.org/2000/svg">
<rect width="35" height="35" fill="#333333"/>
<mask id="mask0" mask-type="alpha" maskUnits="userSpaceOnUse" x="0" y="0" width="35" height="35">
<path fill-rule="evenodd" clip-rule="evenodd" d="M0 35H35V0H0V35Z" fill="white"/>
</mask>
<g mask="url(#mask0)">
<path fill-rule="evenodd" clip-rule="evenodd" d="M32.7272 27.1663L32.7067 27.5016C32.5417 30.2845 30.0331 32.6793 27.2301 32.7321L23.6556 32.8378C21.9476 32.8701 19.7175 32.8874 17.496 32.8874C15.2755 32.8874 13.0648 32.8701 11.3914 32.8378L7.66797 32.7321C4.82822 32.6771 2.4017 30.3341 2.26468 27.5091L2.24849 27.1792C2.08342 23.8205 2.08342 11.1123 2.24849 7.75147L2.2636 7.43123C2.40278 4.60408 4.82822 2.27401 7.67012 2.23304L11.3698 2.15109C13.0098 2.12521 15.1601 2.11335 17.428 2.11335C19.6991 2.11335 21.966 2.12629 23.6448 2.15217L27.2409 2.23088C30.0849 2.27185 32.5373 4.60732 32.7067 7.43662L32.7272 7.76764C32.9268 11.121 32.9268 23.8119 32.7272 27.1663ZM34.829 7.3137C34.597 3.40508 31.207 0.17791 27.27 0.118606L23.6728 0.0377384C21.8937 0.0118606 19.6074 0 17.36 0C15.1406 0 12.959 0.0118606 11.3385 0.0377384L7.63776 0.119685C3.69318 0.17791 0.330153 3.41155 0.139182 7.3288L0.122998 7.65119C-0.0409994 11.0466 -0.0409994 23.8873 0.122998 27.2816L0.139182 27.6116C0.330153 31.5223 3.68887 34.7679 7.62697 34.8455L11.3525 34.9512C13.0022 34.9835 15.1838 35.0008 17.4895 35.0008C19.8189 35.0008 22.0221 34.9835 23.6955 34.9512L27.2689 34.8455C31.2092 34.7711 34.597 31.5321 34.829 27.6256L34.8495 27.2903C35.0502 23.8949 35.0502 11.0412 34.8495 7.64364L34.829 7.3137Z" fill="white"/>
<path fill-rule="evenodd" clip-rule="evenodd" d="M14.771 20.9005V14.1906L21.168 17.546L14.771 20.9005ZM23.943 16.6123L23.9419 16.6112L14.2046 11.5058C14.0481 11.4238 13.8776 11.3839 13.7072 11.3839C13.5162 11.3839 13.3263 11.4346 13.1591 11.5349C12.843 11.7268 12.6455 12.074 12.6455 12.4406V22.6515C12.6455 23.0181 12.843 23.3664 13.1612 23.5594C13.4709 23.7438 13.8798 23.7556 14.2035 23.5864L23.9419 18.482C24.2926 18.2987 24.5084 17.9407 24.5084 17.5482C24.5084 17.1514 24.2926 16.7945 23.943 16.6123V16.6123Z" fill="white"/>
</g>
</svg>
