<svg width="44" height="39" viewBox="0 0 44 39" fill="none" xmlns="http://www.w3.org/2000/svg">
<path fill-rule="evenodd" clip-rule="evenodd" d="M16.8645 28.6304C16.8645 28.8074 16.7206 28.9516 16.5431 28.9516H7.12188C6.94439 28.9516 6.80046 28.8074 6.80046 28.6304V24.8009C6.80046 23.4691 7.88704 22.385 9.2227 22.385H14.4415C15.7772 22.385 16.8645 23.4691 16.8645 24.8009V28.6304ZM11.8321 15.4473C13.1685 15.4473 14.2551 16.5314 14.2551 17.8632C14.2551 19.195 13.1685 20.2791 11.8321 20.2791C10.4965 20.2791 9.40914 19.195 9.40914 17.8632C9.40914 16.5314 10.4965 15.4473 11.8321 15.4473ZM15.5468 20.4234C16.0852 19.6575 16.3678 18.7778 16.3678 17.8632C16.3678 15.37 14.3334 13.3407 11.8321 13.3407C9.33158 13.3407 7.29714 15.37 7.29714 17.8632C7.29714 18.7778 7.57978 19.6575 8.11822 20.4234C6.11361 20.9238 4.68771 22.7203 4.68771 24.8009V29.9317C4.68771 30.5526 5.19483 31.0575 5.8168 31.0575H17.8482C18.4702 31.0575 18.9773 30.5526 18.9773 29.9317V24.8009C18.9773 22.7203 17.5514 20.9238 15.5468 20.4234Z" fill="#F05442"/>
<path fill-rule="evenodd" clip-rule="evenodd" d="M22.3806 18.0488H28.8299C29.4131 18.0488 29.8867 17.5766 29.8867 16.9959C29.8867 16.4151 29.4131 15.9429 28.8299 15.9429H22.3806C21.7981 15.9429 21.3246 16.4151 21.3246 16.9959C21.3246 17.5766 21.7981 18.0488 22.3806 18.0488Z" fill="#F05442"/>
<path fill-rule="evenodd" clip-rule="evenodd" d="M33.1791 18.0488H37.5284C38.1101 18.0488 38.5844 17.5766 38.5844 16.9959C38.5844 16.4151 38.1101 15.9429 37.5284 15.9429H33.1791C32.5967 15.9429 32.1231 16.4151 32.1231 16.9959C32.1231 17.5766 32.5967 18.0488 33.1791 18.0488Z" fill="#F05442"/>
<path fill-rule="evenodd" clip-rule="evenodd" d="M37.5281 28.9514H31.4397C30.8573 28.9514 30.3837 29.4235 30.3837 30.0043C30.3837 30.5835 30.8551 31.0557 31.4502 31.0557H31.4532L37.5281 31.0572C38.1106 31.0572 38.5841 30.585 38.5841 30.0043C38.5841 29.4235 38.1106 28.9514 37.5281 28.9514Z" fill="#F05442"/>
<path fill-rule="evenodd" clip-rule="evenodd" d="M22.3806 22.385H25.3509C25.9341 22.385 26.4077 21.9129 26.4077 21.3314C26.4077 20.7514 25.9341 20.2784 25.3509 20.2784H22.3806C21.7981 20.2784 21.3246 20.7514 21.3246 21.3314C21.3246 21.9129 21.7981 22.385 22.3806 22.385Z" fill="#F05442"/>
<path fill-rule="evenodd" clip-rule="evenodd" d="M37.5281 20.2788H29.6999C29.1174 20.2788 28.6439 20.751 28.6439 21.3317C28.6439 21.9125 29.1174 22.3854 29.6999 22.3854H37.5281C38.1106 22.3854 38.5841 21.9125 38.5841 21.3317C38.5841 20.751 38.1106 20.2788 37.5281 20.2788Z" fill="#F05442"/>
<path fill-rule="evenodd" clip-rule="evenodd" d="M22.3806 26.7213H29.7002C30.2827 26.7213 30.7562 26.2484 30.7562 25.6676C30.7562 25.0876 30.2827 24.6147 29.7002 24.6147H22.3806C21.7981 24.6147 21.3246 25.0876 21.3246 25.6676C21.3246 26.2484 21.7981 26.7213 22.3806 26.7213Z" fill="#F05442"/>
<path fill-rule="evenodd" clip-rule="evenodd" d="M37.5281 24.6147H35.7883C35.2058 24.6147 34.7323 25.0876 34.7323 25.6684C34.7323 26.2484 35.2058 26.7213 35.7883 26.7213H37.5281C38.1106 26.7213 38.5841 26.2484 38.5841 25.6684C38.5841 25.0876 38.1106 24.6147 37.5281 24.6147Z" fill="#F05442"/>
<path fill-rule="evenodd" clip-rule="evenodd" d="M22.3806 31.0572H24.4814C25.0638 31.0572 25.5374 30.585 25.5374 30.0043C25.5374 29.4235 25.0638 28.9514 24.4814 28.9514H22.3806C21.7981 28.9514 21.3246 29.4235 21.3246 30.0043C21.3246 30.585 21.7981 31.0572 22.3806 31.0572Z" fill="#F05442"/>
<path fill-rule="evenodd" clip-rule="evenodd" d="M27.9606 28.9514C27.3782 28.9514 26.9039 29.4235 26.9039 30.0043C26.9039 30.585 27.3782 31.0572 27.9606 31.0572C28.5431 31.0572 29.0166 30.585 29.0166 30.0043C29.0166 29.4235 28.5431 28.9514 27.9606 28.9514Z" fill="#F05442"/>
<mask id="mask0" mask-type="alpha" maskUnits="userSpaceOnUse" x="0" y="0" width="44" height="38">
<path fill-rule="evenodd" clip-rule="evenodd" d="M0.000213623 0.743896H43.8911V37.5387H0.000213623V0.743896L0.000213623 0.743896Z" fill="white"/>
</mask>
<g mask="url(#mask0)">
<path fill-rule="evenodd" clip-rule="evenodd" d="M19.0388 11.522H24.8528C25.2711 11.522 25.6112 11.1829 25.6112 10.7658V8.05314H40.8874C41.3789 8.05314 41.7786 8.4517 41.7786 8.94173V34.5443C41.7786 35.0343 41.3789 35.4329 40.8874 35.4329H3.00415C2.51194 35.4329 2.11221 35.0343 2.11221 34.5443V8.94173C2.11221 8.4517 2.51194 8.05314 3.00415 8.05314H18.2803V10.7658C18.2803 11.1829 18.6204 11.522 19.0388 11.522ZM23.4985 3.0064V9.25999C23.4985 9.3455 23.4283 9.41614 23.3418 9.41614H20.549C20.4632 9.41614 20.3923 9.3455 20.3923 9.25999V3.0064C20.3923 2.92014 20.4632 2.85024 20.549 2.85024H23.3418C23.4283 2.85024 23.4985 2.92014 23.4985 3.0064ZM41.4393 5.94729H25.6112V1.49988C25.6112 1.08273 25.2711 0.743652 24.8528 0.743652H19.0388C18.6204 0.743652 18.2803 1.08273 18.2803 1.49988V5.94729H2.45228C1.10021 5.94729 0.000213623 7.04409 0.000213623 8.39147V35.0945C0.000213623 36.4427 1.10021 37.5387 2.45228 37.5387H41.4393C42.7913 37.5387 43.8913 36.4427 43.8913 35.0945V8.39147C43.8913 7.04409 42.7913 5.94729 41.4393 5.94729Z" fill="#F05442"/>
</g>
</svg>
