<svg width="56" height="56" viewBox="0 0 56 56" fill="none" xmlns="http://www.w3.org/2000/svg">
<path fill-rule="evenodd" clip-rule="evenodd" d="M53.4233 53.4231H48.9713V44.5191C48.9713 44.0271 48.5723 43.6281 48.0803 43.6281C47.5893 43.6281 47.1903 44.0271 47.1903 44.5191V53.4231H42.6673L41.8603 43.7371L42.3913 42.1441L42.9583 42.4841C43.5893 42.8621 44.4053 42.5021 44.5503 41.7791L45.3033 38.0121L49.9733 39.0891C51.9923 39.5551 53.4233 41.3541 53.4233 43.4261V53.4231ZM11.5743 48.0801C11.5743 47.0981 12.3733 46.3001 13.3563 46.3001C14.3383 46.3001 15.1363 47.0981 15.1363 48.0801V53.4231H11.5743V48.0801ZM2.67131 49.8611C2.18031 49.8611 1.78031 49.4621 1.78031 48.9711V32.9441C1.78031 32.4521 2.18031 32.0541 2.67131 32.0541H24.0403C24.5313 32.0541 24.9313 32.4521 24.9313 32.9441V48.9711C24.9313 49.4621 24.5313 49.8611 24.0403 49.8611H16.9173V48.0801C16.9173 46.1161 15.3193 44.5191 13.3563 44.5191C11.3913 44.5191 9.7943 46.1161 9.7943 48.0801V49.8611H2.67131ZM16.9173 53.4231H23.1493V51.6421H16.9173V53.4231ZM28.3813 39.0881L33.1783 37.9821L33.8053 41.7411C33.9283 42.4821 34.7583 42.8651 35.4023 42.4801L35.9623 42.1441L36.4933 43.7371L35.6873 53.4231H31.1633V44.5191C31.1633 44.0271 30.7653 43.6281 30.2733 43.6281C29.7813 43.6281 29.3823 44.0271 29.3823 44.5191V53.4231H24.9313V51.4781C25.9643 51.1101 26.7113 50.1301 26.7113 48.9711V39.8751C27.2063 39.5021 27.7743 39.2301 28.3813 39.0881ZM39.1773 35.6151C40.1213 35.6151 41.0233 35.4261 41.8483 35.0911V36.0611L39.1773 38.0641L36.5053 36.0611V35.0911C37.3303 35.4261 38.2323 35.6151 39.1773 35.6151ZM33.8343 28.3291V24.9311H33.9873C34.8523 24.9311 35.7063 24.7601 36.5053 24.4481V24.9311H37.5493C38.4133 24.9311 39.2683 24.7601 40.0673 24.4481V24.9311H41.1103C42.3073 24.9311 43.4843 24.6101 44.5193 24.0301V28.4921C44.5193 29.1171 44.4053 29.7141 44.2073 30.2731H40.0673C39.5753 30.2731 39.1773 30.6711 39.1773 31.1631C39.1773 31.6541 39.5753 32.0541 40.0673 32.0541H43.1483C42.1273 33.1911 40.6323 33.8931 38.9733 33.8301C36.0753 33.7221 33.8343 31.2291 33.8343 28.3291ZM32.0543 30.2731C30.5813 30.2731 29.3823 29.0741 29.3823 27.6021C29.3823 26.1291 30.5813 24.9311 32.0543 24.9311V28.4921C32.0543 29.1081 32.1403 29.7021 32.2883 30.2731H32.0543ZM39.5203 12.4721C44.3383 12.6531 48.0803 16.7661 48.0803 21.5871V23.5271C47.5343 23.2861 46.9343 23.1501 46.3003 23.1501V22.6521C46.3003 21.9441 45.7253 21.3691 45.0163 21.3691C44.7413 21.3691 44.5193 21.5911 44.5193 21.8651C43.9023 22.4031 43.1613 22.7861 42.3693 22.9861C42.4043 22.9521 42.4433 22.9231 42.4783 22.8891L41.6123 22.0241C41.3983 21.8101 41.0593 21.7941 40.8233 21.9851C40.2343 22.4611 39.5423 22.8011 38.8083 22.9861C38.8433 22.9521 38.8813 22.9231 38.9163 22.8891L38.0513 22.0241C37.8363 21.8101 37.4963 21.7951 37.2603 21.9861C36.3413 22.7311 35.1753 23.1501 33.9873 23.1501H33.8343V22.2591C33.8343 21.7681 33.4363 21.3691 32.9443 21.3691C32.4523 21.3691 32.0543 21.7681 32.0543 22.2591V23.1501C31.4203 23.1501 30.8193 23.2861 30.2733 23.5271V21.3691C30.2733 16.3451 34.4543 12.2801 39.5203 12.4721ZM46.3003 30.2731H46.0663C46.2133 29.7021 46.3003 29.1081 46.3003 28.4921V24.9311C47.7733 24.9311 48.9713 26.1291 48.9713 27.6021C48.9713 29.0741 47.7733 30.2731 46.3003 30.2731ZM40.7713 39.0941L42.9423 37.4661L43.5693 37.6111L43.0043 40.4341L40.7713 39.0941ZM40.3163 42.7381H38.0373L37.5263 41.2041L39.1773 40.2151L40.8263 41.2041L40.3163 42.7381ZM38.2153 44.5191H40.1393L40.8813 53.4231H37.4733L38.2153 44.5191ZM35.4133 37.4661L37.5843 39.0941L35.3893 40.4111L34.9173 37.5801L35.4133 37.4661ZM50.3723 37.3541L43.6283 35.7971V34.0431C44.3153 33.4931 44.8923 32.8181 45.3363 32.0541H46.2103C48.5223 32.0541 50.5103 30.3261 50.7323 28.0271C50.8433 26.8661 50.4913 25.8041 49.8613 24.9581V21.5051C49.8613 15.6221 45.1633 10.7411 39.2813 10.6851C33.3423 10.6281 28.4923 15.4431 28.4923 21.3691V24.9581C27.8263 25.8521 27.4723 26.9881 27.6463 28.2221C27.9563 30.4361 29.9023 32.0541 32.1383 32.0541H33.0173C33.4603 32.8181 34.0393 33.4931 34.7253 34.0431V35.7971L27.9813 37.3541C27.5403 37.4541 27.1173 37.6131 26.7113 37.8061V32.9441C26.7113 31.4691 25.5163 30.2731 24.0403 30.2731H2.67131C1.19531 30.2731 0.000305176 31.4691 0.000305176 32.9441V48.9711C0.000305176 50.4461 1.19531 51.6421 2.67131 51.6421H9.7943V53.4231H8.90331C8.4123 53.4231 8.0133 53.8211 8.0133 54.3131C8.0133 54.8051 8.4123 55.2031 8.90331 55.2031H55.2033V43.4261C55.2033 40.5071 53.2173 38.0091 50.3723 37.3541Z" fill="#FF533F"/>
<path fill-rule="evenodd" clip-rule="evenodd" d="M14.2465 1.78098C21.1205 1.78098 26.7115 7.37298 26.7115 14.247C26.7115 21.12 21.1205 26.712 14.2465 26.712C7.37249 26.712 1.78049 21.12 1.78049 14.247C1.78049 7.37298 7.37249 1.78098 14.2465 1.78098ZM14.2465 28.493C22.1005 28.493 28.4925 22.101 28.4925 14.247C28.4925 6.39098 22.1005 0.000976562 14.2465 0.000976562C6.39149 0.000976562 0.000488281 6.39098 0.000488281 14.247C0.000488281 22.101 6.39149 28.493 14.2465 28.493Z" fill="#FF533F"/>
<path fill-rule="evenodd" clip-rule="evenodd" d="M14.5717 6.40772C13.2737 6.31472 12.0397 6.75572 11.0927 7.63872C10.1597 8.51072 9.62469 9.74172 9.62469 11.0177C9.62469 11.6017 10.0987 12.0767 10.6827 12.0767C11.2667 12.0767 11.7427 11.6017 11.7427 11.0177C11.7427 10.3157 12.0257 9.66572 12.5387 9.18672C13.0077 8.74972 13.6067 8.51372 14.2437 8.51372C14.3037 8.51372 14.3647 8.51572 14.4257 8.51972C15.6617 8.60472 16.6587 9.60172 16.7437 10.8377C16.8297 12.0857 16.0107 13.1887 14.7967 13.4617C13.8487 13.6737 13.1867 14.4967 13.1867 15.4637V17.0037C13.1867 17.5877 13.6627 18.0617 14.2467 18.0617C14.8307 18.0617 15.3047 17.5877 15.3047 17.0037V15.5257L15.5807 15.4437C17.6597 14.8237 19.0067 12.8697 18.8557 10.6917C18.6987 8.40672 16.8567 6.56472 14.5717 6.40772Z" fill="#FF533F"/>
<path fill-rule="evenodd" clip-rule="evenodd" d="M14.9946 19.8549C14.7986 19.6579 14.5256 19.5449 14.2466 19.5449C13.9676 19.5449 13.6946 19.6579 13.4986 19.8549C13.3006 20.0509 13.1876 20.3239 13.1876 20.6039C13.1876 20.8829 13.3006 21.1559 13.4976 21.3519C13.8926 21.7479 14.6006 21.7469 14.9956 21.3519C15.1926 21.1559 15.3056 20.8819 15.3056 20.6039C15.3056 20.3259 15.1926 20.0519 14.9956 19.8549H14.9946Z" fill="#FF533F"/>
</svg>
