<svg width="35" height="35" viewBox="0 0 35 35" fill="none" xmlns="http://www.w3.org/2000/svg">
<rect width="35" height="35" fill="#333333"/>
<path fill-rule="evenodd" clip-rule="evenodd" d="M32.8808 25.5499C32.8808 29.5918 29.5929 32.8807 25.5511 32.8807L23.5232 32.8372L23.5406 23.25H26.5401C27.4431 23.25 28.2025 22.5754 28.307 21.68L28.7574 17.8939C28.8172 17.388 28.6573 16.881 28.32 16.5024C27.9827 16.1216 27.4975 15.9029 26.9894 15.9029H23.521V13.7944C23.521 13.5268 23.5384 13.3038 23.571 13.1264L23.4753 12.9806L23.7495 12.7065C23.9235 12.5335 24.3391 12.4377 24.9223 12.4377L26.8284 12.4366C27.8098 12.4366 28.6083 11.6392 28.6083 10.6578V7.46462C28.6083 6.48327 27.8098 5.68361 26.8284 5.68361H23.719C19.1996 5.68361 16.2773 8.67444 16.2773 13.3027V15.9029H14.2896C13.8141 15.9029 13.3659 16.089 13.0297 16.4262C12.6924 16.7635 12.5075 17.2128 12.5096 17.6894L12.5249 21.4755C12.527 22.4547 13.3256 23.25 14.3048 23.25H16.2936L16.2446 32.8807H9.45026C5.40845 32.8807 2.12061 29.5918 2.12061 25.5499V9.44907C2.12061 5.40727 5.40845 2.12051 9.45026 2.12051H25.5511C29.5929 2.12051 32.8808 5.40727 32.8808 9.44907V25.5499ZM21.4222 22.2523L21.4048 32.8437L20.9326 32.8818H18.3966L18.4172 22.2534C18.4172 21.6343 17.9135 21.1306 17.2934 21.1306H14.6431L14.6311 18.0223H17.2738C17.8939 18.0223 18.3977 17.5185 18.3977 16.8995V13.3026C18.3977 9.80699 20.3386 7.80295 23.7189 7.80295H26.4889V10.3183H24.9211C22.5853 10.3183 21.4005 11.4879 21.4005 13.7944V16.8995C21.4005 17.5185 21.9053 18.0223 22.5243 18.0223H26.6053L26.2387 21.1306H22.545C21.9259 21.1306 21.4222 21.6332 21.4222 22.2523V22.2523ZM25.551 0H9.45011C4.23982 0 0 4.23873 0 9.44902V25.5499C0 30.7613 4.23982 35 9.45011 35H25.551C30.7624 35 35 30.7613 35 25.5499V9.44902C35 4.23873 30.7624 0 25.551 0V0Z" fill="white"/>
</svg>
