<svg width="35" height="38" viewBox="0 0 35 38" fill="none" xmlns="http://www.w3.org/2000/svg">
<path d="M11.0926 15.6125C10.6738 16.033 10.6738 16.7073 11.0926 17.1278L16.7494 22.8079C16.9549 23.0142 17.2314 23.1253 17.5 23.1253C17.7686 23.1253 18.0452 23.0221 18.2506 22.8079L23.9075 17.1278C24.3262 16.7073 24.3262 16.033 23.9075 15.6125C23.4887 15.1921 22.8172 15.1921 22.3984 15.6125L18.5666 19.4601V1.07098C18.5666 0.475992 18.0926 0 17.5 0C16.9075 0 16.4334 0.475992 16.4334 1.07098V19.4601L12.6016 15.6125C12.1828 15.1921 11.5034 15.1921 11.0926 15.6125Z" fill="black"/>
<path fill-rule="evenodd" clip-rule="evenodd" d="M31.2235 10.9002L34.9368 24.3867C34.9684 24.4739 34.9763 24.5691 34.9763 24.6723V30.2731C34.9763 34.5332 31.5237 38 27.281 38H7.71894C3.47628 38 0.0236816 34.5332 0.0236816 30.2731V24.6485C0.0236816 24.5533 0.039483 24.4581 0.063185 24.3629L3.7765 10.8764C3.85551 10.567 4.07673 10.3211 4.36115 10.1863L4.46386 10.1387C4.60607 10.0752 4.75619 10.0435 4.9063 10.0435H11.6061C12.1986 10.0435 12.6727 10.5194 12.6727 11.1144C12.6727 11.7094 12.1986 12.1854 11.6061 12.1854H5.63316L2.48079 23.6172H10.4526C11.0451 23.6172 11.5192 24.0931 11.5192 24.6881V25.656C11.5192 27.076 12.6648 28.2263 14.079 28.2263H20.5891C22.0034 28.2263 23.149 27.076 23.149 25.656V24.6881C23.149 24.0931 23.623 23.6172 24.2156 23.6172H32.5113L29.3747 12.2092H23.4018C22.8092 12.2092 22.3352 11.7332 22.3352 11.1382C22.3352 10.5432 22.8092 10.0673 23.4018 10.0673H30.0937C30.2438 10.0673 30.3939 10.099 30.5361 10.1625L30.6388 10.2101C30.9232 10.3449 31.1365 10.5908 31.2235 10.9002ZM27.281 35.8581C30.3465 35.8581 32.8431 33.3512 32.8431 30.2731H32.8589V25.7591H25.2979C25.2426 28.3057 23.1569 30.3604 20.6049 30.3604H14.0948C11.5429 30.3604 9.45709 28.3057 9.40179 25.7591H2.15686V30.2731C2.15686 33.3512 4.65348 35.8581 7.71894 35.8581H27.281Z" fill="black"/>
</svg>
