<svg width="44" height="43" viewBox="0 0 44 43" fill="none" xmlns="http://www.w3.org/2000/svg">
<path fill-rule="evenodd" clip-rule="evenodd" d="M33.6271 19.134C33.1585 19.134 32.7779 19.5091 32.7779 19.971C32.7779 20.4328 33.1585 20.8079 33.6271 20.8079C34.0957 20.8079 34.4763 20.4328 34.4763 19.971C34.4763 19.5091 34.0957 19.134 33.6271 19.134Z" fill="#F05442"/>
<path fill-rule="evenodd" clip-rule="evenodd" d="M9.85036 19.134C9.38176 19.134 9.00116 19.5091 9.00116 19.971C9.00116 20.4328 9.38176 20.8079 9.85036 20.8079C10.319 20.8079 10.6996 20.4328 10.6996 19.971C10.6996 19.5091 10.319 19.134 9.85036 19.134Z" fill="#F05442"/>
<path fill-rule="evenodd" clip-rule="evenodd" d="M28.532 27.5029H24.286C23.8174 27.5029 23.4368 27.878 23.4368 28.3398V32.5244H20.04V28.3398C20.04 27.878 19.6601 27.5029 19.1908 27.5029H14.9455V24.1552H19.1908C19.6601 24.1552 20.04 23.7809 20.04 23.3183V19.1337H23.4368V23.3183C23.4368 23.7809 23.8174 24.1552 24.286 24.1552H28.532V27.5029ZM29.3812 22.4814H25.1352V18.2968C25.1352 17.835 24.7553 17.4599 24.286 17.4599H19.1908C18.7222 17.4599 18.3416 17.835 18.3416 18.2968V22.4814H14.0956C13.627 22.4814 13.2471 22.8565 13.2471 23.3183V28.3398C13.2471 28.8016 13.627 29.1767 14.0956 29.1767H18.3416V33.3613C18.3416 33.8231 18.7222 34.1982 19.1908 34.1982H24.286C24.7553 34.1982 25.1352 33.8231 25.1352 33.3613V29.1767H29.3812C29.8498 29.1767 30.2304 28.8016 30.2304 28.3398V23.3183C30.2304 22.8565 29.8498 22.4814 29.3812 22.4814Z" fill="#F05442"/>
<mask id="mask0" mask-type="alpha" maskUnits="userSpaceOnUse" x="0" y="0" width="44" height="41">
<path fill-rule="evenodd" clip-rule="evenodd" d="M0.000213623 40.8931H43.4771V0.722717L0.000213623 0.722717V40.8931H0.000213623Z" fill="white"/>
</mask>
<g mask="url(#mask0)">
<path fill-rule="evenodd" clip-rule="evenodd" d="M41.7789 36.7087C41.7789 38.0935 40.6357 39.2195 39.2313 39.2195H37.8725V12.4388H39.2313C40.6357 12.4388 41.7789 13.5656 41.7789 14.9496V36.7087ZM36.1741 39.2195H34.4764V23.3188C34.4764 22.8562 34.0958 22.4818 33.6272 22.4818C33.1579 22.4818 32.778 22.8562 32.778 23.3188V39.2195H10.6995V23.3188C10.6995 22.8562 10.3197 22.4818 9.85035 22.4818C9.38101 22.4818 9.00115 22.8562 9.00115 23.3188V39.2195H7.30275V12.4388H9.00115V16.6234C9.00115 17.086 9.38101 17.4603 9.85035 17.4603C10.3197 17.4603 10.6995 17.086 10.6995 16.6234V12.4388H32.778V16.6234C32.778 17.086 33.1579 17.4603 33.6272 17.4603C34.0958 17.4603 34.4764 17.086 34.4764 16.6234V12.4388H36.1741V39.2195ZM5.60435 39.2195H4.24548C2.84115 39.2195 1.69861 38.0935 1.69861 36.7087V14.9496C1.69861 13.5656 2.84115 12.4388 4.24548 12.4388H5.60435V39.2195ZM27.6828 6.58114V10.7657H15.794V6.58114C15.794 6.11931 16.1753 5.74422 16.6439 5.74422H26.8336C27.3015 5.74422 27.6828 6.11931 27.6828 6.58114ZM12.3979 5.74422C12.3979 3.89838 13.9218 2.39655 15.794 2.39655H27.6828C29.5557 2.39655 31.0796 3.89838 31.0796 5.74422V10.7657H29.3812V6.58114C29.3812 5.19639 28.2387 4.07039 26.8336 4.07039H16.6439C15.2389 4.07039 14.0956 5.19639 14.0956 6.58114V10.7657H12.3979V5.74422ZM39.2313 10.7657H32.778V5.74422C32.778 2.97546 30.4922 0.722717 27.6828 0.722717H15.794C12.9853 0.722717 10.6995 2.97546 10.6995 5.74422V10.7657H4.24548C1.90468 10.7657 0.000213623 12.6426 0.000213623 14.9496V36.7087C0.000213623 39.0157 1.90468 40.8933 4.24548 40.8933H39.2313C41.5729 40.8933 43.4773 39.0157 43.4773 36.7087V14.9496C43.4773 12.6426 41.5729 10.7657 39.2313 10.7657Z" fill="#F05442"/>
</g>
</svg>
