<?xml version="1.0" encoding="utf-8"?>
<!-- Generator: Adobe Illustrator 23.0.1, SVG Export Plug-In . SVG Version: 6.00 Build 0)  -->
<svg version="1.1" id="Capa_1" xmlns="http://www.w3.org/2000/svg" xmlns:xlink="http://www.w3.org/1999/xlink" x="0px" y="0px"
	 viewBox="0 0 30 30" style="enable-background:new 0 0 30 30;" xml:space="preserve">
<style type="text/css">
	.st0{enable-background:new    ;}
</style>
<title>PPT</title>
<desc>Created with Sketch.</desc>
<g id="Page-1">
	<g id="PPT" transform="translate(0.000000, -0.000000)">
		<g id="Shape">
			<path d="M28,0.3H2c-0.5,0-0.9,0.1-1.2,0.5S0.3,1.5,0.3,2v26c0,0.5,0.1,0.9,0.5,1.2c0.3,0.3,0.8,0.5,1.2,0.5h26
				c0.4,0,0.7-0.1,1-0.3c0.4-0.3,0.7-0.8,0.7-1.4V2c0-0.5-0.1-0.9-0.5-1.2C28.9,0.4,28.5,0.3,28,0.3z M27.2,27.2H2.8V2.8h24.4V27.2z
				"/>
		</g>
		<g class="st0">
			<path d="M5.2,10.5h2.3c2.3,0,3.6,1.2,3.6,3.2s-1.4,3.1-3.6,3.1H6.8v1.9H5.2V10.5z M7.4,15.4c1.4,0,2-0.6,2-1.7
				c0-1.1-0.6-1.7-2-1.7H6.8v3.3H7.4z"/>
		</g>
		<g class="st0">
			<path d="M11.9,10.5h2.3c2.3,0,3.6,1.2,3.6,3.2s-1.4,3.1-3.6,3.1h-0.6v1.9h-1.7V10.5z M14.1,15.4c1.4,0,2-0.6,2-1.7
				c0-1.1-0.6-1.7-2-1.7h-0.5v3.3H14.1z"/>
		</g>
		<g class="st0">
			<path d="M20.5,12h-2.3v-1.5h6.3V12h-2.3v6.7h-1.7V12z"/>
		</g>
	</g>
</g>
</svg>
