<svg width="57" height="55" viewBox="0 0 57 55" fill="none" xmlns="http://www.w3.org/2000/svg">
<path fill-rule="evenodd" clip-rule="evenodd" d="M53.8225 19.4811H52.2105C51.7055 19.4811 51.2945 19.0701 51.2945 18.5651V13.3141C51.2945 11.0911 50.4185 9.00809 48.8285 7.44809C47.2395 5.88909 45.1395 5.05609 42.9155 5.09509C38.4705 5.18009 34.8545 8.92209 34.8545 13.4381V22.0051H31.4105V13.3141C31.4105 10.1821 32.6395 7.24009 34.8715 5.02909C37.0745 2.84709 39.9835 1.64909 43.0735 1.64909C43.1125 1.64909 43.1515 1.64909 43.1895 1.65009C49.5575 1.71209 54.7385 7.01609 54.7385 13.4731V18.5651C54.7385 19.0701 54.3275 19.4811 53.8225 19.4811ZM39.2965 23.6541C39.7295 23.6541 40.0815 24.0061 40.0815 24.4391V25.5131H10.0495C9.59351 25.5131 9.22451 25.8831 9.22451 26.3381C9.22451 26.7941 9.59351 27.1631 10.0495 27.1631H40.0815V30.9131H35.2765C34.8215 30.9131 34.4515 31.2821 34.4515 31.7371C34.4515 32.1931 34.8215 32.5631 35.2765 32.5631H40.0815V37.2841H35.2765C34.8215 37.2841 34.4515 37.6531 34.4515 38.1091C34.4515 38.5641 34.8215 38.9341 35.2765 38.9341H40.0815V43.6561H35.2765C34.8215 43.6561 34.4515 44.0251 34.4515 44.4811C34.4515 44.9361 34.8215 45.3051 35.2765 45.3051H40.0815V49.0551H34.6555C34.1995 49.0551 33.8305 49.4241 33.8305 49.8801C33.8305 50.3351 34.1995 50.7051 34.6555 50.7051H40.0815V51.7791C40.0815 52.2121 39.7295 52.5641 39.2965 52.5641H2.43451C2.00151 52.5641 1.64951 52.2121 1.64951 51.7791V50.7051H30.8175C31.2735 50.7051 31.6425 50.3351 31.6425 49.8801C31.6425 49.4241 31.2735 49.0551 30.8175 49.0551H1.64951V45.3051H6.45351C6.90951 45.3051 7.27951 44.9361 7.27951 44.4811C7.27951 44.0251 6.90951 43.6561 6.45351 43.6561H1.64951V38.9341H6.45351C6.90951 38.9341 7.27951 38.5641 7.27951 38.1091C7.27951 37.6531 6.90951 37.2841 6.45351 37.2841H1.64951V32.5631H6.45351C6.90951 32.5631 7.27951 32.1931 7.27951 31.7371C7.27951 31.2821 6.90951 30.9131 6.45351 30.9131H1.64951V27.1631H6.21151C6.66751 27.1631 7.03651 26.7941 7.03651 26.3381C7.03651 25.8831 6.66751 25.5131 6.21151 25.5131H1.64951V24.4391C1.64951 24.0061 2.00151 23.6541 2.43451 23.6541H39.2965ZM43.2055 0.00109355C39.6285 -0.0389064 36.2575 1.33509 33.7105 3.85709C31.1635 6.38009 29.7605 9.73809 29.7605 13.3131V22.0051H2.43451C1.09251 22.0051 -0.000488281 23.0971 -0.000488281 24.4391V51.7791C-0.000488281 53.1211 1.09251 54.2131 2.43451 54.2131H39.2965C40.6385 54.2131 41.7305 53.1211 41.7305 51.7791V24.4391C41.7305 23.0971 40.6385 22.0051 39.2965 22.0051H36.5045V13.4381C36.5045 9.81409 39.3945 6.81209 42.9475 6.74509C44.7245 6.71009 46.4025 7.37909 47.6735 8.62609C48.9445 9.87309 49.6445 11.5381 49.6445 13.3141V18.5651C49.6445 19.9801 50.7955 21.1301 52.2105 21.1301H53.8225C55.2375 21.1301 56.3885 19.9801 56.3885 18.5651V13.4731C56.3875 6.11509 50.4745 0.0710936 43.2055 0.00109355Z" fill="white"/>
</svg>
