<?xml version="1.0" encoding="utf-8"?>
<!-- Generator: Adobe Illustrator 23.0.1, SVG Export Plug-In . SVG Version: 6.00 Build 0)  -->
<svg version="1.1" id="Capa_1" xmlns="http://www.w3.org/2000/svg" xmlns:xlink="http://www.w3.org/1999/xlink" x="0px" y="0px"
	 viewBox="0 0 30 30" style="enable-background:new 0 0 30 30;" xml:space="preserve">
<style type="text/css">
	.st0{enable-background:new    ;}
</style>
<title>XLS</title>
<desc>Created with Sketch.</desc>
<g id="Page-1">
	<g id="XLS">
		<g id="Shape">
			<path d="M28,0.3H2c-0.5,0-0.9,0.1-1.2,0.5S0.3,1.5,0.3,2v26c0,0.5,0.1,0.9,0.5,1.2c0.3,0.3,0.8,0.5,1.2,0.5h26
				c0.4,0,0.7-0.1,1-0.3c0.4-0.3,0.7-0.8,0.7-1.4V2c0-0.5-0.1-0.9-0.5-1.2C28.9,0.4,28.5,0.3,28,0.3z M27.2,27.2H2.8V2.8h24.4V27.2z
				"/>
		</g>
		<g class="st0">
			<path d="M7.5,14.2l-2.2-3.7h1.9L8,11.9c0.2,0.4,0.5,1.1,0.5,1.1s0.2-0.7,0.5-1.1l0.8-1.4h1.8l-2.2,3.7l2.7,4.5h-1.9l-1.3-2.2
				c-0.3-0.4-0.6-1.2-0.6-1.2s-0.3,0.7-0.5,1.2l-1.3,2.2H4.8L7.5,14.2z"/>
			<path d="M13.3,10.5H15v6.7h3.7v1.5h-5.4V10.5z"/>
			<path d="M19.3,17.1l1.4-0.8c0.4,0.6,0.8,1,1.7,1c0.7,0,1.1-0.3,1.1-0.8c0-0.6-0.5-0.8-1.2-1.1l-0.4-0.2c-1.2-0.5-2-1.2-2-2.5
				c0-1.3,1-2.2,2.5-2.2c1.1,0,1.8,0.4,2.4,1.3l-1.3,0.8c-0.3-0.5-0.6-0.7-1.1-0.7c-0.5,0-0.8,0.3-0.8,0.7c0,0.5,0.3,0.7,1,1
				l0.4,0.2c1.4,0.6,2.2,1.2,2.2,2.6c0,1.5-1.2,2.3-2.8,2.3C20.8,18.8,19.8,18.1,19.3,17.1z"/>
		</g>
	</g>
</g>
</svg>
