<svg width="35" height="35" viewBox="0 0 35 35" fill="none" xmlns="http://www.w3.org/2000/svg">
<rect width="35" height="35" fill="#333333"/>
<path fill-rule="evenodd" clip-rule="evenodd" d="M33.0225 24.4449C33.0225 29.1748 29.1738 33.0224 24.4439 33.0224H10.5552C5.82744 33.0224 1.97876 29.1748 1.97876 24.4449V10.5551C1.97876 5.8252 5.82744 1.9776 10.5552 1.9776H24.4439C29.1738 1.9776 33.0225 5.8252 33.0225 10.5551V24.4449ZM24.2417 0H10.7605C4.8277 0 0 4.82661 0 10.7594V24.2417C0 30.1723 4.8277 35 10.7605 35H24.2417C30.1734 35 35 30.1723 35 24.2417V10.7594C35 4.82661 30.1734 0 24.2417 0V0Z" fill="white"/>
<path fill-rule="evenodd" clip-rule="evenodd" d="M27.4181 14.4524C27.7181 17.5645 26.4385 21.1101 24.0756 23.7042C22.3814 25.5641 19.3618 27.7873 14.5923 27.8175H14.5792C13.5167 27.8175 12.5327 27.7008 11.576 27.4704L9.95378 27.0801L11.5389 26.561C12.6963 26.1837 13.7687 25.6376 14.7276 24.938L15.8141 24.1465C15.8589 24.1151 15.8774 24.0578 15.861 24.0048C15.8469 23.9551 15.7989 23.9172 15.7432 23.9151L14.397 23.8502C13.3585 23.8004 12.3647 23.3722 11.601 22.6467L10.8865 21.9665L11.8661 21.8357C12.044 21.8119 12.213 21.7784 12.3723 21.734L14.2301 21.215C14.288 21.1988 14.325 21.1469 14.324 21.0885C14.3218 21.029 14.2803 20.9782 14.2214 20.9652L12.3341 20.564C11.0458 20.2894 9.96578 19.4633 9.36687 18.2965L8.98287 17.5482L9.82723 17.6088C9.94396 17.6185 10.0629 17.6239 10.1796 17.6261L11.6076 17.651C11.6578 17.6499 11.7145 17.6153 11.7309 17.5655C11.7505 17.5136 11.733 17.4553 11.6905 17.4217L10.5669 16.5491C9.92105 16.0495 8.74723 14.6092 8.92178 12.7429L9.01341 11.7589L9.72905 12.4477C12.1323 14.7574 15.2981 16.0712 18.6396 16.1415L19.3312 16.1566C19.4043 16.1836 19.4185 16.1306 19.4381 16.1036C19.4632 16.0701 19.4698 16.0258 19.4556 15.9868L19.2352 15.3348C19.209 15.1326 19.1621 14.673 19.161 14.58C19.161 12.5547 20.708 10.4689 23.2978 10.4689C24.4585 10.4689 25.5734 10.9576 26.3545 11.8086L26.5061 11.9719L27.009 12.7212L27.2752 13.4176L27.4181 14.4524ZM27.0167 10.7457L26.8203 10.5759C25.8538 9.74329 24.572 9.26427 23.2978 9.26427C19.9389 9.26427 18.0341 11.907 17.9469 14.393L17.9294 14.912L17.4101 14.846C14.2803 14.4503 11.3741 12.8013 9.43669 10.3186L8.98941 9.74437C8.96214 9.70869 8.93269 9.68922 8.87705 9.69679C8.83559 9.69896 8.79632 9.72383 8.77559 9.76167L8.42323 10.3975C7.48287 12.0973 7.91159 13.9085 8.4385 15.1293L8.88578 16.1674L7.8265 15.7554C7.78178 15.7392 7.73705 15.7435 7.70323 15.7695C7.66505 15.7943 7.64432 15.8365 7.6465 15.8809L7.68905 16.6497C7.73923 17.5612 8.2585 18.6285 9.14869 19.6568L9.44541 20.0007L9.11487 20.311C9.04832 20.3748 9.03523 20.4256 9.05159 20.4711L9.33305 21.3004C9.76614 22.5807 10.6629 23.6566 11.8541 24.3314L12.7138 24.818L11.7952 25.1813C10.0705 25.8658 8.5705 25.9393 8.00432 25.9393C7.86687 25.9393 7.77632 25.9339 7.69996 25.9306L5.91741 25.9014H5.9065C5.83996 25.9014 5.80505 25.9479 5.79087 25.9955C5.7745 26.0507 5.79959 26.109 5.84978 26.1404L7.38578 27.0509C9.55996 28.342 12.0243 29.0254 14.5127 29.0254C19.8123 28.9908 23.121 26.5513 24.9789 24.5119C27.3538 21.9038 28.7687 18.2662 28.6705 15.0212L28.664 14.753L28.892 14.6103C29.7461 14.0686 30.4509 13.2716 30.8752 12.3666L31.4458 11.1522C31.4687 11.1025 31.4578 11.0441 31.4196 11.0063C31.3803 10.9684 31.3225 10.9598 31.2734 10.9825L29.9021 11.6475L30.7836 9.16911C30.801 9.11829 30.7847 9.06314 30.741 9.02854C30.6985 8.99502 30.6407 8.98961 30.5927 9.01989L29.4647 9.70761C29.348 9.77789 28.3509 10.3586 27.2676 10.6732L27.0167 10.7457Z" fill="white"/>
<path d="M27.4181 14.4524L27.9158 14.4045L27.9148 14.3942L27.9134 14.384L27.4181 14.4524ZM24.0756 23.7042L24.4452 24.0409L24.4452 24.0409L24.0756 23.7042ZM14.5923 27.8175V28.3175L14.5955 28.3175L14.5923 27.8175ZM11.576 27.4704L11.693 26.9843L11.6929 26.9843L11.576 27.4704ZM9.95378 27.0801L9.79818 26.6049L8.12236 27.1536L9.8368 27.5662L9.95378 27.0801ZM11.5389 26.561L11.3839 26.0857L11.3833 26.0859L11.5389 26.561ZM14.7276 24.938L14.4332 24.5338L14.4329 24.5341L14.7276 24.938ZM15.8141 24.1465L15.5271 23.737L15.5197 23.7423L15.8141 24.1465ZM15.861 24.0048L15.3801 24.1419L15.3833 24.1523L15.861 24.0048ZM15.7432 23.9151L15.7192 24.4145L15.7238 24.4147L15.7432 23.9151ZM14.397 23.8502L14.4211 23.3508L14.421 23.3507L14.397 23.8502ZM11.601 22.6467L11.2563 23.0088L11.2566 23.0091L11.601 22.6467ZM10.8865 21.9665L10.8203 21.4709L9.78579 21.6091L10.5418 22.3287L10.8865 21.9665ZM11.8661 21.8357L11.9323 22.3313L11.9324 22.3313L11.8661 21.8357ZM12.3723 21.734L12.5064 22.2157L12.5069 22.2156L12.3723 21.734ZM14.2301 21.215L14.3647 21.6966L14.3652 21.6964L14.2301 21.215ZM14.324 21.0885L14.824 21.0791L14.8236 21.0702L14.324 21.0885ZM14.2214 20.9652L14.329 20.4769L14.3254 20.4761L14.2214 20.9652ZM12.3341 20.564L12.2299 21.0531L12.2302 21.0531L12.3341 20.564ZM9.36687 18.2965L8.92202 18.5248L8.92205 18.5249L9.36687 18.2965ZM8.98287 17.5482L9.01863 17.0495L8.13232 16.986L8.53802 17.7765L8.98287 17.5482ZM9.82723 17.6088L9.86878 17.1105L9.863 17.1101L9.82723 17.6088ZM10.1796 17.6261L10.1703 18.126L10.1709 18.126L10.1796 17.6261ZM11.6076 17.651L11.5989 18.1509L11.6086 18.1511L11.6184 18.1509L11.6076 17.651ZM11.7309 17.5655L11.2632 17.3886L11.2593 17.3989L11.2559 17.4093L11.7309 17.5655ZM11.6905 17.4217L11.9999 17.029L11.9972 17.0268L11.6905 17.4217ZM10.5669 16.5491L10.8735 16.1542L10.8728 16.1536L10.5669 16.5491ZM8.92178 12.7429L9.4196 12.7894L9.41962 12.7892L8.92178 12.7429ZM9.01341 11.7589L9.36015 11.3986L8.61187 10.6784L8.51557 11.7125L9.01341 11.7589ZM9.72905 12.4477L9.38231 12.8079L9.38258 12.8082L9.72905 12.4477ZM18.6396 16.1415L18.6505 15.6416L18.6501 15.6416L18.6396 16.1415ZM19.3312 16.1566L19.5047 15.6876L19.426 15.6585L19.3422 15.6567L19.3312 16.1566ZM19.4381 16.1036L19.0378 15.804L19.0336 15.8098L19.4381 16.1036ZM19.4556 15.9868L18.9818 16.147L18.9858 16.158L19.4556 15.9868ZM19.2352 15.3348L18.7394 15.399L18.7457 15.448L18.7616 15.4949L19.2352 15.3348ZM19.161 14.58H18.661L18.6611 14.5859L19.161 14.58ZM26.3545 11.8086L25.9861 12.1467L25.9881 12.1489L26.3545 11.8086ZM26.5061 11.9719L26.9213 11.6933L26.8993 11.6605L26.8725 11.6316L26.5061 11.9719ZM27.009 12.7212L27.4761 12.5427L27.4558 12.4897L27.4242 12.4426L27.009 12.7212ZM27.2752 13.4176L27.7705 13.3492L27.7627 13.2925L27.7423 13.2391L27.2752 13.4176ZM27.0167 10.7457L26.6897 11.1239L26.8948 11.3013L27.1554 11.226L27.0167 10.7457ZM26.8203 10.5759L27.1473 10.1977L27.1467 10.1971L26.8203 10.5759ZM17.9469 14.393L17.4472 14.3754L17.4471 14.3762L17.9469 14.393ZM17.9294 14.912L17.8664 15.408L18.4107 15.4771L18.4291 14.9288L17.9294 14.912ZM17.4101 14.846L17.4731 14.35L17.4729 14.35L17.4101 14.846ZM9.43669 10.3186L9.04224 10.6258L9.04251 10.6262L9.43669 10.3186ZM8.98941 9.74437L8.59214 10.048L8.59497 10.0516L8.98941 9.74437ZM8.87705 9.69679L8.9031 10.1961L8.92386 10.195L8.94445 10.1922L8.87705 9.69679ZM8.77559 9.76167L9.21293 10.004L9.21413 10.0018L8.77559 9.76167ZM8.42323 10.3975L7.9859 10.1551L7.98572 10.1555L8.42323 10.3975ZM8.4385 15.1293L8.89769 14.9315L8.89757 14.9312L8.4385 15.1293ZM8.88578 16.1674L8.70454 16.6334L9.81751 17.0663L9.34497 15.9696L8.88578 16.1674ZM7.8265 15.7554L8.00779 15.2893L7.99696 15.2854L7.8265 15.7554ZM7.70323 15.7695L7.97613 16.1884L7.99231 16.1779L8.00763 16.1661L7.70323 15.7695ZM7.6465 15.8809L7.1471 15.9054L7.14727 15.9085L7.6465 15.8809ZM7.68905 16.6497L8.18829 16.6222L8.18828 16.622L7.68905 16.6497ZM9.14869 19.6568L9.52723 19.3302L9.52672 19.3296L9.14869 19.6568ZM9.44541 20.0007L9.78765 20.3652L10.1372 20.037L9.82396 19.674L9.44541 20.0007ZM9.11487 20.311L8.77261 19.9465L8.76884 19.9501L9.11487 20.311ZM9.05159 20.4711L9.52516 20.3103L9.52199 20.3016L9.05159 20.4711ZM9.33305 21.3004L9.80668 21.1402L9.80653 21.1397L9.33305 21.3004ZM11.8541 24.3314L11.6077 24.7664L11.6078 24.7665L11.8541 24.3314ZM12.7138 24.818L12.8977 25.2829L13.8704 24.8981L12.9601 24.3828L12.7138 24.818ZM11.7952 25.1813L11.6113 24.7163L11.6108 24.7165L11.7952 25.1813ZM7.69996 25.9306L7.72119 25.4309L7.70815 25.4307L7.69996 25.9306ZM5.91741 25.9014L5.9256 25.4014H5.91741V25.9014ZM5.79087 25.9955L5.3117 25.8527L5.31152 25.8533L5.79087 25.9955ZM5.84978 26.1404L5.58474 26.5645L5.59482 26.5705L5.84978 26.1404ZM7.38578 27.0509L7.64107 26.621L7.64073 26.6208L7.38578 27.0509ZM14.5127 29.0254V29.5254L14.5159 29.5254L14.5127 29.0254ZM24.9789 24.5119L25.3485 24.8487L25.3486 24.8486L24.9789 24.5119ZM28.6705 15.0212L28.1706 15.0334L28.1707 15.0363L28.6705 15.0212ZM28.664 14.753L28.3986 14.3292L28.1572 14.4804L28.1641 14.7652L28.664 14.753ZM28.892 14.6103L29.1573 15.0341L29.1598 15.0325L28.892 14.6103ZM30.8752 12.3666L30.4227 12.1539L30.4225 12.1543L30.8752 12.3666ZM31.4458 11.1522L31.8983 11.3649L31.8999 11.3614L31.4458 11.1522ZM31.4196 11.0063L31.7716 10.6511L31.7665 10.6462L31.4196 11.0063ZM31.2734 10.9825L31.0635 10.5286L31.0552 10.5326L31.2734 10.9825ZM29.9021 11.6475L29.431 11.4799L29.022 12.63L30.1203 12.0974L29.9021 11.6475ZM30.7836 9.16911L31.2547 9.33667L31.2565 9.33152L30.7836 9.16911ZM30.741 9.02854L31.0517 8.63676L31.0505 8.63579L30.741 9.02854ZM30.5927 9.01989L30.853 9.44685L30.8594 9.44279L30.5927 9.01989ZM29.4647 9.70761L29.7226 10.136L29.725 10.1345L29.4647 9.70761ZM27.2676 10.6732L27.4063 11.1536L27.4071 11.1534L27.2676 10.6732ZM26.9204 14.5004C27.2052 17.4541 25.9865 20.8638 23.706 23.3675L24.4452 24.0409C26.8905 21.3564 28.2311 17.6749 27.9158 14.4045L26.9204 14.5004ZM23.706 23.3675C22.0799 25.1525 19.1848 27.2884 14.5891 27.3175L14.5955 28.3175C19.5388 28.2861 22.6829 25.9756 24.4452 24.0409L23.706 23.3675ZM14.5923 27.3175H14.5792V28.3175H14.5923V27.3175ZM14.5792 27.3175C13.5545 27.3175 12.6099 27.2051 11.693 26.9843L11.4589 27.9565C12.4555 28.1964 13.4788 28.3175 14.5792 28.3175V27.3175ZM11.6929 26.9843L10.0708 26.5939L9.8368 27.5662L11.459 27.9566L11.6929 26.9843ZM10.1094 27.5552L11.6945 27.0362L11.3833 26.0859L9.79818 26.6049L10.1094 27.5552ZM11.6939 27.0364C12.9001 26.6431 14.0198 26.0733 15.0223 25.3419L14.4329 24.5341C13.5175 25.2019 12.4925 25.7242 11.3839 26.0857L11.6939 27.0364ZM15.022 25.3421L16.1085 24.5506L15.5197 23.7423L14.4332 24.5338L15.022 25.3421ZM16.1012 24.5559C16.3317 24.3942 16.4162 24.108 16.3388 23.8573L15.3833 24.1523C15.3386 24.0076 15.3861 23.8359 15.5271 23.7371L16.1012 24.5559ZM16.3419 23.8677C16.2662 23.6022 16.0259 23.4257 15.7627 23.4154L15.7238 24.4147C15.5718 24.4088 15.4276 24.308 15.3802 24.1419L16.3419 23.8677ZM15.7673 23.4156L14.4211 23.3508L14.373 24.3496L15.7192 24.4145L15.7673 23.4156ZM14.421 23.3507C13.5041 23.3068 12.6235 22.9285 11.9455 22.2842L11.2566 23.0091C12.1058 23.816 13.2129 24.294 14.3731 24.3496L14.421 23.3507ZM11.9458 22.2845L11.2312 21.6044L10.5418 22.3287L11.2563 23.0088L11.9458 22.2845ZM10.9527 22.4621L11.9323 22.3313L11.7999 21.3401L10.8203 21.4709L10.9527 22.4621ZM11.9324 22.3313C12.1299 22.3048 12.322 22.2671 12.5064 22.2157L12.2382 21.2523C12.1041 21.2897 11.958 21.3189 11.7998 21.3401L11.9324 22.3313ZM12.5069 22.2156L14.3647 21.6966L14.0956 20.7334L12.2378 21.2525L12.5069 22.2156ZM14.3652 21.6964C14.6472 21.6173 14.8291 21.3598 14.8239 21.0791L13.824 21.0978C13.821 20.934 13.9287 20.7803 14.0951 20.7336L14.3652 21.6964ZM14.8236 21.0702C14.8132 20.7866 14.6139 20.5397 14.329 20.4769L14.1139 21.4535C13.9468 21.4167 13.8303 21.2714 13.8243 21.1068L14.8236 21.0702ZM14.3254 20.4761L12.4381 20.075L12.2302 21.0531L14.1175 21.4543L14.3254 20.4761ZM12.4384 20.075C11.2965 19.8316 10.3418 19.1009 9.81169 18.0682L8.92205 18.5249C9.58978 19.8257 10.7951 20.7472 12.2299 21.0531L12.4384 20.075ZM9.81171 18.0682L9.42771 17.32L8.53802 17.7765L8.92202 18.5248L9.81171 18.0682ZM8.9471 18.047L9.79146 18.1075L9.863 17.1101L9.01863 17.0495L8.9471 18.047ZM9.78569 18.1071C9.91488 18.1178 10.0447 18.1237 10.1703 18.126L10.1889 17.1262C10.081 17.1242 9.97304 17.1192 9.86877 17.1105L9.78569 18.1071ZM10.1709 18.126L11.5989 18.1509L11.6163 17.151L10.1883 17.1262L10.1709 18.126ZM11.6184 18.1509C11.7482 18.1481 11.8662 18.1046 11.9593 18.0425C12.0525 17.9804 12.1551 17.8759 12.2058 17.7218L11.2559 17.4093C11.2902 17.305 11.3563 17.2427 11.4045 17.2105C11.4527 17.1784 11.5172 17.1528 11.5968 17.1511L11.6184 18.1509ZM12.1985 17.7425C12.2976 17.4807 12.2089 17.1936 11.9999 17.029L11.3811 17.8145C11.2572 17.7169 11.2034 17.5466 11.2632 17.3886L12.1985 17.7425ZM11.9972 17.0268L10.8735 16.1542L10.2602 16.944L11.3838 17.8166L11.9972 17.0268ZM10.8728 16.1536C10.3084 15.7171 9.26646 14.4269 9.4196 12.7894L8.42395 12.6963C8.228 14.7915 9.53366 16.382 10.2609 16.9446L10.8728 16.1536ZM9.41962 12.7892L9.51126 11.8052L8.51557 11.7125L8.42393 12.6965L9.41962 12.7892ZM8.66668 12.1191L9.38231 12.8079L10.0758 12.0874L9.36015 11.3986L8.66668 12.1191ZM9.38258 12.8082C11.8765 15.205 15.1623 16.5684 18.6291 16.6413L18.6501 15.6416C15.434 15.5739 12.3882 14.3098 10.0755 12.0872L9.38258 12.8082ZM18.6287 16.6413L19.3203 16.6565L19.3422 15.6567L18.6505 15.6416L18.6287 16.6413ZM19.1578 16.6255C19.2288 16.6518 19.3276 16.6744 19.4421 16.6591C19.5641 16.6429 19.6625 16.5892 19.734 16.5266C19.7974 16.4712 19.8342 16.4131 19.8471 16.3927C19.877 16.345 19.8497 16.3878 19.8427 16.3975L19.0336 15.8098C19.0182 15.831 19.0068 15.8497 19.0031 15.8559C18.9957 15.8682 18.9998 15.8615 18.9998 15.8615C19.0021 15.8578 19.0272 15.8163 19.0755 15.7741C19.1318 15.7248 19.2117 15.681 19.3099 15.6679C19.4006 15.6558 19.4702 15.6749 19.5047 15.6876L19.1578 16.6255ZM19.8384 16.4032C19.9641 16.2354 19.9977 16.0141 19.9254 15.8157L18.9858 16.158C18.9419 16.0374 18.9624 15.9048 19.0379 15.804L19.8384 16.4032ZM19.9293 15.8267L19.7089 15.1747L18.7616 15.4949L18.9819 16.1469L19.9293 15.8267ZM19.7311 15.2706C19.7189 15.1764 19.7012 15.0164 19.6863 14.8668C19.6789 14.7925 19.6723 14.7229 19.6677 14.6671C19.6653 14.6391 19.6636 14.6159 19.6624 14.598C19.6611 14.5779 19.661 14.5716 19.661 14.5742L18.6611 14.5859C18.6626 14.713 18.7138 15.2015 18.7394 15.399L19.7311 15.2706ZM19.661 14.58C19.661 12.7893 21.0239 10.9689 23.2978 10.9689V9.96886C20.392 9.96886 18.661 12.3202 18.661 14.58H19.661ZM23.2978 10.9689C24.3192 10.9689 25.3002 11.3994 25.9861 12.1467L26.7229 11.4705C25.8466 10.5158 24.5978 9.96886 23.2978 9.96886V10.9689ZM25.9881 12.1489L26.1398 12.3121L26.8725 11.6316L26.7209 11.4684L25.9881 12.1489ZM26.091 12.2505L26.5939 12.9999L27.4242 12.4426L26.9213 11.6933L26.091 12.2505ZM26.542 12.8998L26.8082 13.5961L27.7423 13.2391L27.4761 12.5427L26.542 12.8998ZM26.7799 13.486L26.9228 14.5208L27.9134 14.384L27.7705 13.3492L26.7799 13.486ZM27.3437 10.3674L27.1473 10.1977L26.4933 10.9541L26.6897 11.1239L27.3437 10.3674ZM27.1467 10.1971C26.09 9.28686 24.6926 8.76427 23.2978 8.76427V9.76427C24.4513 9.76427 25.6175 10.1997 26.494 10.9547L27.1467 10.1971ZM23.2978 8.76427C19.6228 8.76427 17.5422 11.6696 17.4472 14.3754L18.4466 14.4105C18.5261 12.1444 20.2549 9.76427 23.2978 9.76427V8.76427ZM17.4471 14.3762L17.4297 14.8952L18.4291 14.9288L18.4466 14.4098L17.4471 14.3762ZM17.9924 14.416L17.4731 14.35L17.3471 15.342L17.8664 15.408L17.9924 14.416ZM17.4729 14.35C14.4736 13.9707 11.6868 12.3892 9.83086 10.0109L9.04251 10.6262C11.0615 13.2133 14.087 14.9298 17.3474 15.3421L17.4729 14.35ZM9.83113 10.0113L9.38386 9.43711L8.59497 10.0516L9.04224 10.6258L9.83113 10.0113ZM9.38667 9.44075C9.34919 9.39172 9.27686 9.30872 9.15756 9.25233C9.03212 9.19303 8.90857 9.1879 8.80965 9.20136L8.94445 10.1922C8.90117 10.1981 8.82016 10.1989 8.73018 10.1564C8.64633 10.1168 8.60236 10.0613 8.59215 10.048L9.38667 9.44075ZM8.851 9.19747C8.63128 9.20894 8.43855 9.33617 8.33706 9.5215L9.21413 10.0018C9.15409 10.1115 9.03991 10.189 8.9031 10.1961L8.851 9.19747ZM8.33826 9.51931L7.9859 10.1551L8.86056 10.6399L9.21293 10.004L8.33826 9.51931ZM7.98572 10.1555C6.93353 12.0574 7.42951 14.0533 7.97944 15.3275L8.89757 14.9312C8.39368 13.7637 8.0322 12.1372 8.86074 10.6395L7.98572 10.1555ZM7.97931 15.3272L8.42659 16.3653L9.34497 15.9696L8.89769 14.9315L7.97931 15.3272ZM9.06702 15.7014L8.00774 15.2894L7.64526 16.2214L8.70454 16.6334L9.06702 15.7014ZM7.99696 15.2854C7.82475 15.2229 7.59369 15.2233 7.39883 15.3728L8.00763 16.1661C7.88041 16.2638 7.7388 16.2555 7.65605 16.2255L7.99696 15.2854ZM7.43033 15.3505C7.23998 15.4745 7.13637 15.6873 7.14711 15.9054L8.1459 15.8563C8.15227 15.9857 8.09012 16.1142 7.97613 16.1884L7.43033 15.3505ZM7.14727 15.9085L7.18981 16.6773L8.18828 16.622L8.14574 15.8532L7.14727 15.9085ZM7.1898 16.6772C7.24844 17.7423 7.84237 18.9117 8.77065 19.9841L9.52672 19.3296C8.67464 18.3453 8.23002 17.3802 8.18829 16.6222L7.1898 16.6772ZM8.77014 19.9835L9.06687 20.3273L9.82396 19.674L9.52723 19.3302L8.77014 19.9835ZM9.10318 19.6362L8.77263 19.9465L9.4571 20.6755L9.78765 20.3652L9.10318 19.6362ZM8.76884 19.9501C8.70377 20.0125 8.62698 20.1035 8.58202 20.2277C8.53186 20.3662 8.53432 20.5105 8.5812 20.6405L9.52199 20.3016C9.5525 20.3862 9.55333 20.4824 9.52226 20.5682C9.5089 20.6051 9.49269 20.6315 9.48132 20.6474C9.4701 20.6631 9.46175 20.6711 9.46089 20.6719L8.76884 19.9501ZM8.57812 20.6317L8.85957 21.4611L9.80653 21.1397L9.52507 20.3104L8.57812 20.6317ZM8.85941 21.4606C9.33263 22.8595 10.3115 24.0323 11.6077 24.7664L12.1006 23.8963C11.0142 23.281 10.1996 22.3019 9.80668 21.1402L8.85941 21.4606ZM11.6078 24.7665L12.4675 25.2531L12.9601 24.3828L12.1004 23.8962L11.6078 24.7665ZM12.5299 24.353L11.6113 24.7163L11.9791 25.6462L12.8977 25.2829L12.5299 24.353ZM11.6108 24.7165C9.96379 25.3702 8.53168 25.4393 8.00432 25.4393V26.4393C8.60932 26.4393 10.1772 26.3613 11.9797 25.646L11.6108 24.7165ZM8.00432 25.4393C7.88028 25.4393 7.80326 25.4346 7.72118 25.4311L7.67874 26.4302C7.74938 26.4332 7.85346 26.4393 8.00432 26.4393V25.4393ZM7.70815 25.4307L5.9256 25.4015L5.90922 26.4014L7.69177 26.4306L7.70815 25.4307ZM5.91741 25.4014H5.9065V26.4014H5.91741V25.4014ZM5.9065 25.4014C5.53387 25.4014 5.36089 25.6877 5.3117 25.8527L6.27003 26.1383C6.25932 26.1743 6.23338 26.2372 6.17029 26.2961C6.09775 26.3638 6.00159 26.4014 5.9065 26.4014V25.4014ZM5.31152 25.8533C5.22423 26.1475 5.36569 26.4275 5.58481 26.5644L6.11474 25.7164C6.2335 25.7906 6.32477 25.9539 6.27021 26.1377L5.31152 25.8533ZM5.59482 26.5705L7.13082 27.481L7.64073 26.6208L6.10473 25.7103L5.59482 26.5705ZM7.13048 27.4808C9.38049 28.8169 11.9328 29.5254 14.5127 29.5254V28.5254C12.1158 28.5254 9.73943 27.867 7.64107 26.621L7.13048 27.4808ZM14.5159 29.5254C19.9883 29.4896 23.4216 26.9638 25.3485 24.8487L24.6092 24.1752C22.8205 26.1388 19.6364 28.4919 14.5094 28.5254L14.5159 29.5254ZM25.3486 24.8486C27.8025 22.1536 29.2727 18.3926 29.1703 15.0061L28.1707 15.0363C28.2646 18.1399 26.905 21.654 24.6092 24.1753L25.3486 24.8486ZM29.1704 15.009L29.1638 14.7408L28.1641 14.7652L28.1707 15.0334L29.1704 15.009ZM28.9293 15.1768L29.1573 15.0341L28.6266 14.1865L28.3986 14.3292L28.9293 15.1768ZM29.1598 15.0325C30.0932 14.4405 30.8626 13.5712 31.3279 12.5788L30.4225 12.1543C30.0391 12.972 29.3991 13.6966 28.6242 14.1881L29.1598 15.0325ZM31.3278 12.5792L31.8983 11.3649L30.9932 10.9396L30.4227 12.1539L31.3278 12.5792ZM31.8999 11.3614C32.0109 11.1205 31.9588 10.8367 31.7716 10.6512L31.0676 11.3614C30.9568 11.2515 30.9265 11.0845 30.9916 10.9431L31.8999 11.3614ZM31.7665 10.6462C31.5735 10.4602 31.2931 10.4225 31.0635 10.5287L31.4833 11.4363C31.352 11.4971 31.1872 11.4767 31.0726 11.3663L31.7665 10.6462ZM31.0552 10.5326L29.684 11.1976L30.1203 12.0974L31.4916 11.4324L31.0552 10.5326ZM30.3732 11.815L31.2547 9.33666L30.3125 9.00156L29.431 11.4799L30.3732 11.815ZM31.2565 9.33152C31.3448 9.07442 31.2565 8.79917 31.0517 8.63676L30.4304 9.42031C30.3128 9.32711 30.2573 9.16215 30.3107 9.0067L31.2565 9.33152ZM31.0505 8.63579C30.8519 8.47931 30.5638 8.44696 30.3259 8.59699L30.8594 9.44279C30.7176 9.53226 30.5451 9.51073 30.4316 9.42128L31.0505 8.63579ZM30.3324 8.59298L29.2044 9.28069L29.725 10.1345L30.853 9.4468L30.3324 8.59298ZM29.2068 9.27926C29.1017 9.34255 28.1487 9.89663 27.1281 10.1931L27.4071 11.1534C28.5531 10.8205 29.5942 10.2132 29.7226 10.1359L29.2068 9.27926ZM27.1289 10.1928L26.878 10.2653L27.1554 11.226L27.4063 11.1536L27.1289 10.1928Z" fill="white"/>
</svg>
