<?xml version="1.0" encoding="UTF-8" standalone="no"?>
<!DOCTYPE svg PUBLIC "-//W3C//DTD SVG 1.1//EN" "http://www.w3.org/Graphics/SVG/1.1/DTD/svg11.dtd">
<svg width="100%" height="100%" viewBox="0 0 36 36" version="1.1" xmlns="http://www.w3.org/2000/svg" xmlns:xlink="http://www.w3.org/1999/xlink" xml:space="preserve" xmlns:serif="http://www.serif.com/" style="fill-rule:evenodd;clip-rule:evenodd;stroke-linejoin:round;stroke-miterlimit:1.41421;"><g><path d="M33.305,27.827l-0.021,0.337c-0.167,2.79 -2.703,5.192 -5.538,5.245l-3.614,0.106c-1.727,0.032 -3.982,0.05 -6.228,0.05c-2.245,0 -4.48,-0.017 -6.172,-0.05l-3.765,-0.106c-2.871,-0.055 -5.325,-2.405 -5.463,-5.238l-0.017,-0.331c-0.166,-3.368 -0.166,-16.112 0,-19.483l0.016,-0.321c0.14,-2.835 2.593,-5.172 5.466,-5.213l3.741,-0.082c1.658,-0.026 3.832,-0.038 6.125,-0.038c2.297,0 4.589,0.013 6.286,0.039l3.636,0.079c2.876,0.041 5.356,2.383 5.527,5.22l0.021,0.332c0.201,3.363 0.201,16.09 0,19.454Zm2.125,-19.909c-0.235,-3.92 -3.663,-7.156 -7.643,-7.216l-3.637,-0.081c-1.799,-0.026 -4.111,-0.038 -6.383,-0.038c-2.244,0 -4.45,0.012 -6.089,0.038l-3.741,0.083c-3.989,0.058 -7.389,3.301 -7.582,7.229l-0.017,0.324c-0.165,3.405 -0.165,16.282 0,19.686l0.017,0.331c0.193,3.922 3.589,7.177 7.571,7.254l3.767,0.106c1.668,0.033 3.873,0.05 6.205,0.05c2.355,0 4.583,-0.017 6.275,-0.05l3.613,-0.106c3.984,-0.074 7.409,-3.322 7.644,-7.24l0.02,-0.336c0.203,-3.405 0.203,-16.296 0,-19.703l-0.02,-0.331Z" style="fill:#655459;"/><path d="M15.149,21.544l0,-6.729l6.468,3.365l-6.468,3.364Zm9.274,-4.301l-0.001,-0.001l-9.846,-5.12c-0.158,-0.082 -0.33,-0.122 -0.503,-0.122c-0.193,0 -0.385,0.051 -0.554,0.151c-0.319,0.193 -0.519,0.541 -0.519,0.909l0,10.24c0,0.367 0.2,0.717 0.521,0.91c0.313,0.185 0.727,0.197 1.054,0.027l9.847,-5.119c0.354,-0.184 0.572,-0.543 0.572,-0.936c0,-0.398 -0.218,-0.756 -0.571,-0.939Z" style="fill:#655459;"/></g></svg>