<svg width="41" height="53" viewBox="0 0 41 53" fill="none" xmlns="http://www.w3.org/2000/svg">
<path fill-rule="evenodd" clip-rule="evenodd" d="M8.811 51.102H38.767V1.762H8.811V51.102ZM1.762 51.102H7.048V1.762H1.762V51.102ZM8.811 0H1.292C0.578 0 0 0.578 0 1.292V51.572C0 52.286 0.578 52.864 1.292 52.864H8.811H39.237C39.951 52.864 40.529 52.286 40.529 51.572V1.292C40.529 0.578 39.951 0 39.237 0H8.811Z" fill="white"/>
<path fill-rule="evenodd" clip-rule="evenodd" d="M13.6341 19.384H33.8101V10.573H13.6341V19.384ZM35.5731 20.211V9.74604C35.5731 9.22904 35.1541 8.81104 34.6381 8.81104H12.8071C12.2911 8.81104 11.8721 9.22904 11.8721 9.74604V20.211C11.8721 20.727 12.2911 21.146 12.8071 21.146H34.6381C35.1541 21.146 35.5731 20.727 35.5731 20.211Z" fill="white"/>
<path fill-rule="evenodd" clip-rule="evenodd" d="M16.3376 14.4627V13.7387H17.6656C17.8816 13.7387 17.9966 13.9257 17.9966 14.0617C17.9966 14.4627 17.7476 14.4627 17.6656 14.4627H16.3376ZM17.8996 16.5787H16.3376V15.6567H17.8996C18.2106 15.6567 18.3496 15.8877 18.3496 16.1177C18.3496 16.3477 18.2106 16.5787 17.8996 16.5787ZM18.9836 14.9017C19.1696 14.6707 19.2606 14.3937 19.2606 14.0617C19.2606 13.3307 18.7616 12.5447 17.6656 12.5447H15.6766C15.3306 12.5447 15.0796 12.7987 15.0796 13.1487V17.1687C15.0796 17.5137 15.3366 17.7727 15.6766 17.7727H17.8996C18.7846 17.7727 19.6786 17.2647 19.6786 16.1287C19.6786 15.5847 19.4336 15.1567 18.9836 14.9017Z" fill="white"/>
<path fill-rule="evenodd" clip-rule="evenodd" d="M23.5548 13.6179C24.3098 13.6179 25.0738 14.1379 25.0738 15.1299C25.0738 16.1229 24.3098 16.6429 23.5548 16.6429C22.8138 16.6429 22.0638 16.1229 22.0638 15.1299C22.0638 14.1379 22.8138 13.6179 23.5548 13.6179ZM25.4748 13.1039C24.9888 12.6649 24.3368 12.4039 23.6328 12.3679C22.2238 12.3679 20.7988 13.3169 20.7988 15.1299C20.7988 15.9249 21.0718 16.6059 21.5888 17.1009C22.0868 17.5779 22.7818 17.8469 23.5108 17.8469C23.5528 17.8469 23.5948 17.8459 23.6358 17.8439C24.9758 17.8419 26.3318 16.9099 26.3318 15.1299C26.3318 14.3099 26.0348 13.6089 25.4748 13.1039Z" fill="white"/>
<path fill-rule="evenodd" clip-rule="evenodd" d="M30.5098 15.6447H29.3638L29.9608 14.4447L30.5098 15.6447ZM32.5498 16.8537L30.5568 12.8887C30.4498 12.6547 30.2388 12.5107 29.9908 12.5057C29.7388 12.5007 29.5028 12.6447 29.3818 12.8817L27.3478 16.8567C27.1588 17.2537 27.3598 17.5927 27.6428 17.7517L27.6658 17.7647L27.6918 17.7697C27.7628 17.7837 27.8308 17.7907 27.8958 17.7907C28.1758 17.7907 28.3948 17.6657 28.5018 17.4397L28.7608 16.9097H31.1678L31.4308 17.4367C31.5258 17.6427 31.7028 17.7697 31.9158 17.7847C32.1508 17.8027 32.3968 17.6797 32.5278 17.4787C32.6518 17.2907 32.6588 17.0617 32.5498 16.8537Z" fill="white"/>
</svg>
