<svg width="44" height="44" viewBox="0 0 44 44" fill="none" xmlns="http://www.w3.org/2000/svg">
<path fill-rule="evenodd" clip-rule="evenodd" d="M33.2696 8.95107C33.0453 8.95107 32.8267 8.86018 32.6681 8.70222C32.5101 8.54425 32.4199 8.32569 32.4199 8.10209C32.4199 7.87848 32.5101 7.6592 32.6681 7.50123C32.8267 7.34327 33.0453 7.25238 33.2696 7.25238C33.4932 7.25238 33.7118 7.34327 33.8698 7.50123C34.0277 7.6592 34.1186 7.87848 34.1186 8.10209C34.1186 8.32569 34.0277 8.54425 33.8698 8.70222C33.7118 8.86018 33.4932 8.95107 33.2696 8.95107Z" fill="#F05442"/>
<path fill-rule="evenodd" clip-rule="evenodd" d="M41.7916 41.7917H34.9961V23.6139C34.9961 23.1451 34.616 22.7642 34.1464 22.7642H22.5946V14.8363L28.311 17.8846C28.5742 18.0252 28.8916 18.0166 29.1477 17.8636C29.403 17.71 29.5596 17.433 29.5596 17.1351V14.8363L35.276 17.8846C35.5392 18.0252 35.8566 18.0166 36.1127 17.8636C36.3687 17.71 36.5253 17.433 36.5253 17.1351V14.8363L41.7916 17.6444V41.7917ZM21.7449 41.7917H7.8149V27.861H15.4594C15.9289 27.861 16.3091 27.4809 16.3091 27.012C16.3091 26.5425 15.9289 26.1623 15.4594 26.1623H7.8149V24.4636H33.2974V41.7917H21.7449ZM1.6989 41.7917H6.11621V40.093H1.6989V41.7917ZM1.6989 15.9695H6.11621V14.2708H1.6989V15.9695ZM1.6989 38.3943H6.11621V17.6682H1.6989V38.3943ZM43.0401 16.3857L36.0752 12.6716C35.8119 12.531 35.4945 12.5389 35.2392 12.6926C34.9831 12.8462 34.8266 13.1225 34.8266 13.4211V15.7199L29.1102 12.6716C28.8469 12.531 28.5295 12.5389 28.2735 12.6926C28.0174 12.8462 27.8616 13.1225 27.8616 13.4211V15.7199L22.1445 12.6716C21.8812 12.531 21.5645 12.5389 21.3085 12.6926C21.0524 12.8462 20.8959 13.1225 20.8959 13.4211V22.7642H7.8149V13.4211C7.8149 12.9515 7.43477 12.5714 6.9652 12.5714H5.7469V11.369C5.7469 11.1655 5.91208 11.0004 6.11621 11.0004C6.58507 11.0004 6.9652 10.6195 6.9652 10.1507C6.9652 9.68109 6.58507 9.30096 6.11621 9.30096C4.97582 9.30096 4.04821 10.2286 4.04821 11.369V12.5714H2.54861V8.57604C2.54861 6.95814 3.86428 5.64174 5.48218 5.64174H6.85339C6.80218 5.87473 6.77405 6.11348 6.77405 6.35368C6.77405 8.14325 8.23038 9.59814 10.0192 9.59814H13.2262C13.6958 9.59814 14.0759 9.21801 14.0759 8.74915C14.0759 8.2803 13.6958 7.89945 13.2262 7.89945H10.0192C9.16664 7.89945 8.47346 7.20627 8.47346 6.35368C8.47346 5.92305 8.6509 5.50181 8.96107 5.19742C9.25969 4.90456 9.64631 4.74948 10.0502 4.75525C10.2753 4.75958 10.4902 4.81079 10.6908 4.90745C10.905 5.0106 11.1524 5.01997 11.3731 4.93197C11.5939 4.84469 11.7677 4.66869 11.8535 4.44725C12.4854 2.80338 14.0932 1.69905 15.8546 1.69905C17.632 1.69905 19.216 2.8142 19.8471 4.42994C19.5881 4.57276 19.3422 4.74155 19.1193 4.9363C18.7457 5.26017 18.4355 5.64391 18.1967 6.07597C17.9702 6.4864 18.1188 7.00358 18.5293 7.23007C18.6598 7.3022 18.8005 7.3361 18.9397 7.3361C19.239 7.3361 19.529 7.17814 19.6841 6.89755C19.8262 6.64076 20.0116 6.4121 20.2337 6.21807C20.5013 5.98581 20.8201 5.81125 21.1584 5.71099C21.3878 5.64246 21.6266 5.60712 21.8689 5.60712C23.2445 5.60712 24.364 6.7266 24.364 8.10142C24.364 8.57099 24.7441 8.95112 25.2137 8.95112H29.8466C30.3162 8.95112 30.6963 8.57099 30.6963 8.10142C30.6963 7.63256 30.3162 7.25243 29.8466 7.25243H25.9768C25.5822 5.34601 23.8908 3.90843 21.8689 3.90843C21.7369 3.90843 21.6049 3.91492 21.4744 3.92719C20.6225 1.60889 18.3785 0.000366211 15.8546 0.000366211C13.6655 0.000366211 11.6465 1.22155 10.6071 3.1085C10.4354 3.07748 10.2609 3.06017 10.0834 3.05656C9.23805 3.03997 8.43739 3.35519 7.81634 3.94305H5.48218C2.92802 3.94305 0.849197 6.02115 0.849197 8.57604V12.5714C0.380345 12.5714 0.000213623 12.9515 0.000213623 13.4211V42.6407C0.000213623 43.1103 0.380345 43.4904 0.849197 43.4904H42.6413C43.1101 43.4904 43.4902 43.1103 43.4902 42.6407V17.1351C43.4902 16.8214 43.3179 16.5335 43.0401 16.3857Z" fill="#F05442"/>
<mask id="mask0" mask-type="alpha" maskUnits="userSpaceOnUse" x="0" y="-1" width="44" height="45">
<path fill-rule="evenodd" clip-rule="evenodd" d="M0 43.4904H43.4908V-0.000305176H0V43.4904Z" fill="white"/>
</mask>
<g mask="url(#mask0)">
<path fill-rule="evenodd" clip-rule="evenodd" d="M11.2128 34.3168H13.5909V31.9387H11.2128V34.3168ZM14.4399 30.2393H10.3631C9.89422 30.2393 9.51337 30.6194 9.51337 31.089V35.1658C9.51337 35.6354 9.89422 36.0155 10.3631 36.0155H14.4399C14.9095 36.0155 15.2896 35.6354 15.2896 35.1658V31.089C15.2896 30.6194 14.9095 30.2393 14.4399 30.2393Z" fill="#F05442"/>
<path fill-rule="evenodd" clip-rule="evenodd" d="M19.3672 34.3168H21.7454V31.9387H19.3672V34.3168ZM22.5944 30.2393H18.5175C18.0479 30.2393 17.6678 30.6194 17.6678 31.089V35.1658C17.6678 35.6354 18.0479 36.0155 18.5175 36.0155H22.5944C23.0639 36.0155 23.4441 35.6354 23.4441 35.1658V31.089C23.4441 30.6194 23.0639 30.2393 22.5944 30.2393Z" fill="#F05442"/>
<path fill-rule="evenodd" clip-rule="evenodd" d="M27.5216 34.3168H29.8998V31.9387H27.5216V34.3168ZM30.7495 30.2393H26.6719C26.2024 30.2393 25.8222 30.6194 25.8222 31.089V35.1658C25.8222 35.6354 26.2024 36.0155 26.6719 36.0155H30.7495C31.2184 36.0155 31.5985 35.6354 31.5985 35.1658V31.089C31.5985 30.6194 31.2184 30.2393 30.7495 30.2393Z" fill="#F05442"/>
<path fill-rule="evenodd" clip-rule="evenodd" d="M18.6169 27.861C18.8405 27.861 19.0591 27.7702 19.217 27.6122C19.3757 27.4542 19.4666 27.2349 19.4666 27.0121C19.4666 26.7885 19.3757 26.5692 19.217 26.4112C19.0591 26.2532 18.8405 26.1624 18.6169 26.1624C18.3926 26.1624 18.174 26.2532 18.0161 26.4112C17.8574 26.5692 17.7672 26.7885 17.7672 27.0121C17.7672 27.2349 17.8574 27.4542 18.0161 27.6122C18.174 27.7702 18.3933 27.861 18.6169 27.861Z" fill="#F05442"/>
</g>
</svg>
