<svg width="35" height="38" viewBox="0 0 35 38" fill="none" xmlns="http://www.w3.org/2000/svg">
<path d="M11.0924 15.6125C10.6736 16.033 10.6736 16.7073 11.0924 17.1278L16.7493 22.8079C16.9547 23.0142 17.2312 23.1253 17.4998 23.1253C17.7684 23.1253 18.045 23.0221 18.2504 22.8079L23.9073 17.1278C24.326 16.7073 24.326 16.033 23.9073 15.6125C23.4885 15.1921 22.817 15.1921 22.3982 15.6125L18.5664 19.4601V1.07098C18.5664 0.475992 18.0924 0 17.4998 0C16.9073 0 16.4332 0.475992 16.4332 1.07098V19.4601L12.6014 15.6125C12.1827 15.1921 11.5032 15.1921 11.0924 15.6125Z" fill="#F05442"/>
<path fill-rule="evenodd" clip-rule="evenodd" d="M31.2232 10.8998L34.9365 24.3862C34.9681 24.4734 34.976 24.5686 34.976 24.6718V30.2726C34.976 34.5327 31.5234 37.9995 27.2808 37.9995H7.7187C3.47603 37.9995 0.0234375 34.5327 0.0234375 30.2726V24.648C0.0234375 24.5528 0.0392389 24.4576 0.0629409 24.3624L3.77626 10.876C3.85527 10.5666 4.07649 10.3206 4.36091 10.1858L4.46362 10.1382C4.60583 10.0747 4.75594 10.043 4.90606 10.043H11.6058C12.1984 10.043 12.6724 10.519 12.6724 11.114C12.6724 11.7089 12.1984 12.1849 11.6058 12.1849H5.63292L2.48055 23.6167H10.4523C11.0449 23.6167 11.5189 24.0927 11.5189 24.6876V25.6555C11.5189 27.0755 12.6645 28.2258 14.0787 28.2258H20.5889C22.0031 28.2258 23.1487 27.0755 23.1487 25.6555V24.6876C23.1487 24.0927 23.6228 23.6167 24.2153 23.6167H32.511L29.3745 12.2087H23.4015C22.809 12.2087 22.3349 11.7327 22.3349 11.1377C22.3349 10.5428 22.809 10.0668 23.4015 10.0668H30.0934C30.2435 10.0668 30.3936 10.0985 30.5359 10.162L30.6386 10.2096C30.923 10.3444 31.1363 10.5904 31.2232 10.8998ZM27.2808 35.8576C30.3462 35.8576 32.8428 33.3507 32.8428 30.2726H32.8587V25.7586H25.2977C25.2424 28.3052 23.1566 30.3599 20.6047 30.3599H14.0945C11.5426 30.3599 9.45685 28.3052 9.40154 25.7586H2.15662V30.2726C2.15662 33.3507 4.65323 35.8576 7.7187 35.8576H27.2808Z" fill="#F05442"/>
</svg>
