<?xml version="1.0" encoding="utf-8"?>
<!-- Generator: Adobe Illustrator 23.0.1, SVG Export Plug-In . SVG Version: 6.00 Build 0)  -->
<svg version="1.1" id="Capa_1" xmlns="http://www.w3.org/2000/svg" xmlns:xlink="http://www.w3.org/1999/xlink" x="0px" y="0px"
	 viewBox="0 0 30 30" style="enable-background:new 0 0 30 30;" xml:space="preserve">
<style type="text/css">
	.st0{enable-background:new    ;}
</style>
<title>ZIP</title>
<desc>Created with Sketch.</desc>
<g id="Page-1">
	<g id="ZIP">
		<g id="Shape">
			<path d="M28,0.3H2c-0.5,0-0.9,0.1-1.2,0.5S0.3,1.5,0.3,2v26c0,0.5,0.1,0.9,0.5,1.2c0.3,0.3,0.8,0.5,1.2,0.5h26
				c0.4,0,0.7-0.1,1-0.3c0.4-0.3,0.7-0.8,0.7-1.4V2c0-0.5-0.1-0.9-0.5-1.2C28.9,0.4,28.5,0.3,28,0.3z M27.2,27.2H2.8V2.8h24.4V27.2z
				"/>
		</g>
		<g class="st0">
			<path d="M6.4,18.6l3.7-6.5H7.1v-1.5h5.7v0.1L9,17.2h3.5v1.5H6.4V18.6z"/>
			<path d="M14.1,10.5h1.7v8.2h-1.7V10.5z"/>
			<path d="M17.5,10.5h2.3c2.3,0,3.6,1.2,3.6,3.2s-1.4,3.1-3.6,3.1h-0.6v1.9h-1.7V10.5z M19.7,15.4c1.4,0,2-0.6,2-1.7
				c0-1.1-0.6-1.7-2-1.7h-0.5v3.3H19.7z"/>
		</g>
	</g>
</g>
</svg>
