<svg width="40" height="40" viewBox="0 0 40 40" fill="none" xmlns="http://www.w3.org/2000/svg">
<path fill-rule="evenodd" clip-rule="evenodd" d="M25.9941 19.3622L24.3474 21.0105C24.2724 21.0855 24.1707 21.1288 24.0641 21.1288C23.9574 21.1288 23.8574 21.0855 23.7824 21.0105L21.2224 18.4488C20.8007 18.0272 20.0607 18.0272 19.6391 18.4488L18.7991 19.2888C18.6991 19.3888 18.5524 19.4288 18.4174 19.3938C18.2807 19.3588 18.1741 19.2572 18.1324 19.1205L15.8207 11.4155C15.7791 11.2755 15.8191 11.1238 15.9207 11.0188C16.0257 10.9172 16.1807 10.8755 16.3191 10.9205L24.0224 13.2305C24.1574 13.2705 24.2624 13.3788 24.2957 13.5155C24.3307 13.6522 24.2924 13.7972 24.1924 13.8972L23.2907 14.7972C23.1174 14.9688 23.0241 15.2005 23.0241 15.4455C23.0241 15.6938 23.1174 15.9238 23.2907 16.0938L25.9941 18.7955C26.1507 18.9522 26.1507 19.2055 25.9941 19.3622ZM25.0874 15.7288C24.9307 15.5738 24.9307 15.3188 25.0874 15.1622L26.6507 13.5988C26.8407 13.4105 26.9174 13.1305 26.8524 12.8705C26.7874 12.6122 26.5857 12.4038 26.3291 12.3255L14.6891 8.83384C14.4157 8.75551 14.1274 8.82718 13.9291 9.02551C13.7291 9.22551 13.6557 9.51551 13.7374 9.78551L17.2274 21.4272C17.3057 21.6855 17.5141 21.8855 17.7724 21.9505C18.0324 22.0138 18.3141 21.9388 18.5024 21.7505L20.1474 20.1005C20.2224 20.0255 20.3257 19.9838 20.4307 19.9838C20.5374 19.9838 20.6391 20.0255 20.7141 20.1005L23.5257 22.9138C23.8074 23.2005 24.3207 23.1988 24.6041 22.9155L27.8974 19.6188C28.0424 19.4755 28.1207 19.2838 28.1207 19.0805C28.1207 18.8755 28.0424 18.6838 27.8974 18.5405L25.0874 15.7288Z" fill="#FF533F"/>
<path fill-rule="evenodd" clip-rule="evenodd" d="M38.4533 25.78H1.43167V2.865C1.43167 2.075 2.075 1.43333 2.865 1.43333H37.0217C37.81 1.43333 38.4533 2.075 38.4533 2.865V25.78ZM37.0217 0H2.865C1.285 0 0 1.28667 0 2.865V26.4967C0 26.8917 0.32 27.2117 0.715 27.2117H39.17C39.565 27.2117 39.885 26.8917 39.885 26.4967V2.865C39.885 1.28667 38.6017 0 37.0217 0Z" fill="#FF533F"/>
<path fill-rule="evenodd" clip-rule="evenodd" d="M38.4533 30.0769C38.4533 30.8669 37.81 31.5086 37.0217 31.5086H2.865C2.075 31.5086 1.43167 30.8669 1.43167 30.0769V27.2119H38.455V30.0769H38.4533ZM39.17 25.7803H0.715C0.32 25.7803 0 26.1003 0 26.4969V30.0753C0 31.6553 1.285 32.9419 2.865 32.9419H37.0217C38.6017 32.9419 39.885 31.6553 39.885 30.0753V26.4969C39.885 26.1003 39.565 25.7803 39.17 25.7803Z" fill="#FF533F"/>
<path fill-rule="evenodd" clip-rule="evenodd" d="M22.091 28.6439H17.7943C17.401 28.6439 17.0776 28.9639 17.0776 29.3605C17.0776 29.7555 17.401 30.0755 17.7943 30.0755H22.091C22.486 30.0755 22.8076 29.7555 22.8076 29.3605C22.8076 28.9639 22.486 28.6439 22.091 28.6439Z" fill="#FF533F"/>
<mask id="mask0" mask-type="alpha" maskUnits="userSpaceOnUse" x="0" y="-1" width="40" height="41">
<path fill-rule="evenodd" clip-rule="evenodd" d="M0 39.994H39.8867V-0.000976562H0V39.994Z" fill="white"/>
</mask>
<g mask="url(#mask0)">
<path fill-rule="evenodd" clip-rule="evenodd" d="M4.2969 25.7793H35.5902V4.29592H4.2969V25.7793ZM36.3069 2.86426H3.58023C3.18523 2.86426 2.86523 3.18592 2.86523 3.58092V26.4959C2.86523 26.8909 3.18523 27.2126 3.58023 27.2126H36.3069C36.7002 27.2126 37.0236 26.8909 37.0236 26.4959V3.58092C37.0236 3.18592 36.7002 2.86426 36.3069 2.86426Z" fill="#FF533F"/>
<path fill-rule="evenodd" clip-rule="evenodd" d="M29.2525 38.5616H10.6342C10.2392 38.5616 9.91751 38.2416 9.91751 37.8449C9.91751 37.4516 10.2392 37.1316 10.6342 37.1316H29.2525C29.6475 37.1316 29.9692 37.4516 29.9692 37.8449C29.9692 38.2416 29.6475 38.5616 29.2525 38.5616ZM29.2525 35.6982H10.6342C9.44917 35.6982 8.48584 36.6616 8.48584 37.8449C8.48584 39.0299 9.44917 39.9932 10.6342 39.9932H29.2525C30.4375 39.9932 31.4008 39.0299 31.4008 37.8449C31.4008 36.6616 30.4375 35.6982 29.2525 35.6982Z" fill="#FF533F"/>
<path fill-rule="evenodd" clip-rule="evenodd" d="M15.5549 35.6978C16.5299 35.6978 16.9549 34.8061 17.0599 32.9411H22.8282C22.9316 34.8061 23.2199 35.6978 24.3332 35.6978H15.5549ZM27.8199 35.6978C25.4449 35.6978 24.2399 35.5511 24.2399 32.2245C24.2399 31.8295 23.9199 31.5078 23.5232 31.5078H16.3616C15.9682 31.5078 15.6482 31.8295 15.6482 32.2245C15.6482 35.5511 14.4416 35.6978 12.0666 35.6978C11.6716 35.6978 11.3516 36.0178 11.3516 36.4145C11.3516 36.8078 11.6716 37.1278 12.0666 37.1278H27.8199C28.2166 37.1278 28.5366 36.8078 28.5366 36.4145C28.5366 36.0178 28.2166 35.6978 27.8199 35.6978Z" fill="#FF533F"/>
</g>
</svg>
