<svg width="36" height="36" viewBox="0 0 36 36" fill="none" xmlns="http://www.w3.org/2000/svg">
<mask id="mask0" mask-type="alpha" maskUnits="userSpaceOnUse" x="0" y="0" width="36" height="36">
<path fill-rule="evenodd" clip-rule="evenodd" d="M0 35.0999H35.3885V0H0V35.0999Z" fill="#fff"/>
</mask>
<g mask="url(#mask0)">
<path fill-rule="evenodd" clip-rule="evenodd" d="M33.0905 27.2438L33.0698 27.5801C32.9029 30.371 30.3665 32.7726 27.5324 32.8256L23.9182 32.9316C22.1913 32.964 19.9364 32.9813 17.6902 32.9813C15.4451 32.9813 13.2098 32.964 11.5178 32.9316L7.75309 32.8256C4.88182 32.7704 2.42836 30.4207 2.28982 27.5877L2.27345 27.2568C2.10655 23.8885 2.10655 11.1441 2.27345 7.7736L2.28873 7.45245C2.42945 4.61723 4.88182 2.2805 7.75527 2.23941L11.496 2.15723C13.1542 2.13128 15.3284 2.11938 17.6215 2.11938C19.9178 2.11938 22.2098 2.13236 23.9073 2.15831L27.5433 2.23725C30.4189 2.27834 32.8985 4.62048 33.0698 7.45786L33.0905 7.78982C33.2924 11.1527 33.2924 23.8798 33.0905 27.2438V27.2438ZM35.2156 7.33458C34.9811 3.4148 31.5535 0.178418 27.5727 0.118945L23.9356 0.0378462C22.1367 0.0118945 19.8251 0 17.5527 0C15.3087 0 13.1029 0.0118945 11.4644 0.0378462L7.72255 0.120026C3.73418 0.178418 0.333818 3.42129 0.140727 7.34972L0.124364 7.67304C-0.0414545 11.0781 -0.0414545 23.9555 0.124364 27.3595L0.140727 27.6904C0.333818 31.6124 3.72982 34.8671 7.71164 34.945L11.4785 35.0509C13.1465 35.0834 15.3524 35.1007 17.6836 35.1007C20.0389 35.1007 22.2665 35.0834 23.9585 35.0509L27.5716 34.945C31.5556 34.8704 34.9811 31.6221 35.2156 27.7045L35.2364 27.3682C35.4393 23.9631 35.4393 11.0727 35.2364 7.66547L35.2156 7.33458Z" fill="#fff"/>
</g>
<g clip-path="url(#clip0)">
<path d="M14.1461 24.0608C14.1461 25.5115 12.9941 26.6875 11.573 26.6875C10.152 26.6875 9 25.5115 9 24.0608C9 22.6102 10.152 21.4342 11.5731 21.4342C12.9942 21.4342 14.1461 22.6102 14.1461 24.0608V24.0608ZM21.2039 25.9988C20.8682 19.6578 15.8929 14.5724 9.67464 14.2294C9.30761 14.2091 9 14.5102 9 14.8854V16.857C9 17.2021 9.26076 17.4916 9.59814 17.514C14.0914 17.8127 17.693 21.4803 17.9863 26.0769C18.0083 26.4213 18.2918 26.6875 18.6299 26.6875H20.5612C20.9288 26.6875 21.2237 26.3735 21.2039 25.9988ZM26.9996 26.0106C26.6623 16.4204 19.1035 8.65889 9.66307 8.31293C9.30025 8.29964 9 8.59885 9 8.96942V10.941C9 11.2947 9.27462 11.5827 9.62088 11.5972C17.3022 11.9187 23.4675 18.2136 23.7824 26.0537C23.7966 26.4072 24.0787 26.6876 24.4252 26.6876H26.3565C26.7195 26.6875 27.0126 26.381 26.9996 26.0106V26.0106Z" fill="#fff"/>
</g>
<defs>
<clipPath id="clip0">
<rect width="18" height="21" fill="#fff" transform="translate(9 7)"/>
</clipPath>
</defs>
</svg>
