<svg width="34" height="35" viewBox="0 0 34 35" fill="none" xmlns="http://www.w3.org/2000/svg">
<mask id="mask0" mask-type="alpha" maskUnits="userSpaceOnUse" x="0" y="0" width="34" height="35">
<path fill-rule="evenodd" clip-rule="evenodd" d="M0 0.636719H33.7179V34.715H0V0.636719Z" fill="white"/>
</mask>
<g mask="url(#mask0)">
<path fill-rule="evenodd" clip-rule="evenodd" d="M16.859 28.9498C16.2942 28.9498 15.8346 29.4137 15.8346 29.9852V32.5892C8.44018 32.0699 2.61737 26.1848 2.10359 18.7114H4.67941C5.24481 18.7114 5.70444 18.2468 5.70444 17.6754C5.70444 17.1045 5.24481 16.64 4.67941 16.64H2.10359C2.61737 9.16654 8.44018 3.28145 15.8346 2.76281V5.36617C15.8346 5.93763 16.2942 6.40154 16.859 6.40154C17.4237 6.40154 17.8834 5.93763 17.8834 5.36617V2.76281C25.2777 3.28145 31.1006 9.1659 31.615 16.64H29.0385C28.4731 16.64 28.0141 17.1045 28.0141 17.6754C28.0141 18.2468 28.4731 18.7114 29.0454 18.7114H31.6213C31.1075 26.188 25.2815 32.0731 17.8834 32.5892V29.9852C17.8834 29.4137 17.4237 28.9498 16.859 28.9498ZM16.8596 0.636719H16.859C7.56248 0.636719 0 8.28072 0 17.6754C0 27.0713 7.56248 34.7153 16.859 34.7153C26.1554 34.7153 33.7179 27.0713 33.7179 17.6747C33.7066 8.29217 26.1435 0.648173 16.8596 0.636719Z" fill="#FF533F"/>
</g>
<path fill-rule="evenodd" clip-rule="evenodd" d="M23.8401 25.8842C24.0988 25.8842 24.3583 25.7862 24.5572 25.5896C24.9602 25.1899 24.9677 24.5326 24.5723 24.124L17.8838 17.2513V10.1438C17.8838 9.57231 17.4248 9.1084 16.8594 9.1084C16.2946 9.1084 15.835 9.57231 15.835 10.1438V17.677C15.8356 17.95 15.9414 18.2078 16.1315 18.4006L23.1072 25.5737C23.308 25.7805 23.5737 25.8842 23.8401 25.8842Z" fill="#FF533F"/>
</svg>
